<svg width="22" height="22" viewBox="0 0 22 22" fill="none" xmlns="http://www.w3.org/2000/svg">
<path d="M16.2284 1.33633C11.2638 6.2998 6.30077 11.2618 1.33625 16.2253C-0.684383 12.7042 -0.709255 7.05609 3.3364 3.11662C7.28841 -0.729222 12.8119 -0.631211 16.2284 1.33633ZM13.1308 13.1255C13.8068 12.4496 14.4813 11.7753 15.1573 11.0994C16.1479 10.1091 17.1341 9.11725 18.1246 8.1269C18.9733 7.27845 19.8219 6.42999 20.6735 5.58446C20.7247 5.53326 20.7276 5.49815 20.6925 5.43671C20.293 4.74186 19.8234 4.09966 19.2864 3.50428C18.4948 2.62803 17.5862 1.89807 16.562 1.31C16.5005 1.27489 16.4669 1.28513 16.4215 1.33048C15.5509 2.20088 14.6789 3.06981 13.8083 3.94021C12.4256 5.32261 11.0458 6.70793 9.66459 8.09179C8.26434 9.49175 6.86409 10.8888 5.46384 12.2887C4.08847 13.6638 2.71309 15.0389 1.33625 16.4125C1.28211 16.4666 1.27772 16.5032 1.31723 16.569C1.73716 17.3078 2.24049 17.9895 2.8199 18.6097C3.5866 19.4318 4.45572 20.1252 5.43165 20.6826C5.50481 20.7235 5.54139 20.7133 5.59699 20.6577C6.06667 20.1852 6.53634 19.7156 7.00748 19.2446C9.0486 17.2068 11.0897 15.1662 13.1308 13.1255ZM18.944 3.37847C13.7556 8.56576 8.57015 13.7501 3.38176 18.9374C3.27641 18.8321 3.17252 18.7282 3.06425 18.62C8.24971 13.4356 13.4352 8.25124 18.6265 3.06103C18.7362 3.17075 18.8372 3.27169 18.944 3.37847ZM2.05174 17.4204C1.9698 17.3005 1.88786 17.1864 1.81617 17.0679C1.80593 17.0518 1.83958 16.9947 1.86445 16.9699C2.22878 16.6027 2.59457 16.237 2.96037 15.8713C4.07969 14.7522 5.19901 13.6331 6.31833 12.514C7.70541 11.1272 9.0925 9.74043 10.4796 8.35365C11.8564 6.9771 13.2347 5.59909 14.6116 4.22254C15.39 3.4443 16.1684 2.66899 16.9424 1.88636C17.0243 1.80444 17.0785 1.79713 17.1633 1.86734C17.2423 1.93171 17.3301 1.9873 17.4208 2.05166C12.2983 7.17605 7.1816 12.2917 2.05174 17.4204ZM20.1848 4.92325C20.1965 4.94373 20.1731 4.99932 20.1496 5.02272C19.8395 5.33577 19.5263 5.64883 19.2147 5.96041C16.5034 8.67108 13.7922 11.3818 11.0809 14.0924C9.06908 16.1039 7.05869 18.1138 5.0483 20.1267C4.981 20.194 4.93564 20.2042 4.85955 20.1428C4.77615 20.074 4.68105 20.017 4.58302 19.9482C9.70849 14.8239 14.8237 9.70971 19.9536 4.58094C20.037 4.70236 20.116 4.81061 20.1848 4.92325ZM15.8055 5.26702C15.7104 5.35625 15.5802 5.35772 15.4895 5.2758C15.4002 5.19241 15.3841 5.05344 15.469 4.95982C15.5875 4.82963 15.7104 4.70675 15.8406 4.58826C15.9343 4.50341 16.0703 4.52243 16.1537 4.61751C16.2342 4.70675 16.2327 4.83109 16.1464 4.92325C16.0894 4.98323 16.0294 5.04028 15.9708 5.09879C15.9167 5.15584 15.8626 5.21289 15.8055 5.26702ZM17.0799 5.85948C17.1765 5.76878 17.3038 5.76732 17.3945 5.85509C17.4823 5.93993 17.4955 6.0789 17.4091 6.17106C17.295 6.29394 17.175 6.4139 17.0507 6.52946C16.9585 6.61577 16.8151 6.60407 16.7317 6.51776C16.6468 6.42999 16.6468 6.29541 16.7346 6.20179C16.7917 6.14181 16.8517 6.08476 16.9102 6.02624C16.9658 5.97065 17.0214 5.91214 17.0799 5.85948ZM12.5426 8.52919C12.4475 8.61842 12.3173 8.62281 12.2266 8.53796C12.1359 8.45312 12.1198 8.31707 12.2061 8.22199C12.3232 8.09326 12.4475 7.96891 12.5778 7.85042C12.6714 7.76558 12.8075 7.78459 12.8923 7.87822C12.9728 7.96745 12.9714 8.09179 12.8836 8.18542C12.8265 8.24539 12.7665 8.30244 12.708 8.36096C12.6538 8.41801 12.5997 8.47506 12.5426 8.52919ZM6.01546 15.055C5.92035 15.1442 5.79159 15.1471 5.69941 15.0638C5.60577 14.976 5.59407 14.8385 5.68478 14.7419C5.79891 14.6191 5.91889 14.4991 6.04179 14.385C6.1369 14.2987 6.27005 14.3089 6.35637 14.3982C6.4427 14.4874 6.44416 14.6176 6.35491 14.7127C6.29785 14.7727 6.23786 14.8297 6.17933 14.8882C6.12666 14.9438 6.07252 15.0009 6.01546 15.055ZM13.8156 9.12311C13.9122 9.03241 14.0409 9.03241 14.1316 9.11726C14.2194 9.2021 14.2326 9.34107 14.1477 9.4347C14.0336 9.55758 13.9136 9.67753 13.7893 9.79309C13.6927 9.88087 13.5478 9.8677 13.4644 9.77554C13.384 9.68631 13.3884 9.55611 13.4805 9.46103C13.5347 9.40397 13.5932 9.34839 13.6488 9.2928C13.7029 9.23282 13.7571 9.17577 13.8156 9.12311ZM9.27978 11.7914C9.18468 11.8806 9.05445 11.885 8.9652 11.8016C8.87448 11.7167 8.85839 11.5807 8.94325 11.4871C9.06031 11.3583 9.18468 11.234 9.3149 11.1155C9.40854 11.0307 9.54461 11.0497 9.62801 11.1418C9.70849 11.2311 9.70703 11.3554 9.62216 11.449C9.56656 11.5105 9.50511 11.5661 9.44658 11.6246C9.39098 11.6802 9.33684 11.7372 9.27978 11.7914ZM11.6208 11.961C11.5243 12.0488 11.3794 12.0444 11.296 11.9552C11.2068 11.8601 11.2082 11.7299 11.3048 11.6334C11.4145 11.5207 11.5272 11.4081 11.6399 11.2984C11.7335 11.2077 11.8623 11.2077 11.9544 11.294C12.0437 11.3803 12.051 11.5222 11.9647 11.6173C11.9091 11.6787 11.8476 11.7343 11.7906 11.7914C11.7335 11.8484 11.6794 11.9084 11.6208 11.961ZM3.8368 17.2332C3.74316 17.3209 3.61147 17.3209 3.52222 17.2346C3.43736 17.1527 3.42126 17.0137 3.5032 16.926C3.62318 16.7972 3.74609 16.6714 3.87484 16.5544C3.96263 16.4754 4.10017 16.49 4.18211 16.5778C4.26697 16.6656 4.2699 16.7943 4.1865 16.8836C4.12944 16.9465 4.06506 17.005 4.0036 17.0664C3.948 17.122 3.89386 17.1791 3.8368 17.2332ZM12.7314 10.2071C12.8236 10.1208 12.9596 10.1222 13.046 10.2085C13.1279 10.2905 13.1411 10.4324 13.0606 10.5187C12.9435 10.6445 12.8221 10.7659 12.6963 10.8829C12.607 10.9663 12.4651 10.9531 12.3802 10.8624C12.2939 10.7703 12.2954 10.6459 12.3861 10.5494C12.4402 10.4923 12.4973 10.4382 12.5543 10.3812C12.6129 10.3226 12.6699 10.2627 12.7314 10.2071ZM10.5396 13.0421C10.4386 13.1372 10.2967 13.1357 10.2074 13.0436C10.1196 12.9529 10.1211 12.8197 10.2177 12.7203C10.3289 12.6062 10.4401 12.495 10.5542 12.3838C10.6478 12.2931 10.7795 12.2931 10.8702 12.378C10.9566 12.4584 10.9653 12.6018 10.8849 12.6969C10.8293 12.7612 10.7649 12.8197 10.7034 12.8812C10.6464 12.9353 10.5966 12.9909 10.5396 13.0421ZM7.09527 13.9725C7.00456 14.0573 6.88019 14.0559 6.78801 13.9725C6.69876 13.892 6.6812 13.7545 6.76167 13.6653C6.88165 13.5336 7.00895 13.4063 7.14063 13.2864C7.22842 13.2074 7.36889 13.2279 7.4479 13.3156C7.52837 13.4049 7.52983 13.5322 7.44497 13.6228C7.38791 13.6828 7.32792 13.7399 7.26939 13.7984C7.21379 13.8569 7.15673 13.9169 7.09527 13.9725ZM11.4467 9.62194C11.356 9.70679 11.2287 9.70532 11.1409 9.62048C11.0487 9.53417 11.0356 9.39812 11.1204 9.3045C11.2375 9.17869 11.3589 9.05728 11.4848 8.94025C11.5726 8.85833 11.7101 8.87003 11.795 8.95488C11.8828 9.04265 11.8842 9.17869 11.7979 9.27085C11.7408 9.33083 11.6808 9.38788 11.6223 9.4464C11.5652 9.50637 11.5082 9.56635 11.4467 9.62194ZM7.28987 15.6474C7.38498 15.5582 7.5152 15.5597 7.60445 15.646C7.69224 15.7308 7.70249 15.8698 7.61762 15.9634C7.5035 16.0863 7.38352 16.2063 7.26061 16.3204C7.16551 16.4067 7.02212 16.392 6.93579 16.2999C6.85678 16.215 6.86117 16.0848 6.94749 15.9927C7.00456 15.9327 7.06455 15.8756 7.12307 15.8171C7.17721 15.7572 7.23135 15.7001 7.28987 15.6474ZM4.92393 16.1463C4.83029 16.234 4.70739 16.234 4.61813 16.1507C4.52449 16.0658 4.50693 15.9283 4.59326 15.8361C4.70885 15.7089 4.83322 15.5875 4.95905 15.4704C5.04538 15.39 5.1873 15.4031 5.26924 15.4851C5.35557 15.5743 5.35703 15.7074 5.26924 15.801C5.21218 15.861 5.15219 15.9181 5.09366 15.9766C5.0366 16.0336 4.98246 16.0907 4.92393 16.1463ZM16.8868 4.18304C16.7961 4.26789 16.6673 4.26496 16.5781 4.18158C16.4903 4.09966 16.4742 3.96069 16.5546 3.87438C16.6732 3.74419 16.7975 3.61985 16.9278 3.50135C17.0155 3.42236 17.1604 3.43845 17.2365 3.5233C17.317 3.61253 17.3199 3.74126 17.235 3.83196C17.1794 3.8934 17.118 3.94899 17.0594 4.0075C17.0053 4.06748 16.9482 4.12746 16.8868 4.18304ZM10.3596 10.7088C10.2674 10.7951 10.146 10.7937 10.0538 10.7074C9.96308 10.6225 9.94406 10.4923 10.026 10.4016C10.146 10.27 10.2733 10.1427 10.405 10.0228C10.4927 9.94377 10.6317 9.96279 10.7122 10.052C10.7942 10.1427 10.7956 10.2671 10.7093 10.3592C10.6522 10.4192 10.5922 10.4762 10.5337 10.5348C10.4767 10.5947 10.4211 10.6533 10.3596 10.7088ZM14.7096 6.35977C14.6218 6.44169 14.4974 6.44023 14.4096 6.36416C14.3189 6.28224 14.2926 6.14766 14.3716 6.05989C14.493 5.92384 14.6218 5.79511 14.7579 5.67369C14.8457 5.5947 14.9891 5.61518 15.0651 5.70295C15.1456 5.79511 15.1456 5.92092 15.0608 6.01161C15.0037 6.07159 14.9437 6.12864 14.8852 6.18716C14.8281 6.24421 14.771 6.30418 14.7096 6.35977ZM15.9723 7.61051C15.8743 7.69975 15.7382 7.69536 15.6489 7.6032C15.5582 7.50958 15.5582 7.38085 15.6548 7.28137C15.7645 7.16873 15.8772 7.05609 15.9899 6.94638C16.082 6.85714 16.2152 6.85568 16.3059 6.94053C16.3966 7.02537 16.401 7.1702 16.3161 7.26674C16.2605 7.32818 16.1991 7.38377 16.142 7.44082C16.085 7.49787 16.0323 7.55639 15.9723 7.61051ZM8.18241 12.8856C8.09169 12.9704 7.96293 12.9675 7.87514 12.8826C7.78735 12.7978 7.77126 12.6647 7.85173 12.5754C7.97025 12.4452 8.09462 12.3209 8.22484 12.2024C8.31263 12.1234 8.45894 12.141 8.53503 12.2258C8.6155 12.3151 8.61697 12.4452 8.53357 12.5345C8.47797 12.5959 8.41651 12.6515 8.35799 12.71C8.30092 12.77 8.24386 12.83 8.18241 12.8856ZM8.37554 14.562C8.47065 14.4728 8.60087 14.4713 8.69159 14.5562C8.77499 14.6366 8.79108 14.7814 8.71207 14.8663C8.59356 14.9965 8.46919 15.1208 8.33896 15.2393C8.25117 15.3183 8.10925 15.2993 8.02877 15.213C7.94684 15.1223 7.94537 14.9979 8.0317 14.9058C8.08876 14.8458 8.14875 14.7887 8.20728 14.7302C8.26142 14.6732 8.31848 14.6161 8.37554 14.562ZM5.09659 18.4839C5.00002 18.5717 4.85809 18.5702 4.7703 18.4795C4.68105 18.3874 4.68251 18.2542 4.77762 18.1562C4.88589 18.0451 4.99563 17.9353 5.10683 17.8271C5.20633 17.7305 5.33655 17.7291 5.42873 17.8212C5.51944 17.909 5.52237 18.0494 5.43312 18.1475C5.38044 18.206 5.32045 18.2601 5.26485 18.3157C5.20779 18.3727 5.15512 18.4313 5.09659 18.4839ZM13.6225 7.44667C13.5332 7.53006 13.4015 7.52713 13.3152 7.44375C13.2303 7.36183 13.2142 7.22286 13.2932 7.13509C13.4118 7.00489 13.5361 6.88055 13.6664 6.76206C13.7541 6.68306 13.8975 6.70062 13.9751 6.78693C14.0556 6.87616 14.0585 7.00489 13.9736 7.09559C13.918 7.15703 13.8566 7.21262 13.798 7.27113C13.741 7.33111 13.6839 7.39109 13.6225 7.44667ZM9.46414 13.4736C9.55632 13.3873 9.69386 13.3873 9.78165 13.4722C9.86212 13.5497 9.87383 13.6989 9.79774 13.7838C9.68069 13.9096 9.56071 14.0324 9.43341 14.148C9.3427 14.2299 9.20077 14.2138 9.11737 14.1217C9.03543 14.031 9.03689 13.9066 9.12322 13.8145C9.18029 13.7545 9.24028 13.6975 9.2988 13.6389C9.35148 13.5834 9.40561 13.5263 9.46414 13.4736ZM6.19835 16.7387C6.292 16.651 6.42368 16.648 6.5144 16.7329C6.59926 16.8119 6.61243 16.9625 6.52903 17.0518C6.4149 17.1747 6.29492 17.2946 6.17202 17.4087C6.08276 17.4921 5.94083 17.4789 5.85597 17.3882C5.77257 17.299 5.77111 17.1747 5.85597 17.081C5.91303 17.0211 5.97302 16.964 6.03155 16.9055C6.08423 16.8499 6.14129 16.7929 6.19835 16.7387ZM18.1524 5.43086C18.0559 5.51863 17.9154 5.51863 17.8276 5.42793C17.7354 5.33577 17.7354 5.20412 17.8305 5.10611C17.9417 4.992 18.0529 4.88083 18.1671 4.76965C18.2592 4.68042 18.3953 4.68188 18.4831 4.76672C18.5665 4.84718 18.5724 4.99347 18.4963 5.08709C18.4919 5.09148 18.486 5.09733 18.4816 5.10172C18.426 5.15731 18.369 5.21436 18.3134 5.26995C18.2607 5.32261 18.2095 5.37966 18.1524 5.43086ZM14.8954 8.68718C14.7959 8.7808 14.6511 8.77934 14.5618 8.6901C14.4726 8.59794 14.474 8.46482 14.5691 8.36681C14.6774 8.25563 14.7871 8.14592 14.8969 8.03913C14.992 7.94697 15.1339 7.94551 15.2202 8.03182C15.308 8.11959 15.3095 8.26441 15.2217 8.35803C15.169 8.41655 15.1105 8.46921 15.0534 8.52626C15.0037 8.58185 14.9496 8.63598 14.8954 8.68718ZM2.46435 17.9617C2.57702 17.849 2.67944 17.7349 2.79503 17.634C2.8916 17.5521 3.02621 17.5784 3.10814 17.675C3.17984 17.7613 3.17691 17.8871 3.09205 17.9748C2.98816 18.0846 2.87843 18.1884 2.76137 18.3055C2.65895 18.1855 2.56531 18.0772 2.46435 17.9617ZM3.69926 19.2431C3.82656 19.1159 3.94215 18.9857 4.07383 18.8745C4.15431 18.8057 4.28746 18.8423 4.35915 18.9286C4.42938 19.0135 4.42938 19.1422 4.34891 19.2314C4.2538 19.3353 4.15138 19.4318 4.04164 19.5416C3.92605 19.4377 3.81778 19.3441 3.69926 19.2431ZM18.3075 2.75969C18.1817 2.88549 18.0676 3.00837 17.9432 3.12101C17.8642 3.19123 17.7325 3.1649 17.6535 3.08298C17.5745 2.99813 17.5657 2.8694 17.6462 2.78309C17.7442 2.6763 17.8481 2.57829 17.9578 2.46858C18.0763 2.56659 18.1875 2.66021 18.3075 2.75969ZM19.538 4.04554C19.4268 4.15671 19.3288 4.2635 19.222 4.35859C19.1298 4.44197 18.9894 4.42442 18.906 4.33226C18.824 4.24448 18.8255 4.11722 18.9118 4.02506C19.0157 3.91534 19.1254 3.81148 19.2439 3.69299C19.3464 3.81587 19.44 3.92997 19.538 4.04554ZM19.3859 18.1153C21.2368 15.9546 22.0854 13.418 21.9932 10.5757C21.9391 8.87442 21.4914 7.27406 20.6793 5.76585C15.7031 10.741 10.74 15.703 5.77696 20.665C9.40561 22.7569 15.4353 22.7291 19.3859 18.1153Z" fill="#F2C029"/>
</svg>
