<svg width="29" height="31" viewBox="0 0 29 31" fill="none" xmlns="http://www.w3.org/2000/svg">
<path d="M5.88135 16.4432L13.0299 20.5705L7.14849 30.7574L4.91307 26.3748L-6.7234e-05 26.6301L5.88135 16.4432Z" fill="#553878"/>
<path d="M22.3502 16.4432L15.2017 20.5705L21.0831 30.7574L23.3185 26.3748L28.2316 26.6301L22.3502 16.4432Z" fill="#553878"/>
<circle cx="14.1159" cy="12.3664" r="12.3664" fill="#E9B07C"/>
<circle cx="14.1159" cy="12.3664" r="8.71681" fill="#BF7C3E" stroke="white" stroke-width="0.30162"/>
<g filter="url(#filter0_d_426_3433)">
<path d="M13.9966 17.1923C13.3754 17.1923 12.8059 17.0394 12.2883 16.7338C11.7706 16.4281 11.3565 16.0164 11.0459 15.4987C10.7353 14.9811 10.58 14.4067 10.58 13.7756H12.7985C12.7985 13.9926 12.8528 14.1922 12.9612 14.3747C13.0697 14.5571 13.2152 14.7025 13.3976 14.811C13.58 14.9194 13.7797 14.9737 13.9966 14.9737C14.2135 14.9737 14.4132 14.9194 14.5956 14.811C14.778 14.7025 14.9235 14.5571 15.0319 14.3747C15.1404 14.1922 15.1946 13.9926 15.1946 13.7756C15.1946 13.4749 15.1108 13.2259 14.9432 13.0287C14.7756 12.8266 14.5389 12.6762 14.2332 12.5776C13.9325 12.479 13.5775 12.4297 13.1683 12.4297V10.7436C13.7106 10.7436 14.1371 10.6523 14.4477 10.4699C14.7583 10.2826 14.9136 10.004 14.9136 9.63426C14.9136 9.45677 14.8692 9.29407 14.7805 9.14617C14.6967 8.99826 14.5808 8.87994 14.4329 8.79119C14.2899 8.70245 14.1297 8.65808 13.9522 8.65808C13.7698 8.65808 13.5898 8.70245 13.4124 8.79119C13.2349 8.87994 13.087 8.99826 12.9686 9.14617C12.8552 9.29407 12.7985 9.45677 12.7985 9.63426H10.58C10.58 9.19547 10.6687 8.7838 10.8462 8.39924C11.0286 8.00975 11.2751 7.66957 11.5857 7.37868C11.9012 7.08287 12.2587 6.85362 12.658 6.69092C13.0623 6.52329 13.4838 6.43948 13.9226 6.43948C14.4995 6.43948 15.0319 6.58245 15.52 6.86841C16.0081 7.15436 16.3976 7.53892 16.6885 8.02208C16.9843 8.50524 17.1322 9.04263 17.1322 9.63426C17.1322 9.97937 17.0583 10.3368 16.9103 10.7066C16.7624 11.0763 16.5406 11.3401 16.2448 11.4979C16.5011 11.5965 16.7156 11.7715 16.8882 12.0229C17.0607 12.2695 17.1914 12.5505 17.2801 12.866C17.3689 13.1766 17.4132 13.4798 17.4132 13.7756C17.4132 14.4018 17.2579 14.9737 16.9473 15.4914C16.6417 16.009 16.23 16.4232 15.7123 16.7338C15.1946 17.0394 14.6227 17.1923 13.9966 17.1923Z" fill="white"/>
</g>
<defs>
<filter id="filter0_d_426_3433" x="10.58" y="6.43945" width="6.83325" height="11.7528" filterUnits="userSpaceOnUse" color-interpolation-filters="sRGB">
<feFlood flood-opacity="0" result="BackgroundImageFix"/>
<feColorMatrix in="SourceAlpha" type="matrix" values="0 0 0 0 0 0 0 0 0 0 0 0 0 0 0 0 0 0 127 0" result="hardAlpha"/>
<feOffset dy="1"/>
<feComposite in2="hardAlpha" operator="out"/>
<feColorMatrix type="matrix" values="0 0 0 0 0 0 0 0 0 0 0 0 0 0 0 0 0 0 0.42 0"/>
<feBlend mode="normal" in2="BackgroundImageFix" result="effect1_dropShadow_426_3433"/>
<feBlend mode="normal" in="SourceGraphic" in2="effect1_dropShadow_426_3433" result="shape"/>
</filter>
</defs>
</svg>
