<svg width="46" height="48" viewBox="0 0 46 48" fill="none" xmlns="http://www.w3.org/2000/svg">
<g opacity="0.5">
<path d="M20.9659 39.8231C25.58 40.9441 30.2536 41.3422 32.0136 41.4011C12.2553 29.3371 4.75981 14.1346 2.3218 8.01185C-0.116213 1.88915 -0.0751653 -3.84851 3.67259 3.7528C6.6708 9.83384 12.227 16.6499 16.6691 21.556C21.1111 26.4621 31.5797 34.0618 34.398 35.5909C32.0452 31.4344 32.4555 28.2011 33.7857 26.8108C35.116 25.4206 37.1801 26.9245 38.9395 30.759C40.699 34.5936 44.1501 42.034 45.2058 44.3347C46.2615 46.6355 43.986 46.9369 39.9052 47.0268C35.8245 47.1167 26.3233 44.4577 22.6828 42.6746C19.0423 40.8914 15.1983 38.4218 20.9659 39.8231Z" fill="white"/>
<path d="M8.22042 7.75624C9.3934 10.3126 13.1779 16.6667 18.9319 21.6317C26.1245 27.8381 11.1113 11.6287 8.22042 7.75624Z" fill="white"/>
</g>
</svg>
