<svg width="84" height="58" viewBox="0 0 84 58" fill="none" xmlns="http://www.w3.org/2000/svg">
<path opacity="0.5" fill-rule="evenodd" clip-rule="evenodd" d="M5.38172 15.5283C2.70195 12.0841 1.66699 4.38397 1.48448 0.964398C-3.38638 24.3604 21.0123 28.3725 27.2527 29.3987C27.3977 29.4225 27.533 29.4447 27.6578 29.4656C31.9308 34.6214 38.0475 38.3054 47.6115 42.4827C53.0376 44.8527 61.8189 48.1959 68.3389 50.6781C71.0124 51.696 73.3057 52.5691 74.8315 53.1709C74.5459 53.2793 74.1858 53.4038 73.7813 53.5437C72.5925 53.9547 71.021 54.4981 69.8356 55.1528C67.8497 56.2496 67.5787 58.9262 71.967 57.604C74.0124 56.9876 75.7919 56.3983 77.443 55.8515L77.4439 55.8512C79.0375 55.3234 80.5116 54.8352 81.9899 54.4006C84.6107 53.63 84.7256 53.0192 80.5357 49.8908C76.3457 46.7625 71.2428 43.0369 69.7222 43.0993C68.2016 43.1616 70.7079 45.4705 74.5333 48.9946C48.4101 40.2921 37.6279 34.2608 34.5524 30.4522C46.0502 32.2655 56.3785 30.3189 56.3234 25.8787C56.2683 21.4384 46.8778 18.3964 37.5009 18.7808C28.124 19.1653 25.756 23.324 26.0229 26.7402C14.4939 24.1666 8.73142 19.8334 5.38172 15.5283ZM32.3243 22.5471C29.8357 23.7661 30.926 26.6238 31.7822 27.9003C44.0196 29.1755 48.7133 29.11 51.1436 26.4718C52.2373 25.2846 50.9982 22.9238 45.2284 21.5103C39.4587 20.0968 35.435 21.0233 32.3243 22.5471ZM42.9787 22.3641C46.2837 22.4825 49.0159 23.4874 49.6823 24.8817C50.3487 26.2759 48.6706 27.0386 47.8803 27.3672C48.5353 26.8326 48.8005 25.0447 47.1064 23.9718C46.0931 23.3301 45.4196 23.1335 44.5828 22.8892C44.1246 22.7554 43.6175 22.6074 42.9787 22.3641Z" fill="white"/>
</svg>
