<svg width="83" height="83" viewBox="0 0 83 83" fill="none" xmlns="http://www.w3.org/2000/svg">
<path d="M18.675 22.825C15.7485 24.1554 14.8362 25.5224 14.8362 25.5224V43.2983C14.8362 59.7409 26.2128 75.1171 41.5 78.85C56.7873 75.1171 68.1638 59.7409 68.1638 43.2983V25.5224C68.1638 25.5224 67.0062 23.9448 64.325 22.825" stroke="hsl(355deg,98%,42%)" stroke-opacity="1" stroke-width="2.075"/>
<path d="M59.9196 36.4147C59.4621 38.7793 58.3006 40.9262 56.5056 42.8863C56.2592 43.1664 55.9777 43.4464 55.6961 43.7264C55.6961 42.6374 55.7665 41.8596 55.7665 41.8596L56.0481 38.7482L54.4642 39.1216C53.8307 36.0102 52.0357 34.0501 50.5575 32.93C49.3608 31.9966 48.129 31.4988 47.3547 31.2187L48.5865 25.3071L41.3009 19.5822L34.0154 25.3071L35.2472 31.2187C34.4729 31.4988 33.2763 31.9966 32.0444 32.93C30.5662 34.0501 28.8064 36.0102 28.1377 39.1216L26.5538 38.7482L26.8354 41.8596C26.8354 41.8596 26.9058 42.7619 26.9058 44.0375C25.0756 42.4507 23.7734 40.6462 22.999 38.5615C21.6616 35.0146 22.0136 31.4988 23.6326 28.0451C23.8085 29.2275 24.5829 30.0675 25.8499 30.7831C25.5683 30.0053 25.2868 29.2275 25.1108 28.4807C24.5477 25.9916 25.5683 23.907 27.9617 22.2269C29.3343 21.2313 30.8125 20.4223 32.2204 19.4889C34.6137 17.9332 36.4439 16.0664 37.183 13.6395C37.2534 13.3906 37.359 13.1417 37.4646 12.8928C38.2741 15.1952 38.0629 17.3732 35.9864 19.3645C36.3383 19.24 36.5847 19.0533 36.7959 18.8977C38.802 17.5287 39.9283 15.8175 40.4562 13.7951C41.1954 10.9949 40.7026 8.28801 39.7875 5.58113C39.6115 5.11442 39.4356 4.67883 39.2244 4.1499C40.3507 4.49215 41.3009 4.92774 42.2864 5.39445C45.9468 7.16792 48.8681 9.47033 50.6983 12.5506C51.7542 14.3863 52.2821 16.3464 52.3525 18.3688C52.4933 21.169 51.6838 23.8448 50.4871 26.4895V26.6761C52.9508 24.7471 54.0771 22.3825 54.2179 19.6756C54.605 19.9867 54.8866 20.2667 55.2034 20.609C57.2447 22.7869 58.5822 25.2449 59.3917 27.8896V27.7651C60.2364 30.6276 60.4124 33.49 59.8492 36.3836L59.9196 36.4147ZM53.7603 49.5758C52.9156 46.1533 53.3028 41.704 53.3028 41.704L48.2698 42.9486L52.2469 41.144C51.8949 34.4234 45.9468 33.1167 45.9468 33.1167L43.6591 37.1925L45.9468 26.1472L41.3361 22.538L36.7255 26.1472L39.0132 37.1925L36.7255 33.1167C36.7255 33.1167 30.7422 34.4234 30.4254 41.144L34.4025 42.9486L29.3695 41.704C29.3695 41.704 29.7567 46.1221 28.912 49.5758L30.2846 48.7046L29.2287 53.6205C29.2287 53.6205 31.4813 58.0387 37.3238 62.0523V50.2291L31.974 47.5845L31.4461 44.2553L40.2099 46.6822L39.4356 52.3137L41.3009 54.1495L43.1663 52.3137L42.392 46.6822L51.1558 44.2553L50.6279 47.5845L45.2781 50.2291V62.0523C51.1206 58.0075 53.3732 53.6205 53.3732 53.6205L52.3173 48.7046L53.6899 49.5758H53.7603Z" fill="#F2C029"/>
</svg>
