<svg width="28" height="37" viewBox="0 0 28 37" fill="none" xmlns="http://www.w3.org/2000/svg">
<path fill-rule="evenodd" clip-rule="evenodd" d="M27.1029 10.0039C27.103 10.004 27.1031 10.0042 26.7 10.3L27.1029 10.0039L27.2 10.1362V18.8667C27.2 27.0006 21.5794 34.6273 13.9686 36.4858L13.85 36.5147L13.7314 36.4858C6.12064 34.6273 0.5 27.0006 0.5 18.8667V10.1485L0.584096 10.0225L1 10.3C0.584096 10.0225 0.583953 10.0227 0.584096 10.0225L0.584677 10.0216L0.5853 10.0207L0.586677 10.0186L0.589953 10.0138L0.598639 10.0015C0.605394 9.99206 0.6141 9.98022 0.624886 9.96616C0.646464 9.93802 0.676349 9.90101 0.71559 9.85647C0.794114 9.76736 0.909849 9.64843 1.07107 9.5105C1.39393 9.2343 1.89641 8.88428 2.64309 8.54483L3.05694 9.45518C2.39323 9.75691 1.9707 10.0569 1.72115 10.2704C1.62194 10.3552 1.54961 10.4268 1.5 10.48V18.8667C1.5 26.5383 6.78546 33.6948 13.85 35.4848C20.9146 33.6948 26.2 26.5383 26.2 18.8667V10.4845C26.14 10.4203 26.052 10.3329 25.9345 10.2323C25.668 10.0043 25.2494 9.7087 24.6573 9.46138L25.0427 8.53864C25.7428 8.83102 26.2492 9.18545 26.5846 9.47248C26.7523 9.61592 26.8773 9.74256 26.9626 9.83636C27.0052 9.88328 27.038 9.92204 27.0613 9.95065C27.073 9.96496 27.0822 9.97674 27.0892 9.98575L27.0979 9.99714L27.101 10.0012L27.1022 10.0029L27.1029 10.0039Z" fill="hsl(355deg,98%,42%)" fill-opacity="1"/>
<rect x="11.0193" y="17.0276" width="6" height="8.70497" rx="1" transform="rotate(-0.264023 11.0193 17.0276)" fill="#F2C029"/>
<rect x="4" y="21.5263" width="6" height="4.2067" rx="1" transform="rotate(-0.264023 4 21.5263)" fill="#F2C029"/>
<rect x="18.0594" y="18.9706" width="6" height="6.7625" rx="1" transform="rotate(-0.264023 18.0594 18.9706)" fill="#F2C029"/>
<path d="M18.3642 4.11748L17.8992 3.54237H18.6708L19.116 2.95798L19.3436 3.6444L20.0757 3.85775L19.4524 4.27517V4.9987C19.4623 4.9987 18.8489 4.572 18.8489 4.572L18.1168 4.8039L18.3642 4.11748ZM22.0543 10.1098L21.6784 9.70161L21.5597 10.2303L21.0254 10.4344L21.5201 10.7034L21.5696 11.2414L21.995 10.8797L22.549 11.0003L22.3115 10.5086L22.6083 10.0448L22.0345 10.1005L22.0543 10.1098ZM5.19629 12.0855L5.43373 12.336L5.50298 12.0113L5.82946 11.8815L5.52277 11.7145L5.49309 11.3806L5.23587 11.6032L4.8896 11.529L5.038 11.8351L4.85992 12.1226L5.21608 12.0855H5.19629ZM6.62092 9.70161L6.90782 9.99845L6.97707 9.59958L7.36291 9.43261L6.98696 9.24709L6.9375 8.84823L6.63081 9.1265L6.2054 9.04302L6.39337 9.40478L6.18561 9.75727L6.61102 9.70161H6.62092ZM21.8367 7.50321L21.6982 7.12289L21.4607 7.45683H21.0353L21.3024 7.78149L21.1738 8.1618L21.5795 8.02266L21.9257 8.25456L21.9059 7.8557L22.2522 7.61452L21.8367 7.50321ZM8.59956 15.0631L9.03486 14.4509L8.2533 14.4973L7.76853 13.9222L7.58056 14.6272L6.84846 14.8776L7.5113 15.2672L7.54098 16L8.14447 15.5362L8.89635 15.731L8.60945 15.0539L8.59956 15.0631ZM8.36212 5.65729L8.91614 5.31408L9.52952 5.55525L9.35144 4.95232L9.78674 4.47924L9.1239 4.45141L8.77764 3.92268L8.5402 4.50707L7.89714 4.65549L8.41159 5.04508L8.36212 5.66657V5.65729ZM19.6701 14.3025L19.5217 14.6828L19.1061 14.7756L19.4425 15.026L19.4128 15.4249L19.769 15.2023L20.1647 15.3507L20.0559 14.9611L20.3329 14.655L19.9075 14.6364L19.68 14.2932L19.6701 14.3025ZM15.5149 2.79101L15.2775 2.45708L15.139 2.83739L14.7235 2.94871L15.0697 3.18988L15.0499 3.58875L15.4061 3.35685L15.8117 3.49599L15.6831 3.11567L15.9502 2.80029H15.5248L15.5149 2.79101ZM6.30433 7.09507C6.65059 7.14145 6.99686 7.21565 7.34312 7.28986C7.35301 7.28986 7.3728 7.28986 7.3728 7.28059C7.3728 7.27131 7.3728 7.25276 7.36291 7.24348C7.04632 7.08579 6.70995 6.95593 6.37358 6.84461C6.03722 6.7333 5.68106 6.64054 5.3249 6.57561C4.96875 6.51068 4.61259 6.44575 4.24654 6.43647C3.8805 6.43647 3.51445 6.45502 3.15829 6.52923C3.06925 6.54778 3 6.62199 3 6.70548C3 6.81679 3.07915 6.90955 3.19786 6.90955C3.54413 6.9281 3.89039 6.93737 4.23665 6.94665C4.58291 6.95593 4.92918 6.94665 5.27544 6.97448C5.6217 6.99303 5.96796 7.03941 6.31423 7.08579L6.30433 7.09507ZM12.5568 2.41998C12.4678 2.16952 12.3788 1.9098 12.2304 1.68717C12.082 1.45527 11.9138 1.24193 11.706 1.05641C11.6467 1.00075 11.5477 0.9822 11.4686 1.0193C11.3598 1.06568 11.3103 1.18627 11.3697 1.29758C11.4884 1.52948 11.617 1.73355 11.7456 1.95618C11.8742 2.16952 12.0226 2.3736 12.1512 2.59622C12.2798 2.81884 12.3887 3.04147 12.4975 3.27337C12.6063 3.50526 12.7052 3.74644 12.7943 3.98762C12.7943 3.99689 12.8141 4.00617 12.824 4.00617C12.8437 4.00617 12.8536 3.99689 12.8536 3.97834C12.8536 3.71861 12.824 3.45888 12.7745 3.19916C12.7349 2.93943 12.6558 2.6797 12.5667 2.42925L12.5568 2.41998ZM22.1533 5.77788C22.4402 5.64801 22.7271 5.54598 23.014 5.42539C23.291 5.29553 23.5779 5.18422 23.8549 5.0358C23.9439 4.98942 24.0033 4.89666 23.9835 4.79462C23.9637 4.66476 23.8351 4.572 23.6966 4.58128C23.3602 4.61838 23.0338 4.72042 22.7271 4.85028C22.4204 4.98014 22.1434 5.16566 21.8664 5.35118C21.5992 5.5367 21.342 5.74077 21.1046 5.95412C20.8671 6.17674 20.6495 6.40864 20.4516 6.6591C20.4516 6.66837 20.4516 6.68692 20.4516 6.6962C20.4615 6.71475 20.4813 6.71475 20.5011 6.6962C20.7682 6.51996 21.0353 6.35299 21.3123 6.20457C21.5893 6.05616 21.8664 5.90774 22.1434 5.77788H22.1533ZM7.64981 12.3082C7.6597 12.3082 7.6696 12.2896 7.6597 12.2803C7.6597 12.2618 7.63992 12.2525 7.62013 12.2618C7.33323 12.336 7.05622 12.438 6.7891 12.5586C6.51209 12.6699 6.25487 12.8183 6.00754 12.9668C5.76021 13.1244 5.50298 13.2821 5.29522 13.4862C5.08747 13.6903 4.8896 13.9129 4.7511 14.1726C4.71153 14.2468 4.72142 14.3489 4.78078 14.4138C4.85992 14.5066 5.01821 14.5158 5.10725 14.4324C5.3249 14.2561 5.52277 14.0706 5.72063 13.8851C5.9185 13.6996 6.10647 13.5048 6.30433 13.3192C6.51209 13.1337 6.72974 12.9668 6.94739 12.7905C7.17494 12.6235 7.40248 12.4659 7.64981 12.3082ZM23.2613 13.3935C23.014 13.2358 22.737 13.143 22.4698 13.041C22.1928 12.9482 21.9158 12.8647 21.6388 12.8091C21.3519 12.7534 21.0749 12.707 20.788 12.6978C20.7781 12.6978 20.7583 12.6978 20.7583 12.7163C20.7583 12.7349 20.7583 12.7534 20.7781 12.7627C21.0353 12.874 21.2925 12.9853 21.53 13.1152C21.7674 13.245 22.0148 13.3656 22.2423 13.5048C22.4698 13.6439 22.6875 13.8016 22.915 13.9315C23.1426 14.0613 23.3701 14.2005 23.6273 14.3118C23.7164 14.3489 23.8252 14.3396 23.9044 14.2839C24.0132 14.2005 24.033 14.052 23.9439 13.9407C23.756 13.7274 23.5284 13.5511 23.2811 13.4027L23.2613 13.3935Z" fill="#F2C029"/>
<path d="M10.7294 6H10.8968C11.3264 6.21797 11.786 6.3375 12.2706 6.36094C12.8551 6.38906 13.4047 6.24844 13.9268 6H14.0766C14.7061 6.29297 15.3631 6.43594 16.065 6.32578C16.4297 6.26953 16.7794 6.17109 17.1041 6H17.2715C17.5113 6.19219 17.7236 6.41016 17.9434 6.62109C18.0184 6.69375 18.0159 6.77813 17.9534 6.87188C17.866 7.00078 17.7986 7.13906 17.7511 7.28672C17.5663 7.84453 17.5488 8.41172 17.6837 8.97891C17.8435 9.65156 17.9884 10.3242 17.9984 11.0156C18.0009 11.257 17.9984 11.4961 17.9584 11.7328C17.8635 12.3023 17.5762 12.7805 17.1516 13.1883C16.7744 13.5492 16.3373 13.8328 15.8801 14.093C15.2956 14.4258 14.6836 14.7094 14.0766 15H13.9268C13.5071 14.7984 13.085 14.6039 12.6728 14.3906C12.0708 14.0789 11.4838 13.7484 10.9767 13.3078C10.3397 12.7523 10 12.075 10 11.2547C10 10.6383 10.06 10.0266 10.2148 9.42656C10.3347 8.96719 10.4321 8.50781 10.3922 8.02969C10.3572 7.61484 10.2748 7.21875 10.04 6.86016C9.98751 6.77813 9.98751 6.69141 10.0575 6.62344C10.2773 6.41016 10.4921 6.19219 10.7294 6ZM12.6128 12.3586C12.6678 12.3633 12.7153 12.3328 12.7627 12.307C13.1324 12.1078 13.5046 11.9109 13.8743 11.707C13.9642 11.6578 14.0342 11.6531 14.1291 11.707C14.5088 11.918 14.896 12.1219 15.2806 12.3281C15.3581 12.3703 15.4405 12.3797 15.5179 12.3281C15.5929 12.2742 15.6004 12.2016 15.5804 12.1219C15.4655 11.7 15.3556 11.2758 15.2382 10.8539C15.2157 10.7719 15.2332 10.7203 15.2981 10.6617C15.5704 10.4133 15.8377 10.1578 16.105 9.90469C16.1649 9.84844 16.2074 9.78281 16.1774 9.70078C16.1474 9.61875 16.0825 9.58594 15.9926 9.57422C15.6129 9.525 15.2357 9.46875 14.856 9.42188C14.7661 9.41016 14.7211 9.37734 14.6861 9.3C14.5288 8.94609 14.3664 8.59453 14.2065 8.24062C14.184 8.19141 14.1641 8.14219 14.1116 8.11406C13.9992 8.05078 13.8743 8.09297 13.8169 8.21953C13.6495 8.58281 13.4821 8.94609 13.3198 9.30937C13.2873 9.37969 13.2423 9.41016 13.1624 9.42188C12.7852 9.46875 12.4105 9.52266 12.0358 9.57188C11.9434 9.58359 11.866 9.61172 11.8335 9.70313C11.8035 9.79453 11.856 9.85781 11.9209 9.91875C12.1907 10.1695 12.458 10.425 12.7277 10.6758C12.7802 10.725 12.7977 10.7719 12.7752 10.8398C12.7302 10.9898 12.6928 11.1398 12.6528 11.2898C12.5779 11.5711 12.5029 11.8523 12.4305 12.1336C12.398 12.2625 12.478 12.3633 12.6153 12.3633L12.6128 12.3586Z" fill="#F2C029"/>
</svg>
