<svg width="58" height="55" viewBox="0 0 58 55" fill="none" xmlns="http://www.w3.org/2000/svg">
<g opacity="0.5">
<path d="M29.3451 36.8053C20.5275 39.4352 8.52429 41.626 6.02478 41.0766C7.35026 39.413 10.0662 35.694 10.3261 34.1259C10.651 32.1659 7.99322 31.1577 6.06914 34.2854C4.14506 37.413 1.62757 38.8204 0.495904 40.6738C-0.635768 42.5271 0.415582 44.0124 1.81099 45.3791C3.20639 46.7457 6.8088 50.046 8.78802 52.2123L8.8276 52.2556C10.7905 54.4041 12.5191 56.2962 13.2871 53.2013C13.9057 50.7087 11.2759 47.9661 9.88373 46.9064C10.4619 47.1689 14.9901 46.5309 28.4772 41.8786C45.3359 36.0632 52.6582 31.8434 56.3709 23.6328C60.0836 15.4222 56.0604 4.87514 54.9947 2.0088C53.929 -0.857534 52.8968 -0.501487 53.5022 2.36964C54.1076 5.24078 57.2017 14.7313 53.2456 21.9389C49.1793 29.3475 42.5403 32.8696 29.3451 36.8053Z" fill="white"/>
<path d="M44.8768 25.1337C41.7562 27.7237 36.6506 30.9743 32.7473 31.9357C37.1253 32.3505 44.6874 29.049 48.7801 24.1723C53.9222 18.0451 52.6719 13.6056 51.5697 15.7411C50.0076 18.7676 48.5283 22.1031 44.8768 25.1337Z" fill="white"/>
</g>
</svg>
