<svg width="28" height="37" viewBox="0 0 28 37" fill="none" xmlns="http://www.w3.org/2000/svg">
<path fill-rule="evenodd" clip-rule="evenodd" d="M27.1029 10.0039C27.103 10.004 27.1031 10.0042 26.7 10.3L27.1029 10.0039L27.2 10.1362V18.8667C27.2 27.0006 21.5794 34.6273 13.9686 36.4858L13.85 36.5147L13.7314 36.4858C6.12064 34.6273 0.5 27.0006 0.5 18.8667V10.1485L0.584096 10.0225L1 10.3C0.584096 10.0225 0.583953 10.0227 0.584096 10.0225L0.584677 10.0216L0.5853 10.0207L0.586677 10.0186L0.589953 10.0138L0.598639 10.0015C0.605394 9.99206 0.6141 9.98022 0.624886 9.96616C0.646464 9.93802 0.676349 9.90101 0.71559 9.85647C0.794114 9.76736 0.909849 9.64843 1.07107 9.5105C1.39393 9.2343 1.89641 8.88428 2.64309 8.54483L3.05694 9.45518C2.39323 9.75691 1.9707 10.0569 1.72115 10.2704C1.62194 10.3552 1.54961 10.4268 1.5 10.48V18.8667C1.5 26.5383 6.78546 33.6948 13.85 35.4848C20.9146 33.6948 26.2 26.5383 26.2 18.8667V10.4845C26.14 10.4203 26.052 10.3329 25.9345 10.2323C25.668 10.0043 25.2494 9.7087 24.6573 9.46138L25.0427 8.53864C25.7428 8.83102 26.2492 9.18545 26.5846 9.47248C26.7523 9.61592 26.8773 9.74256 26.9626 9.83636C27.0052 9.88328 27.038 9.92204 27.0613 9.95065C27.073 9.96496 27.0822 9.97674 27.0892 9.98575L27.0979 9.99714L27.101 10.0012L27.1022 10.0029L27.1029 10.0039Z" fill="hsl(355deg,98%,42%)" fill-opacity="1"/>
<g clip-path="url(#clip0_1109_15094)">
<path d="M21 8.5C21 12.091 18.0894 15 14.4965 15C10.9036 15 8 12.084 8 8.5C8 4.91595 10.9106 2 14.5035 2C18.0964 2 21.007 4.90899 21.007 8.5H21Z" fill="#F9D507"/>
<g style="mix-blend-mode:screen">
<path d="M14.5035 2C12.6165 2 10.9245 2.80032 9.7338 4.08084C10.8966 3.0091 12.4494 2.34797 14.1553 2.34797C17.7483 2.34797 20.6588 5.25696 20.6588 8.84797C20.6588 11.0471 19.9973 12.1049 18.925 13.2671C20.2062 12.0771 21.007 10.386 21.007 8.5C21 4.90899 18.0894 2 14.5035 2Z" fill="#F9D507"/>
</g>
<path d="M19.9625 8.49999C19.9625 11.5134 17.5185 13.9561 14.5035 13.9561C11.4885 13.9561 9.04445 11.5134 9.04445 8.49999C9.04445 5.4866 11.4885 3.04388 14.5035 3.04388C17.5185 3.04388 19.9625 5.4866 19.9625 8.49999Z" fill="#F8B618"/>
<g style="mix-blend-mode:multiply">
<path d="M14.8795 13.5733C11.8645 13.5733 9.42046 11.1306 9.42046 8.11723C9.42046 6.76712 9.95661 5.42398 10.834 4.45663C9.7338 5.45182 9.03749 6.89935 9.03749 8.5C9.03749 11.5134 11.4815 13.9561 14.4965 13.9561C16.0771 13.9561 17.5463 13.2671 18.542 12.1606C17.5742 13.0375 16.286 13.5733 14.8795 13.5733Z" fill="#F8B618"/>
</g>
</g>
<path d="M14.5 10.6258L16.663 12L16.089 9.41L18 7.66737L15.4835 7.44263L14.5 5L13.5165 7.44263L11 7.66737L12.911 9.41L12.337 12L14.5 10.6258Z" fill="white"/>
<g clip-path="url(#clip1_1109_15094)">
<path d="M23 21.5C23 23.9861 20.985 26 18.4976 26C16.0102 26 14 23.9813 14 21.5C14 19.0187 16.015 17 18.5024 17C20.9898 17 23.0048 19.0139 23.0048 21.5H23Z" fill="#F9D507"/>
<g style="mix-blend-mode:screen">
<path d="M18.5024 17C17.196 17 16.0246 17.5541 15.2003 18.4406C16.0054 17.6986 17.0803 17.2409 18.2614 17.2409C20.7488 17.2409 22.7638 19.2548 22.7638 21.7409C22.7638 23.2634 22.3058 23.9957 21.5635 24.8003C22.4505 23.9764 23.0048 22.8057 23.0048 21.5C23 19.0139 20.985 17 18.5024 17Z" fill="#F9D507"/>
</g>
<path d="M22.2817 21.5C22.2817 23.5862 20.5897 25.2773 18.5024 25.2773C16.4151 25.2773 14.7231 23.5862 14.7231 21.5C14.7231 19.4138 16.4151 17.7227 18.5024 17.7227C20.5897 17.7227 22.2817 19.4138 22.2817 21.5Z" fill="#F8B618"/>
<g style="mix-blend-mode:multiply">
<path d="M18.7627 25.0123C16.6754 25.0123 14.9834 23.3212 14.9834 21.235C14.9834 20.3003 15.3546 19.3704 15.962 18.7007C15.2003 19.3897 14.7183 20.3919 14.7183 21.5C14.7183 23.5862 16.4103 25.2773 18.4976 25.2773C19.5919 25.2773 20.609 24.8003 21.2983 24.0343C20.6283 24.6413 19.7365 25.0123 18.7627 25.0123Z" fill="#F8B618"/>
</g>
</g>
<path d="M18.5 23.0184L20.045 24L19.635 22.15L21 20.9053L19.2025 20.7447L18.5 19L17.7975 20.7447L16 20.9053L17.365 22.15L16.955 24L18.5 23.0184Z" fill="white"/>
<g clip-path="url(#clip2_1109_15094)">
<path d="M12 19.5C12 21.4336 10.4328 23 8.49813 23C6.56347 23 5 21.4299 5 19.5C5 17.5701 6.56722 16 8.50188 16C10.4365 16 12.0038 17.5664 12.0038 19.5H12Z" fill="#F9D507"/>
<g style="mix-blend-mode:screen">
<path d="M8.50187 16C7.4858 16 6.57471 16.4309 5.93358 17.1204C6.55972 16.5434 7.39582 16.1874 8.3144 16.1874C10.2491 16.1874 11.8163 17.7537 11.8163 19.6874C11.8163 20.8715 11.4601 21.4411 10.8827 22.0669C11.5726 21.4261 12.0037 20.5155 12.0037 19.5C12 17.5664 10.4328 16 8.50187 16Z" fill="#F9D507"/>
</g>
<path d="M11.4413 19.5C11.4413 21.1226 10.1253 22.4379 8.50187 22.4379C6.87841 22.4379 5.56239 21.1226 5.56239 19.5C5.56239 17.8774 6.87841 16.5621 8.50187 16.5621C10.1253 16.5621 11.4413 17.8774 11.4413 19.5Z" fill="#F8B618"/>
<g style="mix-blend-mode:multiply">
<path d="M8.70434 22.2318C7.08088 22.2318 5.76487 20.9165 5.76487 19.2939C5.76487 18.5669 6.05357 17.8437 6.52598 17.3228C5.93359 17.8587 5.55865 18.6381 5.55865 19.5C5.55865 21.1226 6.87467 22.4379 8.49813 22.4379C9.34923 22.4379 10.1403 22.0669 10.6765 21.4711C10.1553 21.9433 9.46171 22.2318 8.70434 22.2318Z" fill="#F8B618"/>
</g>
</g>
<path d="M8.5 20.4111L9.427 21L9.181 19.89L10 19.1432L8.9215 19.0468L8.5 18L8.0785 19.0468L7 19.1432L7.819 19.89L7.573 21L8.5 20.4111Z" fill="white"/>
<defs>
<clipPath id="clip0_1109_15094">
<rect width="13" height="13" fill="white" transform="translate(8 2)"/>
</clipPath>
<clipPath id="clip1_1109_15094">
<rect width="9" height="9" fill="white" transform="translate(14 17)"/>
</clipPath>
<clipPath id="clip2_1109_15094">
<rect width="7" height="7" fill="white" transform="translate(5 16)"/>
</clipPath>
</defs>
</svg>
