<svg width="34" height="20" viewBox="0 0 34 20" fill="none" xmlns="http://www.w3.org/2000/svg">
<path d="M10.9818 19.6742C7.61961 19.6742 4.3098 19.6742 0.95631 19.6742C0.947577 19.5607 0.938843 19.4472 0.938843 19.3337C0.938843 16.8797 0.938843 10.5233 0.938843 8.06927C0.938843 7.36189 1.17464 7.1261 1.88201 7.1261C4.59799 7.1261 7.31396 7.1261 10.0299 7.1261C10.746 7.1261 10.9818 7.36189 10.9818 8.06053C10.9818 10.5145 10.9818 16.8709 10.9818 19.3249C10.9818 19.4297 10.9818 19.5345 10.9818 19.6742Z" fill="#F2C029"/>
<path d="M15.3353 19.6656C15.3353 17.9539 15.3353 16.2684 15.3353 14.5829C15.3353 14.2598 15.3353 13.928 15.3353 13.6048C15.3266 13.0983 15.0471 12.7752 14.6279 12.7839C14.2087 12.7927 13.938 13.1158 13.938 13.6223C13.938 15.5086 13.938 17.395 13.938 19.2813C13.938 19.4036 13.938 19.5346 13.938 19.6743C13.283 19.6743 12.663 19.6743 11.9818 19.6743C11.9818 19.5608 11.9818 19.4385 11.9818 19.3162C11.9818 14.4956 11.9818 5.77254 11.9818 0.9519C11.9818 0.235791 12.2176 0 12.9162 0C15.6584 0 18.4006 0 21.1428 0C21.7628 0 22.0248 0.253258 22.0248 0.86457C22.0248 5.75507 22.0248 14.548 22.0248 19.4385C22.0248 19.5084 22.0248 19.5782 22.0248 19.6656C19.7979 19.6656 17.5884 19.6656 15.3353 19.6656ZM14.6454 11.2469C15.0209 11.2469 15.3266 10.9325 15.3353 10.557C15.3353 10.1902 15.0209 9.8671 14.6541 9.85837C14.2786 9.84964 13.938 10.1902 13.9555 10.5745C13.9555 10.95 14.2611 11.2557 14.6454 11.2469Z" fill="#F2C029"/>
<path d="M23.027 19.6656C23.027 18.1198 23.0182 12.6978 23.0357 11.1783C23.0357 10.7678 23.3239 10.5233 23.7256 10.4884C23.8042 10.4796 23.8915 10.4884 23.9701 10.4884C26.6861 10.4884 29.4021 10.4884 32.1181 10.4884C32.8342 10.4884 33.0612 10.7242 33.0612 11.4228C33.0612 12.8638 33.0612 18.2072 33.0612 19.6743C29.7252 19.6656 26.3979 19.6656 23.027 19.6656Z" fill="#F2C029"/>
</svg>
