<svg width="30" height="31" viewBox="0 0 30 31" fill="none" xmlns="http://www.w3.org/2000/svg">
<path fill-rule="evenodd" clip-rule="evenodd" d="M18.2412 24.3037C17.2082 24.5835 16.1215 24.7328 15 24.7328C13.8784 24.7328 12.7917 24.5835 11.7587 24.3037L8.03268 30.7574L5.79726 26.3748L0.884121 26.6301L4.95445 19.5801C3.49385 17.5497 2.63361 15.0585 2.63361 12.3664C2.63361 5.53663 8.17024 0 15 0C21.8298 0 27.3664 5.53663 27.3664 12.3664C27.3664 15.0586 26.5062 17.5498 25.0455 19.5803L29.1158 26.6301L24.2026 26.3748L21.9672 30.7574L18.2412 24.3037ZM15 18.645C18.4676 18.645 21.2786 15.834 21.2786 12.3664C21.2786 8.89882 18.4676 6.08779 15 6.08779C11.5324 6.08779 8.7214 8.89882 8.7214 12.3664C8.7214 15.834 11.5324 18.645 15 18.645ZM15 22.3664C20.5228 22.3664 25 17.8892 25 12.3664C25 6.84354 20.5228 2.36639 15 2.36639C9.47715 2.36639 5 6.84354 5 12.3664C5 17.8892 9.47715 22.3664 15 22.3664Z" fill="#F2C029"/>
</svg>
