<svg width="70" height="69" viewBox="0 0 70 69" fill="none" xmlns="http://www.w3.org/2000/svg">
<g opacity="1" clip-path="url(#clip0_5518_21712)">
<rect x="34.5127" y="1.94872" width="1.94872" height="15.5897" rx="0.97436" transform="rotate(90 34.5127 1.94872)" fill="hsla(350, 61%, 15%, 1)"/>
<rect x="51.0771" y="1.94873" width="1.94872" height="15.5897" rx="0.97436" transform="rotate(90 51.0771 1.94873)" fill="hsla(350, 61%, 15%, 1)"/>
<rect x="30.6152" width="5.84615" height="7.79487" rx="0.974359" transform="rotate(90 30.6152 0)" fill="hsla(350, 61%, 15%, 1)"/>
<rect x="47.1797" width="5.84615" height="7.79487" rx="0.974359" transform="rotate(90 47.1797 0)" fill="hsla(350, 61%, 15%, 1)"/>
<path d="M15.0254 5.84618C15.0254 4.76993 15.8979 3.89746 16.9741 3.89746H19.8972C20.9734 3.89746 21.8459 4.76993 21.8459 5.84618V76H15.0254V5.84618Z" fill="hsla(350, 61%, 15%, 1)"/>
<path d="M31.5898 5.84615C31.5898 4.7699 32.4623 3.89743 33.5386 3.89743H36.4616C37.5379 3.89743 38.4104 4.7699 38.4104 5.84615V76H31.5898V5.84615Z" fill="hsla(350, 61%, 15%, 1)"/>
<path d="M48.1538 5.84615C48.1538 4.7699 49.0263 3.89743 50.1025 3.89743H53.0256C54.1019 3.89743 54.9743 4.7699 54.9743 5.84615V76H48.1538V5.84615Z" fill="hsla(350, 61%, 15%, 1)"/>
</g>
<defs>
<clipPath id="clip0_5518_21712">
<rect width="69" height="69" fill="white" transform="translate(0.5)"/>
</clipPath>
</defs>
</svg>
