<svg width="29" height="31" viewBox="0 0 29 31" fill="none" xmlns="http://www.w3.org/2000/svg">
<path d="M5.88135 16.4432L13.0299 20.5705L7.14849 30.7574L4.91307 26.3748L-6.7234e-05 26.6301L5.88135 16.4432Z" fill="#553878"/>
<path d="M22.3502 16.4432L15.2017 20.5705L21.0831 30.7574L23.3185 26.3748L28.2316 26.6301L22.3502 16.4432Z" fill="#553878"/>
<circle cx="14.1159" cy="12.3664" r="12.3664" fill="#DEDEDE"/>
<circle cx="14.1159" cy="12.3664" r="8.71681" fill="#A6A6A6" stroke="white" stroke-width="0.30162"/>
<g filter="url(#filter0_d_426_3432)">
<path d="M10.7584 17V15.0181C11.0345 14.8455 11.3796 14.6064 11.7938 14.3007C12.2079 13.9901 12.6418 13.6425 13.0954 13.258C13.5539 12.8734 13.9803 12.4839 14.3747 12.0895C14.7741 11.6902 15.0995 11.313 15.3509 10.958C15.6024 10.5981 15.7281 10.2949 15.7281 10.0484C15.7281 9.79696 15.6665 9.5677 15.5432 9.36063C15.4199 9.14863 15.2548 8.981 15.0477 8.85775C14.8456 8.73449 14.6188 8.67287 14.3673 8.67287C14.1159 8.67287 13.8867 8.73449 13.6796 8.85775C13.4725 8.981 13.3049 9.14863 13.1767 9.36063C13.0534 9.5677 12.9918 9.79696 12.9918 10.0484H10.7732C10.7732 9.36803 10.9384 8.75668 11.2687 8.21436C11.599 7.67203 12.0354 7.2431 12.5777 6.92757C13.1249 6.61204 13.7215 6.45427 14.3673 6.45427C15.0231 6.45427 15.6221 6.6145 16.1644 6.93497C16.7067 7.25543 17.1381 7.68929 17.4586 8.23654C17.784 8.77887 17.9467 9.38282 17.9467 10.0484C17.9467 10.3787 17.9023 10.6943 17.8136 10.995C17.7248 11.2908 17.5942 11.5842 17.4216 11.875C17.254 12.161 17.0445 12.4543 16.793 12.7551C16.5416 13.0558 16.2507 13.3738 15.9204 13.7091C15.595 14.0394 15.2351 14.3968 14.8406 14.7814H17.9467V17H10.7584Z" fill="white"/>
</g>
<defs>
<filter id="filter0_d_426_3432" x="10.7584" y="6.45428" width="7.18823" height="11.5457" filterUnits="userSpaceOnUse" color-interpolation-filters="sRGB">
<feFlood flood-opacity="0" result="BackgroundImageFix"/>
<feColorMatrix in="SourceAlpha" type="matrix" values="0 0 0 0 0 0 0 0 0 0 0 0 0 0 0 0 0 0 127 0" result="hardAlpha"/>
<feOffset dy="1"/>
<feComposite in2="hardAlpha" operator="out"/>
<feColorMatrix type="matrix" values="0 0 0 0 0 0 0 0 0 0 0 0 0 0 0 0 0 0 0.42 0"/>
<feBlend mode="normal" in2="BackgroundImageFix" result="effect1_dropShadow_426_3432"/>
<feBlend mode="normal" in="SourceGraphic" in2="effect1_dropShadow_426_3432" result="shape"/>
</filter>
</defs>
</svg>
