<svg width="47" height="59" viewBox="0 0 47 59" fill="none" xmlns="http://www.w3.org/2000/svg">
<path d="M13.8404 23.1997C13.8404 23.1997 16.0755 26.7682 16.3828 30.7823C16.3828 30.7823 16.7175 30.6158 17.3351 30.3729C19.15 29.5024 23.2705 27.3254 26.5248 24.1686C26.5248 24.1686 24.192 29.6558 17.7353 35.8794C17.542 36.0075 17.4381 36.1874 17.1929 36.4055C17.1929 36.4055 17.6526 38.7091 14.6592 45.1338C12.5252 49.6567 9.4266 52.5436 9.4266 52.5436C9.4266 52.5436 9.60557 52.647 10.1193 52.5839C12.9794 52.7964 23.8884 52.5005 30.1525 40.4108C30.1525 40.4108 26.5635 43.7339 21.6309 42.5646C21.6309 42.5646 28.3629 39.3775 34.4712 27.5575C40.4901 15.6859 38.152 6.30297 38.152 6.30297C38.152 6.30297 33.4352 11.3729 29.3181 14.9907C24.3239 19.3011 16.4376 22.4212 14.7264 23.1118C14.4436 23.1883 14.3917 23.2782 14.3917 23.2782L13.8404 23.1997Z" fill="#3A245C"/>
<path d="M35.8703 17.6947C35.17 20.7674 34.1495 23.7751 32.8085 26.7176C31.43 29.5186 29.7311 32.2545 27.6367 34.6422C25.5423 37.0299 23.1132 39.584 20.4962 41.4301C23.1508 39.7255 25.6407 37.6861 27.8765 35.2602C30.0603 32.9242 31.8487 30.24 33.2792 27.3491C34.7096 24.4582 35.7821 21.3606 36.4823 18.2879C37.2344 15.1253 37.5248 11.9358 37.3534 8.71957L37.3069 7.97338L36.9435 8.60283C35.4058 10.2329 33.9577 11.9146 32.3305 13.4929C30.7033 15.0713 29.1281 16.5598 27.3739 17.9449C25.6197 19.33 22.6305 21.201 22.6305 21.201C22.6305 21.201 24.5349 20.3822 27.628 18.3314C29.4717 16.9979 31.1883 15.4712 32.6741 13.9311C34.1079 12.4809 35.4004 11.069 36.7447 9.56712C36.7625 10.7763 36.6531 11.7923 36.619 13.0914C36.3915 14.5187 36.2016 16.0876 35.8703 17.6947Z" fill="#EEBC20"/>
<path d="M27.4549 42.8101C26.5867 44.1072 25.5019 45.1595 24.3277 46.1601C23.1534 47.1606 21.9416 48.0196 20.5508 48.7753C19.2119 49.441 17.7836 50.0551 16.3176 50.5276C14.8517 51.0001 13.3106 51.1894 11.8215 51.2889C13.325 50.9579 14.739 50.5754 16.1155 50.0512C17.4919 49.527 18.8683 49.0029 20.1696 48.1955C21.5085 47.5298 22.7203 46.6708 23.9322 45.8118C25.2854 44.9146 26.4077 44.0039 27.4549 42.8101Z" fill="#EEBC20"/>
</svg>
