<svg width="70" height="70" viewBox="0 0 70 70" fill="none" xmlns="http://www.w3.org/2000/svg">
<g clip-path="url(#clip0_7047_41504)">
<rect x="33.2017" y="8.19946" width="1.94872" height="15.5897" rx="0.97436" transform="rotate(80.8609 33.2017 8.19946)" fill="#3D0F17"/>
<rect x="29.0444" y="6.89441" width="5.84615" height="7.79487" rx="0.974359" transform="rotate(80.8609 29.0444 6.89441)" fill="#3D0F17"/>
<rect x="51.9312" y="11.8236" width="1.94872" height="15.5897" rx="0.97436" transform="rotate(120.299 51.9312 11.8236)" fill="#3D0F17"/>
<rect x="49.5498" y="8.17495" width="5.84616" height="7.79487" rx="0.974359" transform="rotate(120.299 49.5498 8.17495)" fill="#3D0F17"/>
<path d="M8.59714 16.6809C8.31859 15.6413 8.93552 14.5728 9.97509 14.2942L12.7986 13.5377C13.8381 13.2591 14.9067 13.876 15.1852 14.9156L31.0609 74.1644L24.4728 75.9297L8.59714 16.6809Z" fill="#3D0F17"/>
<path d="M31.5 19.2241C31.5 18.1479 32.3725 17.2754 33.4487 17.2754H36.5513C37.6275 17.2754 38.5 18.1479 38.5 19.2241V76.2754H31.5V19.2241Z" fill="#3D0F17"/>
<path d="M55.1265 9.15771C55.405 8.11813 56.4736 7.5012 57.5132 7.77976L60.3367 8.5363C61.3762 8.81486 61.9932 9.88341 61.7146 10.923L44.0875 76.7082L37.4994 74.9429L55.1265 9.15771Z" fill="#3D0F17"/>
</g>
<defs>
<clipPath id="clip0_7047_41504">
<rect width="69" height="69" fill="white" transform="translate(0.5 0.275391)"/>
</clipPath>
</defs>
</svg>
