<svg width="228" height="93" viewBox="0 0 228 93" fill="none" xmlns="http://www.w3.org/2000/svg">
<path d="M84.1735 18.7883C79.4502 14.8272 75.5802 9.82662 70.2932 6.65671C63.3222 2.47707 55.1639 0.0742417 46.4444 0.0742417C20.7939 0.0742417 0 20.8681 0 46.5187C0 72.1693 20.7939 92.9631 46.4444 92.9631C55.1642 92.9631 63.3226 90.5602 70.2938 86.3803C75.5804 83.2105 79.4502 78.2102 84.1733 74.2493C92.2421 67.4823 102.645 63.4076 114 63.4076C125.355 63.4076 135.758 67.4823 143.827 74.2494C148.55 78.2102 152.419 83.2103 157.706 86.3801C164.677 90.5601 172.836 92.9631 181.555 92.9631C207.206 92.9631 228 72.1692 228 46.5187C228 20.8681 207.206 0.0742188 181.555 0.0742188C172.836 0.0742188 164.678 2.47699 157.707 6.65654C152.42 9.82649 148.55 14.8272 143.826 18.7884C135.758 25.5552 125.355 29.6299 114 29.6299C102.645 29.6299 92.2423 25.5552 84.1735 18.7883Z" fill="hsl(350deg,61%,15%)" fill-opacity="1"/>
</svg>
