<?xml version="1.0" standalone="no"?>
<!DOCTYPE svg PUBLIC "-//W3C//DTD SVG 1.1//EN" "http://www.w3.org/Graphics/SVG/1.1/DTD/svg11.dtd" >
<svg xmlns="http://www.w3.org/2000/svg" xmlns:xlink="http://www.w3.org/1999/xlink" version="1.1">
<metadata>
Created by FontForge 20190801 at Tue Feb 20 16:57:54 2024
 By www-data
Copyright (c) 2017 by Kostas Bartsokas. All rights reserved.
</metadata>
<defs>
<font id="ICCFontLight" horiz-adv-x="0" >
  <font-face 
    font-family="ICCFontLight"
    font-weight="300"
    font-stretch="normal"
    units-per-em="1000"
    panose-1="0 0 4 0 0 0 0 0 0 0"
    ascent="800"
    descent="-200"
    x-height="485"
    cap-height="710"
    bbox="-669 -277 1273 1036"
    underline-thickness="29"
    underline-position="-79"
    unicode-range="U+000D-1F10C"
  />
<missing-glyph horiz-adv-x="442" 
 />
    <glyph glyph-name=".notdef" horiz-adv-x="442" 
 />
    <glyph glyph-name=".null" 
 />
    <glyph glyph-name="nonmarkingreturn" unicode="&#xd;" 
 />
    <glyph glyph-name="space" unicode=" " horiz-adv-x="289" 
 />
    <glyph glyph-name="exclam" unicode="!" horiz-adv-x="225" 
d="M138 195h-41l-10 541h61zM84 7.5q-13 12.5 -13 31.5t13 31.5t32 12.5t32 -12.5t13 -31.5t-13 -31.5t-32 -12.5t-32 12.5z" />
    <glyph glyph-name="quotedbl" unicode="&#x22;" horiz-adv-x="303" 
d="M92 481h-44l34 229h58zM207 481h-45l34 229h59z" />
    <glyph glyph-name="numbersign" unicode="#" horiz-adv-x="629" 
d="M180 -31h-41l33 214h-126v44h132l27 173h-138v43h144l33 213h41l-33 -213h178l32 213h41l-33 -213h130v-43h-136l-26 -173h141v-44h-148l-33 -214h-40l32 214h-177zM245 400l-26 -173h178l26 173h-178z" />
    <glyph glyph-name="dollar" unicode="$" horiz-adv-x="563" 
d="M458.5 49.5q-52.5 -48.5 -146.5 -52.5v-121h-45v122q-129 8 -208 81l29 48q38 -38 95 -57.5t115 -19.5q67 0 110 32t43 89q0 42 -21 68t-55 42t-94 35q-73 25 -112.5 43t-67 52t-27.5 88q0 73 51 119.5t142 47.5v126h45v-128q106 -9 174 -62l-33 -45q-38 28 -85 41.5
t-95 13.5q-62 0 -101 -29t-39 -81q0 -36 21.5 -60t53.5 -39t90 -34q76 -25 117.5 -44.5t68.5 -55.5t27 -95q0 -76 -52.5 -124.5z" />
    <glyph glyph-name="percent" unicode="%" horiz-adv-x="833" 
d="M688 665l-503 -667l-39 28l503 668zM121.5 366q-40.5 22 -64.5 61.5t-24 91.5q0 48 22.5 87.5t63 62.5t92.5 23q48 0 88.5 -22t64.5 -61t24 -90q0 -48 -22.5 -88t-62.5 -63.5t-92 -23.5q-49 0 -89.5 22zM303.5 426q36.5 37 36.5 92q0 56 -36.5 92.5t-92.5 36.5t-92 -36.5
t-36 -92.5t36 -92.5t92 -36.5t92.5 37zM530.5 17q-40.5 22 -64 61.5t-23.5 90.5q0 48 22.5 88t62.5 63t92 23q48 0 88.5 -22t64.5 -61.5t24 -90.5q0 -47 -22.5 -87t-62.5 -63.5t-92 -23.5q-49 0 -89.5 22zM712.5 77q36.5 37 36.5 92q0 56 -36.5 92.5t-92.5 36.5t-92 -36.5
t-36 -92.5q0 -57 36 -93t92 -36t92.5 37z" />
    <glyph glyph-name="ampersand" unicode="&#x26;" horiz-adv-x="647" 
d="M522 118l118 -118h-68l-82 81h-2q-39 -41 -92.5 -63.5t-119.5 -22.5q-65 0 -117 23t-82 66.5t-30 102.5q0 64 36.5 115.5t101.5 81.5l-4 4q-78 76 -78 159q0 44 21.5 82.5t63.5 62t101 23.5q76 0 124 -39t48 -112t-52.5 -119.5t-138.5 -75.5l214 -211h2q43 69 43 164
l52 1q0 -53 -15 -107t-44 -96v-2zM173 479q17 -31 52 -65l10 -10q91 30 131.5 65.5t40.5 91.5q0 50 -31.5 77.5t-86.5 27.5q-58 0 -95.5 -34t-37.5 -88q0 -34 17 -65zM453 119l-235 232q-54 -23 -85 -64.5t-31 -93.5q0 -66 49 -106t131 -40q103 0 171 70v2z" />
    <glyph glyph-name="quotesingle" unicode="'" horiz-adv-x="189" 
d="M92 481h-44l34 229h58z" />
    <glyph glyph-name="parenleft" unicode="(" horiz-adv-x="266" 
d="M176 -142q-107 204 -107 439q0 123 30 237.5t82 202.5l41 -21q-48 -87 -75 -195t-27 -224q0 -118 25.5 -220.5t73.5 -199.5z" />
    <glyph glyph-name="parenright" unicode=")" horiz-adv-x="266" 
d="M47 -123q47 98 73 200.5t26 219.5q0 116 -27 224t-75 195l41 21q52 -88 81.5 -202.5t29.5 -237.5q0 -234 -106 -439z" />
    <glyph glyph-name="asterisk" unicode="*" horiz-adv-x="415" 
d="M227 399h-39l4 128l-109 -68l-20 35l114 60l-115 61l21 35l109 -68l-4 128h39l-4 -128l110 68l19 -35l-114 -60l114 -61l-19 -33l-109 66z" />
    <glyph glyph-name="plus" unicode="+" horiz-adv-x="592" 
d="M320 45h-50v207h-207v49h207v208h50v-208h208v-49h-208v-207z" />
    <glyph glyph-name="comma" unicode="," horiz-adv-x="193" 
d="M78 -129h-42l34 230h59z" />
    <glyph glyph-name="hyphen" unicode="-" horiz-adv-x="415" 
d="M354 282h-292v52h292v-52z" />
    <glyph glyph-name="period" unicode="." horiz-adv-x="216" 
d="M76 7.5q-13 12.5 -13 31.5t13 31.5t32 12.5t32 -12.5t13 -31.5t-13 -31.5t-32 -12.5t-32 12.5z" />
    <glyph glyph-name="slash" unicode="/" horiz-adv-x="389" 
d="M409 737l-386 -851l-44 21l387 851z" />
    <glyph glyph-name="zero" unicode="0" horiz-adv-x="639" 
d="M182.5 35q-58.5 40 -91 118.5t-32.5 188.5q0 102 29.5 181t88 123.5t142.5 44.5q77 0 136 -40t91.5 -118.5t32.5 -190.5q0 -100 -29.5 -178.5t-88 -123.5t-142.5 -45q-78 0 -136.5 40zM469.5 128q52.5 80 52.5 214q0 144 -55 220.5t-148 76.5q-98 0 -151 -80.5
t-53 -216.5q0 -94 25.5 -160t71.5 -100t107 -34q98 0 150.5 80z" />
    <glyph glyph-name="one" unicode="1" horiz-adv-x="358" 
d="M256 0h-55v619l-149 -112l-28 41l185 139h47v-687z" />
    <glyph glyph-name="two" unicode="2" horiz-adv-x="511" 
d="M38 0v41l245 241q57 56 87 103.5t30 104.5q0 66 -43 107.5t-116 41.5q-91 0 -177 -72l-30 45q47 37 98 58t114 21q60 0 108 -24t75 -68.5t27 -103.5q0 -62 -31 -119.5t-96 -121.5l-207 -200l1 -2h340v-52h-425z" />
    <glyph glyph-name="three" unicode="3" horiz-adv-x="537" 
d="M27 64l27 48q87 -64 193 -64q89 0 134.5 37t45.5 103q0 64 -44.5 104.5t-129.5 40.5h-71v49h81q73 0 110.5 37.5t37.5 88.5q0 60 -43 95.5t-115 35.5q-49 0 -93.5 -14t-87.5 -50l-30 44q92 72 214 72q93 0 152 -47t59 -129q0 -50 -29 -93t-82 -62v-2q60 -20 94 -66
t34 -111q0 -85 -59 -135.5t-172 -50.5q-130 0 -226 69z" />
    <glyph glyph-name="four" unicode="4" horiz-adv-x="573" 
d="M438 0h-55v155h-356v43l364 489h47v-481h104v-51h-104v-155zM386 596l-294 -393h294v393z" />
    <glyph glyph-name="five" unicode="5" horiz-adv-x="550" 
d="M390.5 406q52.5 -26 83 -75t30.5 -117q0 -103 -69 -161t-182 -58q-66 0 -119 17.5t-100 51.5l27 49q47 -34 94 -50t99 -16q87 0 140 45t53 122q0 79 -53 124t-134 45q-43 0 -77 -10t-77 -30l-33 15l20 330h378v-52h-327l-14 -236q66 32 142 32q66 0 118.5 -26z" />
    <glyph glyph-name="six" unicode="6" horiz-adv-x="585" 
d="M435 406.5q50 -25.5 79.5 -74t29.5 -115.5q0 -65 -31 -115.5t-83.5 -78.5t-116.5 -28q-119 0 -186.5 87.5t-67.5 249.5q0 135 42.5 215.5t106 112.5t134.5 32q43 0 85.5 -9t71.5 -23l-22 -50q-28 14 -63 22t-72 8q-113 0 -171 -83.5t-58 -226.5v-4l1 -1q33 49 87.5 78
t122.5 29q61 0 111 -25.5zM401 69q40 21 63 59t23 88q0 51 -23 88t-62 57t-86 20q-71 0 -121.5 -35.5t-76.5 -89.5q13 -100 64.5 -154t130.5 -54q48 0 88 21z" />
    <glyph glyph-name="seven" unicode="7" horiz-adv-x="499" 
d="M174 0h-60l287 635h-373v52h434v-42z" />
    <glyph glyph-name="eight" unicode="8" horiz-adv-x="580" 
d="M114.5 46q-63.5 50 -63.5 140q0 68 39 117.5t103 64.5v2q-46 14 -81 55t-35 99q0 77 57 122t155 45t155 -45.5t57 -121.5q0 -59 -35.5 -100t-81.5 -54v-2q65 -15 104.5 -64.5t39.5 -117.5q0 -91 -64 -140.5t-175 -49.5t-174.5 50zM402.5 427q44.5 35 44.5 93q0 57 -43 89
t-115 32t-115 -32t-43 -89q0 -58 44.5 -93t113.5 -35t113.5 35zM423.5 85.5q47.5 39.5 47.5 105.5q0 68 -49.5 109.5t-132.5 41.5t-132.5 -41.5t-49.5 -109.5q0 -66 47.5 -105.5t134.5 -39.5t134.5 39.5z" />
    <glyph glyph-name="nine" unicode="9" horiz-adv-x="595" 
d="M419.5 653q56.5 -39 87 -115.5t30.5 -185.5q0 -134 -43 -213.5t-107 -111.5t-136 -32q-93 0 -163 36l23 48q59 -32 137 -32q116 0 175 82t59 224v9q-33 -48 -87 -77.5t-120 -29.5q-62 0 -112.5 25.5t-80 74t-29.5 114.5t31 116.5t84.5 78.5t118.5 28q76 0 132.5 -39z
M402 342.5q50 36.5 75 89.5q-13 100 -63.5 153.5t-127.5 53.5q-50 0 -90 -21t-63 -59.5t-23 -88.5q0 -75 49.5 -119.5t124.5 -44.5q68 0 118 36.5z" />
    <glyph glyph-name="colon" unicode=":" horiz-adv-x="205" 
d="M60 0zM73 414.5q-13 12.5 -13 31.5t13 31.5t32 12.5t32 -12.5t13 -31.5t-13 -31.5t-32 -12.5t-32 12.5zM73 7.5q-13 12.5 -13 31.5t13 31.5t32 12.5t32 -12.5t13 -31.5t-13 -31.5t-32 -12.5t-32 12.5z" />
    <glyph glyph-name="semicolon" unicode=";" horiz-adv-x="207" 
d="M42 0zM75 414.5q-13 12.5 -13 31.5t13 31.5t32 12.5t32 -12.5t13 -31.5t-13 -31.5t-32 -12.5t-32 12.5zM84 -129h-42l34 230h59z" />
    <glyph glyph-name="less" unicode="&#x3c;" horiz-adv-x="574" 
d="M499 108v-55l-440 207v40l440 208v-55l-365 -173z" />
    <glyph glyph-name="equal" unicode="=" horiz-adv-x="575" 
d="M66 139zM530 139h-464v49h464v-49zM530 365h-464v49h464v-49z" />
    <glyph glyph-name="greater" unicode="&#x3e;" horiz-adv-x="571" 
d="M516 260l-440 -207v55l365 172l-365 173v55l440 -208v-40z" />
    <glyph glyph-name="question" unicode="?" horiz-adv-x="438" 
d="M176 249q0 28 12.5 53t27.5 43t53 58q37 40 57.5 75.5t20.5 79.5q0 60 -38 94.5t-94 34.5q-43 0 -81 -20t-62 -58l-39 39q32 45 80.5 69t104.5 24q54 0 97 -23t67.5 -64.5t24.5 -93.5q0 -54 -24.5 -96t-67.5 -87l-16 -17q-38 -37 -56 -61.5t-18 -51.5l-1 -54h-48v56z
M169 7.5q-13 12.5 -13 31.5t13 31.5t33 12.5q19 0 31.5 -12.5t12.5 -31.5t-12.5 -31.5t-31.5 -12.5q-20 0 -33 12.5z" />
    <glyph glyph-name="at" unicode="@" horiz-adv-x="907" 
d="M231.5 -89q-82.5 47 -130 131t-47.5 190q0 96 44 192.5t141.5 162.5t247.5 66q107 0 190 -44.5t129.5 -125.5t46.5 -186q0 -53 -19.5 -111.5t-63 -100t-110.5 -41.5q-71 0 -80 70q-6 12 -6 36l-3 1q-22 -46 -65.5 -71.5t-97.5 -25.5q-49 0 -89 24t-63.5 67.5t-23.5 100.5
q0 50 22 101.5t69 86t116 34.5q51 0 90 -26t58 -73l2 1l9 94h54l-26 -278q-2 -24 -2 -31q0 -40 12 -53t36 -13q45 0 75.5 34t45.5 82.5t15 90.5q0 92 -40.5 164t-113.5 111.5t-167 39.5q-129 0 -216.5 -57t-129.5 -144t-42 -178q0 -90 40.5 -164t112.5 -117t164 -43
q64 0 116 13t99 39l22 -33q-100 -63 -237 -63q-102 0 -184.5 47zM510.5 130.5q36.5 26.5 54.5 66.5t18 79q0 62 -36.5 102.5t-94.5 40.5q-52 0 -89.5 -24t-56.5 -62.5t-19 -80.5q0 -65 38 -106.5t96 -41.5q53 0 89.5 26.5z" />
    <glyph glyph-name="A" unicode="A" horiz-adv-x="664" 
d="M89 0h-59l271 710h60l274 -710h-60l-73 191h-341zM330 642l-150 -400h304l-152 400h-2z" />
    <glyph glyph-name="B" unicode="B" horiz-adv-x="636" 
d="M96 0v710h219q105 0 166 -41.5t61 -130.5q0 -57 -31 -102t-90 -63v-1q68 -12 112 -58.5t44 -123.5q0 -87 -61 -138.5t-180 -51.5h-240zM324 394q67 0 113.5 32t46.5 102q0 62 -42.5 96t-131.5 34h-157v-264h171zM333 52q85 0 135 36t50 105q0 71 -49.5 110.5t-141.5 39.5
h-174v-291h180z" />
    <glyph glyph-name="C" unicode="C" horiz-adv-x="724" 
d="M233.5 37.5q-79.5 42.5 -124 123t-44.5 191.5q0 103 41 185t120 130t190 48q81 0 150.5 -29.5t121.5 -87.5l-38 -42q-45 51 -106 78t-131 27q-89 0 -154.5 -40t-100 -110t-34.5 -159q0 -93 36.5 -161.5t103 -104.5t154.5 -36q146 0 237 90l30 -48q-49 -47 -117 -72
t-153 -25q-102 0 -181.5 42.5z" />
    <glyph glyph-name="D" unicode="D" horiz-adv-x="729" 
d="M96 0v710h201q110 0 194 -45t129.5 -126t45.5 -185t-45 -184.5t-128 -125t-193 -44.5h-204zM297 52q94 0 164.5 38.5t108 107t37.5 156.5q0 89 -38.5 158t-109 107.5t-162.5 38.5h-144v-606h144z" />
    <glyph glyph-name="E" unicode="E" horiz-adv-x="621" 
d="M571 0h-475v710h461v-52h-404v-278h370v-52h-370v-276h418v-52z" />
    <glyph glyph-name="F" unicode="F" horiz-adv-x="589" 
d="M153 0h-57v710h458v-52h-401v-284h358v-53h-358v-321z" />
    <glyph glyph-name="G" unicode="G" horiz-adv-x="774" 
d="M228.5 40q-79.5 44 -121.5 124.5t-42 187.5q0 103 41 185t120 130t189 48q81 0 150.5 -29.5t122.5 -87.5l-38 -42q-45 51 -106 78t-133 27q-88 0 -153 -40t-99.5 -110t-34.5 -159q0 -90 33.5 -158t99.5 -106.5t160 -38.5q140 0 227 64v189h-236v52h292v-272
q-51 -41 -124.5 -63.5t-159.5 -22.5q-108 0 -187.5 44z" />
    <glyph glyph-name="H" unicode="H" horiz-adv-x="723" 
d="M153 0h-57v710h57v-348h417v348h57v-710h-57v310h-417v-310z" />
    <glyph glyph-name="I" unicode="I" horiz-adv-x="263" 
d="M160 0h-57v710h57v-710z" />
    <glyph glyph-name="J" unicode="J" horiz-adv-x="544" 
d="M121.5 24q-58.5 28 -101.5 78l35 44q43 -49 87 -73t108 -24q69 0 110.5 44t41.5 139v478h57v-478q0 -119 -53 -177.5t-154 -58.5q-72 0 -130.5 28z" />
    <glyph glyph-name="K" unicode="K" horiz-adv-x="659" 
d="M329 391q82 -70 161 -176t130 -215h-64q-48 98 -120 192.5t-146 158.5l-137 -158v-193h-57v710h57v-437h2l377 437h74z" />
    <glyph glyph-name="L" unicode="L" horiz-adv-x="580" 
d="M551 0h-455v710h57v-658h398v-52z" />
    <glyph glyph-name="M" unicode="M" horiz-adv-x="880" 
d="M153 0h-56v710h57l286 -491h2l285 491h57v-710h-57v599h-2l-264 -450h-41l-266 450h-1v-599z" />
    <glyph glyph-name="N" unicode="N" horiz-adv-x="764" 
d="M153 0h-57v710h55l460 -616h1v616h56v-710h-56l-458 612h-1v-612z" />
    <glyph glyph-name="O" unicode="O" horiz-adv-x="834" 
d="M238.5 41q-80.5 46 -127 128t-46.5 187t46.5 186.5t127 127t180.5 45.5q97 0 177 -45t126.5 -127t46.5 -187q0 -106 -46.5 -188t-126.5 -127.5t-177 -45.5q-100 0 -180.5 46zM565.5 88q66.5 39 105.5 109t39 159t-39 158.5t-105.5 108t-146.5 38.5q-83 0 -150.5 -39
t-106 -108.5t-38.5 -157.5q0 -89 38.5 -159t106 -109t150.5 -39q80 0 146.5 39z" />
    <glyph glyph-name="P" unicode="P" horiz-adv-x="609" 
d="M96 0v710h241q116 0 172 -57t56 -153q0 -107 -65.5 -160t-178.5 -53h-168v-287h-57zM316 340q97 0 143.5 43.5t46.5 116.5q0 77 -45.5 117.5t-124.5 40.5h-183v-318h163z" />
    <glyph glyph-name="Q" unicode="Q" horiz-adv-x="847" 
d="M783 32l-33 -41l-98 89q-47 -41 -107 -63t-127 -22q-103 0 -183.5 47.5t-125 130t-44.5 183.5q0 100 44.5 182t125 129.5t183.5 47.5q98 0 178 -45t126.5 -127t46.5 -187q0 -71 -21 -132t-61 -107zM161.5 200q37.5 -70 104.5 -110.5t152 -40.5q55 0 103.5 18t87.5 52
l-92 83l32 40l95 -86q66 85 66 200q0 88 -38.5 157.5t-105.5 108.5t-148 39q-85 0 -152 -40.5t-104.5 -110t-37.5 -154.5q0 -86 37.5 -156z" />
    <glyph glyph-name="R" unicode="R" horiz-adv-x="639" 
d="M497 163q57 -78 98 -163h-65q-42 84 -100.5 160t-118.5 127h-158v-287h-57v710h243q115 0 171.5 -56t56.5 -151q0 -90 -49.5 -142t-138.5 -64q61 -56 118 -134zM153 658v-318h165q98 0 144 43.5t46 117.5q0 77 -46 117t-128 40h-181z" />
    <glyph glyph-name="S" unicode="S" horiz-adv-x="581" 
d="M162 16.5q-63 21.5 -108 63.5l28 53q40 -43 98 -64t120 -21q81 0 129.5 33t48.5 96q0 41 -20.5 67t-52.5 42t-91 38l-32 12q-71 27 -111.5 48t-69 58t-28.5 94q0 54 27.5 94.5t76 62.5t109.5 22q67 0 125.5 -18t102.5 -54l-33 -47q-39 33 -91 50t-104 17q-62 0 -108 -32
t-46 -91q0 -40 21 -66t55 -43t97 -41l19 -7q75 -28 116.5 -49.5t69 -58t27.5 -93.5q0 -90 -61.5 -138.5t-177.5 -48.5q-73 0 -136 21.5z" />
    <glyph glyph-name="T" unicode="T" horiz-adv-x="563" 
d="M308 0h-57v658h-222v52h504v-52h-225v-658z" />
    <glyph glyph-name="U" unicode="U" horiz-adv-x="709" 
d="M160 68q-73 73 -73 209v433h56v-430q0 -110 57 -170t154 -60t155 59t58 171v430h56v-433q0 -135 -73 -208.5t-196 -73.5q-121 0 -194 73z" />
    <glyph glyph-name="V" unicode="V" horiz-adv-x="656" 
d="M355 0h-52l-270 710h62l234 -631h2l232 631h63z" />
    <glyph glyph-name="W" unicode="W" horiz-adv-x="1011" 
d="M320 0h-54l-229 710h61l195 -621h1l180 621h65l178 -621h1l197 621h61l-230 -710h-56l-183 631h-1z" />
    <glyph glyph-name="X" unicode="X" horiz-adv-x="640" 
d="M103 0h-67l247 353l-246 357h66l217 -315h1l216 315h67l-247 -357l248 -353h-68l-216 309h-2z" />
    <glyph glyph-name="Y" unicode="Y" horiz-adv-x="584" 
d="M319 0h-57v320l-244 390h66l205 -333h2l207 333h66l-245 -390v-320z" />
    <glyph glyph-name="Z" unicode="Z" horiz-adv-x="612" 
d="M544 0h-483v47l405 609l-1 2h-381v52h456v-47l-406 -609l1 -2h409v-52z" />
    <glyph glyph-name="bracketleft" unicode="[" horiz-adv-x="295" 
d="M251 -142h-170v869h170v-44h-122v-782h122v-43z" />
    <glyph glyph-name="backslash" unicode="\" horiz-adv-x="393" 
d="M418 -93l-43 -21l-387 851l43 21z" />
    <glyph glyph-name="bracketright" unicode="]" horiz-adv-x="295" 
d="M214 727v-869h-170v43h122v782h-122v44h170z" />
    <glyph glyph-name="asciicircum" unicode="^" horiz-adv-x="471" 
d="M120 500h-51l143 210h46l143 -210h-52l-114 170z" />
    <glyph glyph-name="underscore" unicode="_" horiz-adv-x="515" 
d="M522 -69h-528v41h528v-41z" />
    <glyph glyph-name="grave" unicode="`" horiz-adv-x="506" 
d="M327 546h-58l-117 133h63z" />
    <glyph glyph-name="a" unicode="a" horiz-adv-x="539" 
d="M530 3q-26 -8 -47 -8q-37 0 -62.5 21.5t-32.5 62.5h-1q-28 -38 -76.5 -61t-105.5 -23q-78 0 -121 39t-43 102q0 69 45 108t138 39h159v9q0 75 -31.5 112.5t-104.5 37.5q-84 0 -157 -32l-16 46q84 34 179 34q97 0 139 -51.5t42 -149.5v-161q0 -46 15.5 -66.5t39.5 -20.5
q14 0 37 7zM296 59.5q39 17.5 62.5 46t23.5 59.5v75h-153q-61 0 -97.5 -25.5t-36.5 -74.5q0 -42 29 -70t89 -28q44 0 83 17.5z" />
    <glyph glyph-name="b" unicode="b" horiz-adv-x="618" 
d="M215 25.5q-50 30.5 -77 83.5h-1v-109h-52v736h53v-360h1q29 54 79 84t113 30q69 0 123 -33t84 -90.5t30 -127.5q0 -72 -31 -127.5t-85.5 -86t-120.5 -30.5t-116 30.5zM423.5 70.5q42.5 25.5 66 69.5t23.5 98q0 60 -25 106t-68 71.5t-95 25.5q-56 0 -98.5 -27t-66 -73.5
t-23.5 -102.5q0 -57 25 -101t68 -68t96 -24q55 0 97.5 25.5z" />
    <glyph glyph-name="c" unicode="c" horiz-adv-x="517" 
d="M115.5 62.5q-65.5 67.5 -65.5 179.5q0 73 30 129t84.5 87.5t126.5 31.5q52 0 100.5 -17t86.5 -49l-31 -41q-31 26 -71 42t-85 16q-55 0 -97.5 -25t-66 -70.5t-23.5 -103.5q0 -90 52 -143.5t148 -53.5q39 0 80.5 11.5t69.5 35.5l27 -44q-33 -27 -82.5 -40t-98.5 -13
q-119 0 -184.5 67.5z" />
    <glyph glyph-name="d" unicode="d" horiz-adv-x="619" 
d="M167.5 25.5q-54.5 30.5 -86 86t-31.5 127.5q0 70 30.5 127.5t85 90.5t123.5 33q62 0 112.5 -30.5t77.5 -85.5h2v362h52v-736h-51v111h-2q-25 -53 -75.5 -84.5t-115.5 -31.5q-67 0 -121.5 30.5zM389 69q43 24 68 68t25 101q0 56 -23.5 102.5t-66.5 73.5t-97 27
q-53 0 -96.5 -25.5t-69 -71.5t-25.5 -106q0 -54 24 -98t67.5 -69.5t99.5 -25.5q51 0 94 24z" />
    <glyph glyph-name="e" unicode="e" horiz-adv-x="546" 
d="M502 231h-398q4 -86 58 -137t147 -51q45 0 87.5 11t70.5 36l26 -43q-68 -52 -186 -52q-81 0 -139 31.5t-88 87.5t-30 129q0 71 30.5 127.5t84 88t121.5 31.5t117 -30t74.5 -83t25.5 -121zM164.5 395q-48.5 -46 -58.5 -120h345q-8 78 -50.5 122t-116.5 44
q-71 0 -119.5 -46z" />
    <glyph glyph-name="f" unicode="f" horiz-adv-x="347" 
d="M107 0v438h-85v47h85v95q0 82 41 121.5t111 39.5q68 0 127 -33l-22 -42q-25 14 -48.5 21t-53.5 7q-45 0 -73 -27t-28 -89v-93h172v-47h-172v-438h-54z" />
    <glyph glyph-name="g" unicode="g" horiz-adv-x="604" 
d="M181.5 -191q-56.5 11 -100.5 37l21 47q81 -46 191 -46q92 0 136.5 45.5t44.5 122.5v104h-1q-27 -50 -75.5 -79t-112.5 -29q-66 0 -120 30t-85 84.5t-31 126.5q0 66 29.5 120.5t83 86t121.5 31.5q61 0 110.5 -27.5t78.5 -77.5h1v100h53v-461q0 -105 -56.5 -165.5
t-175.5 -60.5q-56 0 -112.5 11zM387 86q42 25 65 68.5t23 98.5t-24 98t-66.5 66.5t-94.5 23.5q-55 0 -97 -25t-65.5 -68t-23.5 -95q0 -57 24.5 -100.5t67 -67.5t94.5 -24q55 0 97 25z" />
    <glyph glyph-name="h" unicode="h" horiz-adv-x="578" 
d="M85 0v736h53v-356h1q27 52 77.5 81t115.5 29q80 0 126.5 -50.5t46.5 -147.5v-292h-54v275q0 87 -35.5 126.5t-95.5 39.5q-83 0 -132.5 -54t-49.5 -145v-242h-53z" />
    <glyph glyph-name="i" unicode="i" horiz-adv-x="237" 
d="M75 0zM144 0h-53v485h53v-485zM163 590zM87.5 603q-12.5 13 -12.5 31q0 19 12.5 31t31.5 12t31.5 -12t12.5 -31q0 -18 -12.5 -31t-31.5 -13t-31.5 13z" />
    <glyph glyph-name="j" unicode="j" horiz-adv-x="208" 
d="M0 0zM-56 -187l10 49q25 -15 58 -15q67 0 67 86v552h53v-553q0 -64 -27.5 -99t-85.5 -35q-42 0 -75 15zM151 590zM75.5 603q-12.5 13 -12.5 31q0 19 12.5 31t31.5 12t31.5 -12t12.5 -31q0 -18 -12.5 -31t-31.5 -13t-31.5 13z" />
    <glyph glyph-name="k" unicode="k" horiz-adv-x="531" 
d="M299 277q60 -54 117 -129t90 -148h-60q-32 66 -82.5 131.5t-102.5 112.5l-123 -131v-113h-53v736h53v-558l2 -1l283 308h68z" />
    <glyph glyph-name="l" unicode="l" horiz-adv-x="317" 
d="M116.5 31q-31.5 36 -31.5 110v595h53v-592q0 -52 20.5 -76.5t61.5 -24.5q23 0 41.5 4.5t37.5 16.5l9 -47q-37 -22 -95 -22q-65 0 -96.5 36z" />
    <glyph glyph-name="m" unicode="m" horiz-adv-x="887" 
d="M85 0v485h53v-106h1q27 52 73 81.5t100 29.5q60 0 99.5 -32.5t56.5 -91.5h1q25 58 73.5 91t108.5 33q81 0 123 -55t42 -156v-279h-53v262q0 89 -32 134t-93 45q-44 0 -80 -25t-57 -70.5t-21 -105.5v-240h-53v262q0 88 -33 133.5t-94 45.5q-46 0 -82.5 -25t-58 -70.5
t-21.5 -105.5v-240h-53z" />
    <glyph glyph-name="n" unicode="n" horiz-adv-x="573" 
d="M85 0v485h53v-107h2q27 53 76.5 82.5t111.5 29.5q80 0 126 -51t46 -149v-290h-54v273q0 88 -35 128t-96 40q-80 0 -128.5 -54.5t-48.5 -145.5v-241h-53z" />
    <glyph glyph-name="o" unicode="o" horiz-adv-x="595" 
d="M168.5 28q-56.5 33 -87.5 89.5t-31 124.5t31 125t87.5 90t128.5 33q69 0 125.5 -31.5t89 -88t32.5 -128.5t-32.5 -128t-89 -87.5t-125.5 -31.5q-72 0 -128.5 33zM395 70q44 25 69.5 70t25.5 102q0 58 -25.5 103.5t-70 70.5t-97.5 25q-57 0 -101 -26.5t-68 -72t-24 -100.5
q0 -54 24.5 -99t68 -71.5t100.5 -26.5q54 0 98 25z" />
    <glyph glyph-name="p" unicode="p" horiz-adv-x="619" 
d="M85 -198v683h53v-109h2q27 53 77.5 83.5t112.5 30.5q69 0 123 -33t84.5 -90.5t30.5 -127.5q0 -72 -31.5 -127.5t-86 -86t-120.5 -30.5q-64 0 -113.5 30t-76.5 82l-2 -1v-304h-53zM422 70.5q43 25.5 67 69.5t24 98q0 60 -25.5 106t-68.5 71.5t-96 25.5q-55 0 -97 -27
t-65.5 -73.5t-23.5 -102.5q0 -57 25 -101t67.5 -68t94.5 -24q55 0 98 25.5z" />
    <glyph glyph-name="q" unicode="q" horiz-adv-x="618" 
d="M482 -198v305h-1q-28 -52 -77.5 -82t-113.5 -30q-66 0 -120.5 30.5t-86 86t-31.5 127.5q0 70 30.5 127.5t85 90.5t123.5 33q61 0 111.5 -30.5t78.5 -84.5h1v110h53v-683h-53zM390.5 69.5q42.5 24.5 67.5 68t25 100.5q0 56 -23.5 102.5t-66 73.5t-96.5 27
q-53 0 -96.5 -25.5t-69 -71.5t-25.5 -106q0 -54 24 -98t67.5 -69.5t99.5 -25.5q51 0 93.5 24.5z" />
    <glyph glyph-name="r" unicode="r" horiz-adv-x="413" 
d="M85 0v485h53v-102h2q24 50 76 78.5t113 28.5q46 0 77 -10l-10 -53q-35 11 -79 11q-46 0 -87 -20t-66.5 -61t-25.5 -102v-255h-53z" />
    <glyph glyph-name="s" unicode="s" horiz-adv-x="451" 
d="M129 7.5q-44 12.5 -87 36.5l23 47q44 -24 81.5 -36t85.5 -12q61 0 93 21.5t32 61.5q0 29 -17 47t-47 29t-82 24q-77 19 -118.5 50.5t-41.5 88.5t44 91t124 34q96 0 171 -47l-26 -43q-65 42 -142 42q-54 0 -86 -19.5t-32 -56.5q0 -36 31.5 -57t99.5 -37q61 -14 98 -30.5
t57.5 -43.5t20.5 -69q0 -64 -46 -99t-137 -35q-55 0 -99 12.5z" />
    <glyph glyph-name="t" unicode="t" horiz-adv-x="417" 
d="M138 31q-32 36 -32 107v300h-87v47h87v174l53 6v-180h210v-47h-210v-287q0 -54 20.5 -81t70.5 -27q39 0 63.5 8t48.5 22l19 -45q-51 -33 -135 -33q-76 0 -108 36z" />
    <glyph glyph-name="u" unicode="u" horiz-adv-x="560" 
d="M121 49q-48 54 -48 153v283h53v-265q0 -175 139 -175q45 0 82.5 25t59 71t21.5 107v237h53v-485h-53v104l-1 1q-26 -52 -71.5 -81t-99.5 -29q-87 0 -135 54z" />
    <glyph glyph-name="v" unicode="v" horiz-adv-x="513" 
d="M282 0h-50l-203 485h58l170 -417h1l168 417h58z" />
    <glyph glyph-name="w" unicode="w" horiz-adv-x="764" 
d="M252 0h-50l-169 485h57l139 -406h2l126 406h49l129 -406h2l139 406h56l-169 -485h-51l-130 404h-1z" />
    <glyph glyph-name="x" unicode="x" horiz-adv-x="492" 
d="M95 0h-61l181 244l-182 241h64l148 -199h2l149 199h64l-181 -240l182 -245h-63l-151 199h-1z" />
    <glyph glyph-name="y" unicode="y" horiz-adv-x="516" 
d="M-15 -165l22 44q39 -32 89 -32q44 0 71.5 29t57.5 106l11 28l-214 475h59l181 -411h1l168 411h57l-213 -515q-24 -59 -46 -95t-53.5 -56.5t-78.5 -20.5q-65 0 -112 37z" />
    <glyph glyph-name="z" unicode="z" horiz-adv-x="467" 
d="M437 0h-399v42l311 395v1h-297v47h370v-39l-312 -397l1 -2h326v-47z" />
    <glyph glyph-name="braceleft" unicode="{" horiz-adv-x="320" 
d="M223 -142q-43 0 -72 27t-29 73v232q0 23 -4 37.5t-21 25t-53 12.5v44q36 3 53 13.5t21 25t4 36.5v241q0 44 27 73t74 29h41v-41h-27q-31 0 -50 -19.5t-19 -49.5v-234q0 -44 -12.5 -65.5t-47.5 -29.5v-2q36 -8 48 -28.5t12 -66.5v-211q0 -44 16.5 -63t52.5 -19h27v-40h-41
z" />
    <glyph glyph-name="bar" unicode="|" horiz-adv-x="287" 
d="M167 -115h-48v852h48v-852z" />
    <glyph glyph-name="braceright" unicode="}" horiz-adv-x="320" 
d="M57 -142v40h26q36 0 52.5 19t16.5 63v211q0 46 12 66.5t48 28.5v2q-35 8 -47.5 29.5t-12.5 65.5v234q0 30 -19 49.5t-50 19.5h-26v41h40q47 0 74.5 -29.5t27.5 -72.5v-241q0 -23 4 -37t20.5 -24.5t52.5 -13.5v-44q-36 -2 -52.5 -12.5t-20.5 -25t-4 -37.5v-232
q0 -46 -29 -73t-73 -27h-40z" />
    <glyph glyph-name="asciitilde" unicode="~" horiz-adv-x="561" 
d="M330.5 230q-22.5 9 -61.5 28q-50 24 -80 24q-53 0 -82 -57l-38 16q17 44 46 68t69 24q27 0 49 -7.5t52 -21.5q31 -16 50.5 -24t40.5 -8q24 0 44.5 14t32.5 42l38 -14q-15 -44 -45 -68.5t-65 -24.5q-28 0 -50.5 9z" />
    <glyph glyph-name="uni00A0" unicode="&#xa0;" horiz-adv-x="276" 
 />
    <glyph glyph-name="exclamdown" unicode="&#xa1;" horiz-adv-x="227" 
d="M153 477.5q13 -12.5 13 -31.5t-13 -31.5t-32 -12.5t-32 12.5t-13 31.5t13 31.5t32 12.5t32 -12.5zM92 -251l10 541h42l9 -541h-61z" />
    <glyph glyph-name="cent" unicode="&#xa2;" horiz-adv-x="543" 
d="M506 129q-30 -32 -76 -53.5t-99 -25.5v-108h-42v107q-68 4 -120 36.5t-81 87t-29 123.5t28.5 123.5t81 87t120.5 36.5v116h42v-116q51 -4 96 -24t77 -56l-38 -33q-27 30 -67.5 47.5t-88.5 17.5q-58 0 -102.5 -25t-69 -70t-24.5 -103t24.5 -102.5t68.5 -69.5t102 -25
q48 0 90.5 17t69.5 47z" />
    <glyph glyph-name="sterling" unicode="&#xa3;" horiz-adv-x="561" 
d="M49 0v52h86v283h-67v44h67v91q0 112 54 167t137 55q57 0 102.5 -25.5t75.5 -71.5l-39 -36q-48 79 -133 79q-64 0 -102.5 -44t-38.5 -131v-84h173v-44h-172v-283h341v-52h-484z" />
    <glyph glyph-name="currency" unicode="&#xa4;" horiz-adv-x="500" 
d="M390 270l78 -77l-28 -28l-78 78q-50 -40 -115 -40q-64 0 -114 40l-78 -77l-27 28l77 77q-40 50 -40 114t40 114l-77 78l27 28l78 -78q50 42 115 42q64 0 115 -40l77 77l28 -28l-77 -78q40 -50 40 -115q0 -66 -41 -115zM318 264.5q32 19.5 51 51.5t19 70t-19 70.5
t-51 51.5t-70 19t-70 -19t-51 -51.5t-19 -70.5t19 -70t51 -51.5t70 -19.5t70 19.5z" />
    <glyph glyph-name="yen" unicode="&#xa5;" horiz-adv-x="542" 
d="M462 687h65l-197 -341h145v-42h-169l-5 -8v-74h174v-42h-174v-180h-57v180h-180v42h180v74l-5 8h-175v42h151l-198 341h66l188 -332h2z" />
    <glyph glyph-name="brokenbar" unicode="&#xa6;" horiz-adv-x="287" 
d="M167 386h-48v351h48v-351zM167 -114h-48v353h48v-353z" />
    <glyph glyph-name="section" unicode="&#xa7;" horiz-adv-x="530" 
d="M438 73q19 -28 19 -71q0 -70 -51.5 -112t-141.5 -42q-49 0 -94.5 13.5t-92.5 38.5l22 52q85 -52 167 -52q57 0 95 26.5t38 75.5q0 32 -17.5 52.5t-45 33t-81.5 32.5q-69 25 -107 43.5t-63.5 49t-25.5 76.5q0 44 25 77.5t70 50.5q-70 44 -70 120q0 67 47.5 109t131.5 42
q93 0 176 -51l-25 -45q-74 44 -146 44q-55 0 -91 -25t-36 -73q0 -32 17.5 -54t45 -35.5t74.5 -30.5l22 -8q63 -24 96 -40.5t54 -44.5t21 -72t-23 -78t-65 -52q36 -22 55 -50zM132.5 242.5q18.5 -21.5 50 -36.5t88.5 -36q9 -4 20 -7l40 -16q39 11 62 36t23 60q0 34 -18 55
t-44 33t-91 36q-32 12 -55 22q-42 -7 -68 -32t-26 -62q0 -31 18.5 -52.5z" />
    <glyph glyph-name="dieresis" unicode="&#xa8;" horiz-adv-x="503" 
d="M138 589q-13 13 -13 30q0 18 13 30.5t31 12.5q19 0 31.5 -12t12.5 -31q0 -18 -12.5 -30.5t-31.5 -12.5q-18 0 -31 13zM303 589q-13 13 -13 30q0 19 12.5 31t31.5 12t31.5 -12t12.5 -31q0 -18 -12.5 -30.5t-31.5 -12.5q-18 0 -31 13z" />
    <glyph glyph-name="copyright" unicode="&#xa9;" horiz-adv-x="689" 
d="M195.5 60.5q-67.5 40.5 -107 109t-39.5 148.5t39.5 148.5t107.5 109t149 40.5t148.5 -40.5t106.5 -109t39 -148.5t-39 -148.5t-107 -109t-149 -40.5t-148.5 40.5zM472.5 96q58.5 35 92 94t33.5 128t-33.5 128t-91.5 94t-128 35t-128.5 -35t-92.5 -94t-34 -128
q0 -70 33.5 -129t92 -93.5t128.5 -34.5t128.5 35zM237 196.5q-46 42.5 -46 118.5q0 72 42.5 118.5t118.5 46.5t126 -61l-29 -24q-19 23 -44.5 35.5t-52.5 12.5q-57 0 -89.5 -35t-32.5 -93t34 -91t88 -33q61 0 97 48l29 -25q-48 -60 -126 -60q-69 0 -115 42.5z" />
    <glyph glyph-name="ordfeminine" unicode="&#xaa;" horiz-adv-x="424" 
d="M93.5 433q-41.5 41 -41.5 106t40.5 108t104.5 43q34 0 65 -16.5t51 -45.5h1v59h42v-292h-42v55h-1q-19 -28 -48.5 -43t-66.5 -15q-63 0 -104.5 41zM283 462q31 30 31 77t-30 79t-77 32q-48 0 -80 -31t-32 -80q0 -46 31 -76.5t80 -30.5q46 0 77 30z" />
    <glyph glyph-name="guillemotleft" unicode="&#xab;" horiz-adv-x="453" 
d="M95 245l126 -225h-53l-127 225l128 225h52zM259 245l127 -225h-53l-128 225l128 225h53z" />
    <glyph glyph-name="logicalnot" unicode="&#xac;" horiz-adv-x="576" 
d="M509 175h-50v156h-391v49h441v-205z" />
    <glyph glyph-name="registered" unicode="&#xae;" horiz-adv-x="689" 
d="M493.5 575.5q67.5 -40.5 106.5 -109t39 -148.5t-39 -148.5t-107 -109t-149 -40.5t-148.5 40.5t-107 109t-39.5 148.5t39.5 148.5t107.5 109t149 40.5t148.5 -40.5zM472.5 96q58.5 35 92 94t33.5 128t-33.5 128t-91.5 94t-128 35t-128.5 -35t-92.5 -94t-34 -128
q0 -70 33.5 -129t92 -93.5t128.5 -34.5t128.5 35zM440 320.5q-20 -23.5 -57 -30.5l92 -132h-45l-90 129h-58v-129h-37v324h111q53 0 78.5 -26.5t25.5 -70.5q0 -41 -20 -64.5zM283 447v-126h64q40 0 57.5 18t17.5 46q0 29 -18 45.5t-50 16.5h-71z" />
    <glyph glyph-name="macron" unicode="&#xaf;" horiz-adv-x="469" 
d="M373 592h-277v48h277v-48z" />
    <glyph glyph-name="degree" unicode="&#xb0;" horiz-adv-x="398" 
d="M131.5 466q-31.5 18 -50 49t-18.5 67q0 35 19 66t50.5 49t66.5 18q36 0 67 -18.5t50 -49.5t19 -67q0 -35 -18.5 -65.5t-50 -48.5t-67.5 -18t-67.5 18zM266.5 515.5q28.5 27.5 28.5 64.5q0 39 -29 67t-67 28t-67 -28t-29 -65q0 -40 28 -67t68 -27q39 0 67.5 27.5z" />
    <glyph glyph-name="plusminus" unicode="&#xb1;" horiz-adv-x="586" 
d="M65 0zM322 151h-50v207h-207v49h207v208h50v-208h208v-49h-208v-207zM531 0h-464v49h464v-49z" />
    <glyph glyph-name="uni00B2" unicode="&#xb2;" horiz-adv-x="335" 
d="M22 436zM26 436v34l150 139q37 35 54.5 60.5t17.5 55.5q0 37 -25.5 59.5t-67.5 22.5q-56 0 -110 -44l-23 40q67 49 135 49q63 0 101 -34t38 -90q0 -36 -20 -69.5t-65 -74.5l-113 -103l1 -2h202v-43h-275z" />
    <glyph glyph-name="uni00B3" unicode="&#xb3;" horiz-adv-x="342" 
d="M21 432zM21 477l21 40q54 -42 123 -42q50 0 74.5 21t24.5 57q0 37 -28 57.5t-83 20.5h-31v39h38q48 0 72 19t24 51t-23 50.5t-68 18.5q-63 0 -110 -38l-22 38q60 43 135 43q61 0 97.5 -28.5t36.5 -77.5q0 -34 -18.5 -58t-52.5 -35v-2q39 -11 60 -37t21 -65q0 -53 -36 -85
t-109 -32q-89 0 -146 45z" />
    <glyph glyph-name="acute" unicode="&#xb4;" horiz-adv-x="506" 
d="M237 545h-59l120 138h63z" />
    <glyph glyph-name="uni00B5" unicode="&#xb5;" horiz-adv-x="574" 
d="M83 -198v683h53v-261q0 -89 37.5 -134t104.5 -45q45 0 81.5 24.5t57.5 70t21 105.5v240h53v-485h-48l-4 103h-2q-26 -51 -70 -79.5t-97 -28.5q-94 0 -135 76l-1 -1q2 -72 2 -110v-158h-53z" />
    <glyph glyph-name="paragraph" unicode="&#xb6;" horiz-adv-x="427" 
d="M289 -149v749h-60v-600h-40v382q-63 2 -101.5 36t-38.5 93q0 61 39 95.5t106 34.5h134v-790h-39z" />
    <glyph glyph-name="periodcentered" unicode="&#xb7;" horiz-adv-x="199" 
d="M60 197zM73 209.5q-13 12.5 -13 31.5t13 31.5t32 12.5t32 -12.5t13 -31.5t-13 -31.5t-32 -12.5t-32 12.5z" />
    <glyph glyph-name="cedilla" unicode="&#xb8;" horiz-adv-x="390" 
d="M121 -180v34q23 -7 47 -7q25 0 43 11.5t18 32.5q0 20 -22 34.5t-61 14.5v25l19 41h38l-17 -39v-1q36 -2 60 -22.5t24 -55.5q0 -32 -25 -53t-72 -21q-30 0 -52 6z" />
    <glyph glyph-name="uni00B9" unicode="&#xb9;" horiz-adv-x="247" 
d="M18 436zM177 436h-46v351l-90 -61l-23 37l122 84h37v-411z" />
    <glyph glyph-name="ordmasculine" unicode="&#xba;" horiz-adv-x="414" 
d="M125.5 411q-34.5 20 -54 54t-19.5 76t19.5 76t54 53.5t79.5 19.5q42 0 77 -19t55 -53t20 -77q0 -44 -20 -78t-55 -53t-77 -19q-45 0 -79.5 20zM282 462.5q31 30.5 31 78.5t-31 78.5t-77 30.5q-48 0 -78 -31.5t-30 -77.5t30 -77.5t78 -31.5q46 0 77 30.5z" />
    <glyph glyph-name="guillemotright" unicode="&#xbb;" horiz-adv-x="453" 
d="M120 20h-53l127 225l-127 225h53l128 -225zM285 20h-53l126 225l-126 225h53l127 -225z" />
    <glyph glyph-name="onequarter" unicode="&#xbc;" horiz-adv-x="734" 
d="M18 0zM18 299zM177 299h-46v351l-90 -61l-23 37l122 84h37v-411zM525 701l-307 -713l-45 18l308 714zM644 411v-283h64v-42h-64v-86h-46v86h-211v33l220 292h37zM602 343l-166 -218h166v218z" />
    <glyph glyph-name="onehalf" unicode="&#xbd;" horiz-adv-x="763" 
d="M18 0zM18 299zM177 299h-46v351l-90 -61l-23 37l122 84h37v-411zM525 701l-307 -713l-45 18l308 714zM453 0v34l150 139q37 35 54.5 60.5t17.5 55.5q0 37 -25.5 59.5t-67.5 22.5q-56 0 -110 -44l-23 40q67 49 135 49q63 0 101 -34t38 -90q0 -36 -20 -69.5t-65 -74.5
l-113 -103l1 -2h202v-43h-275z" />
    <glyph glyph-name="threequarters" unicode="&#xbe;" horiz-adv-x="813" 
d="M21 0zM21 295zM21 340l21 40q54 -42 123 -42q50 0 74.5 21t24.5 57q0 37 -28 57.5t-83 20.5h-31v39h38q48 0 72 19t24 51t-23 50.5t-68 18.5q-63 0 -110 -38l-22 38q60 43 135 43q61 0 97.5 -28.5t36.5 -77.5q0 -34 -18.5 -58t-52.5 -35v-2q39 -11 60 -37t21 -65
q0 -53 -36 -85t-109 -32q-89 0 -146 45zM604 701l-307 -713l-45 18l308 714zM723 411v-283h64v-42h-64v-86h-46v86h-211v33l220 292h37zM681 343l-166 -218h166v218z" />
    <glyph glyph-name="questiondown" unicode="&#xbf;" horiz-adv-x="403" 
d="M269 477.5q13 -12.5 13 -31.5t-13 -31.5t-32 -12.5t-32 12.5t-13 31.5t13 31.5t32 12.5t32 -12.5zM262 236q0 -28 -12.5 -53t-27.5 -43t-53 -58q-37 -40 -57.5 -75.5t-20.5 -79.5q0 -60 38 -94.5t94 -34.5q43 0 81 20t62 58l39 -39q-32 -45 -80.5 -69t-104.5 -24
q-54 0 -97 23t-67 64.5t-24 93.5q0 54 24 96t67 87l16 17q38 37 56 61.5t18 51.5l1 54h48v-56z" />
    <glyph glyph-name="Agrave" unicode="&#xc0;" horiz-adv-x="664" 
d="M30 0zM89 0h-59l271 710h60l274 -710h-60l-73 191h-341zM330 642l-150 -400h304l-152 400h-2zM363 788h-58l-118 128h63z" />
    <glyph glyph-name="Aacute" unicode="&#xc1;" horiz-adv-x="664" 
d="M30 0zM89 0h-59l271 710h60l274 -710h-60l-73 191h-341zM330 642l-150 -400h304l-152 400h-2zM356 788h-57l113 128h62z" />
    <glyph glyph-name="Acircumflex" unicode="&#xc2;" horiz-adv-x="664" 
d="M30 0zM89 0h-59l271 710h60l274 -710h-60l-73 191h-341zM330 642l-150 -400h304l-152 400h-2zM242 788h-57l120 118h57l117 -118h-58l-87 85h-2z" />
    <glyph glyph-name="Atilde" unicode="&#xc3;" horiz-adv-x="664" 
d="M30 0zM89 0h-59l271 710h60l274 -710h-60l-73 191h-341zM330 642l-150 -400h304l-152 400h-2zM371 797q-19 9 -47 28q-40 27 -64 27q-19 0 -34.5 -15t-25.5 -43l-37 15q30 86 94 86q22 0 38.5 -7.5t43.5 -23.5q7 -4 20.5 -13.5t25 -14.5t22.5 -5q18 0 33 14.5t24 44.5
l37 -13q-13 -44 -37 -66.5t-54 -22.5q-20 0 -39 9z" />
    <glyph glyph-name="Adieresis" unicode="&#xc4;" horiz-adv-x="664" 
d="M30 0zM89 0h-59l271 710h60l274 -710h-60l-73 191h-341zM330 642l-150 -400h304l-152 400h-2zM459 810zM459 810zM219 823q-13 13 -13 30q0 18 13 30.5t31 12.5q19 0 31.5 -12t12.5 -31q0 -18 -12.5 -30.5t-31.5 -12.5q-18 0 -31 13zM384 823q-13 13 -13 30q0 19 12.5 31
t31.5 12t31.5 -12t12.5 -31q0 -18 -12.5 -30.5t-31.5 -12.5q-18 0 -31 13z" />
    <glyph glyph-name="Aring" unicode="&#xc5;" horiz-adv-x="664" 
d="M30 0zM89 0h-59l271 710h60l274 -710h-60l-73 191h-341zM330 642l-150 -400h304l-152 400h-2zM418 773zM271.5 797.5q-25.5 24.5 -25.5 59.5t25 59.5t61 24.5q35 0 60.5 -24.5t25.5 -59.5t-25 -59.5t-61 -24.5q-35 0 -60.5 24.5zM365 824.5q14 13.5 14 32.5t-14 33
t-33 14t-33 -14t-14 -33t14 -32.5t33 -13.5t33 13.5z" />
    <glyph glyph-name="AE" unicode="&#xc6;" horiz-adv-x="937" 
d="M68 0h-60l392 710h482v-52h-391v-278h357v-52h-357v-276h404v-52h-461v191h-259zM433 660l-231 -418h232v418h-1z" />
    <glyph glyph-name="Ccedilla" unicode="&#xc7;" horiz-adv-x="724" 
d="M400 -33v-1q36 -2 60.5 -23t24.5 -55q0 -32 -25 -53t-72 -21q-30 0 -53 6v34q23 -7 47 -7q25 0 43 11.5t18 32.5q0 20 -22 34.5t-61 14.5l1 25l15 32q-92 8 -162.5 52.5t-109.5 122t-39 180.5t41 185t120 130t190 48q81 0 150.5 -29.5t121.5 -87.5l-38 -42
q-45 51 -106 78t-131 27q-89 0 -154.5 -40t-100 -110t-34.5 -159q0 -93 36.5 -161.5t103 -104.5t154.5 -36q146 0 237 90l30 -48q-49 -47 -117 -72t-153 -25h-3z" />
    <glyph glyph-name="Egrave" unicode="&#xc8;" horiz-adv-x="621" 
d="M96 0zM571 0h-475v710h461v-52h-404v-278h370v-52h-370v-276h418v-52zM415 788h-58l-118 128h63z" />
    <glyph glyph-name="Eacute" unicode="&#xc9;" horiz-adv-x="621" 
d="M96 0zM571 0h-475v710h461v-52h-404v-278h370v-52h-370v-276h418v-52zM309 788h-57l113 128h62z" />
    <glyph glyph-name="Ecircumflex" unicode="&#xca;" horiz-adv-x="621" 
d="M96 0zM571 0h-475v710h461v-52h-404v-278h370v-52h-370v-276h418v-52zM243 788h-57l120 118h57l117 -118h-58l-87 85h-2z" />
    <glyph glyph-name="Edieresis" unicode="&#xcb;" horiz-adv-x="621" 
d="M96 0zM571 0h-475v710h461v-52h-404v-278h370v-52h-370v-276h418v-52zM460 810zM460 810zM220 823q-13 13 -13 30q0 18 13 30.5t31 12.5q19 0 31.5 -12t12.5 -31q0 -18 -12.5 -30.5t-31.5 -12.5q-18 0 -31 13zM385 823q-13 13 -13 30q0 19 12.5 31t31.5 12t31.5 -12
t12.5 -31q0 -18 -12.5 -30.5t-31.5 -12.5q-18 0 -31 13z" />
    <glyph glyph-name="Igrave" unicode="&#xcc;" horiz-adv-x="263" 
d="M0 0zM160 0h-57v710h57v-710zM160 788h-58l-118 128h63z" />
    <glyph glyph-name="Iacute" unicode="&#xcd;" horiz-adv-x="252" 
d="M103 0zM160 0h-57v710h57v-710zM161 788h-57l113 128h62z" />
    <glyph glyph-name="Icircumflex" unicode="&#xce;" horiz-adv-x="263" 
d="M0 0zM160 0h-57v710h57v-710zM41 788h-57l120 118h57l117 -118h-58l-87 85h-2z" />
    <glyph glyph-name="Idieresis" unicode="&#xcf;" horiz-adv-x="263" 
d="M5 0zM160 0h-57v710h57v-710zM258 810zM258 810zM18 823q-13 13 -13 30q0 18 13 30.5t31 12.5q19 0 31.5 -12t12.5 -31q0 -18 -12.5 -30.5t-31.5 -12.5q-18 0 -31 13zM183 823q-13 13 -13 30q0 19 12.5 31t31.5 12t31.5 -12t12.5 -31q0 -18 -12.5 -30.5t-31.5 -12.5
q-18 0 -31 13z" />
    <glyph glyph-name="Eth" unicode="&#xd0;" horiz-adv-x="729" 
d="M297 710q110 0 194 -45t129.5 -126t45.5 -185t-45 -184.5t-128 -125t-193 -44.5h-204v330h-78v52h78v328h201zM297 52q94 0 164.5 38.5t108 107t37.5 156.5q0 89 -38.5 158t-109 107.5t-162.5 38.5h-144v-276h209v-52h-209v-278h144z" />
    <glyph glyph-name="Ntilde" unicode="&#xd1;" horiz-adv-x="764" 
d="M96 0zM153 0h-57v710h55l460 -616h1v616h56v-710h-56l-458 612h-1v-612zM417 797q-19 9 -47 28q-40 27 -64 27q-19 0 -34.5 -15t-25.5 -43l-37 15q30 86 94 86q22 0 38.5 -7.5t43.5 -23.5q7 -4 20.5 -13.5t25 -14.5t22.5 -5q18 0 33 14.5t24 44.5l37 -13
q-13 -44 -37 -66.5t-54 -22.5q-20 0 -39 9z" />
    <glyph glyph-name="Ograve" unicode="&#xd2;" horiz-adv-x="834" 
d="M65 0zM238.5 41q-80.5 46 -127 128t-46.5 187t46.5 186.5t127 127t180.5 45.5q97 0 177 -45t126.5 -127t46.5 -187q0 -106 -46.5 -188t-126.5 -127.5t-177 -45.5q-100 0 -180.5 46zM565.5 88q66.5 39 105.5 109t39 159t-39 158.5t-105.5 108t-146.5 38.5
q-83 0 -150.5 -39t-106 -108.5t-38.5 -157.5q0 -89 38.5 -159t106 -109t150.5 -39q80 0 146.5 39zM468 788h-58l-118 128h63z" />
    <glyph glyph-name="Oacute" unicode="&#xd3;" horiz-adv-x="834" 
d="M65 0zM238.5 41q-80.5 46 -127 128t-46.5 187t46.5 186.5t127 127t180.5 45.5q97 0 177 -45t126.5 -127t46.5 -187q0 -106 -46.5 -188t-126.5 -127.5t-177 -45.5q-100 0 -180.5 46zM565.5 88q66.5 39 105.5 109t39 159t-39 158.5t-105.5 108t-146.5 38.5
q-83 0 -150.5 -39t-106 -108.5t-38.5 -157.5q0 -89 38.5 -159t106 -109t150.5 -39q80 0 146.5 39zM432 788h-57l113 128h62z" />
    <glyph glyph-name="Ocircumflex" unicode="&#xd4;" horiz-adv-x="834" 
d="M65 0zM238.5 41q-80.5 46 -127 128t-46.5 187t46.5 186.5t127 127t180.5 45.5q97 0 177 -45t126.5 -127t46.5 -187q0 -106 -46.5 -188t-126.5 -127.5t-177 -45.5q-100 0 -180.5 46zM565.5 88q66.5 39 105.5 109t39 159t-39 158.5t-105.5 108t-146.5 38.5
q-83 0 -150.5 -39t-106 -108.5t-38.5 -157.5q0 -89 38.5 -159t106 -109t150.5 -39q80 0 146.5 39zM328 788h-57l120 118h57l117 -118h-58l-87 85h-2z" />
    <glyph glyph-name="Otilde" unicode="&#xd5;" horiz-adv-x="834" 
d="M65 0zM238.5 41q-80.5 46 -127 128t-46.5 187t46.5 186.5t127 127t180.5 45.5q97 0 177 -45t126.5 -127t46.5 -187q0 -106 -46.5 -188t-126.5 -127.5t-177 -45.5q-100 0 -180.5 46zM565.5 88q66.5 39 105.5 109t39 159t-39 158.5t-105.5 108t-146.5 38.5
q-83 0 -150.5 -39t-106 -108.5t-38.5 -157.5q0 -89 38.5 -159t106 -109t150.5 -39q80 0 146.5 39zM457 797q-19 9 -47 28q-40 27 -64 27q-19 0 -34.5 -15t-25.5 -43l-37 15q30 86 94 86q22 0 38.5 -7.5t43.5 -23.5q7 -4 20.5 -13.5t25 -14.5t22.5 -5q18 0 33 14.5t24 44.5
l37 -13q-13 -44 -37 -66.5t-54 -22.5q-20 0 -39 9z" />
    <glyph glyph-name="Odieresis" unicode="&#xd6;" horiz-adv-x="834" 
d="M65 0zM238.5 41q-80.5 46 -127 128t-46.5 187t46.5 186.5t127 127t180.5 45.5q97 0 177 -45t126.5 -127t46.5 -187q0 -106 -46.5 -188t-126.5 -127.5t-177 -45.5q-100 0 -180.5 46zM565.5 88q66.5 39 105.5 109t39 159t-39 158.5t-105.5 108t-146.5 38.5
q-83 0 -150.5 -39t-106 -108.5t-38.5 -157.5q0 -89 38.5 -159t106 -109t150.5 -39q80 0 146.5 39zM545 810zM545 810zM305 823q-13 13 -13 30q0 18 13 30.5t31 12.5q19 0 31.5 -12t12.5 -31q0 -18 -12.5 -30.5t-31.5 -12.5q-18 0 -31 13zM470 823q-13 13 -13 30
q0 19 12.5 31t31.5 12t31.5 -12t12.5 -31q0 -18 -12.5 -30.5t-31.5 -12.5q-18 0 -31 13z" />
    <glyph glyph-name="multiply" unicode="&#xd7;" horiz-adv-x="505" 
d="M252 241l-156 -155l-35 35l156 155l-156 156l35 35l155 -156l157 156l35 -34l-157 -157l156 -156l-35 -34z" />
    <glyph glyph-name="Oslash" unicode="&#xd8;" horiz-adv-x="831" 
d="M681 603q43 -48 66.5 -111t23.5 -136q0 -106 -46.5 -188t-126.5 -127.5t-177 -45.5q-66 0 -125 20.5t-105 59.5l-88 -94l-36 33l89 95q-43 47 -66 110t-23 137q0 105 46.5 186.5t127 127t180.5 45.5q65 0 122.5 -20.5t103.5 -58.5l80 85l34 -32zM144 244q18 -52 52 -92
l412 442q-38 32 -86 49.5t-101 17.5q-83 0 -150.5 -39t-106 -108.5t-38.5 -157.5q0 -60 18 -112zM567.5 88q66.5 39 105.5 109t39 159q0 121 -70 205l-412 -444q39 -33 87.5 -50.5t103.5 -17.5q80 0 146.5 39z" />
    <glyph glyph-name="Ugrave" unicode="&#xd9;" horiz-adv-x="709" 
d="M87 0zM160 68q-73 73 -73 209v433h56v-430q0 -110 57 -170t154 -60t155 59t58 171v430h56v-433q0 -135 -73 -208.5t-196 -73.5q-121 0 -194 73zM410 788h-58l-118 128h63z" />
    <glyph glyph-name="Uacute" unicode="&#xda;" horiz-adv-x="709" 
d="M87 0zM160 68q-73 73 -73 209v433h56v-430q0 -110 57 -170t154 -60t155 59t58 171v430h56v-433q0 -135 -73 -208.5t-196 -73.5q-121 0 -194 73zM352 788h-57l113 128h62z" />
    <glyph glyph-name="Ucircumflex" unicode="&#xdb;" horiz-adv-x="709" 
d="M87 0zM160 68q-73 73 -73 209v433h56v-430q0 -110 57 -170t154 -60t155 59t58 171v430h56v-433q0 -135 -73 -208.5t-196 -73.5q-121 0 -194 73zM265 788h-57l120 118h57l117 -118h-58l-87 85h-2z" />
    <glyph glyph-name="Udieresis" unicode="&#xdc;" horiz-adv-x="709" 
d="M87 0zM160 68q-73 73 -73 209v433h56v-430q0 -110 57 -170t154 -60t155 59t58 171v430h56v-433q0 -135 -73 -208.5t-196 -73.5q-121 0 -194 73zM482 810zM482 810zM242 823q-13 13 -13 30q0 18 13 30.5t31 12.5q19 0 31.5 -12t12.5 -31q0 -18 -12.5 -30.5t-31.5 -12.5
q-18 0 -31 13zM407 823q-13 13 -13 30q0 19 12.5 31t31.5 12t31.5 -12t12.5 -31q0 -18 -12.5 -30.5t-31.5 -12.5q-18 0 -31 13z" />
    <glyph glyph-name="Yacute" unicode="&#xdd;" horiz-adv-x="584" 
d="M18 0zM319 0h-57v320l-244 390h66l205 -333h2l207 333h66l-245 -390v-320zM311 788h-57l113 128h62z" />
    <glyph glyph-name="Thorn" unicode="&#xde;" horiz-adv-x="627" 
d="M96 0v710h57v-149h203q116 0 171.5 -57t55.5 -153q0 -106 -65.5 -159t-178.5 -53h-186v-139h-57zM338 192q94 0 140 43.5t46 116.5q0 78 -45.5 117.5t-125.5 39.5h-200v-317h185z" />
    <glyph glyph-name="germandbls" unicode="&#xdf;" horiz-adv-x="608" 
d="M233 -5v50h99q51 0 92.5 21.5t65 61.5t23.5 92q0 48 -23 89.5t-67 67t-102 25.5h-57v48h54q85 0 117 37.5t32 80.5q0 57 -41.5 90.5t-119.5 33.5q-82 0 -124.5 -47t-42.5 -147v-498h-53v497q0 124 57 184t164 60q100 0 156.5 -45.5t56.5 -123.5q0 -41 -22.5 -80.5
t-77.5 -58.5v-2q68 -24 107.5 -82.5t39.5 -128.5q0 -68 -30 -119t-83 -78.5t-119 -27.5h-102z" />
    <glyph glyph-name="agrave" unicode="&#xe0;" horiz-adv-x="539" 
d="M41 0zM530 3q-26 -8 -47 -8q-37 0 -62.5 21.5t-32.5 62.5h-1q-28 -38 -76.5 -61t-105.5 -23q-78 0 -121 39t-43 102q0 69 45 108t138 39h159v9q0 75 -31.5 112.5t-104.5 37.5q-84 0 -157 -32l-16 46q84 34 179 34q97 0 139 -51.5t42 -149.5v-161q0 -46 15.5 -66.5
t39.5 -20.5q14 0 37 7zM296 59.5q39 17.5 62.5 46t23.5 59.5v75h-153q-61 0 -97.5 -25.5t-36.5 -74.5q0 -42 29 -70t89 -28q44 0 83 17.5zM322 561zM322 561h-58l-117 133h63z" />
    <glyph glyph-name="aacute" unicode="&#xe1;" horiz-adv-x="539" 
d="M41 0zM530 3q-26 -8 -47 -8q-37 0 -62.5 21.5t-32.5 62.5h-1q-28 -38 -76.5 -61t-105.5 -23q-78 0 -121 39t-43 102q0 69 45 108t138 39h159v9q0 75 -31.5 112.5t-104.5 37.5q-84 0 -157 -32l-16 46q84 34 179 34q97 0 139 -51.5t42 -149.5v-161q0 -46 15.5 -66.5
t39.5 -20.5q14 0 37 7zM296 59.5q39 17.5 62.5 46t23.5 59.5v75h-153q-61 0 -97.5 -25.5t-36.5 -74.5q0 -42 29 -70t89 -28q44 0 83 17.5zM387 558zM263 558h-59l120 138h63z" />
    <glyph glyph-name="acircumflex" unicode="&#xe2;" horiz-adv-x="539" 
d="M41 0zM530 3q-26 -8 -47 -8q-37 0 -62.5 21.5t-32.5 62.5h-1q-28 -38 -76.5 -61t-105.5 -23q-78 0 -121 39t-43 102q0 69 45 108t138 39h159v9q0 75 -31.5 112.5t-104.5 37.5q-84 0 -157 -32l-16 46q84 34 179 34q97 0 139 -51.5t42 -149.5v-161q0 -46 15.5 -66.5
t39.5 -20.5q14 0 37 7zM296 59.5q39 17.5 62.5 46t23.5 59.5v75h-153q-61 0 -97.5 -25.5t-36.5 -74.5q0 -42 29 -70t89 -28q44 0 83 17.5zM405 560zM170 560h-57l119 133h57l116 -133h-57l-86 98h-2z" />
    <glyph glyph-name="atilde" unicode="&#xe3;" horiz-adv-x="539" 
d="M41 0zM530 3q-26 -8 -47 -8q-37 0 -62.5 21.5t-32.5 62.5h-1q-28 -38 -76.5 -61t-105.5 -23q-78 0 -121 39t-43 102q0 69 45 108t138 39h159v9q0 75 -31.5 112.5t-104.5 37.5q-84 0 -157 -32l-16 46q84 34 179 34q97 0 139 -51.5t42 -149.5v-161q0 -46 15.5 -66.5
t39.5 -20.5q14 0 37 7zM296 59.5q39 17.5 62.5 46t23.5 59.5v75h-153q-61 0 -97.5 -25.5t-36.5 -74.5q0 -42 29 -70t89 -28q44 0 83 17.5zM429 572zM298.5 581q-17.5 9 -48.5 29q-36 25 -61 25q-40 0 -62 -57l-37 14q29 89 94 89q23 0 40 -7.5t40 -22.5q5 -4 19 -13.5
t26 -15t23 -5.5q19 0 34.5 15t24.5 44l38 -13q-13 -44 -37.5 -67.5t-53.5 -23.5q-22 0 -39.5 9z" />
    <glyph glyph-name="adieresis" unicode="&#xe4;" horiz-adv-x="539" 
d="M41 0zM530 3q-26 -8 -47 -8q-37 0 -62.5 21.5t-32.5 62.5h-1q-28 -38 -76.5 -61t-105.5 -23q-78 0 -121 39t-43 102q0 69 45 108t138 39h159v9q0 75 -31.5 112.5t-104.5 37.5q-84 0 -157 -32l-16 46q84 34 179 34q97 0 139 -51.5t42 -149.5v-161q0 -46 15.5 -66.5
t39.5 -20.5q14 0 37 7zM296 59.5q39 17.5 62.5 46t23.5 59.5v75h-153q-61 0 -97.5 -25.5t-36.5 -74.5q0 -42 29 -70t89 -28q44 0 83 17.5zM384 591zM144 604q-13 13 -13 30q0 18 13 30.5t31 12.5q19 0 31.5 -12t12.5 -31q0 -18 -12.5 -30.5t-31.5 -12.5q-18 0 -31 13z
M309 604q-13 13 -13 30q0 19 12.5 31t31.5 12t31.5 -12t12.5 -31q0 -18 -12.5 -30.5t-31.5 -12.5q-18 0 -31 13z" />
    <glyph glyph-name="aring" unicode="&#xe5;" horiz-adv-x="539" 
d="M41 0zM530 3q-26 -8 -47 -8q-37 0 -62.5 21.5t-32.5 62.5h-1q-28 -38 -76.5 -61t-105.5 -23q-78 0 -121 39t-43 102q0 69 45 108t138 39h159v9q0 75 -31.5 112.5t-104.5 37.5q-84 0 -157 -32l-16 46q84 34 179 34q97 0 139 -51.5t42 -149.5v-161q0 -46 15.5 -66.5
t39.5 -20.5q14 0 37 7zM296 59.5q39 17.5 62.5 46t23.5 59.5v75h-153q-61 0 -97.5 -25.5t-36.5 -74.5q0 -42 29 -70t89 -28q44 0 83 17.5zM345 550zM198.5 574.5q-25.5 24.5 -25.5 59.5t25 59.5t61 24.5q35 0 60.5 -24.5t25.5 -59.5t-25 -59.5t-61 -24.5q-35 0 -60.5 24.5z
M292 601.5q14 13.5 14 32.5t-14 33t-33 14t-33 -14t-14 -33t14 -32.5t33 -13.5t33 13.5z" />
    <glyph glyph-name="ae" unicode="&#xe6;" horiz-adv-x="837" 
d="M804 231h-385q4 -86 56.5 -137t140.5 -51q41 0 83 11t70 36l26 -43q-36 -28 -83.5 -40t-95.5 -12q-80 0 -134 33.5t-80 86.5h-1q-17 -55 -71 -87.5t-130 -32.5q-81 0 -125 39t-44 102q0 64 45.5 102t137.5 38h155v16q0 75 -31.5 112.5t-106.5 37.5q-76 0 -151 -32l-16 46
q84 34 170 34q143 0 171 -118h2q26 55 75 86.5t114 31.5q100 0 154.5 -64.5t54.5 -169.5zM477 395q-47 -46 -56 -120h332q-6 80 -44.5 123t-112.5 43q-72 0 -119 -46zM291 59q37 17 57.5 45.5t20.5 60.5v69h-150q-60 0 -97 -25t-37 -69q0 -42 29.5 -70t90.5 -28q49 0 86 17z
" />
    <glyph glyph-name="ccedilla" unicode="&#xe7;" horiz-adv-x="517" 
d="M278 -34q36 -2 60.5 -23t24.5 -55q0 -32 -25 -53t-72 -21q-30 0 -53 6v34q23 -7 47 -7q25 0 43 11.5t18 32.5q0 20 -22 34.5t-61 14.5l1 25l15 33q-98 13 -151 78t-53 166q0 73 30 129t84.5 87.5t126.5 31.5q52 0 100.5 -17t86.5 -49l-31 -41q-31 26 -71 42t-85 16
q-55 0 -97.5 -25t-66 -70.5t-23.5 -103.5q0 -90 52 -143.5t148 -53.5q39 0 80.5 11.5t69.5 35.5l27 -44q-33 -27 -82.5 -40t-98.5 -13h-10l-12 -28v-1z" />
    <glyph glyph-name="egrave" unicode="&#xe8;" horiz-adv-x="546" 
d="M50 0zM502 231h-398q4 -86 58 -137t147 -51q45 0 87.5 11t70.5 36l26 -43q-68 -52 -186 -52q-81 0 -139 31.5t-88 87.5t-30 129q0 71 30.5 127.5t84 88t121.5 31.5t117 -30t74.5 -83t25.5 -121zM164.5 395q-48.5 -46 -58.5 -120h345q-8 78 -50.5 122t-116.5 44
q-71 0 -119.5 -46zM336 561zM336 561h-58l-117 133h63z" />
    <glyph glyph-name="eacute" unicode="&#xe9;" horiz-adv-x="546" 
d="M50 0zM502 231h-398q4 -86 58 -137t147 -51q45 0 87.5 11t70.5 36l26 -43q-68 -52 -186 -52q-81 0 -139 31.5t-88 87.5t-30 129q0 71 30.5 127.5t84 88t121.5 31.5t117 -30t74.5 -83t25.5 -121zM164.5 395q-48.5 -46 -58.5 -120h345q-8 78 -50.5 122t-116.5 44
q-71 0 -119.5 -46zM430 560zM306 560h-59l120 138h63z" />
    <glyph glyph-name="ecircumflex" unicode="&#xea;" horiz-adv-x="546" 
d="M50 0zM502 231h-398q4 -86 58 -137t147 -51q45 0 87.5 11t70.5 36l26 -43q-68 -52 -186 -52q-81 0 -139 31.5t-88 87.5t-30 129q0 71 30.5 127.5t84 88t121.5 31.5t117 -30t74.5 -83t25.5 -121zM164.5 395q-48.5 -46 -58.5 -120h345q-8 78 -50.5 122t-116.5 44
q-71 0 -119.5 -46zM432 560zM197 560h-57l119 133h57l116 -133h-57l-86 98h-2z" />
    <glyph glyph-name="edieresis" unicode="&#xeb;" horiz-adv-x="546" 
d="M50 0zM502 231h-398q4 -86 58 -137t147 -51q45 0 87.5 11t70.5 36l26 -43q-68 -52 -186 -52q-81 0 -139 31.5t-88 87.5t-30 129q0 71 30.5 127.5t84 88t121.5 31.5t117 -30t74.5 -83t25.5 -121zM164.5 395q-48.5 -46 -58.5 -120h345q-8 78 -50.5 122t-116.5 44
q-71 0 -119.5 -46zM411 591zM171 604q-13 13 -13 30q0 18 13 30.5t31 12.5q19 0 31.5 -12t12.5 -31q0 -18 -12.5 -30.5t-31.5 -12.5q-18 0 -31 13zM336 604q-13 13 -13 30q0 19 12.5 31t31.5 12t31.5 -12t12.5 -31q0 -18 -12.5 -30.5t-31.5 -12.5q-18 0 -31 13z" />
    <glyph glyph-name="igrave" unicode="&#xec;" horiz-adv-x="238" 
d="M143 559h-57l-90 139l62 -1zM144 0h-53v485h53v-485z" />
    <glyph glyph-name="iacute" unicode="&#xed;" horiz-adv-x="223" 
d="M91 0zM144 0h-53v485h53v-485zM275 560zM151 560h-59l120 138h63z" />
    <glyph glyph-name="icircumflex" unicode="&#xee;" horiz-adv-x="237" 
d="M0 0zM144 0h-53v485h53v-485zM264 560zM29 560h-57l119 133h57l116 -133h-57l-86 98h-2z" />
    <glyph glyph-name="idieresis" unicode="&#xef;" horiz-adv-x="237" 
d="M0 0zM144 0h-53v485h53v-485zM243 591zM3 604q-13 13 -13 30q0 18 13 30.5t31 12.5q19 0 31.5 -12t12.5 -31q0 -18 -12.5 -30.5t-31.5 -12.5q-18 0 -31 13zM168 604q-13 13 -13 30q0 19 12.5 31t31.5 12t31.5 -12t12.5 -31q0 -18 -12.5 -30.5t-31.5 -12.5q-18 0 -31 13z
" />
    <glyph glyph-name="eth" unicode="&#xf0;" horiz-adv-x="590" 
d="M514 414.5q27 -75.5 27 -157.5q0 -78 -31 -137.5t-87 -92t-129 -32.5q-68 0 -124 31t-88.5 86.5t-32.5 125.5q0 69 30.5 125.5t84 88.5t119.5 32q56 0 104 -22.5t78 -62.5l2 2q-23 65 -69 125q-34 43 -75 77l-61 -71l-37 27l62 72q-63 42 -131 67l20 42q82 -29 143 -73
l71 82l38 -26l-72 -83q47 -41 82 -86q49 -64 76 -139.5zM394 71q44 26 68 72t24 104q0 54 -25.5 96.5t-69.5 67t-97 24.5q-56 0 -99.5 -26t-67.5 -70.5t-24 -97.5q0 -57 25.5 -101.5t69 -69.5t96.5 -25q56 0 100 26z" />
    <glyph glyph-name="ntilde" unicode="&#xf1;" horiz-adv-x="573" 
d="M85 0zM85 0v485h53v-107h2q27 53 76.5 82.5t111.5 29.5q80 0 126 -51t46 -149v-290h-54v273q0 88 -35 128t-96 40q-80 0 -128.5 -54.5t-48.5 -145.5v-241h-53zM464 572zM333.5 581q-17.5 9 -48.5 29q-36 25 -61 25q-40 0 -62 -57l-37 14q29 89 94 89q23 0 40 -7.5
t40 -22.5q5 -4 19 -13.5t26 -15t23 -5.5q19 0 34.5 15t24.5 44l38 -13q-13 -44 -37.5 -67.5t-53.5 -23.5q-22 0 -39.5 9z" />
    <glyph glyph-name="ograve" unicode="&#xf2;" horiz-adv-x="595" 
d="M50 0zM168.5 28q-56.5 33 -87.5 89.5t-31 124.5t31 125t87.5 90t128.5 33q69 0 125.5 -31.5t89 -88t32.5 -128.5t-32.5 -128t-89 -87.5t-125.5 -31.5q-72 0 -128.5 33zM395 70q44 25 69.5 70t25.5 102q0 58 -25.5 103.5t-70 70.5t-97.5 25q-57 0 -101 -26.5t-68 -72
t-24 -100.5q0 -54 24.5 -99t68 -71.5t100.5 -26.5q54 0 98 25zM343 561zM343 561h-58l-117 133h63z" />
    <glyph glyph-name="oacute" unicode="&#xf3;" horiz-adv-x="595" 
d="M50 0zM168.5 28q-56.5 33 -87.5 89.5t-31 124.5t31 125t87.5 90t128.5 33q69 0 125.5 -31.5t89 -88t32.5 -128.5t-32.5 -128t-89 -87.5t-125.5 -31.5q-72 0 -128.5 33zM395 70q44 25 69.5 70t25.5 102q0 58 -25.5 103.5t-70 70.5t-97.5 25q-57 0 -101 -26.5t-68 -72
t-24 -100.5q0 -54 24.5 -99t68 -71.5t100.5 -26.5q54 0 98 25zM446 560zM322 560h-59l120 138h63z" />
    <glyph glyph-name="ocircumflex" unicode="&#xf4;" horiz-adv-x="595" 
d="M50 0zM168.5 28q-56.5 33 -87.5 89.5t-31 124.5t31 125t87.5 90t128.5 33q69 0 125.5 -31.5t89 -88t32.5 -128.5t-32.5 -128t-89 -87.5t-125.5 -31.5q-72 0 -128.5 33zM395 70q44 25 69.5 70t25.5 102q0 58 -25.5 103.5t-70 70.5t-97.5 25q-57 0 -101 -26.5t-68 -72
t-24 -100.5q0 -54 24.5 -99t68 -71.5t100.5 -26.5q54 0 98 25zM444 560zM209 560h-57l119 133h57l116 -133h-57l-86 98h-2z" />
    <glyph glyph-name="otilde" unicode="&#xf5;" horiz-adv-x="595" 
d="M50 0zM168.5 28q-56.5 33 -87.5 89.5t-31 124.5t31 125t87.5 90t128.5 33q69 0 125.5 -31.5t89 -88t32.5 -128.5t-32.5 -128t-89 -87.5t-125.5 -31.5q-72 0 -128.5 33zM395 70q44 25 69.5 70t25.5 102q0 58 -25.5 103.5t-70 70.5t-97.5 25q-57 0 -101 -26.5t-68 -72
t-24 -100.5q0 -54 24.5 -99t68 -71.5t100.5 -26.5q54 0 98 25zM468 572zM337.5 581q-17.5 9 -48.5 29q-36 25 -61 25q-40 0 -62 -57l-37 14q29 89 94 89q23 0 40 -7.5t40 -22.5q5 -4 19 -13.5t26 -15t23 -5.5q19 0 34.5 15t24.5 44l38 -13q-13 -44 -37.5 -67.5t-53.5 -23.5
q-22 0 -39.5 9z" />
    <glyph glyph-name="odieresis" unicode="&#xf6;" horiz-adv-x="595" 
d="M50 0zM168.5 28q-56.5 33 -87.5 89.5t-31 124.5t31 125t87.5 90t128.5 33q69 0 125.5 -31.5t89 -88t32.5 -128.5t-32.5 -128t-89 -87.5t-125.5 -31.5q-72 0 -128.5 33zM395 70q44 25 69.5 70t25.5 102q0 58 -25.5 103.5t-70 70.5t-97.5 25q-57 0 -101 -26.5t-68 -72
t-24 -100.5q0 -54 24.5 -99t68 -71.5t100.5 -26.5q54 0 98 25zM423 591zM183 604q-13 13 -13 30q0 18 13 30.5t31 12.5q19 0 31.5 -12t12.5 -31q0 -18 -12.5 -30.5t-31.5 -12.5q-18 0 -31 13zM348 604q-13 13 -13 30q0 19 12.5 31t31.5 12t31.5 -12t12.5 -31
q0 -18 -12.5 -30.5t-31.5 -12.5q-18 0 -31 13z" />
    <glyph glyph-name="divide" unicode="&#xf7;" horiz-adv-x="592" 
d="M73 36zM537 252h-464v49h464v-49zM272.5 49q-12.5 13 -12.5 31q0 19 12.5 31t31.5 12t31.5 -12t12.5 -31q0 -18 -12.5 -31t-31.5 -13t-31.5 13zM272.5 438q-12.5 13 -12.5 31q0 19 12.5 31t31.5 12t31.5 -12t12.5 -31q0 -18 -12.5 -31t-31.5 -13t-31.5 13z" />
    <glyph glyph-name="oslash" unicode="&#xf8;" horiz-adv-x="592" 
d="M547 471l-60 -63q59 -69 59 -166q0 -72 -32.5 -128t-89 -87.5t-125.5 -31.5q-89 0 -154 50l-59 -62l-33 30l59 62q-29 33 -44.5 76t-15.5 91q0 68 31 125t87.5 90t128.5 33q45 0 85 -13.5t72 -38.5l59 62zM149 114l271 286q-52 41 -121 41q-57 0 -101 -26.5t-68 -72
t-24 -100.5q0 -72 43 -128zM451 369l-270 -286q49 -38 118 -38q54 0 98 25t69.5 70t25.5 102q0 75 -41 127z" />
    <glyph glyph-name="ugrave" unicode="&#xf9;" horiz-adv-x="560" 
d="M73 0zM121 49q-48 54 -48 153v283h53v-265q0 -175 139 -175q45 0 82.5 25t59 71t21.5 107v237h53v-485h-53v104l-1 1q-26 -52 -71.5 -81t-99.5 -29q-87 0 -135 54zM332 561zM332 561h-58l-117 133h63z" />
    <glyph glyph-name="uacute" unicode="&#xfa;" horiz-adv-x="560" 
d="M73 0zM121 49q-48 54 -48 153v283h53v-265q0 -175 139 -175q45 0 82.5 25t59 71t21.5 107v237h53v-485h-53v104l-1 1q-26 -52 -71.5 -81t-99.5 -29q-87 0 -135 54zM418 560zM294 560h-59l120 138h63z" />
    <glyph glyph-name="ucircumflex" unicode="&#xfb;" horiz-adv-x="560" 
d="M73 0zM121 49q-48 54 -48 153v283h53v-265q0 -175 139 -175q45 0 82.5 25t59 71t21.5 107v237h53v-485h-53v104l-1 1q-26 -52 -71.5 -81t-99.5 -29q-87 0 -135 54zM423 560zM188 560h-57l119 133h57l116 -133h-57l-86 98h-2z" />
    <glyph glyph-name="udieresis" unicode="&#xfc;" horiz-adv-x="560" 
d="M73 0zM121 49q-48 54 -48 153v283h53v-265q0 -175 139 -175q45 0 82.5 25t59 71t21.5 107v237h53v-485h-53v104l-1 1q-26 -52 -71.5 -81t-99.5 -29q-87 0 -135 54zM402 591zM162 604q-13 13 -13 30q0 18 13 30.5t31 12.5q19 0 31.5 -12t12.5 -31q0 -18 -12.5 -30.5
t-31.5 -12.5q-18 0 -31 13zM327 604q-13 13 -13 30q0 19 12.5 31t31.5 12t31.5 -12t12.5 -31q0 -18 -12.5 -30.5t-31.5 -12.5q-18 0 -31 13z" />
    <glyph glyph-name="yacute" unicode="&#xfd;" horiz-adv-x="516" 
d="M0 0zM-15 -165l22 44q39 -32 89 -32q44 0 71.5 29t57.5 106l11 28l-214 475h59l181 -411h1l168 411h57l-213 -515q-24 -59 -46 -95t-53.5 -56.5t-78.5 -20.5q-65 0 -112 37zM398 560zM274 560h-59l120 138h63z" />
    <glyph glyph-name="thorn" unicode="&#xfe;" horiz-adv-x="619" 
d="M85 -198v934h53v-359h2q27 53 77.5 83t111.5 30q69 0 123.5 -33t85 -90.5t30.5 -127.5q0 -72 -31.5 -127.5t-86 -86t-120.5 -30.5q-64 0 -113.5 30t-76.5 81h-2v-304h-53zM422 70.5q43 25.5 67 69.5t24 98q0 60 -25.5 106t-68.5 71.5t-96 25.5q-55 0 -97 -27t-65.5 -73.5
t-23.5 -102.5q0 -57 25 -101t67.5 -68t94.5 -24q55 0 98 25.5z" />
    <glyph glyph-name="ydieresis" unicode="&#xff;" horiz-adv-x="516" 
d="M0 0zM-15 -165l22 44q39 -32 89 -32q44 0 71.5 29t57.5 106l11 28l-214 475h59l181 -411h1l168 411h57l-213 -515q-24 -59 -46 -95t-53.5 -56.5t-78.5 -20.5q-65 0 -112 37zM383 591zM143 604q-13 13 -13 30q0 18 13 30.5t31 12.5q19 0 31.5 -12t12.5 -31
q0 -18 -12.5 -30.5t-31.5 -12.5q-18 0 -31 13zM308 604q-13 13 -13 30q0 19 12.5 31t31.5 12t31.5 -12t12.5 -31q0 -18 -12.5 -30.5t-31.5 -12.5q-18 0 -31 13z" />
    <glyph glyph-name="Amacron" unicode="&#x100;" horiz-adv-x="664" 
d="M30 0zM89 0h-59l271 710h60l274 -710h-60l-73 191h-341zM330 642l-150 -400h304l-152 400h-2zM471 822h-278v46h278v-46z" />
    <glyph glyph-name="amacron" unicode="&#x101;" horiz-adv-x="539" 
d="M41 0zM530 3q-26 -8 -47 -8q-37 0 -62.5 21.5t-32.5 62.5h-1q-28 -38 -76.5 -61t-105.5 -23q-78 0 -121 39t-43 102q0 69 45 108t138 39h159v9q0 75 -31.5 112.5t-104.5 37.5q-84 0 -157 -32l-16 46q84 34 179 34q97 0 139 -51.5t42 -149.5v-161q0 -46 15.5 -66.5
t39.5 -20.5q14 0 37 7zM296 59.5q39 17.5 62.5 46t23.5 59.5v75h-153q-61 0 -97.5 -25.5t-36.5 -74.5q0 -42 29 -70t89 -28q44 0 83 17.5zM398 607zM398 607h-277v48h277v-48z" />
    <glyph glyph-name="Abreve" unicode="&#x102;" horiz-adv-x="664" 
d="M30 0zM89 0h-59l271 710h60l274 -710h-60l-73 191h-341zM330 642l-150 -400h304l-152 400h-2zM239 817q-37 34 -41 89h44q3 -32 27 -55t63 -23t63 23t26 55h45q-5 -56 -42 -89.5t-92 -33.5q-56 0 -93 34z" />
    <glyph glyph-name="abreve" unicode="&#x103;" horiz-adv-x="539" 
d="M41 0zM530 3q-26 -8 -47 -8q-37 0 -62.5 21.5t-32.5 62.5h-1q-28 -38 -76.5 -61t-105.5 -23q-78 0 -121 39t-43 102q0 69 45 108t138 39h159v9q0 75 -31.5 112.5t-104.5 37.5q-84 0 -157 -32l-16 46q84 34 179 34q97 0 139 -51.5t42 -149.5v-161q0 -46 15.5 -66.5
t39.5 -20.5q14 0 37 7zM296 59.5q39 17.5 62.5 46t23.5 59.5v75h-153q-61 0 -97.5 -25.5t-36.5 -74.5q0 -42 29 -70t89 -28q44 0 83 17.5zM393 557zM165.5 592.5q-36.5 35.5 -40.5 98.5h44q3 -39 26.5 -64.5t63.5 -25.5q39 0 63 25.5t26 64.5h45q-5 -64 -41.5 -99t-92.5 -35
q-57 0 -93.5 35.5z" />
    <glyph glyph-name="Aogonek" unicode="&#x104;" horiz-adv-x="664" 
d="M660 -171q-25 -12 -66 -12q-42 0 -67 21t-25 59q0 26 18.5 55t52.5 52l-71 187h-341l-72 -191h-59l271 710h60l274 -710h-6q-37 -14 -59 -40t-22 -54q0 -23 14 -36.5t41 -13.5q19 0 29 2.5t23 9.5zM330 642l-150 -400h304l-152 400h-2z" />
    <glyph glyph-name="aogonek" unicode="&#x105;" horiz-adv-x="539" 
d="M486 -141.5q10 2.5 23 9.5l5 -39q-25 -12 -66 -12q-42 0 -67 21t-25 59q0 28 20 58t57 53q-36 20 -45 71h-1q-28 -38 -76.5 -61t-105.5 -23q-78 0 -121 39t-43 102q0 69 45 108t138 39h159v9q0 75 -31.5 112.5t-104.5 37.5q-84 0 -157 -32l-16 46q84 34 179 34
q97 0 139 -51.5t42 -149.5v-161q0 -46 15.5 -66.5t39.5 -20.5q14 0 37 7l4 -45q-26 -8 -47 -8h-11q-32 -15 -51 -39.5t-19 -49.5q0 -23 14 -36.5t41 -13.5q19 0 29 2.5zM296 59.5q39 17.5 62.5 46t23.5 59.5v75h-153q-61 0 -97.5 -25.5t-36.5 -74.5q0 -42 29 -70t89 -28
q44 0 83 17.5z" />
    <glyph glyph-name="Cacute" unicode="&#x106;" horiz-adv-x="724" 
d="M65 0zM233.5 37.5q-79.5 42.5 -124 123t-44.5 191.5q0 103 41 185t120 130t190 48q81 0 150.5 -29.5t121.5 -87.5l-38 -42q-45 51 -106 78t-131 27q-89 0 -154.5 -40t-100 -110t-34.5 -159q0 -93 36.5 -161.5t103 -104.5t154.5 -36q146 0 237 90l30 -48q-49 -47 -117 -72
t-153 -25q-102 0 -181.5 42.5zM420 788h-57l113 128h62z" />
    <glyph glyph-name="cacute" unicode="&#x107;" horiz-adv-x="517" 
d="M50 0zM115.5 62.5q-65.5 67.5 -65.5 179.5q0 73 30 129t84.5 87.5t126.5 31.5q52 0 100.5 -17t86.5 -49l-31 -41q-31 26 -71 42t-85 16q-55 0 -97.5 -25t-66 -70.5t-23.5 -103.5q0 -90 52 -143.5t148 -53.5q39 0 80.5 11.5t69.5 35.5l27 -44q-33 -27 -82.5 -40t-98.5 -13
q-119 0 -184.5 67.5zM436 560zM312 560h-59l120 138h63z" />
    <glyph glyph-name="Ccircumflex" unicode="&#x108;" horiz-adv-x="724" 
d="M65 0zM233.5 37.5q-79.5 42.5 -124 123t-44.5 191.5q0 103 41 185t120 130t190 48q81 0 150.5 -29.5t121.5 -87.5l-38 -42q-45 51 -106 78t-131 27q-89 0 -154.5 -40t-100 -110t-34.5 -159q0 -93 36.5 -161.5t103 -104.5t154.5 -36q146 0 237 90l30 -48q-49 -47 -117 -72
t-153 -25q-102 0 -181.5 42.5zM324 788h-57l120 118h57l117 -118h-58l-87 85h-2z" />
    <glyph glyph-name="ccircumflex" unicode="&#x109;" horiz-adv-x="517" 
d="M50 0zM115.5 62.5q-65.5 67.5 -65.5 179.5q0 73 30 129t84.5 87.5t126.5 31.5q52 0 100.5 -17t86.5 -49l-31 -41q-31 26 -71 42t-85 16q-55 0 -97.5 -25t-66 -70.5t-23.5 -103.5q0 -90 52 -143.5t148 -53.5q39 0 80.5 11.5t69.5 35.5l27 -44q-33 -27 -82.5 -40t-98.5 -13
q-119 0 -184.5 67.5zM432 560zM197 560h-57l119 133h57l116 -133h-57l-86 98h-2z" />
    <glyph glyph-name="Cdotaccent" unicode="&#x10a;" horiz-adv-x="724" 
d="M65 0zM233.5 37.5q-79.5 42.5 -124 123t-44.5 191.5q0 103 41 185t120 130t190 48q81 0 150.5 -29.5t121.5 -87.5l-38 -42q-45 51 -106 78t-131 27q-89 0 -154.5 -40t-100 -110t-34.5 -159q0 -93 36.5 -161.5t103 -104.5t154.5 -36q146 0 237 90l30 -48q-49 -47 -117 -72
t-153 -25q-102 0 -181.5 42.5zM459 809zM459 809zM383.5 822q-12.5 13 -12.5 31q0 19 12.5 31t31.5 12t31.5 -12t12.5 -31q0 -18 -12.5 -31t-31.5 -13t-31.5 13z" />
    <glyph glyph-name="cdotaccent" unicode="&#x10b;" horiz-adv-x="517" 
d="M50 0zM115.5 62.5q-65.5 67.5 -65.5 179.5q0 73 30 129t84.5 87.5t126.5 31.5q52 0 100.5 -17t86.5 -49l-31 -41q-31 26 -71 42t-85 16q-55 0 -97.5 -25t-66 -70.5t-23.5 -103.5q0 -90 52 -143.5t148 -53.5q39 0 80.5 11.5t69.5 35.5l27 -44q-33 -27 -82.5 -40t-98.5 -13
q-119 0 -184.5 67.5zM331 590zM255.5 603q-12.5 13 -12.5 31q0 19 12.5 31t31.5 12t31.5 -12t12.5 -31q0 -18 -12.5 -31t-31.5 -13t-31.5 13z" />
    <glyph glyph-name="Ccaron" unicode="&#x10c;" horiz-adv-x="724" 
d="M65 0zM233.5 37.5q-79.5 42.5 -124 123t-44.5 191.5q0 103 41 185t120 130t190 48q81 0 150.5 -29.5t121.5 -87.5l-38 -42q-45 51 -106 78t-131 27q-89 0 -154.5 -40t-100 -110t-34.5 -159q0 -93 36.5 -161.5t103 -104.5t154.5 -36q146 0 237 90l30 -48q-49 -47 -117 -72
t-153 -25q-102 0 -181.5 42.5zM441 788h-57l-117 118h57l88 -85h2l89 85h58z" />
    <glyph glyph-name="ccaron" unicode="&#x10d;" horiz-adv-x="517" 
d="M50 0zM115.5 62.5q-65.5 67.5 -65.5 179.5q0 73 30 129t84.5 87.5t126.5 31.5q52 0 100.5 -17t86.5 -49l-31 -41q-31 26 -71 42t-85 16q-55 0 -97.5 -25t-66 -70.5t-23.5 -103.5q0 -90 52 -143.5t148 -53.5q39 0 80.5 11.5t69.5 35.5l27 -44q-33 -27 -82.5 -40t-98.5 -13
q-119 0 -184.5 67.5zM432 559zM313 559h-57l-116 134h56l88 -99h2l89 99h57z" />
    <glyph glyph-name="Dcaron" unicode="&#x10e;" horiz-adv-x="729" 
d="M96 0zM96 0v710h201q110 0 194 -45t129.5 -126t45.5 -185t-45 -184.5t-128 -125t-193 -44.5h-204zM297 52q94 0 164.5 38.5t108 107t37.5 156.5q0 89 -38.5 158t-109 107.5t-162.5 38.5h-144v-606h144zM371 788h-57l-117 118h57l88 -85h2l89 85h58z" />
    <glyph glyph-name="dcaron" unicode="&#x10f;" horiz-adv-x="670" 
d="M50 0zM167.5 25.5q-54.5 30.5 -86 86t-31.5 127.5q0 70 30.5 127.5t85 90.5t123.5 33q62 0 112.5 -30.5t77.5 -85.5h2v362h52v-736h-51v111h-2q-25 -53 -75.5 -84.5t-115.5 -31.5q-67 0 -121.5 30.5zM389 69q43 24 68 68t25 101q0 56 -23.5 102.5t-66.5 73.5t-97 27
q-53 0 -96.5 -25.5t-69 -71.5t-25.5 -106q0 -54 24 -98t67.5 -69.5t99.5 -25.5q51 0 94 24zM652 592h-40l26 172h55z" />
    <glyph glyph-name="Dcroat" unicode="&#x110;" horiz-adv-x="729" 
d="M18 0zM297 710q110 0 194 -45t129.5 -126t45.5 -185t-45 -184.5t-128 -125t-193 -44.5h-204v330h-78v52h78v328h201zM297 52q94 0 164.5 38.5t108 107t37.5 156.5q0 89 -38.5 158t-109 107.5t-162.5 38.5h-144v-276h209v-52h-209v-278h144z" />
    <glyph glyph-name="dcroat" unicode="&#x111;" horiz-adv-x="604" 
d="M591 620v-41h-58v-579h-51v111h-2q-25 -53 -75.5 -84.5t-115.5 -31.5q-67 0 -121.5 30.5t-86 86t-31.5 127.5q0 70 30.5 127.5t85 90.5t123.5 33q62 0 112.5 -30.5t77.5 -85.5h2v205h-229v41h229v116h52v-116h58zM389 69q43 24 68 68t25 101q0 56 -23.5 102.5t-66.5 73.5
t-97 27q-53 0 -96.5 -25.5t-69 -71.5t-25.5 -106q0 -54 24 -98t67.5 -69.5t99.5 -25.5q51 0 94 24z" />
    <glyph glyph-name="Emacron" unicode="&#x112;" horiz-adv-x="621" 
d="M96 0zM571 0h-475v710h461v-52h-404v-278h370v-52h-370v-276h418v-52zM472 822h-278v46h278v-46z" />
    <glyph glyph-name="emacron" unicode="&#x113;" horiz-adv-x="546" 
d="M50 0zM502 231h-398q4 -86 58 -137t147 -51q45 0 87.5 11t70.5 36l26 -43q-68 -52 -186 -52q-81 0 -139 31.5t-88 87.5t-30 129q0 71 30.5 127.5t84 88t121.5 31.5t117 -30t74.5 -83t25.5 -121zM164.5 395q-48.5 -46 -58.5 -120h345q-8 78 -50.5 122t-116.5 44
q-71 0 -119.5 -46zM425 607zM425 607h-277v48h277v-48z" />
    <glyph glyph-name="Ebreve" unicode="&#x114;" horiz-adv-x="621" 
d="M96 0zM571 0h-475v710h461v-52h-404v-278h370v-52h-370v-276h418v-52zM240 817q-37 34 -41 89h44q3 -32 27 -55t63 -23t63 23t26 55h45q-5 -56 -42 -89.5t-92 -33.5q-56 0 -93 34z" />
    <glyph glyph-name="ebreve" unicode="&#x115;" horiz-adv-x="546" 
d="M50 0zM502 231h-398q4 -86 58 -137t147 -51q45 0 87.5 11t70.5 36l26 -43q-68 -52 -186 -52q-81 0 -139 31.5t-88 87.5t-30 129q0 71 30.5 127.5t84 88t121.5 31.5t117 -30t74.5 -83t25.5 -121zM164.5 395q-48.5 -46 -58.5 -120h345q-8 78 -50.5 122t-116.5 44
q-71 0 -119.5 -46zM420 557zM192.5 592.5q-36.5 35.5 -40.5 98.5h44q3 -39 26.5 -64.5t63.5 -25.5q39 0 63 25.5t26 64.5h45q-5 -64 -41.5 -99t-92.5 -35q-57 0 -93.5 35.5z" />
    <glyph glyph-name="Edotaccent" unicode="&#x116;" horiz-adv-x="621" 
d="M96 0zM571 0h-475v710h461v-52h-404v-278h370v-52h-370v-276h418v-52zM378 809zM378 809zM302.5 822q-12.5 13 -12.5 31q0 19 12.5 31t31.5 12t31.5 -12t12.5 -31q0 -18 -12.5 -31t-31.5 -13t-31.5 13z" />
    <glyph glyph-name="edotaccent" unicode="&#x117;" horiz-adv-x="546" 
d="M50 0zM502 231h-398q4 -86 58 -137t147 -51q45 0 87.5 11t70.5 36l26 -43q-68 -52 -186 -52q-81 0 -139 31.5t-88 87.5t-30 129q0 71 30.5 127.5t84 88t121.5 31.5t117 -30t74.5 -83t25.5 -121zM164.5 395q-48.5 -46 -58.5 -120h345q-8 78 -50.5 122t-116.5 44
q-71 0 -119.5 -46zM331 590zM255.5 603q-12.5 13 -12.5 31q0 19 12.5 31t31.5 12t31.5 -12t12.5 -31q0 -18 -12.5 -31t-31.5 -13t-31.5 13z" />
    <glyph glyph-name="Eogonek" unicode="&#x118;" horiz-adv-x="621" 
d="M599 -171q-25 -12 -66 -12q-42 0 -67 21t-25 59q0 26 17 53t48 50h-410v710h461v-52h-404v-278h370v-52h-370v-276h418v-52h-3q-37 -14 -59 -40t-22 -54q0 -23 14 -36.5t41 -13.5q19 0 29 2.5t23 9.5z" />
    <glyph glyph-name="eogonek" unicode="&#x119;" horiz-adv-x="546" 
d="M502 231h-398q4 -86 58 -137t147 -51q45 0 87.5 11t70.5 36l26 -43q-59 -46 -160 -51q-32 -18 -51 -41t-19 -47q0 -21 14 -34.5t42 -13.5q19 0 29 2.5t23 8.5l5 -39q-23 -13 -65 -13q-45 0 -70.5 21t-25.5 59q0 24 14.5 49.5t40.5 46.5v2q-105 10 -162.5 76.5
t-57.5 169.5q0 71 30.5 127.5t84 88t121.5 31.5t117 -30t74.5 -83t25.5 -121zM164.5 395q-48.5 -46 -58.5 -120h345q-8 78 -50.5 122t-116.5 44q-71 0 -119.5 -46z" />
    <glyph glyph-name="Ecaron" unicode="&#x11a;" horiz-adv-x="621" 
d="M96 0zM571 0h-475v710h461v-52h-404v-278h370v-52h-370v-276h418v-52zM360 788h-57l-117 118h57l88 -85h2l89 85h58z" />
    <glyph glyph-name="ecaron" unicode="&#x11b;" horiz-adv-x="546" 
d="M50 0zM502 231h-398q4 -86 58 -137t147 -51q45 0 87.5 11t70.5 36l26 -43q-68 -52 -186 -52q-81 0 -139 31.5t-88 87.5t-30 129q0 71 30.5 127.5t84 88t121.5 31.5t117 -30t74.5 -83t25.5 -121zM164.5 395q-48.5 -46 -58.5 -120h345q-8 78 -50.5 122t-116.5 44
q-71 0 -119.5 -46zM432 559zM313 559h-57l-116 134h56l88 -99h2l89 99h57z" />
    <glyph glyph-name="Gcircumflex" unicode="&#x11c;" horiz-adv-x="774" 
d="M65 0zM228.5 40q-79.5 44 -121.5 124.5t-42 187.5q0 103 41 185t120 130t189 48q81 0 150.5 -29.5t122.5 -87.5l-38 -42q-45 51 -106 78t-133 27q-88 0 -153 -40t-99.5 -110t-34.5 -159q0 -90 33.5 -158t99.5 -106.5t160 -38.5q140 0 227 64v189h-236v52h292v-272
q-51 -41 -124.5 -63.5t-159.5 -22.5q-108 0 -187.5 44zM320 788h-57l120 118h57l117 -118h-58l-87 85h-2z" />
    <glyph glyph-name="gcircumflex" unicode="&#x11d;" horiz-adv-x="604" 
d="M49 0zM181.5 -191q-56.5 11 -100.5 37l21 47q81 -46 191 -46q92 0 136.5 45.5t44.5 122.5v104h-1q-27 -50 -75.5 -79t-112.5 -29q-66 0 -120 30t-85 84.5t-31 126.5q0 66 29.5 120.5t83 86t121.5 31.5q61 0 110.5 -27.5t78.5 -77.5h1v100h53v-461q0 -105 -56.5 -165.5
t-175.5 -60.5q-56 0 -112.5 11zM387 86q42 25 65 68.5t23 98.5t-24 98t-66.5 66.5t-94.5 23.5q-55 0 -97 -25t-65.5 -68t-23.5 -95q0 -57 24.5 -100.5t67 -67.5t94.5 -24q55 0 97 25zM436 560zM201 560h-57l119 133h57l116 -133h-57l-86 98h-2z" />
    <glyph glyph-name="Gbreve" unicode="&#x11e;" horiz-adv-x="774" 
d="M65 0zM228.5 40q-79.5 44 -121.5 124.5t-42 187.5q0 103 41 185t120 130t189 48q81 0 150.5 -29.5t122.5 -87.5l-38 -42q-45 51 -106 78t-133 27q-88 0 -153 -40t-99.5 -110t-34.5 -159q0 -90 33.5 -158t99.5 -106.5t160 -38.5q140 0 227 64v189h-236v52h292v-272
q-51 -41 -124.5 -63.5t-159.5 -22.5q-108 0 -187.5 44zM317 817q-37 34 -41 89h44q3 -32 27 -55t63 -23t63 23t26 55h45q-5 -56 -42 -89.5t-92 -33.5q-56 0 -93 34z" />
    <glyph glyph-name="gbreve" unicode="&#x11f;" horiz-adv-x="604" 
d="M49 0zM181.5 -191q-56.5 11 -100.5 37l21 47q81 -46 191 -46q92 0 136.5 45.5t44.5 122.5v104h-1q-27 -50 -75.5 -79t-112.5 -29q-66 0 -120 30t-85 84.5t-31 126.5q0 66 29.5 120.5t83 86t121.5 31.5q61 0 110.5 -27.5t78.5 -77.5h1v100h53v-461q0 -105 -56.5 -165.5
t-175.5 -60.5q-56 0 -112.5 11zM387 86q42 25 65 68.5t23 98.5t-24 98t-66.5 66.5t-94.5 23.5q-55 0 -97 -25t-65.5 -68t-23.5 -95q0 -57 24.5 -100.5t67 -67.5t94.5 -24q55 0 97 25zM424 557zM196.5 592.5q-36.5 35.5 -40.5 98.5h44q3 -39 26.5 -64.5t63.5 -25.5
q39 0 63 25.5t26 64.5h45q-5 -64 -41.5 -99t-92.5 -35q-57 0 -93.5 35.5z" />
    <glyph glyph-name="Gdotaccent" unicode="&#x120;" horiz-adv-x="774" 
d="M65 0zM228.5 40q-79.5 44 -121.5 124.5t-42 187.5q0 103 41 185t120 130t189 48q81 0 150.5 -29.5t122.5 -87.5l-38 -42q-45 51 -106 78t-133 27q-88 0 -153 -40t-99.5 -110t-34.5 -159q0 -90 33.5 -158t99.5 -106.5t160 -38.5q140 0 227 64v189h-236v52h292v-272
q-51 -41 -124.5 -63.5t-159.5 -22.5q-108 0 -187.5 44zM455 809zM455 809zM379.5 822q-12.5 13 -12.5 31q0 19 12.5 31t31.5 12t31.5 -12t12.5 -31q0 -18 -12.5 -31t-31.5 -13t-31.5 13z" />
    <glyph glyph-name="gdotaccent" unicode="&#x121;" horiz-adv-x="604" 
d="M49 0zM181.5 -191q-56.5 11 -100.5 37l21 47q81 -46 191 -46q92 0 136.5 45.5t44.5 122.5v104h-1q-27 -50 -75.5 -79t-112.5 -29q-66 0 -120 30t-85 84.5t-31 126.5q0 66 29.5 120.5t83 86t121.5 31.5q61 0 110.5 -27.5t78.5 -77.5h1v100h53v-461q0 -105 -56.5 -165.5
t-175.5 -60.5q-56 0 -112.5 11zM387 86q42 25 65 68.5t23 98.5t-24 98t-66.5 66.5t-94.5 23.5q-55 0 -97 -25t-65.5 -68t-23.5 -95q0 -57 24.5 -100.5t67 -67.5t94.5 -24q55 0 97 25zM335 590zM259.5 603q-12.5 13 -12.5 31q0 19 12.5 31t31.5 12t31.5 -12t12.5 -31
q0 -18 -12.5 -31t-31.5 -13t-31.5 13z" />
    <glyph glyph-name="uni0122" unicode="&#x122;" horiz-adv-x="774" 
d="M65 0zM228.5 40q-79.5 44 -121.5 124.5t-42 187.5q0 103 41 185t120 130t189 48q81 0 150.5 -29.5t122.5 -87.5l-38 -42q-45 51 -106 78t-133 27q-88 0 -153 -40t-99.5 -110t-34.5 -159q0 -90 33.5 -158t99.5 -106.5t160 -38.5q140 0 227 64v189h-236v52h292v-272
q-51 -41 -124.5 -63.5t-159.5 -22.5q-108 0 -187.5 44zM322 -172q37 5 50.5 22t13.5 46q0 23 -6 50h50q5 -28 5 -53q0 -42 -25.5 -68.5t-73.5 -30.5z" />
    <glyph glyph-name="uni0123" unicode="&#x123;" horiz-adv-x="604" 
d="M382 672q-37 -5 -50.5 -22t-13.5 -46q0 -23 6 -50h-50q-5 28 -5 53q0 42 25.5 68.5t73.5 30.5zM181.5 -191q-56.5 11 -100.5 37l21 47q81 -46 191 -46q92 0 136.5 45.5t44.5 122.5v104h-1q-27 -50 -75.5 -79t-112.5 -29q-66 0 -120 30t-85 84.5t-31 126.5
q0 66 29.5 120.5t83 86t121.5 31.5q61 0 110.5 -27.5t78.5 -77.5h1v100h53v-461q0 -105 -56.5 -165.5t-175.5 -60.5q-56 0 -112.5 11zM387 86q42 25 65 68.5t23 98.5t-24 98t-66.5 66.5t-94.5 23.5q-55 0 -97 -25t-65.5 -68t-23.5 -95q0 -57 24.5 -100.5t67 -67.5t94.5 -24
q55 0 97 25z" />
    <glyph glyph-name="Hcircumflex" unicode="&#x124;" horiz-adv-x="723" 
d="M96 0zM153 0h-57v710h57v-348h417v348h57v-710h-57v310h-417v-310zM272 788h-57l120 118h57l117 -118h-58l-87 85h-2z" />
    <glyph glyph-name="hcircumflex" unicode="&#x125;" horiz-adv-x="578" 
d="M85 0zM85 0v736h53v-356h1q27 52 77.5 81t115.5 29q80 0 126.5 -50.5t46.5 -147.5v-292h-54v275q0 87 -35.5 126.5t-95.5 39.5q-83 0 -132.5 -54t-49.5 -145v-242h-53zM142 800h-57l120 118h57l117 -118h-58l-87 85h-2z" />
    <glyph glyph-name="Hbar" unicode="&#x126;" horiz-adv-x="710" 
d="M629 577h57v-43h-57v-534h-57v310h-417v-310h-57v534h-78v43h78v133h57v-133h417v133h57v-133zM155 362h417v172h-417v-172z" />
    <glyph glyph-name="hbar" unicode="&#x127;" horiz-adv-x="579" 
d="M459 439.5q46 -50.5 46 -147.5v-292h-53v275q0 87 -35.5 126.5t-95.5 39.5q-84 0 -133 -53.5t-49 -145.5v-242h-53v579h-81v41h81v116h53v-116h196v-41h-196v-199h1q27 52 77.5 81t115.5 29q80 0 126 -50.5z" />
    <glyph glyph-name="Itilde" unicode="&#x128;" horiz-adv-x="263" 
d="M0 0zM160 0h-57v710h57v-710zM170 797q-19 9 -47 28q-40 27 -64 27q-19 0 -34.5 -15t-25.5 -43l-37 15q30 86 94 86q22 0 38.5 -7.5t43.5 -23.5q7 -4 20.5 -13.5t25 -14.5t22.5 -5q18 0 33 14.5t24 44.5l37 -13q-13 -44 -37 -66.5t-54 -22.5q-20 0 -39 9z" />
    <glyph glyph-name="itilde" unicode="&#x129;" horiz-adv-x="237" 
d="M0 0zM144 0h-53v485h53v-485zM288 572zM157.5 581q-17.5 9 -48.5 29q-36 25 -61 25q-40 0 -62 -57l-37 14q29 89 94 89q23 0 40 -7.5t40 -22.5q5 -4 19 -13.5t26 -15t23 -5.5q19 0 34.5 15t24.5 44l38 -13q-13 -44 -37.5 -67.5t-53.5 -23.5q-22 0 -39.5 9z" />
    <glyph glyph-name="Imacron" unicode="&#x12a;" horiz-adv-x="263" 
d="M0 0zM160 0h-57v710h57v-710zM270 822h-278v46h278v-46z" />
    <glyph glyph-name="imacron" unicode="&#x12b;" horiz-adv-x="237" 
d="M0 0zM144 0h-53v485h53v-485zM257 607zM257 607h-277v48h277v-48z" />
    <glyph glyph-name="Ibreve" unicode="&#x12c;" horiz-adv-x="263" 
d="M0 0zM160 0h-57v710h57v-710zM38 817q-37 34 -41 89h44q3 -32 27 -55t63 -23t63 23t26 55h45q-5 -56 -42 -89.5t-92 -33.5q-56 0 -93 34z" />
    <glyph glyph-name="ibreve" unicode="&#x12d;" horiz-adv-x="237" 
d="M32.5 592.5q-33.5 34.5 -37.5 98.5h45q2 -41 21.5 -66.5t56.5 -25.5q36 0 56 25.5t21 66.5h45q-4 -62 -37 -97.5t-85 -35.5t-85.5 34.5zM144 0h-53v485h53v-485z" />
    <glyph glyph-name="Iogonek" unicode="&#x12e;" horiz-adv-x="263" 
d="M186 -171q-26 -12 -66 -12q-42 0 -67 21t-25 59q0 27 19.5 57t55.5 53v703h57v-710h-5q-37 -14 -59 -40t-22 -54q0 -23 14 -36.5t41 -13.5q19 0 29 2.5t23 9.5z" />
    <glyph glyph-name="iogonek" unicode="&#x12f;" horiz-adv-x="237" 
d="M87 603q-13 13 -13 31q0 19 13 31t32 12t31.5 -12t12.5 -31q0 -18 -12.5 -31t-31.5 -13t-32 13zM174 -171q-25 -12 -66 -12q-42 0 -67 21t-25 59q0 27 19.5 57t55.5 53v478h53v-485h-1q-37 -14 -59 -40t-22 -54q0 -23 14 -36.5t41 -13.5q19 0 29 2.5t23 9.5z" />
    <glyph glyph-name="Idotaccent" unicode="&#x130;" horiz-adv-x="263" 
d="M88 0zM160 0h-57v710h57v-710zM176 809zM176 809zM100.5 822q-12.5 13 -12.5 31q0 19 12.5 31t31.5 12t31.5 -12t12.5 -31q0 -18 -12.5 -31t-31.5 -13t-31.5 13z" />
    <glyph glyph-name="dotlessi" unicode="&#x131;" horiz-adv-x="237" 
d="M144 0h-53v485h53v-485z" />
    <glyph glyph-name="IJ" unicode="&#x132;" horiz-adv-x="806" 
d="M103 0zM160 0h-57v710h57v-710zM384.5 24q-58.5 28 -101.5 78l35 44q43 -49 87 -73t108 -24q69 0 110.5 44t41.5 139v478h57v-478q0 -119 -53 -177.5t-154 -58.5q-72 0 -130.5 28z" />
    <glyph glyph-name="ij" unicode="&#x133;" horiz-adv-x="445" 
d="M75 0zM75 0zM144 0h-53v485h53v-485zM163 590zM87.5 603q-12.5 13 -12.5 31q0 19 12.5 31t31.5 12t31.5 -12t12.5 -31q0 -18 -12.5 -31t-31.5 -13t-31.5 13zM237 0zM181 -187l10 49q25 -15 58 -15q67 0 67 86v552h53v-553q0 -64 -27.5 -99t-85.5 -35q-42 0 -75 15z
M388 590zM312.5 603q-12.5 13 -12.5 31q0 19 12.5 31t31.5 12t31.5 -12t12.5 -31q0 -18 -12.5 -31t-31.5 -13t-31.5 13z" />
    <glyph glyph-name="Jcircumflex" unicode="&#x134;" horiz-adv-x="544" 
d="M20 0zM121.5 24q-58.5 28 -101.5 78l35 44q43 -49 87 -73t108 -24q69 0 110.5 44t41.5 139v478h57v-478q0 -119 -53 -177.5t-154 -58.5q-72 0 -130.5 28zM341 788h-57l120 118h57l117 -118h-58l-87 85h-2z" />
    <glyph glyph-name="jcircumflex" unicode="&#x135;" horiz-adv-x="208" 
d="M0 0zM-56 -187l10 49q25 -15 58 -15q67 0 67 86v552h53v-553q0 -64 -27.5 -99t-85.5 -35q-42 0 -75 15zM252 560zM17 560h-57l119 133h57l116 -133h-57l-86 98h-2z" />
    <glyph glyph-name="uni0136" unicode="&#x136;" horiz-adv-x="659" 
d="M96 0zM329 391q82 -70 161 -176t130 -215h-64q-48 98 -120 192.5t-146 158.5l-137 -158v-193h-57v710h57v-437h2l377 437h74zM244 -172q37 5 50.5 22t13.5 46q0 23 -6 50h50q5 -28 5 -53q0 -42 -25.5 -68.5t-73.5 -30.5z" />
    <glyph glyph-name="uni0137" unicode="&#x137;" horiz-adv-x="531" 
d="M85 0zM299 277q60 -54 117 -129t90 -148h-60q-32 66 -82.5 131.5t-102.5 112.5l-123 -131v-113h-53v736h53v-558l2 -1l283 308h68zM185 -172q37 5 50.5 22t13.5 46q0 23 -6 50h50q5 -28 5 -53q0 -42 -25.5 -68.5t-73.5 -30.5z" />
    <glyph glyph-name="kgreenlandic" unicode="&#x138;" horiz-adv-x="531" 
d="M299 277q59 -54 116.5 -129.5t90.5 -147.5h-60q-32 66 -82 131.5t-102 112.5l-124 -131v-113h-53v485h53v-307l2 -1l283 308h68z" />
    <glyph glyph-name="Lacute" unicode="&#x139;" horiz-adv-x="580" 
d="M96 0zM551 0h-455v710h57v-658h398v-52zM253 788h-57l113 128h62z" />
    <glyph glyph-name="lacute" unicode="&#x13a;" horiz-adv-x="317" 
d="M83 0zM116.5 31q-31.5 36 -31.5 110v595h53v-592q0 -52 20.5 -76.5t61.5 -24.5q23 0 41.5 4.5t37.5 16.5l9 -47q-37 -22 -95 -22q-65 0 -96.5 36zM140 801h-57l113 128h62z" />
    <glyph glyph-name="uni013B" unicode="&#x13b;" horiz-adv-x="580" 
d="M96 0zM551 0h-455v710h57v-658h398v-52zM240 -172q37 5 50.5 22t13.5 46q0 23 -6 50h50q5 -28 5 -53q0 -42 -25.5 -68.5t-73.5 -30.5z" />
    <glyph glyph-name="uni013C" unicode="&#x13c;" horiz-adv-x="317" 
d="M85 0zM116.5 31q-31.5 36 -31.5 110v595h53v-592q0 -52 20.5 -76.5t61.5 -24.5q23 0 41.5 4.5t37.5 16.5l9 -47q-37 -22 -95 -22q-65 0 -96.5 36zM120 -172q37 5 50.5 22t13.5 46q0 23 -6 50h50q5 -28 5 -53q0 -42 -25.5 -68.5t-73.5 -30.5z" />
    <glyph glyph-name="Lcaron" unicode="&#x13d;" horiz-adv-x="580" 
d="M96 0zM551 0h-455v710h57v-658h398v-52zM330 591h-40l26 172h55z" />
    <glyph glyph-name="lcaron" unicode="&#x13e;" horiz-adv-x="311" 
d="M85 0zM116.5 31q-31.5 36 -31.5 110v595h53v-592q0 -52 20.5 -76.5t61.5 -24.5q23 0 41.5 4.5t37.5 16.5l9 -47q-37 -22 -95 -22q-65 0 -96.5 36zM260 592h-40l26 172h55z" />
    <glyph glyph-name="Ldot" unicode="&#x13f;" horiz-adv-x="580" 
d="M96 0zM551 0h-455v710h57v-658h398v-52zM364 294zM377 306.5q-13 12.5 -13 31.5t13 31.5t32 12.5t32 -12.5t13 -31.5t-13 -31.5t-32 -12.5t-32 12.5z" />
    <glyph glyph-name="ldot" unicode="&#x140;" horiz-adv-x="350" 
d="M85 0zM116.5 31q-31.5 36 -31.5 110v595h53v-592q0 -52 20.5 -76.5t61.5 -24.5q23 0 41.5 4.5t37.5 16.5l9 -47q-37 -22 -95 -22q-65 0 -96.5 36zM248 263zM261 275.5q-13 12.5 -13 31.5t13 31.5t32 12.5t32 -12.5t13 -31.5t-13 -31.5t-32 -12.5t-32 12.5z" />
    <glyph glyph-name="Lslash" unicode="&#x141;" horiz-adv-x="604" 
d="M177 320v-268h398v-52h-455v296l-96 -41v51l96 41v363h57v-339l110 47v-51z" />
    <glyph glyph-name="lslash" unicode="&#x142;" horiz-adv-x="334" 
d="M325 17q-37 -22 -95 -22q-65 0 -96.5 36t-31.5 110v149l-82 -33v46l82 33v400h53v-379l82 33v-46l-82 -33v-167q0 -52 20.5 -76.5t61.5 -24.5q45 0 79 21z" />
    <glyph glyph-name="Nacute" unicode="&#x143;" horiz-adv-x="764" 
d="M96 0zM153 0h-57v710h55l460 -616h1v616h56v-710h-56l-458 612h-1v-612zM354 788h-57l113 128h62z" />
    <glyph glyph-name="nacute" unicode="&#x144;" horiz-adv-x="573" 
d="M85 0zM85 0v485h53v-107h2q27 53 76.5 82.5t111.5 29.5q80 0 126 -51t46 -149v-290h-54v273q0 88 -35 128t-96 40q-80 0 -128.5 -54.5t-48.5 -145.5v-241h-53zM419 560zM295 560h-59l120 138h63z" />
    <glyph glyph-name="uni0145" unicode="&#x145;" horiz-adv-x="764" 
d="M96 0zM153 0h-57v710h55l460 -616h1v616h56v-710h-56l-458 612h-1v-612zM294 -172q37 5 50.5 22t13.5 46q0 23 -6 50h50q5 -28 5 -53q0 -42 -25.5 -68.5t-73.5 -30.5z" />
    <glyph glyph-name="uni0146" unicode="&#x146;" horiz-adv-x="573" 
d="M85 0zM85 0v485h53v-107h2q27 53 76.5 82.5t111.5 29.5q80 0 126 -51t46 -149v-290h-54v273q0 88 -35 128t-96 40q-80 0 -128.5 -54.5t-48.5 -145.5v-241h-53zM211 -172q37 5 50.5 22t13.5 46q0 23 -6 50h50q5 -28 5 -53q0 -42 -25.5 -68.5t-73.5 -30.5z" />
    <glyph glyph-name="Ncaron" unicode="&#x147;" horiz-adv-x="764" 
d="M96 0zM153 0h-57v710h55l460 -616h1v616h56v-710h-56l-458 612h-1v-612zM405 788h-57l-117 118h57l88 -85h2l89 85h58z" />
    <glyph glyph-name="ncaron" unicode="&#x148;" horiz-adv-x="573" 
d="M85 0zM85 0v485h53v-107h2q27 53 76.5 82.5t111.5 29.5q80 0 126 -51t46 -149v-290h-54v273q0 88 -35 128t-96 40q-80 0 -128.5 -54.5t-48.5 -145.5v-241h-53zM440 559zM321 559h-57l-116 134h56l88 -99h2l89 99h57z" />
    <glyph glyph-name="napostrophe" unicode="&#x149;" horiz-adv-x="637" 
d="M58 528h-41l27 182h54zM149 0v485h53v-107h1q27 53 76.5 82.5t112.5 29.5q79 0 125 -51t46 -149v-290h-53v273q0 88 -35.5 128t-96.5 40q-80 0 -128 -54.5t-48 -145.5v-241h-53z" />
    <glyph glyph-name="Eng" unicode="&#x14a;" horiz-adv-x="764" 
d="M612 710h56v-727q0 -98 -42 -141.5t-125 -43.5q-43 0 -77 14l4 48q27 -13 67 -13q57 0 87 30.5t30 103.5v20l-458 611h-1v-612h-57v710h55l460 -616h1v616z" />
    <glyph glyph-name="eng" unicode="&#x14b;" horiz-adv-x="572" 
d="M280 -188l4 45q27 -13 59 -13q55 0 78.5 26t23.5 95v308q0 88 -35.5 128t-95.5 40q-79 0 -127.5 -54.5t-48.5 -145.5v-241h-53v485h53v-107h2q27 53 75.5 82.5t111.5 29.5q80 0 125.5 -51t45.5 -149v-321q0 -88 -35 -129.5t-115 -41.5q-37 0 -68 14z" />
    <glyph glyph-name="Omacron" unicode="&#x14c;" horiz-adv-x="834" 
d="M65 0zM238.5 41q-80.5 46 -127 128t-46.5 187t46.5 186.5t127 127t180.5 45.5q97 0 177 -45t126.5 -127t46.5 -187q0 -106 -46.5 -188t-126.5 -127.5t-177 -45.5q-100 0 -180.5 46zM565.5 88q66.5 39 105.5 109t39 159t-39 158.5t-105.5 108t-146.5 38.5
q-83 0 -150.5 -39t-106 -108.5t-38.5 -157.5q0 -89 38.5 -159t106 -109t150.5 -39q80 0 146.5 39zM557 822h-278v46h278v-46z" />
    <glyph glyph-name="omacron" unicode="&#x14d;" horiz-adv-x="595" 
d="M50 0zM168.5 28q-56.5 33 -87.5 89.5t-31 124.5t31 125t87.5 90t128.5 33q69 0 125.5 -31.5t89 -88t32.5 -128.5t-32.5 -128t-89 -87.5t-125.5 -31.5q-72 0 -128.5 33zM395 70q44 25 69.5 70t25.5 102q0 58 -25.5 103.5t-70 70.5t-97.5 25q-57 0 -101 -26.5t-68 -72
t-24 -100.5q0 -54 24.5 -99t68 -71.5t100.5 -26.5q54 0 98 25zM437 607zM437 607h-277v48h277v-48z" />
    <glyph glyph-name="Obreve" unicode="&#x14e;" horiz-adv-x="834" 
d="M65 0zM238.5 41q-80.5 46 -127 128t-46.5 187t46.5 186.5t127 127t180.5 45.5q97 0 177 -45t126.5 -127t46.5 -187q0 -106 -46.5 -188t-126.5 -127.5t-177 -45.5q-100 0 -180.5 46zM565.5 88q66.5 39 105.5 109t39 159t-39 158.5t-105.5 108t-146.5 38.5
q-83 0 -150.5 -39t-106 -108.5t-38.5 -157.5q0 -89 38.5 -159t106 -109t150.5 -39q80 0 146.5 39zM325 817q-37 34 -41 89h44q3 -32 27 -55t63 -23t63 23t26 55h45q-5 -56 -42 -89.5t-92 -33.5q-56 0 -93 34z" />
    <glyph glyph-name="obreve" unicode="&#x14f;" horiz-adv-x="595" 
d="M50 0zM168.5 28q-56.5 33 -87.5 89.5t-31 124.5t31 125t87.5 90t128.5 33q69 0 125.5 -31.5t89 -88t32.5 -128.5t-32.5 -128t-89 -87.5t-125.5 -31.5q-72 0 -128.5 33zM395 70q44 25 69.5 70t25.5 102q0 58 -25.5 103.5t-70 70.5t-97.5 25q-57 0 -101 -26.5t-68 -72
t-24 -100.5q0 -54 24.5 -99t68 -71.5t100.5 -26.5q54 0 98 25zM432 557zM204.5 592.5q-36.5 35.5 -40.5 98.5h44q3 -39 26.5 -64.5t63.5 -25.5q39 0 63 25.5t26 64.5h45q-5 -64 -41.5 -99t-92.5 -35q-57 0 -93.5 35.5z" />
    <glyph glyph-name="Ohungarumlaut" unicode="&#x150;" horiz-adv-x="834" 
d="M65 0zM238.5 41q-80.5 46 -127 128t-46.5 187t46.5 186.5t127 127t180.5 45.5q97 0 177 -45t126.5 -127t46.5 -187q0 -106 -46.5 -188t-126.5 -127.5t-177 -45.5q-100 0 -180.5 46zM565.5 88q66.5 39 105.5 109t39 159t-39 158.5t-105.5 108t-146.5 38.5
q-83 0 -150.5 -39t-106 -108.5t-38.5 -157.5q0 -89 38.5 -159t106 -109t150.5 -39q80 0 146.5 39zM644 789zM373 789h-55l119 138h60zM519 789h-54l119 138h60z" />
    <glyph glyph-name="ohungarumlaut" unicode="&#x151;" horiz-adv-x="595" 
d="M50 0zM168.5 28q-56.5 33 -87.5 89.5t-31 124.5t31 125t87.5 90t128.5 33q69 0 125.5 -31.5t89 -88t32.5 -128.5t-32.5 -128t-89 -87.5t-125.5 -31.5q-72 0 -128.5 33zM395 70q44 25 69.5 70t25.5 102q0 58 -25.5 103.5t-70 70.5t-97.5 25q-57 0 -101 -26.5t-68 -72
t-24 -100.5q0 -54 24.5 -99t68 -71.5t100.5 -26.5q54 0 98 25zM524 560zM253 560h-55l119 138h60zM399 560h-54l119 138h60z" />
    <glyph glyph-name="OE" unicode="&#x152;" horiz-adv-x="987" 
d="M530 52h406v-52h-519q-111 0 -190.5 47t-120.5 128t-41 181t41 180.5t120.5 127t190.5 46.5h506v-52h-393v-278h359v-52h-359v-276zM474 54v602h-57q-90 0 -156 -38t-101.5 -106t-35.5 -156q0 -89 35.5 -157.5t102 -107t155.5 -38.5z" />
    <glyph glyph-name="oe" unicode="&#x153;" horiz-adv-x="906" 
d="M878 231h-381q4 -87 57 -137.5t139 -50.5q40 0 81 11t69 36l26 -43q-36 -28 -83 -40t-93 -12q-81 0 -137.5 36.5t-84.5 101.5h-2q-23 -65 -77 -101.5t-126 -36.5q-68 0 -119 31t-79 87t-28 129t28.5 129.5t80 87.5t120.5 31q70 0 124 -36t78 -104h1q25 68 79 104t123 36
q97 0 151 -65t54 -169zM395 97.5q48 54.5 48 144.5q0 91 -47.5 145.5t-127.5 54.5q-79 0 -126.5 -54.5t-47.5 -145.5t47.5 -145t126.5 -54t127 54.5zM554 395.5q-47 -45.5 -55 -120.5h327q-6 78 -44 122t-109 44q-72 0 -119 -45.5z" />
    <glyph glyph-name="Racute" unicode="&#x154;" horiz-adv-x="639" 
d="M96 0zM497 163q57 -78 98 -163h-65q-42 84 -100.5 160t-118.5 127h-158v-287h-57v710h243q115 0 171.5 -56t56.5 -151q0 -90 -49.5 -142t-138.5 -64q61 -56 118 -134zM153 658v-318h165q98 0 144 43.5t46 117.5q0 77 -46 117t-128 40h-181zM293 788h-57l113 128h62z" />
    <glyph glyph-name="racute" unicode="&#x155;" horiz-adv-x="413" 
d="M85 0zM85 0v485h53v-102h2q24 50 76 78.5t113 28.5q46 0 77 -10l-10 -53q-35 11 -79 11q-46 0 -87 -20t-66.5 -61t-25.5 -102v-255h-53zM342 560zM218 560h-59l120 138h63z" />
    <glyph glyph-name="uni0156" unicode="&#x156;" horiz-adv-x="639" 
d="M96 0zM497 163q57 -78 98 -163h-65q-42 84 -100.5 160t-118.5 127h-158v-287h-57v710h243q115 0 171.5 -56t56.5 -151q0 -90 -49.5 -142t-138.5 -64q61 -56 118 -134zM153 658v-318h165q98 0 144 43.5t46 117.5q0 77 -46 117t-128 40h-181zM230 -172q37 5 50.5 22
t13.5 46q0 23 -6 50h50q5 -28 5 -53q0 -42 -25.5 -68.5t-73.5 -30.5z" />
    <glyph glyph-name="uni0157" unicode="&#x157;" horiz-adv-x="413" 
d="M30 0zM85 0v485h53v-102h2q24 50 76 78.5t113 28.5q46 0 77 -10l-10 -53q-35 11 -79 11q-46 0 -87 -20t-66.5 -61t-25.5 -102v-255h-53zM30 -172q37 5 50.5 22t13.5 46q0 23 -6 50h50q5 -28 5 -53q0 -42 -25.5 -68.5t-73.5 -30.5z" />
    <glyph glyph-name="Rcaron" unicode="&#x158;" horiz-adv-x="639" 
d="M96 0zM497 163q57 -78 98 -163h-65q-42 84 -100.5 160t-118.5 127h-158v-287h-57v710h243q115 0 171.5 -56t56.5 -151q0 -90 -49.5 -142t-138.5 -64q61 -56 118 -134zM153 658v-318h165q98 0 144 43.5t46 117.5q0 77 -46 117t-128 40h-181zM343 788h-57l-117 118h57
l88 -85h2l89 85h58z" />
    <glyph glyph-name="rcaron" unicode="&#x159;" horiz-adv-x="413" 
d="M85 0zM85 0v485h53v-102h2q24 50 76 78.5t113 28.5q46 0 77 -10l-10 -53q-35 11 -79 11q-46 0 -87 -20t-66.5 -61t-25.5 -102v-255h-53zM386 559zM267 559h-57l-116 134h56l88 -99h2l89 99h57z" />
    <glyph glyph-name="Sacute" unicode="&#x15a;" horiz-adv-x="581" 
d="M54 0zM162 16.5q-63 21.5 -108 63.5l28 53q40 -43 98 -64t120 -21q81 0 129.5 33t48.5 96q0 41 -20.5 67t-52.5 42t-91 38l-32 12q-71 27 -111.5 48t-69 58t-28.5 94q0 54 27.5 94.5t76 62.5t109.5 22q67 0 125.5 -18t102.5 -54l-33 -47q-39 33 -91 50t-104 17
q-62 0 -108 -32t-46 -91q0 -40 21 -66t55 -43t97 -41l19 -7q75 -28 116.5 -49.5t69 -58t27.5 -93.5q0 -90 -61.5 -138.5t-177.5 -48.5q-73 0 -136 21.5zM293 788h-57l113 128h62z" />
    <glyph glyph-name="sacute" unicode="&#x15b;" horiz-adv-x="451" 
d="M42 0zM129 7.5q-44 12.5 -87 36.5l23 47q44 -24 81.5 -36t85.5 -12q61 0 93 21.5t32 61.5q0 29 -17 47t-47 29t-82 24q-77 19 -118.5 50.5t-41.5 88.5t44 91t124 34q96 0 171 -47l-26 -43q-65 42 -142 42q-54 0 -86 -19.5t-32 -56.5q0 -36 31.5 -57t99.5 -37
q61 -14 98 -30.5t57.5 -43.5t20.5 -69q0 -64 -46 -99t-137 -35q-55 0 -99 12.5zM366 560zM242 560h-59l120 138h63z" />
    <glyph glyph-name="Scircumflex" unicode="&#x15c;" horiz-adv-x="581" 
d="M54 0zM162 16.5q-63 21.5 -108 63.5l28 53q40 -43 98 -64t120 -21q81 0 129.5 33t48.5 96q0 41 -20.5 67t-52.5 42t-91 38l-32 12q-71 27 -111.5 48t-69 58t-28.5 94q0 54 27.5 94.5t76 62.5t109.5 22q67 0 125.5 -18t102.5 -54l-33 -47q-39 33 -91 50t-104 17
q-62 0 -108 -32t-46 -91q0 -40 21 -66t55 -43t97 -41l19 -7q75 -28 116.5 -49.5t69 -58t27.5 -93.5q0 -90 -61.5 -138.5t-177.5 -48.5q-73 0 -136 21.5zM199 788h-57l120 118h57l117 -118h-58l-87 85h-2z" />
    <glyph glyph-name="scircumflex" unicode="&#x15d;" horiz-adv-x="451" 
d="M42 0zM129 7.5q-44 12.5 -87 36.5l23 47q44 -24 81.5 -36t85.5 -12q61 0 93 21.5t32 61.5q0 29 -17 47t-47 29t-82 24q-77 19 -118.5 50.5t-41.5 88.5t44 91t124 34q96 0 171 -47l-26 -43q-65 42 -142 42q-54 0 -86 -19.5t-32 -56.5q0 -36 31.5 -57t99.5 -37
q61 -14 98 -30.5t57.5 -43.5t20.5 -69q0 -64 -46 -99t-137 -35q-55 0 -99 12.5zM376 560zM141 560h-57l119 133h57l116 -133h-57l-86 98h-2z" />
    <glyph glyph-name="Scedilla" unicode="&#x15e;" horiz-adv-x="581" 
d="M288 -33v-1q36 -2 60.5 -23t24.5 -55q0 -32 -25 -53t-72 -21q-30 0 -53 6v34q23 -7 47 -7q25 0 43 11.5t18 32.5q0 20 -22 34.5t-61 14.5l1 25l14 31q-63 5 -116.5 26t-92.5 58l28 53q40 -43 98 -64t120 -21q81 0 129.5 33t48.5 96q0 41 -20.5 67t-52.5 42t-91 38l-32 12
q-71 27 -111.5 48t-69 58t-28.5 94q0 54 27.5 94.5t76 62.5t109.5 22q67 0 125.5 -18t102.5 -54l-33 -47q-39 33 -91 50t-104 17q-62 0 -108 -32t-46 -91q0 -40 21 -66t55 -43t97 -41l19 -7q75 -28 116.5 -49.5t69 -58t27.5 -93.5q0 -90 -61 -138t-176 -49z" />
    <glyph glyph-name="scedilla" unicode="&#x15f;" horiz-adv-x="451" 
d="M211 -33v-1q36 -2 60.5 -23t24.5 -55q0 -32 -25 -53t-72 -21q-30 0 -53 6v34q23 -7 47 -7q25 0 43 11.5t18 32.5q0 20 -22 34.5t-61 14.5l1 25l15 32q-73 8 -145 47l23 47q44 -24 81.5 -36t85.5 -12q61 0 93 21.5t32 61.5q0 29 -17 47t-47 29t-82 24q-77 19 -118.5 50.5
t-41.5 88.5t44 91t124 34q96 0 171 -47l-26 -43q-65 42 -142 42q-54 0 -86 -19.5t-32 -56.5q0 -36 31.5 -57t99.5 -37q61 -14 98 -30.5t57.5 -43.5t20.5 -69q0 -64 -46 -99t-137 -35h-5z" />
    <glyph glyph-name="Scaron" unicode="&#x160;" horiz-adv-x="581" 
d="M54 0zM162 16.5q-63 21.5 -108 63.5l28 53q40 -43 98 -64t120 -21q81 0 129.5 33t48.5 96q0 41 -20.5 67t-52.5 42t-91 38l-32 12q-71 27 -111.5 48t-69 58t-28.5 94q0 54 27.5 94.5t76 62.5t109.5 22q67 0 125.5 -18t102.5 -54l-33 -47q-39 33 -91 50t-104 17
q-62 0 -108 -32t-46 -91q0 -40 21 -66t55 -43t97 -41l19 -7q75 -28 116.5 -49.5t69 -58t27.5 -93.5q0 -90 -61.5 -138.5t-177.5 -48.5q-73 0 -136 21.5zM316 788h-57l-117 118h57l88 -85h2l89 85h58z" />
    <glyph glyph-name="scaron" unicode="&#x161;" horiz-adv-x="451" 
d="M42 0zM129 7.5q-44 12.5 -87 36.5l23 47q44 -24 81.5 -36t85.5 -12q61 0 93 21.5t32 61.5q0 29 -17 47t-47 29t-82 24q-77 19 -118.5 50.5t-41.5 88.5t44 91t124 34q96 0 171 -47l-26 -43q-65 42 -142 42q-54 0 -86 -19.5t-32 -56.5q0 -36 31.5 -57t99.5 -37
q61 -14 98 -30.5t57.5 -43.5t20.5 -69q0 -64 -46 -99t-137 -35q-55 0 -99 12.5zM376 559zM257 559h-57l-116 134h56l88 -99h2l89 99h57z" />
    <glyph glyph-name="uni0162" unicode="&#x162;" horiz-adv-x="563" 
d="M287 0l-14 -33v-1q36 -2 60.5 -23t24.5 -55q0 -32 -25 -53t-72 -21q-30 0 -53 6v34q23 -7 47 -7q25 0 43 11.5t18 32.5q0 20 -22 34.5t-61 14.5l1 25l17 37v656h-222v52h504v-52h-225v-658h-21z" />
    <glyph glyph-name="uni0163" unicode="&#x163;" horiz-adv-x="417" 
d="M227 -34q36 -2 60.5 -23t24.5 -55q0 -32 -25 -53t-72 -21q-31 0 -53 6v34q23 -7 47 -7q25 0 43 11.5t18 32.5q0 20 -22 34.5t-61 14.5l1 25l16 33q-53 10 -75.5 45t-22.5 95v300h-87v47h87v174l53 6v-180h210v-47h-210v-287q0 -54 20.5 -81t70.5 -27q39 0 63.5 8t48.5 22
l19 -45q-51 -33 -135 -33h-7l-12 -28v-1z" />
    <glyph glyph-name="Tcaron" unicode="&#x164;" horiz-adv-x="563" 
d="M29 0zM308 0h-57v658h-222v52h504v-52h-225v-658zM307 788h-57l-117 118h57l88 -85h2l89 85h58z" />
    <glyph glyph-name="tcaron" unicode="&#x165;" horiz-adv-x="414" 
d="M19 0zM138 31q-32 36 -32 107v300h-87v47h87v174l53 6v-180h210v-47h-210v-287q0 -54 20.5 -81t70.5 -27q39 0 63.5 8t48.5 22l19 -45q-51 -33 -135 -33q-76 0 -108 36zM265 592h-40l26 172h55z" />
    <glyph glyph-name="Tbar" unicode="&#x166;" horiz-adv-x="563" 
d="M533 710v-52h-225v-271h123v-46h-123v-341h-57v341h-118v46h118v271h-222v52h504z" />
    <glyph glyph-name="tbar" unicode="&#x167;" horiz-adv-x="417" 
d="M381 28q-51 -33 -135 -33q-76 0 -108 36t-32 107v121h-67v41h67v138h-87v47h87v174l53 6v-180h210v-47h-210v-138h140v-41h-140v-108q0 -54 20.5 -81t70.5 -27q39 0 63.5 8t48.5 22z" />
    <glyph glyph-name="Utilde" unicode="&#x168;" horiz-adv-x="709" 
d="M87 0zM160 68q-73 73 -73 209v433h56v-430q0 -110 57 -170t154 -60t155 59t58 171v430h56v-433q0 -135 -73 -208.5t-196 -73.5q-121 0 -194 73zM394 797q-19 9 -47 28q-40 27 -64 27q-19 0 -34.5 -15t-25.5 -43l-37 15q30 86 94 86q22 0 38.5 -7.5t43.5 -23.5
q7 -4 20.5 -13.5t25 -14.5t22.5 -5q18 0 33 14.5t24 44.5l37 -13q-13 -44 -37 -66.5t-54 -22.5q-20 0 -39 9z" />
    <glyph glyph-name="utilde" unicode="&#x169;" horiz-adv-x="560" 
d="M73 0zM121 49q-48 54 -48 153v283h53v-265q0 -175 139 -175q45 0 82.5 25t59 71t21.5 107v237h53v-485h-53v104l-1 1q-26 -52 -71.5 -81t-99.5 -29q-87 0 -135 54zM447 572zM316.5 581q-17.5 9 -48.5 29q-36 25 -61 25q-40 0 -62 -57l-37 14q29 89 94 89q23 0 40 -7.5
t40 -22.5q5 -4 19 -13.5t26 -15t23 -5.5q19 0 34.5 15t24.5 44l38 -13q-13 -44 -37.5 -67.5t-53.5 -23.5q-22 0 -39.5 9z" />
    <glyph glyph-name="Umacron" unicode="&#x16a;" horiz-adv-x="709" 
d="M87 0zM160 68q-73 73 -73 209v433h56v-430q0 -110 57 -170t154 -60t155 59t58 171v430h56v-433q0 -135 -73 -208.5t-196 -73.5q-121 0 -194 73zM494 822h-278v46h278v-46z" />
    <glyph glyph-name="umacron" unicode="&#x16b;" horiz-adv-x="560" 
d="M73 0zM121 49q-48 54 -48 153v283h53v-265q0 -175 139 -175q45 0 82.5 25t59 71t21.5 107v237h53v-485h-53v104l-1 1q-26 -52 -71.5 -81t-99.5 -29q-87 0 -135 54zM416 607zM416 607h-277v48h277v-48z" />
    <glyph glyph-name="Ubreve" unicode="&#x16c;" horiz-adv-x="709" 
d="M87 0zM160 68q-73 73 -73 209v433h56v-430q0 -110 57 -170t154 -60t155 59t58 171v430h56v-433q0 -135 -73 -208.5t-196 -73.5q-121 0 -194 73zM262 817q-37 34 -41 89h44q3 -32 27 -55t63 -23t63 23t26 55h45q-5 -56 -42 -89.5t-92 -33.5q-56 0 -93 34z" />
    <glyph glyph-name="ubreve" unicode="&#x16d;" horiz-adv-x="560" 
d="M73 0zM121 49q-48 54 -48 153v283h53v-265q0 -175 139 -175q45 0 82.5 25t59 71t21.5 107v237h53v-485h-53v104l-1 1q-26 -52 -71.5 -81t-99.5 -29q-87 0 -135 54zM411 557zM183.5 592.5q-36.5 35.5 -40.5 98.5h44q3 -39 26.5 -64.5t63.5 -25.5q39 0 63 25.5t26 64.5h45
q-5 -64 -41.5 -99t-92.5 -35q-57 0 -93.5 35.5z" />
    <glyph glyph-name="Uring" unicode="&#x16e;" horiz-adv-x="709" 
d="M87 0zM160 68q-73 73 -73 209v433h56v-430q0 -110 57 -170t154 -60t155 59t58 171v430h56v-433q0 -135 -73 -208.5t-196 -73.5q-121 0 -194 73zM441 773zM294.5 797.5q-25.5 24.5 -25.5 59.5t25 59.5t61 24.5q35 0 60.5 -24.5t25.5 -59.5t-25 -59.5t-61 -24.5
q-35 0 -60.5 24.5zM388 824.5q14 13.5 14 32.5t-14 33t-33 14t-33 -14t-14 -33t14 -32.5t33 -13.5t33 13.5z" />
    <glyph glyph-name="uring" unicode="&#x16f;" horiz-adv-x="560" 
d="M73 0zM121 49q-48 54 -48 153v283h53v-265q0 -175 139 -175q45 0 82.5 25t59 71t21.5 107v237h53v-485h-53v104l-1 1q-26 -52 -71.5 -81t-99.5 -29q-87 0 -135 54zM363 550zM216.5 574.5q-25.5 24.5 -25.5 59.5t25 59.5t61 24.5q35 0 60.5 -24.5t25.5 -59.5t-25 -59.5
t-61 -24.5q-35 0 -60.5 24.5zM310 601.5q14 13.5 14 32.5t-14 33t-33 14t-33 -14t-14 -33t14 -32.5t33 -13.5t33 13.5z" />
    <glyph glyph-name="Uhungarumlaut" unicode="&#x170;" horiz-adv-x="709" 
d="M87 0zM160 68q-73 73 -73 209v433h56v-430q0 -110 57 -170t154 -60t155 59t58 171v430h56v-433q0 -135 -73 -208.5t-196 -73.5q-121 0 -194 73zM581 789zM310 789h-55l119 138h60zM456 789h-54l119 138h60z" />
    <glyph glyph-name="uhungarumlaut" unicode="&#x171;" horiz-adv-x="560" 
d="M73 0zM121 49q-48 54 -48 153v283h53v-265q0 -175 139 -175q45 0 82.5 25t59 71t21.5 107v237h53v-485h-53v104l-1 1q-26 -52 -71.5 -81t-99.5 -29q-87 0 -135 54zM503 560zM232 560h-55l119 138h60zM378 560h-54l119 138h60z" />
    <glyph glyph-name="Uogonek" unicode="&#x172;" horiz-adv-x="709" 
d="M567 710h56v-433q0 -118 -56.5 -189.5t-155.5 -87.5q-34 -17 -54.5 -41.5t-20.5 -50.5q0 -23 13.5 -36t41.5 -13q20 0 30 2.5t23 8.5l5 -38q-25 -13 -66 -13q-43 0 -67.5 21t-24.5 59q0 23 12.5 47t36.5 44h-1l-1 5q-115 5 -183 77.5t-68 204.5v433h56v-430
q0 -110 57 -170t154 -60t155 59t58 171v430z" />
    <glyph glyph-name="uogonek" unicode="&#x173;" horiz-adv-x="560" 
d="M510 -171q-25 -12 -66 -12q-42 0 -67 21t-25 59q0 27 20 57.5t56 52.5v97l-1 1q-26 -52 -71.5 -81t-99.5 -29q-87 0 -135 54t-48 153v283h53v-265q0 -175 139 -175q45 0 82.5 25t59 71t21.5 107v237h53v-485h-2q-37 -14 -59 -40t-22 -54q0 -23 14 -36.5t41 -13.5
q19 0 29 2.5t23 9.5z" />
    <glyph glyph-name="Wcircumflex" unicode="&#x174;" horiz-adv-x="1011" 
d="M37 0zM320 0h-54l-229 710h61l195 -621h1l180 621h65l178 -621h1l197 621h61l-230 -710h-56l-183 631h-1zM417 788h-57l120 118h57l117 -118h-58l-87 85h-2z" />
    <glyph glyph-name="wcircumflex" unicode="&#x175;" horiz-adv-x="764" 
d="M33 0zM252 0h-50l-169 485h57l139 -406h2l126 406h49l129 -406h2l139 406h56l-169 -485h-51l-130 404h-1zM528 560zM293 560h-57l119 133h57l116 -133h-57l-86 98h-2z" />
    <glyph glyph-name="Ycircumflex" unicode="&#x176;" horiz-adv-x="584" 
d="M18 0zM319 0h-57v320l-244 390h66l205 -333h2l207 333h66l-245 -390v-320zM202 788h-57l120 118h57l117 -118h-58l-87 85h-2z" />
    <glyph glyph-name="ycircumflex" unicode="&#x177;" horiz-adv-x="516" 
d="M0 0zM-15 -165l22 44q39 -32 89 -32q44 0 71.5 29t57.5 106l11 28l-214 475h59l181 -411h1l168 411h57l-213 -515q-24 -59 -46 -95t-53.5 -56.5t-78.5 -20.5q-65 0 -112 37zM404 560zM169 560h-57l119 133h57l116 -133h-57l-86 98h-2z" />
    <glyph glyph-name="Ydieresis" unicode="&#x178;" horiz-adv-x="584" 
d="M18 0zM319 0h-57v320l-244 390h66l205 -333h2l207 333h66l-245 -390v-320zM419 810zM419 810zM179 823q-13 13 -13 30q0 18 13 30.5t31 12.5q19 0 31.5 -12t12.5 -31q0 -18 -12.5 -30.5t-31.5 -12.5q-18 0 -31 13zM344 823q-13 13 -13 30q0 19 12.5 31t31.5 12t31.5 -12
t12.5 -31q0 -18 -12.5 -30.5t-31.5 -12.5q-18 0 -31 13z" />
    <glyph glyph-name="Zacute" unicode="&#x179;" horiz-adv-x="612" 
d="M61 0zM544 0h-483v47l405 609l-1 2h-381v52h456v-47l-406 -609l1 -2h409v-52zM278 788h-57l113 128h62z" />
    <glyph glyph-name="zacute" unicode="&#x17a;" horiz-adv-x="467" 
d="M38 0zM437 0h-399v42l311 395v1h-297v47h370v-39l-312 -397l1 -2h326v-47zM377 560zM253 560h-59l120 138h63z" />
    <glyph glyph-name="Zdotaccent" unicode="&#x17b;" horiz-adv-x="612" 
d="M61 0zM544 0h-483v47l405 609l-1 2h-381v52h456v-47l-406 -609l1 -2h409v-52zM346 809zM346 809zM270.5 822q-12.5 13 -12.5 31q0 19 12.5 31t31.5 12t31.5 -12t12.5 -31q0 -18 -12.5 -31t-31.5 -13t-31.5 13z" />
    <glyph glyph-name="zdotaccent" unicode="&#x17c;" horiz-adv-x="467" 
d="M38 0zM437 0h-399v42l311 395v1h-297v47h370v-39l-312 -397l1 -2h326v-47zM277 590zM201.5 603q-12.5 13 -12.5 31q0 19 12.5 31t31.5 12t31.5 -12t12.5 -31q0 -18 -12.5 -31t-31.5 -13t-31.5 13z" />
    <glyph glyph-name="Zcaron" unicode="&#x17d;" horiz-adv-x="612" 
d="M61 0zM544 0h-483v47l405 609l-1 2h-381v52h456v-47l-406 -609l1 -2h409v-52zM328 788h-57l-117 118h57l88 -85h2l89 85h58z" />
    <glyph glyph-name="zcaron" unicode="&#x17e;" horiz-adv-x="467" 
d="M38 0zM437 0h-399v42l311 395v1h-297v47h370v-39l-312 -397l1 -2h326v-47zM378 559zM259 559h-57l-116 134h56l88 -99h2l89 99h57z" />
    <glyph glyph-name="longs" unicode="&#x17f;" horiz-adv-x="308" 
d="M107 0v438h-85v47h85v108q0 74 34 111t94 37t104 -28l-16 -44q-22 11 -41 16.5t-42 5.5q-37 0 -58 -24.5t-21 -77.5v-589h-54z" />
    <glyph glyph-name="uni018F" unicode="&#x18f;" horiz-adv-x="780" 
d="M554 667.5q79 -47.5 120.5 -129t41.5 -182.5q0 -105 -43.5 -187.5t-120.5 -128t-173 -45.5q-93 0 -168 38.5t-118.5 113t-43.5 178.5q0 12 2 30h605v1q0 89 -35 158.5t-101.5 108t-157.5 38.5q-128 0 -234 -76l-32 46q115 84 270 84q109 0 188 -47.5zM510 80
q59 31 96.5 88.5t46.5 134.5h-546q1 -76 36.5 -133.5t96.5 -89t138 -31.5q73 0 132 31z" />
    <glyph glyph-name="florin" unicode="&#x192;" horiz-adv-x="518" 
d="M17.5 -98q-30.5 11 -51.5 29l24 39q36 -29 90 -29q41 0 67 25.5t33 85.5l49 367h-78l7 48h78l16 124q11 78 48 114t100 36q38 0 68.5 -11t51.5 -29l-23 -38q-40 28 -91 28q-41 0 -67 -25.5t-33 -85.5l-14 -113h157l-6 -48h-159l-50 -377q-10 -78 -47 -114.5t-100 -36.5
q-39 0 -69.5 11z" />
    <glyph glyph-name="uni019D" unicode="&#x19d;" horiz-adv-x="764" 
d="M612 710h56v-710h-56l-458 612h-1v-671q0 -143 -118 -143q-38 0 -70 14l5 48q27 -13 57 -13q33 0 51 21t18 64v778h57v-3l458 -613h1v616z" />
    <glyph glyph-name="Ohorn" unicode="&#x1a0;" horiz-adv-x="873" 
d="M827 774v-75q0 -73 -25.5 -112t-76.5 -49q44 -82 44 -182q0 -106 -46.5 -188t-126.5 -127.5t-177 -45.5q-100 0 -180.5 46t-127 128t-46.5 187t46.5 186.5t127 127t180.5 45.5q87 0 161 -36.5t122 -102.5q39 6 55 34.5t16 90.5v73h54zM565.5 88q66.5 39 105.5 109t39 159
t-39 158.5t-105.5 108t-146.5 38.5q-83 0 -150.5 -39t-106 -108.5t-38.5 -157.5q0 -89 38.5 -159t106 -109t150.5 -39q80 0 146.5 39z" />
    <glyph glyph-name="ohorn" unicode="&#x1a1;" horiz-adv-x="661" 
d="M634 565v-75q0 -142 -104 -161q14 -42 14 -87q0 -72 -32.5 -128t-89 -87.5t-125.5 -31.5q-72 0 -128.5 33t-87.5 89.5t-31 124.5t31 125t87.5 90t128.5 33q71 0 128 -32.5t88 -90.5q37 7 52 36t15 89v73h54zM395 70q44 25 69.5 70t25.5 102q0 58 -25.5 103.5t-70 70.5
t-97.5 25q-57 0 -101 -26.5t-68 -72t-24 -100.5q0 -54 24.5 -99t68 -71.5t100.5 -26.5q54 0 98 25z" />
    <glyph glyph-name="Uhorn" unicode="&#x1af;" horiz-adv-x="774" 
d="M755 774v-75q0 -83 -33.5 -122.5t-98.5 -41.5v-258q0 -135 -73 -208.5t-196 -73.5q-121 0 -194 73t-73 209v433h56v-430q0 -110 57 -170t154 -60t155 59t58 171v430h56v-135q43 4 60.5 33t17.5 93v73h54z" />
    <glyph glyph-name="uhorn" unicode="&#x1b0;" horiz-adv-x="632" 
d="M605 565v-75q0 -80 -31.5 -119.5t-92.5 -44.5v-326h-53v104l-1 1q-26 -52 -71.5 -81t-99.5 -29q-87 0 -135 54t-48 153v283h53v-265q0 -175 139 -175q45 0 82.5 25t59 71t21.5 107v237h53v-118q39 6 55 34.5t16 90.5v73h53z" />
    <glyph glyph-name="Gcaron" unicode="&#x1e6;" horiz-adv-x="774" 
d="M65 0zM228.5 40q-79.5 44 -121.5 124.5t-42 187.5q0 103 41 185t120 130t189 48q81 0 150.5 -29.5t122.5 -87.5l-38 -42q-45 51 -106 78t-133 27q-88 0 -153 -40t-99.5 -110t-34.5 -159q0 -90 33.5 -158t99.5 -106.5t160 -38.5q140 0 227 64v189h-236v52h292v-272
q-51 -41 -124.5 -63.5t-159.5 -22.5q-108 0 -187.5 44zM437 788h-57l-117 118h57l88 -85h2l89 85h58z" />
    <glyph glyph-name="gcaron" unicode="&#x1e7;" horiz-adv-x="604" 
d="M49 0zM181.5 -191q-56.5 11 -100.5 37l21 47q81 -46 191 -46q92 0 136.5 45.5t44.5 122.5v104h-1q-27 -50 -75.5 -79t-112.5 -29q-66 0 -120 30t-85 84.5t-31 126.5q0 66 29.5 120.5t83 86t121.5 31.5q61 0 110.5 -27.5t78.5 -77.5h1v100h53v-461q0 -105 -56.5 -165.5
t-175.5 -60.5q-56 0 -112.5 11zM387 86q42 25 65 68.5t23 98.5t-24 98t-66.5 66.5t-94.5 23.5q-55 0 -97 -25t-65.5 -68t-23.5 -95q0 -57 24.5 -100.5t67 -67.5t94.5 -24q55 0 97 25zM436 559zM317 559h-57l-116 134h56l88 -99h2l89 99h57z" />
    <glyph glyph-name="uni01EA" unicode="&#x1ea;" horiz-adv-x="834" 
d="M406 -43q-20 -25 -20 -51q0 -23 14 -36.5t41 -13.5q19 0 29 2.5t23 9.5l5 -39q-25 -12 -66 -12q-42 0 -67 21t-25 59q0 23 14 48t40 47l-2 4q-93 6 -167.5 53t-117 127t-42.5 180q0 105 46.5 186.5t127 127t180.5 45.5q97 0 177 -45t126.5 -127t46.5 -187
q0 -98 -40.5 -176.5t-110.5 -125.5t-158 -57q-34 -15 -54 -40zM162.5 197q38.5 -70 106 -109t150.5 -39q80 0 146.5 39t105.5 109t39 159t-39 158.5t-105.5 108t-146.5 38.5q-83 0 -150.5 -39t-106 -108.5t-38.5 -157.5q0 -89 38.5 -159z" />
    <glyph glyph-name="uni01EB" unicode="&#x1eb;" horiz-adv-x="595" 
d="M277 -43q-20 -25 -20 -51q0 -23 14 -36.5t41 -13.5q19 0 29 2.5t23 9.5l5 -39q-26 -12 -66 -12q-42 0 -67 21t-25 59q0 23 14.5 49t41.5 47l-1 4q-64 7 -113 41t-76 87.5t-27 116.5q0 68 31 125t87.5 90t128.5 33q69 0 125.5 -31.5t89 -88t32.5 -128.5q0 -66 -27.5 -119
t-76 -86t-109.5 -40q-34 -15 -54 -40zM128.5 143q24.5 -45 68 -71.5t100.5 -26.5q54 0 98 25t69.5 70t25.5 102q0 58 -25.5 103.5t-70 70.5t-97.5 25q-57 0 -101 -26.5t-68 -72t-24 -100.5q0 -54 24.5 -99z" />
    <glyph glyph-name="Aringacute" unicode="&#x1fa;" horiz-adv-x="664" 
d="M272 797q-25 25 -25 59q0 35 24.5 59.5t60.5 24.5q21 0 39 -9t30 -25l78 52l69 1l-131 -91q1 -4 1 -12q0 -34 -25 -59t-61 -25q-35 0 -60 25zM299 889.5q-14 -13.5 -14 -32.5t13.5 -32.5t33.5 -13.5q19 0 33 13.5t14 32.5t-14 32.5t-33 13.5t-33 -13.5zM301 710h60
l274 -710h-60l-73 191h-341l-72 -191h-59zM330 642l-150 -400h304l-152 400h-2z" />
    <glyph glyph-name="aringacute" unicode="&#x1fb;" horiz-adv-x="534" 
d="M197.5 575q-25.5 25 -25.5 59q0 35 25 59.5t60 24.5q20 0 38 -8.5t29 -23.5l79 53h69l-130 -91q1 -4 1 -14q0 -34 -25 -59t-61 -25q-34 0 -59.5 25zM224.5 667q-13.5 -14 -13.5 -33t13.5 -32.5t32.5 -13.5q20 0 34 13.5t14 32.5t-14 33t-34 14q-19 0 -32.5 -14zM530 3
q-26 -8 -47 -8q-37 0 -62.5 21.5t-32.5 62.5h-1q-28 -38 -76.5 -61t-105.5 -23q-78 0 -121 39t-43 102q0 69 45 108t138 39h159v9q0 75 -31.5 112.5t-104.5 37.5q-84 0 -157 -32l-16 46q84 34 179 34q97 0 139 -51.5t42 -149.5v-161q0 -46 15.5 -66.5t39.5 -20.5q14 0 37 7z
M296 59.5q39 17.5 62.5 46t23.5 59.5v75h-153q-61 0 -97.5 -25.5t-36.5 -74.5q0 -42 29 -70t89 -28q44 0 83 17.5z" />
    <glyph glyph-name="AEacute" unicode="&#x1fc;" horiz-adv-x="937" 
d="M8 0zM68 0h-60l392 710h482v-52h-391v-278h357v-52h-357v-276h404v-52h-461v191h-259zM433 660l-231 -418h232v418h-1zM482 788h-57l113 128h62z" />
    <glyph glyph-name="aeacute" unicode="&#x1fd;" horiz-adv-x="837" 
d="M31 0zM804 231h-385q4 -86 56.5 -137t140.5 -51q41 0 83 11t70 36l26 -43q-36 -28 -83.5 -40t-95.5 -12q-80 0 -134 33.5t-80 86.5h-1q-17 -55 -71 -87.5t-130 -32.5q-81 0 -125 39t-44 102q0 64 45.5 102t137.5 38h155v16q0 75 -31.5 112.5t-106.5 37.5q-76 0 -151 -32
l-16 46q84 34 170 34q143 0 171 -118h2q26 55 75 86.5t114 31.5q100 0 154.5 -64.5t54.5 -169.5zM477 395q-47 -46 -56 -120h332q-6 80 -44.5 123t-112.5 43q-72 0 -119 -46zM291 59q37 17 57.5 45.5t20.5 60.5v69h-150q-60 0 -97 -25t-37 -69q0 -42 29.5 -70t90.5 -28
q49 0 86 17zM548 560zM424 560h-59l120 138h63z" />
    <glyph glyph-name="Oslashacute" unicode="&#x1fe;" horiz-adv-x="831" 
d="M67 0zM681 603q43 -48 66.5 -111t23.5 -136q0 -106 -46.5 -188t-126.5 -127.5t-177 -45.5q-66 0 -125 20.5t-105 59.5l-88 -94l-36 33l89 95q-43 47 -66 110t-23 137q0 105 46.5 186.5t127 127t180.5 45.5q65 0 122.5 -20.5t103.5 -58.5l80 85l34 -32zM144 244
q18 -52 52 -92l412 442q-38 32 -86 49.5t-101 17.5q-83 0 -150.5 -39t-106 -108.5t-38.5 -157.5q0 -60 18 -112zM567.5 88q66.5 39 105.5 109t39 159q0 121 -70 205l-412 -444q39 -33 87.5 -50.5t103.5 -17.5q80 0 146.5 39zM428 788h-57l113 128h62z" />
    <glyph glyph-name="oslashacute" unicode="&#x1ff;" horiz-adv-x="592" 
d="M52 0zM547 471l-60 -63q59 -69 59 -166q0 -72 -32.5 -128t-89 -87.5t-125.5 -31.5q-89 0 -154 50l-59 -62l-33 30l59 62q-29 33 -44.5 76t-15.5 91q0 68 31 125t87.5 90t128.5 33q45 0 85 -13.5t72 -38.5l59 62zM149 114l271 286q-52 41 -121 41q-57 0 -101 -26.5
t-68 -72t-24 -100.5q0 -72 43 -128zM451 369l-270 -286q49 -38 118 -38q54 0 98 25t69.5 70t25.5 102q0 75 -41 127zM446 560zM322 560h-59l120 138h63z" />
    <glyph glyph-name="uni0218" unicode="&#x218;" horiz-adv-x="581" 
d="M54 0zM162 16.5q-63 21.5 -108 63.5l28 53q40 -43 98 -64t120 -21q81 0 129.5 33t48.5 96q0 41 -20.5 67t-52.5 42t-91 38l-32 12q-71 27 -111.5 48t-69 58t-28.5 94q0 54 27.5 94.5t76 62.5t109.5 22q67 0 125.5 -18t102.5 -54l-33 -47q-39 33 -91 50t-104 17
q-62 0 -108 -32t-46 -91q0 -40 21 -66t55 -43t97 -41l19 -7q75 -28 116.5 -49.5t69 -58t27.5 -93.5q0 -90 -61.5 -138.5t-177.5 -48.5q-73 0 -136 21.5zM211 -172q37 5 50.5 22t13.5 46q0 23 -6 50h50q5 -28 5 -53q0 -42 -25.5 -68.5t-73.5 -30.5z" />
    <glyph glyph-name="uni0219" unicode="&#x219;" horiz-adv-x="451" 
d="M42 0zM129 7.5q-44 12.5 -87 36.5l23 47q44 -24 81.5 -36t85.5 -12q61 0 93 21.5t32 61.5q0 29 -17 47t-47 29t-82 24q-77 19 -118.5 50.5t-41.5 88.5t44 91t124 34q96 0 171 -47l-26 -43q-65 42 -142 42q-54 0 -86 -19.5t-32 -56.5q0 -36 31.5 -57t99.5 -37
q61 -14 98 -30.5t57.5 -43.5t20.5 -69q0 -64 -46 -99t-137 -35q-55 0 -99 12.5zM134 -172q37 5 50.5 22t13.5 46q0 23 -6 50h50q5 -28 5 -53q0 -42 -25.5 -68.5t-73.5 -30.5z" />
    <glyph glyph-name="uni021A" unicode="&#x21a;" horiz-adv-x="563" 
d="M29 0zM308 0h-57v658h-222v52h504v-52h-225v-658zM196 -172q37 5 50.5 22t13.5 46q0 23 -6 50h50q5 -28 5 -53q0 -42 -25.5 -68.5t-73.5 -30.5z" />
    <glyph glyph-name="uni021B" unicode="&#x21b;" horiz-adv-x="417" 
d="M19 0zM138 31q-32 36 -32 107v300h-87v47h87v174l53 6v-180h210v-47h-210v-287q0 -54 20.5 -81t70.5 -27q39 0 63.5 8t48.5 22l19 -45q-51 -33 -135 -33q-76 0 -108 36zM150 -172q37 5 50.5 22t13.5 46q0 23 -6 50h50q5 -28 5 -53q0 -42 -25.5 -68.5t-73.5 -30.5z" />
    <glyph glyph-name="uni0232" unicode="&#x232;" horiz-adv-x="584" 
d="M18 0zM319 0h-57v320l-244 390h66l205 -333h2l207 333h66l-245 -390v-320zM431 822h-278v46h278v-46z" />
    <glyph glyph-name="uni0233" unicode="&#x233;" horiz-adv-x="516" 
d="M0 0zM-15 -165l22 44q39 -32 89 -32q44 0 71.5 29t57.5 106l11 28l-214 475h59l181 -411h1l168 411h57l-213 -515q-24 -59 -46 -95t-53.5 -56.5t-78.5 -20.5q-65 0 -112 37zM397 607zM397 607h-277v48h277v-48z" />
    <glyph glyph-name="uni0237" unicode="&#x237;" horiz-adv-x="208" 
d="M-56 -187l10 49q25 -15 58 -15q67 0 67 86v552h53v-553q0 -64 -27.5 -99t-85.5 -35q-42 0 -75 15z" />
    <glyph glyph-name="uni0259" unicode="&#x259;" horiz-adv-x="551" 
d="M382 459q58 -31 88.5 -87t30.5 -131q0 -111 -60.5 -178.5t-168.5 -67.5q-69 0 -120.5 26.5t-79.5 74t-28 107.5q0 32 3 53h401q-5 86 -59 136t-147 50q-81 0 -150 -31l-16 46q38 16 83 24.5t87 8.5q78 0 136 -31zM394 88.5q45 43.5 53 121.5h-349v-11q0 -70 48 -112
t126 -42q77 0 122 43.5z" />
    <glyph glyph-name="uni0272" unicode="&#x272;" horiz-adv-x="573" 
d="M454 439q46 -51 46 -149v-290h-54v273q0 88 -35 128t-96 40q-74 0 -121.5 -47.5t-54.5 -127.5v-328q0 -65 -28 -102.5t-90 -37.5q-38 0 -67 14l5 45q25 -13 56 -13q34 0 52.5 22t18.5 68v66h-1v485h53v-107h2q27 53 76.5 82.5t111.5 29.5q80 0 126 -51z" />
    <glyph glyph-name="circumflex" unicode="&#x2c6;" horiz-adv-x="512" 
d="M167 545h-57l119 133h57l116 -133h-57l-86 98h-2z" />
    <glyph glyph-name="caron" unicode="&#x2c7;" horiz-adv-x="512" 
d="M283 544h-57l-116 134h56l88 -99h2l89 99h57z" />
    <glyph glyph-name="breve" unicode="&#x2d8;" horiz-adv-x="472" 
d="M142.5 577.5q-36.5 35.5 -40.5 98.5h44q3 -39 26.5 -64.5t63.5 -25.5q39 0 63 25.5t26 64.5h45q-5 -64 -41.5 -99t-92.5 -35q-57 0 -93.5 35.5z" />
    <glyph glyph-name="dotaccent" unicode="&#x2d9;" horiz-adv-x="488" 
d="M212.5 588q-12.5 13 -12.5 31q0 19 12.5 31t31.5 12t31.5 -12t12.5 -31q0 -18 -12.5 -31t-31.5 -13t-31.5 13z" />
    <glyph glyph-name="ring" unicode="&#x2da;" horiz-adv-x="446" 
d="M162.5 556.5q-25.5 24.5 -25.5 59.5t25 59.5t61 24.5q35 0 60.5 -24.5t25.5 -59.5t-25 -59.5t-61 -24.5q-35 0 -60.5 24.5zM256 583.5q14 13.5 14 32.5t-14 33t-33 14t-33 -14t-14 -33t14 -32.5t33 -13.5t33 13.5z" />
    <glyph glyph-name="ogonek" unicode="&#x2db;" horiz-adv-x="468" 
d="M203 -162q-25 21 -25 59q0 30 23 62t65 55l39 -14q-36 -14 -58.5 -40.5t-22.5 -53.5q0 -23 14 -36.5t41 -13.5q19 0 29 2.5t24 9.5l5 -39q-25 -12 -66 -12q-43 0 -68 21z" />
    <glyph glyph-name="tilde" unicode="&#x2dc;" horiz-adv-x="517" 
d="M297.5 566q-17.5 9 -48.5 29q-36 25 -61 25q-40 0 -62 -57l-37 14q29 89 94 89q23 0 40 -7.5t40 -22.5q5 -4 19 -13.5t26 -15t23 -5.5q19 0 34.5 15t24.5 44l38 -13q-13 -44 -37.5 -67.5t-53.5 -23.5q-22 0 -39.5 9z" />
    <glyph glyph-name="hungarumlaut" unicode="&#x2dd;" horiz-adv-x="519" 
d="M152 545h-55l119 138h60zM298 545h-54l119 138h60z" />
    <glyph glyph-name="gravecomb" unicode="&#x300;" 
d="M-418 546zM-418 546h-58l-117 133h63z" />
    <glyph glyph-name="acutecomb" unicode="&#x301;" 
d="M-397 545zM-521 545h-59l120 138h63z" />
    <glyph glyph-name="uni0302" unicode="&#x302;" 
d="M-354 545zM-589 545h-57l119 133h57l116 -133h-57l-86 98h-2z" />
    <glyph glyph-name="tildecomb" unicode="&#x303;" 
d="M-330 557zM-460.5 566q-17.5 9 -48.5 29q-36 25 -61 25q-40 0 -62 -57l-37 14q29 89 94 89q23 0 40 -7.5t40 -22.5q5 -4 19 -13.5t26 -15t23 -5.5q19 0 34.5 15t24.5 44l38 -13q-13 -44 -37.5 -67.5t-53.5 -23.5q-22 0 -39.5 9z" />
    <glyph glyph-name="uni0304" unicode="&#x304;" 
d="M-361 592zM-361 592h-277v48h277v-48z" />
    <glyph glyph-name="uni0306" unicode="&#x306;" 
d="M-366 542zM-593.5 577.5q-36.5 35.5 -40.5 98.5h44q3 -39 26.5 -64.5t63.5 -25.5q39 0 63 25.5t26 64.5h45q-5 -64 -41.5 -99t-92.5 -35q-57 0 -93.5 35.5z" />
    <glyph glyph-name="uni0307" unicode="&#x307;" 
d="M-455 575zM-530.5 588q-12.5 13 -12.5 31q0 19 12.5 31t31.5 12t31.5 -12t12.5 -31q0 -18 -12.5 -31t-31.5 -13t-31.5 13z" />
    <glyph glyph-name="uni0308" unicode="&#x308;" 
d="M-375 576zM-615 589q-13 13 -13 30q0 18 13 30.5t31 12.5q19 0 31.5 -12t12.5 -31q0 -18 -12.5 -30.5t-31.5 -12.5q-18 0 -31 13zM-450 589q-13 13 -13 30q0 19 12.5 31t31.5 12t31.5 -12t12.5 -31q0 -18 -12.5 -30.5t-31.5 -12.5q-18 0 -31 13z" />
    <glyph glyph-name="hookabovecomb" unicode="&#x309;" 
d="M-529 540q42 29 66.5 52.5t24.5 47.5q0 36 -49 36q-24 0 -47.5 -8.5t-42.5 -23.5l-12 35q22 17 50.5 27.5t60.5 10.5q39 0 62.5 -18t23.5 -55q0 -51 -86 -104h-51z" />
    <glyph glyph-name="uni030A" unicode="&#x30a;" 
d="M-414 535zM-560.5 559.5q-25.5 24.5 -25.5 59.5t25 59.5t61 24.5q35 0 60.5 -24.5t25.5 -59.5t-25 -59.5t-61 -24.5q-35 0 -60.5 24.5zM-467 586.5q14 13.5 14 32.5t-14 33t-33 14t-33 -14t-14 -33t14 -32.5t33 -13.5t33 13.5z" />
    <glyph glyph-name="uni030B" unicode="&#x30b;" 
d="M-274 545zM-545 545h-55l119 138h60zM-399 545h-54l119 138h60z" />
    <glyph glyph-name="uni030C" unicode="&#x30c;" 
d="M-354 544zM-473 544h-57l-116 134h56l88 -99h2l89 99h57z" />
    <glyph glyph-name="uni0312" unicode="&#x312;" 
d="M-515 540q-5 27 -5 52q0 43 25 69t74 30l14 -34q-37 -5 -50.5 -22t-13.5 -45q0 -24 6 -50h-50z" />
    <glyph glyph-name="uni0313" unicode="&#x313;" 
d="M-466 688q5 -27 5 -52q0 -43 -25 -69.5t-73 -30.5l-15 34q37 6 50.5 22.5t13.5 45.5q0 20 -5 50h49z" />
    <glyph glyph-name="uni031B" unicode="&#x31b;" 
d="M-507 510q51 1 71.5 29.5t20.5 97.5v73h53v-75q0 -87 -36.5 -126.5t-107.5 -37.5z" />
    <glyph glyph-name="dotbelowcomb" unicode="&#x323;" 
d="M-468.5 -121q12.5 -13 12.5 -31q0 -19 -12.5 -31t-31.5 -12t-31.5 12t-12.5 31q0 18 12.5 31t31.5 13t31.5 -13z" />
    <glyph glyph-name="uni0326" unicode="&#x326;" 
d="M-593 -172q37 5 50.5 22t13.5 46q0 23 -6 50h50q5 -28 5 -53q0 -42 -25.5 -68.5t-73.5 -30.5z" />
    <glyph glyph-name="uni0327" unicode="&#x327;" 
d="M-432 0zM-581 -180v34q23 -7 47 -7q25 0 43 11.5t18 32.5q0 20 -22 34.5t-61 14.5v25l19 41h38l-17 -39v-1q36 -2 60 -22.5t24 -55.5q0 -32 -25 -53t-72 -21q-30 0 -52 6z" />
    <glyph glyph-name="uni0328" unicode="&#x328;" 
d="M-470 0zM-604 -162q-25 21 -25 59q0 30 23 62t65 55l39 -14q-36 -14 -58.5 -40.5t-22.5 -53.5q0 -23 14 -36.5t41 -13.5q19 0 29 2.5t24 9.5l5 -39q-25 -12 -66 -12q-43 0 -68 21z" />
    <glyph glyph-name="uni0335" unicode="&#x335;" 
d="M-367 259h-260v41h260v-41z" />
    <glyph glyph-name="Wgrave" unicode="&#x1e80;" horiz-adv-x="1011" 
d="M37 0zM320 0h-54l-229 710h61l195 -621h1l180 621h65l178 -621h1l197 621h61l-230 -710h-56l-183 631h-1zM538 788h-58l-118 128h63z" />
    <glyph glyph-name="wgrave" unicode="&#x1e81;" horiz-adv-x="764" 
d="M33 0zM252 0h-50l-169 485h57l139 -406h2l126 406h49l129 -406h2l139 406h56l-169 -485h-51l-130 404h-1zM412 561zM412 561h-58l-117 133h63z" />
    <glyph glyph-name="Wacute" unicode="&#x1e82;" horiz-adv-x="1011" 
d="M37 0zM320 0h-54l-229 710h61l195 -621h1l180 621h65l178 -621h1l197 621h61l-230 -710h-56l-183 631h-1zM533 788h-57l113 128h62z" />
    <glyph glyph-name="wacute" unicode="&#x1e83;" horiz-adv-x="764" 
d="M33 0zM252 0h-50l-169 485h57l139 -406h2l126 406h49l129 -406h2l139 406h56l-169 -485h-51l-130 404h-1zM532 560zM408 560h-59l120 138h63z" />
    <glyph glyph-name="Wdieresis" unicode="&#x1e84;" horiz-adv-x="1011" 
d="M37 0zM320 0h-54l-229 710h61l195 -621h1l180 621h65l178 -621h1l197 621h61l-230 -710h-56l-183 631h-1zM633 810zM633 810zM393 823q-13 13 -13 30q0 18 13 30.5t31 12.5q19 0 31.5 -12t12.5 -31q0 -18 -12.5 -30.5t-31.5 -12.5q-18 0 -31 13zM558 823q-13 13 -13 30
q0 19 12.5 31t31.5 12t31.5 -12t12.5 -31q0 -18 -12.5 -30.5t-31.5 -12.5q-18 0 -31 13z" />
    <glyph glyph-name="wdieresis" unicode="&#x1e85;" horiz-adv-x="764" 
d="M33 0zM252 0h-50l-169 485h57l139 -406h2l126 406h49l129 -406h2l139 406h56l-169 -485h-51l-130 404h-1zM507 591zM267 604q-13 13 -13 30q0 18 13 30.5t31 12.5q19 0 31.5 -12t12.5 -31q0 -18 -12.5 -30.5t-31.5 -12.5q-18 0 -31 13zM432 604q-13 13 -13 30
q0 19 12.5 31t31.5 12t31.5 -12t12.5 -31q0 -18 -12.5 -30.5t-31.5 -12.5q-18 0 -31 13z" />
    <glyph glyph-name="uni1E9E" unicode="&#x1e9e;" horiz-adv-x="733" 
d="M502 381q68 -27 106.5 -48t64 -57.5t25.5 -93.5q0 -86 -61.5 -136.5t-165.5 -50.5q-67 0 -128.5 20t-109.5 63l28 52q36 -40 93 -60.5t117 -20.5q73 0 120.5 35.5t47.5 96.5q0 42 -22.5 69t-55 42.5t-101.5 42.5q-51 19 -95 40l143 265l-1 3q-100 20 -187 20
q-96 0 -140.5 -39t-44.5 -124v-500h-57v504q0 108 59 159.5t176 51.5q56 0 131 -10t144 -27l-147 -273l38 -15z" />
    <glyph glyph-name="uni1EA0" unicode="&#x1ea0;" horiz-adv-x="664" 
d="M30 0zM89 0h-59l271 710h60l274 -710h-60l-73 191h-341zM330 642l-150 -400h304l-152 400h-2zM363.5 -121q12.5 -13 12.5 -31q0 -19 -12.5 -31t-31.5 -12t-31.5 12t-12.5 31q0 18 12.5 31t31.5 13t31.5 -13z" />
    <glyph glyph-name="uni1EA1" unicode="&#x1ea1;" horiz-adv-x="539" 
d="M41 0zM530 3q-26 -8 -47 -8q-37 0 -62.5 21.5t-32.5 62.5h-1q-28 -38 -76.5 -61t-105.5 -23q-78 0 -121 39t-43 102q0 69 45 108t138 39h159v9q0 75 -31.5 112.5t-104.5 37.5q-84 0 -157 -32l-16 46q84 34 179 34q97 0 139 -51.5t42 -149.5v-161q0 -46 15.5 -66.5
t39.5 -20.5q14 0 37 7zM296 59.5q39 17.5 62.5 46t23.5 59.5v75h-153q-61 0 -97.5 -25.5t-36.5 -74.5q0 -42 29 -70t89 -28q44 0 83 17.5zM288.5 -121q12.5 -13 12.5 -31q0 -19 -12.5 -31t-31.5 -12t-31.5 12t-12.5 31q0 18 12.5 31t31.5 13t31.5 -13z" />
    <glyph glyph-name="uni1EA2" unicode="&#x1ea2;" horiz-adv-x="664" 
d="M30 0zM89 0h-59l271 710h60l274 -710h-60l-73 191h-341zM330 642l-150 -400h304l-152 400h-2zM308 781q7 5 32.5 23t39 33.5t13.5 29.5q0 36 -49 36q-23 0 -48.5 -9t-41.5 -22l-12 35q22 16 50.5 26t60.5 10q39 0 63 -18t24 -54q0 -20 -13 -36.5t-26.5 -26t-41.5 -27.5
h-51z" />
    <glyph glyph-name="uni1EA3" unicode="&#x1ea3;" horiz-adv-x="539" 
d="M41 0zM530 3q-26 -8 -47 -8q-37 0 -62.5 21.5t-32.5 62.5h-1q-28 -38 -76.5 -61t-105.5 -23q-78 0 -121 39t-43 102q0 69 45 108t138 39h159v9q0 75 -31.5 112.5t-104.5 37.5q-84 0 -157 -32l-16 46q84 34 179 34q97 0 139 -51.5t42 -149.5v-161q0 -46 15.5 -66.5
t39.5 -20.5q14 0 37 7zM296 59.5q39 17.5 62.5 46t23.5 59.5v75h-153q-61 0 -97.5 -25.5t-36.5 -74.5q0 -42 29 -70t89 -28q44 0 83 17.5zM230 555q42 29 66.5 52.5t24.5 47.5q0 36 -49 36q-24 0 -47.5 -8.5t-42.5 -23.5l-12 35q22 17 50.5 27.5t60.5 10.5q39 0 62.5 -18
t23.5 -55q0 -51 -86 -104h-51z" />
    <glyph glyph-name="uni1EA4" unicode="&#x1ea4;" horiz-adv-x="664" 
d="M30 0zM89 0h-59l271 710h60l274 -710h-60l-73 191h-341zM330 642l-150 -400h304l-152 400h-2zM516 848h-48l109 135h63zM242 788h-57l120 118h57l117 -118h-58l-87 85h-2z" />
    <glyph glyph-name="uni1EA5" unicode="&#x1ea5;" horiz-adv-x="539" 
d="M41 0zM530 3q-26 -8 -47 -8q-37 0 -62.5 21.5t-32.5 62.5h-1q-28 -38 -76.5 -61t-105.5 -23q-78 0 -121 39t-43 102q0 69 45 108t138 39h159v9q0 75 -31.5 112.5t-104.5 37.5q-84 0 -157 -32l-16 46q84 34 179 34q97 0 139 -51.5t42 -149.5v-161q0 -46 15.5 -66.5
t39.5 -20.5q14 0 37 7zM296 59.5q39 17.5 62.5 46t23.5 59.5v75h-153q-61 0 -97.5 -25.5t-36.5 -74.5q0 -42 29 -70t89 -28q44 0 83 17.5zM417 643h-48l110 138h62zM172 560h-58l120 134h57l116 -134h-57l-87 99h-2z" />
    <glyph glyph-name="uni1EA6" unicode="&#x1ea6;" horiz-adv-x="664" 
d="M30 0zM89 0h-59l271 710h60l274 -710h-60l-73 191h-341zM330 642l-150 -400h304l-152 400h-2zM553 847h-47l-124 134h63zM242 788h-57l120 118h57l117 -118h-58l-87 85h-2z" />
    <glyph glyph-name="uni1EA7" unicode="&#x1ea7;" horiz-adv-x="539" 
d="M41 0zM530 3q-26 -8 -47 -8q-37 0 -62.5 21.5t-32.5 62.5h-1q-28 -38 -76.5 -61t-105.5 -23q-78 0 -121 39t-43 102q0 69 45 108t138 39h159v9q0 75 -31.5 112.5t-104.5 37.5q-84 0 -157 -32l-16 46q84 34 179 34q97 0 139 -51.5t42 -149.5v-161q0 -46 15.5 -66.5
t39.5 -20.5q14 0 37 7zM296 59.5q39 17.5 62.5 46t23.5 59.5v75h-153q-61 0 -97.5 -25.5t-36.5 -74.5q0 -42 29 -70t89 -28q44 0 83 17.5zM471 643h-47l-125 138h63zM169 561h-57l119 134h57l116 -134h-57l-86 98h-2z" />
    <glyph glyph-name="uni1EA8" unicode="&#x1ea8;" horiz-adv-x="664" 
d="M30 0zM89 0h-59l271 710h60l274 -710h-60l-73 191h-341zM330 642l-150 -400h304l-152 400h-2zM466 851q7 5 31 21.5t36.5 31t12.5 27.5q0 33 -46 33q-22 0 -45.5 -8.5t-38.5 -20.5l-12 33q20 14 47.5 23.5t57.5 9.5q36 0 58.5 -16.5t22.5 -50.5q0 -23 -18 -40.5
t-35.5 -28.5t-22.5 -14h-48zM242 788h-57l120 118h57l117 -118h-58l-87 85h-2z" />
    <glyph glyph-name="uni1EA9" unicode="&#x1ea9;" horiz-adv-x="539" 
d="M41 0zM530 3q-26 -8 -47 -8q-37 0 -62.5 21.5t-32.5 62.5h-1q-28 -38 -76.5 -61t-105.5 -23q-78 0 -121 39t-43 102q0 69 45 108t138 39h159v9q0 75 -31.5 112.5t-104.5 37.5q-84 0 -157 -32l-16 46q84 34 179 34q97 0 139 -51.5t42 -149.5v-161q0 -46 15.5 -66.5
t39.5 -20.5q14 0 37 7zM296 59.5q39 17.5 62.5 46t23.5 59.5v75h-153q-61 0 -97.5 -25.5t-36.5 -74.5q0 -42 29 -70t89 -28q44 0 83 17.5zM386 642q42 30 64.5 51.5t22.5 43.5q0 35 -48 35q-23 0 -45.5 -8t-39.5 -23l-12 34q47 36 106 36q37 0 60 -17t23 -53q0 -48 -82 -99
h-49zM169 560h-57l119 133h57l116 -133h-56l-87 98h-2z" />
    <glyph glyph-name="uni1EAA" unicode="&#x1eaa;" horiz-adv-x="664" 
d="M30 0zM89 0h-59l271 710h60l274 -710h-60l-73 191h-341zM330 642l-150 -400h304l-152 400h-2zM372 935.5q-20 9.5 -43 26.5q-20 13 -34.5 19.5t-28.5 6.5q-37 0 -59 -57l-36 14q27 84 92 84q22 0 38.5 -7.5t41.5 -22.5l19.5 -13t25 -14t22.5 -5q17 0 32 14t24 43l36 -12
q-13 -43 -36.5 -64.5t-52.5 -21.5q-21 0 -41 9.5zM242 788h-57l120 118h57l117 -118h-58l-87 85h-2z" />
    <glyph glyph-name="uni1EAB" unicode="&#x1eab;" horiz-adv-x="539" 
d="M41 0zM530 3q-26 -8 -47 -8q-37 0 -62.5 21.5t-32.5 62.5h-1q-28 -38 -76.5 -61t-105.5 -23q-78 0 -121 39t-43 102q0 69 45 108t138 39h159v9q0 75 -31.5 112.5t-104.5 37.5q-84 0 -157 -32l-16 46q84 34 179 34q97 0 139 -51.5t42 -149.5v-161q0 -46 15.5 -66.5
t39.5 -20.5q14 0 37 7zM296 59.5q39 17.5 62.5 46t23.5 59.5v75h-153q-61 0 -97.5 -25.5t-36.5 -74.5q0 -42 29 -70t89 -28q44 0 83 17.5zM426 560zM406 560zM171 560h-57l119 133h57l116 -133h-57l-86 98h-2zM93 771q14 43 36 65t55 22q19 0 36 -7t40 -21q7 -5 22.5 -14.5
t26 -14t20.5 -4.5q23 0 37 14t23 44l37 -12q-27 -90 -92 -90q-20 0 -39.5 9.5t-45.5 27.5q-20 12 -32.5 18t-25.5 6q-19 0 -35 -15t-26 -42z" />
    <glyph glyph-name="uni1EAC" unicode="&#x1eac;" horiz-adv-x="664" 
d="M30 0zM89 0h-59l271 710h60l274 -710h-60l-73 191h-341zM330 642l-150 -400h304l-152 400h-2zM363.5 -121q12.5 -13 12.5 -31q0 -19 -12.5 -31t-31.5 -12t-31.5 12t-12.5 31q0 18 12.5 31t31.5 13t31.5 -13zM242 788h-57l120 118h57l117 -118h-58l-87 85h-2z" />
    <glyph glyph-name="uni1EAD" unicode="&#x1ead;" horiz-adv-x="539" 
d="M41 0zM530 3q-26 -8 -47 -8q-37 0 -62.5 21.5t-32.5 62.5h-1q-28 -38 -76.5 -61t-105.5 -23q-78 0 -121 39t-43 102q0 69 45 108t138 39h159v9q0 75 -31.5 112.5t-104.5 37.5q-84 0 -157 -32l-16 46q84 34 179 34q97 0 139 -51.5t42 -149.5v-161q0 -46 15.5 -66.5
t39.5 -20.5q14 0 37 7zM296 59.5q39 17.5 62.5 46t23.5 59.5v75h-153q-61 0 -97.5 -25.5t-36.5 -74.5q0 -42 29 -70t89 -28q44 0 83 17.5zM288.5 -121q12.5 -13 12.5 -31q0 -19 -12.5 -31t-31.5 -12t-31.5 12t-12.5 31q0 18 12.5 31t31.5 13t31.5 -13zM405 560zM170 560h-57
l119 133h57l116 -133h-57l-86 98h-2z" />
    <glyph glyph-name="uni1EAE" unicode="&#x1eae;" horiz-adv-x="664" 
d="M30 0zM89 0h-59l271 710h60l274 -710h-60l-73 191h-341zM330 642l-150 -400h304l-152 400h-2zM355 890h-48l109 134h63zM234.5 810.5q-39.5 30.5 -43.5 80.5h47q3 -29 28.5 -50t66.5 -21t66.5 21t27.5 50h48q-5 -50 -44 -80.5t-98 -30.5t-98.5 30.5z" />
    <glyph glyph-name="uni1EAF" unicode="&#x1eaf;" horiz-adv-x="539" 
d="M41 0zM530 3q-26 -8 -47 -8q-37 0 -62.5 21.5t-32.5 62.5h-1q-28 -38 -76.5 -61t-105.5 -23q-78 0 -121 39t-43 102q0 69 45 108t138 39h159v9q0 75 -31.5 112.5t-104.5 37.5q-84 0 -157 -32l-16 46q84 34 179 34q97 0 139 -51.5t42 -149.5v-161q0 -46 15.5 -66.5
t39.5 -20.5q14 0 37 7zM296 59.5q39 17.5 62.5 46t23.5 59.5v75h-153q-61 0 -97.5 -25.5t-36.5 -74.5q0 -42 29 -70t89 -28q44 0 83 17.5zM275 698h-47l109 138h63zM165.5 592.5q-36.5 35.5 -40.5 98.5h44q3 -39 27 -64.5t63 -25.5t63 25.5t26 64.5h45q-5 -64 -41.5 -99
t-92.5 -35q-57 0 -93.5 35.5z" />
    <glyph glyph-name="uni1EB0" unicode="&#x1eb0;" horiz-adv-x="664" 
d="M30 0zM89 0h-59l271 710h60l274 -710h-60l-73 191h-341zM330 642l-150 -400h304l-152 400h-2zM362 890h-47l-124 134h62zM233.5 810.5q-39.5 30.5 -43.5 80.5h47q3 -29 28.5 -50t66.5 -21t66.5 21t27.5 50h48q-5 -50 -44 -80.5t-98 -30.5t-98.5 30.5z" />
    <glyph glyph-name="uni1EB1" unicode="&#x1eb1;" horiz-adv-x="539" 
d="M41 0zM530 3q-26 -8 -47 -8q-37 0 -62.5 21.5t-32.5 62.5h-1q-28 -38 -76.5 -61t-105.5 -23q-78 0 -121 39t-43 102q0 69 45 108t138 39h159v9q0 75 -31.5 112.5t-104.5 37.5q-84 0 -157 -32l-16 46q84 34 179 34q97 0 139 -51.5t42 -149.5v-161q0 -46 15.5 -66.5
t39.5 -20.5q14 0 37 7zM296 59.5q39 17.5 62.5 46t23.5 59.5v75h-153q-61 0 -97.5 -25.5t-36.5 -74.5q0 -42 29 -70t89 -28q44 0 83 17.5zM297 698h-47l-124 138h62zM165.5 592.5q-36.5 35.5 -40.5 98.5h44q3 -39 27 -64.5t63 -25.5t63 25.5t26 64.5h45q-5 -64 -41.5 -99
t-92.5 -35q-57 0 -93.5 35.5z" />
    <glyph glyph-name="uni1EB2" unicode="&#x1eb2;" horiz-adv-x="664" 
d="M30 0zM89 0h-59l271 710h60l274 -710h-60l-73 191h-341zM330 642l-150 -400h304l-152 400h-2zM298 891q8 6 30.5 21.5t34.5 29t12 26.5q0 32 -44 32q-21 0 -44 -8t-37 -20l-11 32q19 14 45 23t55 9q35 0 56.5 -16t21.5 -48q0 -25 -18.5 -42t-54.5 -39h-46zM233.5 810.5
q-39.5 30.5 -43.5 80.5h47q3 -29 28.5 -50t66.5 -21t66.5 21t27.5 50h48q-5 -50 -44 -80.5t-98 -30.5t-98.5 30.5z" />
    <glyph glyph-name="uni1EB3" unicode="&#x1eb3;" horiz-adv-x="539" 
d="M41 0zM530 3q-26 -8 -47 -8q-37 0 -62.5 21.5t-32.5 62.5h-1q-28 -38 -76.5 -61t-105.5 -23q-78 0 -121 39t-43 102q0 69 45 108t138 39h159v9q0 75 -31.5 112.5t-104.5 37.5q-84 0 -157 -32l-16 46q84 34 179 34q97 0 139 -51.5t42 -149.5v-161q0 -46 15.5 -66.5
t39.5 -20.5q14 0 37 7zM296 59.5q39 17.5 62.5 46t23.5 59.5v75h-153q-61 0 -97.5 -25.5t-36.5 -74.5q0 -42 29 -70t89 -28q44 0 83 17.5zM226 682q42 30 64.5 52t22.5 44q0 34 -47 34q-50 0 -86 -30l-12 34q21 16 48.5 26t58.5 10q37 0 59.5 -17.5t22.5 -52.5
q0 -29 -24 -53.5t-58 -46.5h-49zM163.5 592q-37.5 35 -41.5 97h45q2 -38 26.5 -63.5t64.5 -25.5t64 25.5t26 63.5h46q-5 -62 -42 -97t-94 -35t-94.5 35z" />
    <glyph glyph-name="uni1EB4" unicode="&#x1eb4;" horiz-adv-x="664" 
d="M30 0zM89 0h-59l271 710h60l274 -710h-60l-73 191h-341zM330 642l-150 -400h304l-152 400h-2zM370.5 921.5q-19.5 9.5 -44.5 26.5q-39 26 -62 26q-19 0 -34 -15t-25 -42l-37 14q29 84 93 84q21 0 38.5 -7.5t41.5 -22.5l19.5 -13t25 -14t22.5 -5q17 0 31.5 14t23.5 43
l37 -12q-13 -43 -36.5 -64.5t-52.5 -21.5q-21 0 -40.5 9.5zM233.5 810.5q-39.5 30.5 -43.5 80.5h47q3 -29 28.5 -50t66.5 -21t66.5 21t27.5 50h48q-5 -50 -44 -80.5t-98 -30.5t-98.5 30.5z" />
    <glyph glyph-name="uni1EB5" unicode="&#x1eb5;" horiz-adv-x="539" 
d="M41 0zM530 3q-26 -8 -47 -8q-37 0 -62.5 21.5t-32.5 62.5h-1q-28 -38 -76.5 -61t-105.5 -23q-78 0 -121 39t-43 102q0 69 45 108t138 39h159v9q0 75 -31.5 112.5t-104.5 37.5q-84 0 -157 -32l-16 46q84 34 179 34q97 0 139 -51.5t42 -149.5v-161q0 -46 15.5 -66.5
t39.5 -20.5q14 0 37 7zM296 59.5q39 17.5 62.5 46t23.5 59.5v75h-153q-61 0 -97.5 -25.5t-36.5 -74.5q0 -42 29 -70t89 -28q44 0 83 17.5zM426 557zM393 557zM165.5 592.5q-36.5 35.5 -40.5 98.5h44q3 -39 26.5 -64.5t63.5 -25.5q39 0 63 25.5t26 64.5h45q-5 -64 -41.5 -99
t-92.5 -35q-57 0 -93.5 35.5zM93 759q14 43 36 65t55 22q19 0 36 -7t40 -21q7 -5 22.5 -14.5t26 -14t20.5 -4.5q23 0 37 14t23 44l37 -12q-27 -90 -92 -90q-20 0 -39.5 9.5t-45.5 27.5q-20 12 -32.5 18t-25.5 6q-19 0 -35 -15t-26 -42z" />
    <glyph glyph-name="uni1EB6" unicode="&#x1eb6;" horiz-adv-x="664" 
d="M30 0zM89 0h-59l271 710h60l274 -710h-60l-73 191h-341zM330 642l-150 -400h304l-152 400h-2zM363.5 -121q12.5 -13 12.5 -31q0 -19 -12.5 -31t-31.5 -12t-31.5 12t-12.5 31q0 18 12.5 31t31.5 13t31.5 -13zM239 817q-37 34 -41 89h44q3 -32 27 -55t63 -23t63 23t26 55
h45q-5 -56 -42 -89.5t-92 -33.5q-56 0 -93 34z" />
    <glyph glyph-name="uni1EB7" unicode="&#x1eb7;" horiz-adv-x="539" 
d="M41 0zM530 3q-26 -8 -47 -8q-37 0 -62.5 21.5t-32.5 62.5h-1q-28 -38 -76.5 -61t-105.5 -23q-78 0 -121 39t-43 102q0 69 45 108t138 39h159v9q0 75 -31.5 112.5t-104.5 37.5q-84 0 -157 -32l-16 46q84 34 179 34q97 0 139 -51.5t42 -149.5v-161q0 -46 15.5 -66.5
t39.5 -20.5q14 0 37 7zM296 59.5q39 17.5 62.5 46t23.5 59.5v75h-153q-61 0 -97.5 -25.5t-36.5 -74.5q0 -42 29 -70t89 -28q44 0 83 17.5zM288.5 -121q12.5 -13 12.5 -31q0 -19 -12.5 -31t-31.5 -12t-31.5 12t-12.5 31q0 18 12.5 31t31.5 13t31.5 -13zM393 557zM165.5 592.5
q-36.5 35.5 -40.5 98.5h44q3 -39 26.5 -64.5t63.5 -25.5q39 0 63 25.5t26 64.5h45q-5 -64 -41.5 -99t-92.5 -35q-57 0 -93.5 35.5z" />
    <glyph glyph-name="uni1EB8" unicode="&#x1eb8;" horiz-adv-x="621" 
d="M96 0zM571 0h-475v710h461v-52h-404v-278h370v-52h-370v-276h418v-52zM373.5 -121q12.5 -13 12.5 -31q0 -19 -12.5 -31t-31.5 -12t-31.5 12t-12.5 31q0 18 12.5 31t31.5 13t31.5 -13z" />
    <glyph glyph-name="uni1EB9" unicode="&#x1eb9;" horiz-adv-x="546" 
d="M50 0zM502 231h-398q4 -86 58 -137t147 -51q45 0 87.5 11t70.5 36l26 -43q-68 -52 -186 -52q-81 0 -139 31.5t-88 87.5t-30 129q0 71 30.5 127.5t84 88t121.5 31.5t117 -30t74.5 -83t25.5 -121zM164.5 395q-48.5 -46 -58.5 -120h345q-8 78 -50.5 122t-116.5 44
q-71 0 -119.5 -46zM322.5 -121q12.5 -13 12.5 -31q0 -19 -12.5 -31t-31.5 -12t-31.5 12t-12.5 31q0 18 12.5 31t31.5 13t31.5 -13z" />
    <glyph glyph-name="uni1EBA" unicode="&#x1eba;" horiz-adv-x="621" 
d="M96 0zM571 0h-475v710h461v-52h-404v-278h370v-52h-370v-276h418v-52zM309 781q7 5 32.5 23t39 33.5t13.5 29.5q0 36 -49 36q-23 0 -48.5 -9t-41.5 -22l-12 35q22 16 50.5 26t60.5 10q39 0 63 -18t24 -54q0 -20 -13 -36.5t-26.5 -26t-41.5 -27.5h-51z" />
    <glyph glyph-name="uni1EBB" unicode="&#x1ebb;" horiz-adv-x="546" 
d="M50 0zM502 231h-398q4 -86 58 -137t147 -51q45 0 87.5 11t70.5 36l26 -43q-68 -52 -186 -52q-81 0 -139 31.5t-88 87.5t-30 129q0 71 30.5 127.5t84 88t121.5 31.5t117 -30t74.5 -83t25.5 -121zM164.5 395q-48.5 -46 -58.5 -120h345q-8 78 -50.5 122t-116.5 44
q-71 0 -119.5 -46zM257 555q42 29 66.5 52.5t24.5 47.5q0 36 -49 36q-24 0 -47.5 -8.5t-42.5 -23.5l-12 35q22 17 50.5 27.5t60.5 10.5q39 0 62.5 -18t23.5 -55q0 -51 -86 -104h-51z" />
    <glyph glyph-name="uni1EBC" unicode="&#x1ebc;" horiz-adv-x="621" 
d="M96 0zM571 0h-475v710h461v-52h-404v-278h370v-52h-370v-276h418v-52zM372 797q-19 9 -47 28q-40 27 -64 27q-19 0 -34.5 -15t-25.5 -43l-37 15q30 86 94 86q22 0 38.5 -7.5t43.5 -23.5q7 -4 20.5 -13.5t25 -14.5t22.5 -5q18 0 33 14.5t24 44.5l37 -13q-13 -44 -37 -66.5
t-54 -22.5q-20 0 -39 9z" />
    <glyph glyph-name="uni1EBD" unicode="&#x1ebd;" horiz-adv-x="546" 
d="M50 0zM502 231h-398q4 -86 58 -137t147 -51q45 0 87.5 11t70.5 36l26 -43q-68 -52 -186 -52q-81 0 -139 31.5t-88 87.5t-30 129q0 71 30.5 127.5t84 88t121.5 31.5t117 -30t74.5 -83t25.5 -121zM164.5 395q-48.5 -46 -58.5 -120h345q-8 78 -50.5 122t-116.5 44
q-71 0 -119.5 -46zM456 572zM325.5 581q-17.5 9 -48.5 29q-36 25 -61 25q-40 0 -62 -57l-37 14q29 89 94 89q23 0 40 -7.5t40 -22.5q5 -4 19 -13.5t26 -15t23 -5.5q19 0 34.5 15t24.5 44l38 -13q-13 -44 -37.5 -67.5t-53.5 -23.5q-22 0 -39.5 9z" />
    <glyph glyph-name="uni1EBE" unicode="&#x1ebe;" horiz-adv-x="621" 
d="M96 0zM571 0h-475v710h461v-52h-404v-278h370v-52h-370v-276h418v-52zM517 848h-48l109 135h63zM243 788h-57l120 118h57l117 -118h-58l-87 85h-2z" />
    <glyph glyph-name="uni1EBF" unicode="&#x1ebf;" horiz-adv-x="546" 
d="M50 0zM502 231h-398q4 -86 58 -137t147 -51q45 0 87.5 11t70.5 36l26 -43q-68 -52 -186 -52q-81 0 -139 31.5t-88 87.5t-30 129q0 71 30.5 127.5t84 88t121.5 31.5t117 -30t74.5 -83t25.5 -121zM164.5 395q-48.5 -46 -58.5 -120h345q-8 78 -50.5 122t-116.5 44
q-71 0 -119.5 -46zM444 643h-48l110 138h62zM199 560h-58l120 134h57l116 -134h-57l-87 99h-2z" />
    <glyph glyph-name="uni1EC0" unicode="&#x1ec0;" horiz-adv-x="621" 
d="M96 0zM571 0h-475v710h461v-52h-404v-278h370v-52h-370v-276h418v-52zM554 847h-47l-124 134h63zM243 788h-57l120 118h57l117 -118h-58l-87 85h-2z" />
    <glyph glyph-name="uni1EC1" unicode="&#x1ec1;" horiz-adv-x="546" 
d="M50 0zM502 231h-398q4 -86 58 -137t147 -51q45 0 87.5 11t70.5 36l26 -43q-68 -52 -186 -52q-81 0 -139 31.5t-88 87.5t-30 129q0 71 30.5 127.5t84 88t121.5 31.5t117 -30t74.5 -83t25.5 -121zM164.5 395q-48.5 -46 -58.5 -120h345q-8 78 -50.5 122t-116.5 44
q-71 0 -119.5 -46zM498 643h-47l-125 138h63zM196 561h-57l119 134h57l116 -134h-57l-86 98h-2z" />
    <glyph glyph-name="uni1EC2" unicode="&#x1ec2;" horiz-adv-x="621" 
d="M96 0zM571 0h-475v710h461v-52h-404v-278h370v-52h-370v-276h418v-52zM467 851q7 5 31 21.5t36.5 31t12.5 27.5q0 33 -46 33q-22 0 -45.5 -8.5t-38.5 -20.5l-12 33q20 14 47.5 23.5t57.5 9.5q36 0 58.5 -16.5t22.5 -50.5q0 -23 -18 -40.5t-35.5 -28.5t-22.5 -14h-48z
M243 788h-57l120 118h57l117 -118h-58l-87 85h-2z" />
    <glyph glyph-name="uni1EC3" unicode="&#x1ec3;" horiz-adv-x="546" 
d="M50 0zM502 231h-398q4 -86 58 -137t147 -51q45 0 87.5 11t70.5 36l26 -43q-68 -52 -186 -52q-81 0 -139 31.5t-88 87.5t-30 129q0 71 30.5 127.5t84 88t121.5 31.5t117 -30t74.5 -83t25.5 -121zM164.5 395q-48.5 -46 -58.5 -120h345q-8 78 -50.5 122t-116.5 44
q-71 0 -119.5 -46zM413 642q42 30 64.5 51.5t22.5 43.5q0 35 -48 35q-23 0 -45.5 -8t-39.5 -23l-12 34q47 36 106 36q37 0 60 -17t23 -53q0 -48 -82 -99h-49zM196 560h-57l119 133h57l116 -133h-56l-87 98h-2z" />
    <glyph glyph-name="uni1EC4" unicode="&#x1ec4;" horiz-adv-x="621" 
d="M96 0zM571 0h-475v710h461v-52h-404v-278h370v-52h-370v-276h418v-52zM373 935.5q-20 9.5 -43 26.5q-20 13 -34.5 19.5t-28.5 6.5q-37 0 -59 -57l-36 14q27 84 92 84q22 0 38.5 -7.5t41.5 -22.5l19.5 -13t25 -14t22.5 -5q17 0 32 14t24 43l36 -12q-13 -43 -36.5 -64.5
t-52.5 -21.5q-21 0 -41 9.5zM243 788h-57l120 118h57l117 -118h-58l-87 85h-2z" />
    <glyph glyph-name="uni1EC5" unicode="&#x1ec5;" horiz-adv-x="546" 
d="M50 0zM502 231h-398q4 -86 58 -137t147 -51q45 0 87.5 11t70.5 36l26 -43q-68 -52 -186 -52q-81 0 -139 31.5t-88 87.5t-30 129q0 71 30.5 127.5t84 88t121.5 31.5t117 -30t74.5 -83t25.5 -121zM164.5 395q-48.5 -46 -58.5 -120h345q-8 78 -50.5 122t-116.5 44
q-71 0 -119.5 -46zM453 560zM433 560zM198 560h-57l119 133h57l116 -133h-57l-86 98h-2zM120 771q14 43 36 65t55 22q19 0 36 -7t40 -21q7 -5 22.5 -14.5t26 -14t20.5 -4.5q23 0 37 14t23 44l37 -12q-27 -90 -92 -90q-20 0 -39.5 9.5t-45.5 27.5q-20 12 -32.5 18t-25.5 6
q-19 0 -35 -15t-26 -42z" />
    <glyph glyph-name="uni1EC6" unicode="&#x1ec6;" horiz-adv-x="621" 
d="M96 0zM571 0h-475v710h461v-52h-404v-278h370v-52h-370v-276h418v-52zM373.5 -121q12.5 -13 12.5 -31q0 -19 -12.5 -31t-31.5 -12t-31.5 12t-12.5 31q0 18 12.5 31t31.5 13t31.5 -13zM243 788h-57l120 118h57l117 -118h-58l-87 85h-2z" />
    <glyph glyph-name="uni1EC7" unicode="&#x1ec7;" horiz-adv-x="546" 
d="M50 0zM502 231h-398q4 -86 58 -137t147 -51q45 0 87.5 11t70.5 36l26 -43q-68 -52 -186 -52q-81 0 -139 31.5t-88 87.5t-30 129q0 71 30.5 127.5t84 88t121.5 31.5t117 -30t74.5 -83t25.5 -121zM164.5 395q-48.5 -46 -58.5 -120h345q-8 78 -50.5 122t-116.5 44
q-71 0 -119.5 -46zM322.5 -121q12.5 -13 12.5 -31q0 -19 -12.5 -31t-31.5 -12t-31.5 12t-12.5 31q0 18 12.5 31t31.5 13t31.5 -13zM432 560zM197 560h-57l119 133h57l116 -133h-57l-86 98h-2z" />
    <glyph glyph-name="uni1EC8" unicode="&#x1ec8;" horiz-adv-x="263" 
d="M41 0zM160 0h-57v710h57v-710zM107 781q7 5 32.5 23t39 33.5t13.5 29.5q0 36 -49 36q-23 0 -48.5 -9t-41.5 -22l-12 35q22 16 50.5 26t60.5 10q39 0 63 -18t24 -54q0 -20 -13 -36.5t-26.5 -26t-41.5 -27.5h-51z" />
    <glyph glyph-name="uni1EC9" unicode="&#x1ec9;" horiz-adv-x="237" 
d="M29 0zM144 0h-53v485h53v-485zM89 555q42 29 66.5 52.5t24.5 47.5q0 36 -49 36q-24 0 -47.5 -8.5t-42.5 -23.5l-12 35q22 17 50.5 27.5t60.5 10.5q39 0 62.5 -18t23.5 -55q0 -51 -86 -104h-51z" />
    <glyph glyph-name="uni1ECA" unicode="&#x1eca;" horiz-adv-x="263" 
d="M88 0zM160 0h-57v710h57v-710zM163.5 -121q12.5 -13 12.5 -31q0 -19 -12.5 -31t-31.5 -12t-31.5 12t-12.5 31q0 18 12.5 31t31.5 13t31.5 -13z" />
    <glyph glyph-name="uni1ECB" unicode="&#x1ecb;" horiz-adv-x="237" 
d="M74 0zM75 0zM144 0h-53v485h53v-485zM163 590zM87.5 603q-12.5 13 -12.5 31q0 19 12.5 31t31.5 12t31.5 -12t12.5 -31q0 -18 -12.5 -31t-31.5 -13t-31.5 13zM149.5 -121q12.5 -13 12.5 -31q0 -19 -12.5 -31t-31.5 -12t-31.5 12t-12.5 31q0 18 12.5 31t31.5 13t31.5 -13z
" />
    <glyph glyph-name="uni1ECC" unicode="&#x1ecc;" horiz-adv-x="834" 
d="M65 0zM238.5 41q-80.5 46 -127 128t-46.5 187t46.5 186.5t127 127t180.5 45.5q97 0 177 -45t126.5 -127t46.5 -187q0 -106 -46.5 -188t-126.5 -127.5t-177 -45.5q-100 0 -180.5 46zM565.5 88q66.5 39 105.5 109t39 159t-39 158.5t-105.5 108t-146.5 38.5
q-83 0 -150.5 -39t-106 -108.5t-38.5 -157.5q0 -89 38.5 -159t106 -109t150.5 -39q80 0 146.5 39zM449.5 -121q12.5 -13 12.5 -31q0 -19 -12.5 -31t-31.5 -12t-31.5 12t-12.5 31q0 18 12.5 31t31.5 13t31.5 -13z" />
    <glyph glyph-name="uni1ECD" unicode="&#x1ecd;" horiz-adv-x="595" 
d="M50 0zM168.5 28q-56.5 33 -87.5 89.5t-31 124.5t31 125t87.5 90t128.5 33q69 0 125.5 -31.5t89 -88t32.5 -128.5t-32.5 -128t-89 -87.5t-125.5 -31.5q-72 0 -128.5 33zM395 70q44 25 69.5 70t25.5 102q0 58 -25.5 103.5t-70 70.5t-97.5 25q-57 0 -101 -26.5t-68 -72
t-24 -100.5q0 -54 24.5 -99t68 -71.5t100.5 -26.5q54 0 98 25zM328.5 -121q12.5 -13 12.5 -31q0 -19 -12.5 -31t-31.5 -12t-31.5 12t-12.5 31q0 18 12.5 31t31.5 13t31.5 -13z" />
    <glyph glyph-name="uni1ECE" unicode="&#x1ece;" horiz-adv-x="834" 
d="M65 0zM238.5 41q-80.5 46 -127 128t-46.5 187t46.5 186.5t127 127t180.5 45.5q97 0 177 -45t126.5 -127t46.5 -187q0 -106 -46.5 -188t-126.5 -127.5t-177 -45.5q-100 0 -180.5 46zM565.5 88q66.5 39 105.5 109t39 159t-39 158.5t-105.5 108t-146.5 38.5
q-83 0 -150.5 -39t-106 -108.5t-38.5 -157.5q0 -89 38.5 -159t106 -109t150.5 -39q80 0 146.5 39zM394 781q7 5 32.5 23t39 33.5t13.5 29.5q0 36 -49 36q-23 0 -48.5 -9t-41.5 -22l-12 35q22 16 50.5 26t60.5 10q39 0 63 -18t24 -54q0 -20 -13 -36.5t-26.5 -26t-41.5 -27.5
h-51z" />
    <glyph glyph-name="uni1ECF" unicode="&#x1ecf;" horiz-adv-x="595" 
d="M50 0zM168.5 28q-56.5 33 -87.5 89.5t-31 124.5t31 125t87.5 90t128.5 33q69 0 125.5 -31.5t89 -88t32.5 -128.5t-32.5 -128t-89 -87.5t-125.5 -31.5q-72 0 -128.5 33zM395 70q44 25 69.5 70t25.5 102q0 58 -25.5 103.5t-70 70.5t-97.5 25q-57 0 -101 -26.5t-68 -72
t-24 -100.5q0 -54 24.5 -99t68 -71.5t100.5 -26.5q54 0 98 25zM269 555q42 29 66.5 52.5t24.5 47.5q0 36 -49 36q-24 0 -47.5 -8.5t-42.5 -23.5l-12 35q22 17 50.5 27.5t60.5 10.5q39 0 62.5 -18t23.5 -55q0 -51 -86 -104h-51z" />
    <glyph glyph-name="uni1ED0" unicode="&#x1ed0;" horiz-adv-x="834" 
d="M65 0zM238.5 41q-80.5 46 -127 128t-46.5 187t46.5 186.5t127 127t180.5 45.5q97 0 177 -45t126.5 -127t46.5 -187q0 -106 -46.5 -188t-126.5 -127.5t-177 -45.5q-100 0 -180.5 46zM565.5 88q66.5 39 105.5 109t39 159t-39 158.5t-105.5 108t-146.5 38.5
q-83 0 -150.5 -39t-106 -108.5t-38.5 -157.5q0 -89 38.5 -159t106 -109t150.5 -39q80 0 146.5 39zM602 848h-48l109 135h63zM328 788h-57l120 118h57l117 -118h-58l-87 85h-2z" />
    <glyph glyph-name="uni1ED1" unicode="&#x1ed1;" horiz-adv-x="595" 
d="M50 0zM168.5 28q-56.5 33 -87.5 89.5t-31 124.5t31 125t87.5 90t128.5 33q69 0 125.5 -31.5t89 -88t32.5 -128.5t-32.5 -128t-89 -87.5t-125.5 -31.5q-72 0 -128.5 33zM395 70q44 25 69.5 70t25.5 102q0 58 -25.5 103.5t-70 70.5t-97.5 25q-57 0 -101 -26.5t-68 -72
t-24 -100.5q0 -54 24.5 -99t68 -71.5t100.5 -26.5q54 0 98 25zM456 643h-48l110 138h62zM211 560h-58l120 134h57l116 -134h-57l-87 99h-2z" />
    <glyph glyph-name="uni1ED2" unicode="&#x1ed2;" horiz-adv-x="834" 
d="M65 0zM238.5 41q-80.5 46 -127 128t-46.5 187t46.5 186.5t127 127t180.5 45.5q97 0 177 -45t126.5 -127t46.5 -187q0 -106 -46.5 -188t-126.5 -127.5t-177 -45.5q-100 0 -180.5 46zM565.5 88q66.5 39 105.5 109t39 159t-39 158.5t-105.5 108t-146.5 38.5
q-83 0 -150.5 -39t-106 -108.5t-38.5 -157.5q0 -89 38.5 -159t106 -109t150.5 -39q80 0 146.5 39zM639 847h-47l-124 134h63zM328 788h-57l120 118h57l117 -118h-58l-87 85h-2z" />
    <glyph glyph-name="uni1ED3" unicode="&#x1ed3;" horiz-adv-x="595" 
d="M50 0zM168.5 28q-56.5 33 -87.5 89.5t-31 124.5t31 125t87.5 90t128.5 33q69 0 125.5 -31.5t89 -88t32.5 -128.5t-32.5 -128t-89 -87.5t-125.5 -31.5q-72 0 -128.5 33zM395 70q44 25 69.5 70t25.5 102q0 58 -25.5 103.5t-70 70.5t-97.5 25q-57 0 -101 -26.5t-68 -72
t-24 -100.5q0 -54 24.5 -99t68 -71.5t100.5 -26.5q54 0 98 25zM510 643h-47l-125 138h63zM208 561h-57l119 134h57l116 -134h-57l-86 98h-2z" />
    <glyph glyph-name="uni1ED4" unicode="&#x1ed4;" horiz-adv-x="834" 
d="M65 0zM238.5 41q-80.5 46 -127 128t-46.5 187t46.5 186.5t127 127t180.5 45.5q97 0 177 -45t126.5 -127t46.5 -187q0 -106 -46.5 -188t-126.5 -127.5t-177 -45.5q-100 0 -180.5 46zM565.5 88q66.5 39 105.5 109t39 159t-39 158.5t-105.5 108t-146.5 38.5
q-83 0 -150.5 -39t-106 -108.5t-38.5 -157.5q0 -89 38.5 -159t106 -109t150.5 -39q80 0 146.5 39zM552 851q7 5 31 21.5t36.5 31t12.5 27.5q0 33 -46 33q-22 0 -45.5 -8.5t-38.5 -20.5l-12 33q20 14 47.5 23.5t57.5 9.5q36 0 58.5 -16.5t22.5 -50.5q0 -23 -18 -40.5
t-35.5 -28.5t-22.5 -14h-48zM328 788h-57l120 118h57l117 -118h-58l-87 85h-2z" />
    <glyph glyph-name="uni1ED5" unicode="&#x1ed5;" horiz-adv-x="595" 
d="M50 0zM168.5 28q-56.5 33 -87.5 89.5t-31 124.5t31 125t87.5 90t128.5 33q69 0 125.5 -31.5t89 -88t32.5 -128.5t-32.5 -128t-89 -87.5t-125.5 -31.5q-72 0 -128.5 33zM395 70q44 25 69.5 70t25.5 102q0 58 -25.5 103.5t-70 70.5t-97.5 25q-57 0 -101 -26.5t-68 -72
t-24 -100.5q0 -54 24.5 -99t68 -71.5t100.5 -26.5q54 0 98 25zM425 642q42 30 64.5 51.5t22.5 43.5q0 35 -48 35q-23 0 -45.5 -8t-39.5 -23l-12 34q47 36 106 36q37 0 60 -17t23 -53q0 -48 -82 -99h-49zM208 560h-57l119 133h57l116 -133h-56l-87 98h-2z" />
    <glyph glyph-name="uni1ED6" unicode="&#x1ed6;" horiz-adv-x="834" 
d="M65 0zM238.5 41q-80.5 46 -127 128t-46.5 187t46.5 186.5t127 127t180.5 45.5q97 0 177 -45t126.5 -127t46.5 -187q0 -106 -46.5 -188t-126.5 -127.5t-177 -45.5q-100 0 -180.5 46zM565.5 88q66.5 39 105.5 109t39 159t-39 158.5t-105.5 108t-146.5 38.5
q-83 0 -150.5 -39t-106 -108.5t-38.5 -157.5q0 -89 38.5 -159t106 -109t150.5 -39q80 0 146.5 39zM458 935.5q-20 9.5 -43 26.5q-20 13 -34.5 19.5t-28.5 6.5q-37 0 -59 -57l-36 14q27 84 92 84q22 0 38.5 -7.5t41.5 -22.5l19.5 -13t25 -14t22.5 -5q17 0 32 14t24 43l36 -12
q-13 -43 -36.5 -64.5t-52.5 -21.5q-21 0 -41 9.5zM328 788h-57l120 118h57l117 -118h-58l-87 85h-2z" />
    <glyph glyph-name="uni1ED7" unicode="&#x1ed7;" horiz-adv-x="595" 
d="M50 0zM168.5 28q-56.5 33 -87.5 89.5t-31 124.5t31 125t87.5 90t128.5 33q69 0 125.5 -31.5t89 -88t32.5 -128.5t-32.5 -128t-89 -87.5t-125.5 -31.5q-72 0 -128.5 33zM395 70q44 25 69.5 70t25.5 102q0 58 -25.5 103.5t-70 70.5t-97.5 25q-57 0 -101 -26.5t-68 -72
t-24 -100.5q0 -54 24.5 -99t68 -71.5t100.5 -26.5q54 0 98 25zM465 560zM445 560zM210 560h-57l119 133h57l116 -133h-57l-86 98h-2zM132 771q14 43 36 65t55 22q19 0 36 -7t40 -21q7 -5 22.5 -14.5t26 -14t20.5 -4.5q23 0 37 14t23 44l37 -12q-27 -90 -92 -90
q-20 0 -39.5 9.5t-45.5 27.5q-20 12 -32.5 18t-25.5 6q-19 0 -35 -15t-26 -42z" />
    <glyph glyph-name="uni1ED8" unicode="&#x1ed8;" horiz-adv-x="834" 
d="M65 0zM238.5 41q-80.5 46 -127 128t-46.5 187t46.5 186.5t127 127t180.5 45.5q97 0 177 -45t126.5 -127t46.5 -187q0 -106 -46.5 -188t-126.5 -127.5t-177 -45.5q-100 0 -180.5 46zM565.5 88q66.5 39 105.5 109t39 159t-39 158.5t-105.5 108t-146.5 38.5
q-83 0 -150.5 -39t-106 -108.5t-38.5 -157.5q0 -89 38.5 -159t106 -109t150.5 -39q80 0 146.5 39zM449.5 -121q12.5 -13 12.5 -31q0 -19 -12.5 -31t-31.5 -12t-31.5 12t-12.5 31q0 18 12.5 31t31.5 13t31.5 -13zM328 788h-57l120 118h57l117 -118h-58l-87 85h-2z" />
    <glyph glyph-name="uni1ED9" unicode="&#x1ed9;" horiz-adv-x="595" 
d="M50 0zM168.5 28q-56.5 33 -87.5 89.5t-31 124.5t31 125t87.5 90t128.5 33q69 0 125.5 -31.5t89 -88t32.5 -128.5t-32.5 -128t-89 -87.5t-125.5 -31.5q-72 0 -128.5 33zM395 70q44 25 69.5 70t25.5 102q0 58 -25.5 103.5t-70 70.5t-97.5 25q-57 0 -101 -26.5t-68 -72
t-24 -100.5q0 -54 24.5 -99t68 -71.5t100.5 -26.5q54 0 98 25zM328.5 -121q12.5 -13 12.5 -31q0 -19 -12.5 -31t-31.5 -12t-31.5 12t-12.5 31q0 18 12.5 31t31.5 13t31.5 -13zM444 560zM209 560h-57l119 133h57l116 -133h-57l-86 98h-2z" />
    <glyph glyph-name="uni1EDA" unicode="&#x1eda;" horiz-adv-x="873" 
d="M65 0zM827 774v-75q0 -73 -25.5 -112t-76.5 -49q44 -82 44 -182q0 -106 -46.5 -188t-126.5 -127.5t-177 -45.5q-100 0 -180.5 46t-127 128t-46.5 187t46.5 186.5t127 127t180.5 45.5q87 0 161 -36.5t122 -102.5q39 6 55 34.5t16 90.5v73h54zM565.5 88q66.5 39 105.5 109
t39 159t-39 158.5t-105.5 108t-146.5 38.5q-83 0 -150.5 -39t-106 -108.5t-38.5 -157.5q0 -89 38.5 -159t106 -109t150.5 -39q80 0 146.5 39zM431 788h-57l113 128h62z" />
    <glyph glyph-name="uni1EDB" unicode="&#x1edb;" horiz-adv-x="661" 
d="M50 0zM634 565v-75q0 -142 -104 -161q14 -42 14 -87q0 -72 -32.5 -128t-89 -87.5t-125.5 -31.5q-72 0 -128.5 33t-87.5 89.5t-31 124.5t31 125t87.5 90t128.5 33q71 0 128 -32.5t88 -90.5q37 7 52 36t15 89v73h54zM395 70q44 25 69.5 70t25.5 102q0 58 -25.5 103.5
t-70 70.5t-97.5 25q-57 0 -101 -26.5t-68 -72t-24 -100.5q0 -54 24.5 -99t68 -71.5t100.5 -26.5q54 0 98 25zM446 560zM322 560h-59l120 138h63z" />
    <glyph glyph-name="uni1EDC" unicode="&#x1edc;" horiz-adv-x="873" 
d="M65 0zM827 774v-75q0 -73 -25.5 -112t-76.5 -49q44 -82 44 -182q0 -106 -46.5 -188t-126.5 -127.5t-177 -45.5q-100 0 -180.5 46t-127 128t-46.5 187t46.5 186.5t127 127t180.5 45.5q87 0 161 -36.5t122 -102.5q39 6 55 34.5t16 90.5v73h54zM565.5 88q66.5 39 105.5 109
t39 159t-39 158.5t-105.5 108t-146.5 38.5q-83 0 -150.5 -39t-106 -108.5t-38.5 -157.5q0 -89 38.5 -159t106 -109t150.5 -39q80 0 146.5 39zM455 788h-58l-118 128h63z" />
    <glyph glyph-name="uni1EDD" unicode="&#x1edd;" horiz-adv-x="661" 
d="M50 0zM634 565v-75q0 -142 -104 -161q14 -42 14 -87q0 -72 -32.5 -128t-89 -87.5t-125.5 -31.5q-72 0 -128.5 33t-87.5 89.5t-31 124.5t31 125t87.5 90t128.5 33q71 0 128 -32.5t88 -90.5q37 7 52 36t15 89v73h54zM395 70q44 25 69.5 70t25.5 102q0 58 -25.5 103.5
t-70 70.5t-97.5 25q-57 0 -101 -26.5t-68 -72t-24 -100.5q0 -54 24.5 -99t68 -71.5t100.5 -26.5q54 0 98 25zM341 561zM341 561h-58l-117 133h63z" />
    <glyph glyph-name="uni1EDE" unicode="&#x1ede;" horiz-adv-x="873" 
d="M65 0zM827 774v-75q0 -73 -25.5 -112t-76.5 -49q44 -82 44 -182q0 -106 -46.5 -188t-126.5 -127.5t-177 -45.5q-100 0 -180.5 46t-127 128t-46.5 187t46.5 186.5t127 127t180.5 45.5q87 0 161 -36.5t122 -102.5q39 6 55 34.5t16 90.5v73h54zM565.5 88q66.5 39 105.5 109
t39 159t-39 158.5t-105.5 108t-146.5 38.5q-83 0 -150.5 -39t-106 -108.5t-38.5 -157.5q0 -89 38.5 -159t106 -109t150.5 -39q80 0 146.5 39zM394 781q7 5 32.5 23t39 33.5t13.5 29.5q0 36 -49 36q-23 0 -48.5 -9t-41.5 -22l-12 35q22 16 50.5 26t60.5 10q39 0 63 -18
t24 -54q0 -20 -13 -36.5t-26.5 -26t-41.5 -27.5h-51z" />
    <glyph glyph-name="uni1EDF" unicode="&#x1edf;" horiz-adv-x="661" 
d="M50 0zM634 565v-75q0 -142 -104 -161q14 -42 14 -87q0 -72 -32.5 -128t-89 -87.5t-125.5 -31.5q-72 0 -128.5 33t-87.5 89.5t-31 124.5t31 125t87.5 90t128.5 33q71 0 128 -32.5t88 -90.5q37 7 52 36t15 89v73h54zM395 70q44 25 69.5 70t25.5 102q0 58 -25.5 103.5
t-70 70.5t-97.5 25q-57 0 -101 -26.5t-68 -72t-24 -100.5q0 -54 24.5 -99t68 -71.5t100.5 -26.5q54 0 98 25zM269 555q42 29 66.5 52.5t24.5 47.5q0 36 -49 36q-24 0 -47.5 -8.5t-42.5 -23.5l-12 35q22 17 50.5 27.5t60.5 10.5q39 0 62.5 -18t23.5 -55q0 -51 -86 -104h-51z
" />
    <glyph glyph-name="uni1EE0" unicode="&#x1ee0;" horiz-adv-x="873" 
d="M65 0zM827 774v-75q0 -73 -25.5 -112t-76.5 -49q44 -82 44 -182q0 -106 -46.5 -188t-126.5 -127.5t-177 -45.5q-100 0 -180.5 46t-127 128t-46.5 187t46.5 186.5t127 127t180.5 45.5q87 0 161 -36.5t122 -102.5q39 6 55 34.5t16 90.5v73h54zM565.5 88q66.5 39 105.5 109
t39 159t-39 158.5t-105.5 108t-146.5 38.5q-83 0 -150.5 -39t-106 -108.5t-38.5 -157.5q0 -89 38.5 -159t106 -109t150.5 -39q80 0 146.5 39zM457 797q-19 9 -47 28q-40 27 -64 27q-19 0 -34.5 -15t-25.5 -43l-37 15q30 86 94 86q22 0 38.5 -7.5t43.5 -23.5q7 -4 20.5 -13.5
t25 -14.5t22.5 -5q18 0 33 14.5t24 44.5l37 -13q-13 -44 -37 -66.5t-54 -22.5q-20 0 -39 9z" />
    <glyph glyph-name="uni1EE1" unicode="&#x1ee1;" horiz-adv-x="661" 
d="M50 0zM634 565v-75q0 -142 -104 -161q14 -42 14 -87q0 -72 -32.5 -128t-89 -87.5t-125.5 -31.5q-72 0 -128.5 33t-87.5 89.5t-31 124.5t31 125t87.5 90t128.5 33q71 0 128 -32.5t88 -90.5q37 7 52 36t15 89v73h54zM395 70q44 25 69.5 70t25.5 102q0 58 -25.5 103.5
t-70 70.5t-97.5 25q-57 0 -101 -26.5t-68 -72t-24 -100.5q0 -54 24.5 -99t68 -71.5t100.5 -26.5q54 0 98 25zM468 572zM337.5 581q-17.5 9 -48.5 29q-36 25 -61 25q-40 0 -62 -57l-37 14q29 89 94 89q23 0 40 -7.5t40 -22.5q5 -4 19 -13.5t26 -15t23 -5.5q19 0 34.5 15
t24.5 44l38 -13q-13 -44 -37.5 -67.5t-53.5 -23.5q-22 0 -39.5 9z" />
    <glyph glyph-name="uni1EE2" unicode="&#x1ee2;" horiz-adv-x="873" 
d="M65 0zM827 774v-75q0 -73 -25.5 -112t-76.5 -49q44 -82 44 -182q0 -106 -46.5 -188t-126.5 -127.5t-177 -45.5q-100 0 -180.5 46t-127 128t-46.5 187t46.5 186.5t127 127t180.5 45.5q87 0 161 -36.5t122 -102.5q39 6 55 34.5t16 90.5v73h54zM565.5 88q66.5 39 105.5 109
t39 159t-39 158.5t-105.5 108t-146.5 38.5q-83 0 -150.5 -39t-106 -108.5t-38.5 -157.5q0 -89 38.5 -159t106 -109t150.5 -39q80 0 146.5 39zM449.5 -121q12.5 -13 12.5 -31q0 -19 -12.5 -31t-31.5 -12t-31.5 12t-12.5 31q0 18 12.5 31t31.5 13t31.5 -13z" />
    <glyph glyph-name="uni1EE3" unicode="&#x1ee3;" horiz-adv-x="661" 
d="M50 0zM634 565v-75q0 -142 -104 -161q14 -42 14 -87q0 -72 -32.5 -128t-89 -87.5t-125.5 -31.5q-72 0 -128.5 33t-87.5 89.5t-31 124.5t31 125t87.5 90t128.5 33q71 0 128 -32.5t88 -90.5q37 7 52 36t15 89v73h54zM395 70q44 25 69.5 70t25.5 102q0 58 -25.5 103.5
t-70 70.5t-97.5 25q-57 0 -101 -26.5t-68 -72t-24 -100.5q0 -54 24.5 -99t68 -71.5t100.5 -26.5q54 0 98 25zM328.5 -121q12.5 -13 12.5 -31q0 -19 -12.5 -31t-31.5 -12t-31.5 12t-12.5 31q0 18 12.5 31t31.5 13t31.5 -13z" />
    <glyph glyph-name="uni1EE4" unicode="&#x1ee4;" horiz-adv-x="709" 
d="M87 0zM160 68q-73 73 -73 209v433h56v-430q0 -110 57 -170t154 -60t155 59t58 171v430h56v-433q0 -135 -73 -208.5t-196 -73.5q-121 0 -194 73zM385.5 -121q12.5 -13 12.5 -31q0 -19 -12.5 -31t-31.5 -12t-31.5 12t-12.5 31q0 18 12.5 31t31.5 13t31.5 -13z" />
    <glyph glyph-name="uni1EE5" unicode="&#x1ee5;" horiz-adv-x="560" 
d="M73 0zM121 49q-48 54 -48 153v283h53v-265q0 -175 139 -175q45 0 82.5 25t59 71t21.5 107v237h53v-485h-53v104l-1 1q-26 -52 -71.5 -81t-99.5 -29q-87 0 -135 54zM311.5 -121q12.5 -13 12.5 -31q0 -19 -12.5 -31t-31.5 -12t-31.5 12t-12.5 31q0 18 12.5 31t31.5 13
t31.5 -13z" />
    <glyph glyph-name="uni1EE6" unicode="&#x1ee6;" horiz-adv-x="709" 
d="M87 0zM160 68q-73 73 -73 209v433h56v-430q0 -110 57 -170t154 -60t155 59t58 171v430h56v-433q0 -135 -73 -208.5t-196 -73.5q-121 0 -194 73zM331 781q7 5 32.5 23t39 33.5t13.5 29.5q0 36 -49 36q-23 0 -48.5 -9t-41.5 -22l-12 35q22 16 50.5 26t60.5 10q39 0 63 -18
t24 -54q0 -20 -13 -36.5t-26.5 -26t-41.5 -27.5h-51z" />
    <glyph glyph-name="uni1EE7" unicode="&#x1ee7;" horiz-adv-x="560" 
d="M73 0zM121 49q-48 54 -48 153v283h53v-265q0 -175 139 -175q45 0 82.5 25t59 71t21.5 107v237h53v-485h-53v104l-1 1q-26 -52 -71.5 -81t-99.5 -29q-87 0 -135 54zM248 555q42 29 66.5 52.5t24.5 47.5q0 36 -49 36q-24 0 -47.5 -8.5t-42.5 -23.5l-12 35q22 17 50.5 27.5
t60.5 10.5q39 0 62.5 -18t23.5 -55q0 -51 -86 -104h-51z" />
    <glyph glyph-name="uni1EE8" unicode="&#x1ee8;" horiz-adv-x="774" 
d="M87 0zM755 774v-75q0 -83 -33.5 -122.5t-98.5 -41.5v-258q0 -135 -73 -208.5t-196 -73.5q-121 0 -194 73t-73 209v433h56v-430q0 -110 57 -170t154 -60t155 59t58 171v430h56v-135q43 4 60.5 33t17.5 93v73h54zM352 788h-57l113 128h62z" />
    <glyph glyph-name="uni1EE9" unicode="&#x1ee9;" horiz-adv-x="632" 
d="M73 0zM605 565v-75q0 -80 -31.5 -119.5t-92.5 -44.5v-326h-53v104l-1 1q-26 -52 -71.5 -81t-99.5 -29q-87 0 -135 54t-48 153v283h53v-265q0 -175 139 -175q45 0 82.5 25t59 71t21.5 107v237h53v-118q39 6 55 34.5t16 90.5v73h53zM418 560zM294 560h-59l120 138h63z" />
    <glyph glyph-name="uni1EEA" unicode="&#x1eea;" horiz-adv-x="774" 
d="M87 0zM755 774v-75q0 -83 -33.5 -122.5t-98.5 -41.5v-258q0 -135 -73 -208.5t-196 -73.5q-121 0 -194 73t-73 209v433h56v-430q0 -110 57 -170t154 -60t155 59t58 171v430h56v-135q43 4 60.5 33t17.5 93v73h54zM402 788h-58l-118 128h63z" />
    <glyph glyph-name="uni1EEB" unicode="&#x1eeb;" horiz-adv-x="632" 
d="M73 0zM605 565v-75q0 -80 -31.5 -119.5t-92.5 -44.5v-326h-53v104l-1 1q-26 -52 -71.5 -81t-99.5 -29q-87 0 -135 54t-48 153v283h53v-265q0 -175 139 -175q45 0 82.5 25t59 71t21.5 107v237h53v-118q39 6 55 34.5t16 90.5v73h53zM319 561zM319 561h-58l-117 133h63z" />
    <glyph glyph-name="uni1EEC" unicode="&#x1eec;" horiz-adv-x="774" 
d="M87 0zM755 774v-75q0 -83 -33.5 -122.5t-98.5 -41.5v-258q0 -135 -73 -208.5t-196 -73.5q-121 0 -194 73t-73 209v433h56v-430q0 -110 57 -170t154 -60t155 59t58 171v430h56v-135q43 4 60.5 33t17.5 93v73h54zM331 781q7 5 32.5 23t39 33.5t13.5 29.5q0 36 -49 36
q-23 0 -48.5 -9t-41.5 -22l-12 35q22 16 50.5 26t60.5 10q39 0 63 -18t24 -54q0 -20 -13 -36.5t-26.5 -26t-41.5 -27.5h-51z" />
    <glyph glyph-name="uni1EED" unicode="&#x1eed;" horiz-adv-x="632" 
d="M73 0zM605 565v-75q0 -80 -31.5 -119.5t-92.5 -44.5v-326h-53v104l-1 1q-26 -52 -71.5 -81t-99.5 -29q-87 0 -135 54t-48 153v283h53v-265q0 -175 139 -175q45 0 82.5 25t59 71t21.5 107v237h53v-118q39 6 55 34.5t16 90.5v73h53zM248 555q42 29 66.5 52.5t24.5 47.5
q0 36 -49 36q-24 0 -47.5 -8.5t-42.5 -23.5l-12 35q22 17 50.5 27.5t60.5 10.5q39 0 62.5 -18t23.5 -55q0 -51 -86 -104h-51z" />
    <glyph glyph-name="uni1EEE" unicode="&#x1eee;" horiz-adv-x="774" 
d="M87 0zM755 774v-75q0 -83 -33.5 -122.5t-98.5 -41.5v-258q0 -135 -73 -208.5t-196 -73.5q-121 0 -194 73t-73 209v433h56v-430q0 -110 57 -170t154 -60t155 59t58 171v430h56v-135q43 4 60.5 33t17.5 93v73h54zM394 797q-19 9 -47 28q-40 27 -64 27q-19 0 -34.5 -15
t-25.5 -43l-37 15q30 86 94 86q22 0 38.5 -7.5t43.5 -23.5q7 -4 20.5 -13.5t25 -14.5t22.5 -5q18 0 33 14.5t24 44.5l37 -13q-13 -44 -37 -66.5t-54 -22.5q-20 0 -39 9z" />
    <glyph glyph-name="uni1EEF" unicode="&#x1eef;" horiz-adv-x="632" 
d="M73 0zM605 565v-75q0 -80 -31.5 -119.5t-92.5 -44.5v-326h-53v104l-1 1q-26 -52 -71.5 -81t-99.5 -29q-87 0 -135 54t-48 153v283h53v-265q0 -175 139 -175q45 0 82.5 25t59 71t21.5 107v237h53v-118q39 6 55 34.5t16 90.5v73h53zM447 572zM316.5 581q-17.5 9 -48.5 29
q-36 25 -61 25q-40 0 -62 -57l-37 14q29 89 94 89q23 0 40 -7.5t40 -22.5q5 -4 19 -13.5t26 -15t23 -5.5q19 0 34.5 15t24.5 44l38 -13q-13 -44 -37.5 -67.5t-53.5 -23.5q-22 0 -39.5 9z" />
    <glyph glyph-name="uni1EF0" unicode="&#x1ef0;" horiz-adv-x="774" 
d="M87 0zM755 774v-75q0 -83 -33.5 -122.5t-98.5 -41.5v-258q0 -135 -73 -208.5t-196 -73.5q-121 0 -194 73t-73 209v433h56v-430q0 -110 57 -170t154 -60t155 59t58 171v430h56v-135q43 4 60.5 33t17.5 93v73h54zM385.5 -121q12.5 -13 12.5 -31q0 -19 -12.5 -31t-31.5 -12
t-31.5 12t-12.5 31q0 18 12.5 31t31.5 13t31.5 -13z" />
    <glyph glyph-name="uni1EF1" unicode="&#x1ef1;" horiz-adv-x="632" 
d="M73 0zM605 565v-75q0 -80 -31.5 -119.5t-92.5 -44.5v-326h-53v104l-1 1q-26 -52 -71.5 -81t-99.5 -29q-87 0 -135 54t-48 153v283h53v-265q0 -175 139 -175q45 0 82.5 25t59 71t21.5 107v237h53v-118q39 6 55 34.5t16 90.5v73h53zM311.5 -121q12.5 -13 12.5 -31
q0 -19 -12.5 -31t-31.5 -12t-31.5 12t-12.5 31q0 18 12.5 31t31.5 13t31.5 -13z" />
    <glyph glyph-name="Ygrave" unicode="&#x1ef2;" horiz-adv-x="584" 
d="M18 0zM319 0h-57v320l-244 390h66l205 -333h2l207 333h66l-245 -390v-320zM352 788h-58l-118 128h63z" />
    <glyph glyph-name="ygrave" unicode="&#x1ef3;" horiz-adv-x="516" 
d="M0 0zM-15 -165l22 44q39 -32 89 -32q44 0 71.5 29t57.5 106l11 28l-214 475h59l181 -411h1l168 411h57l-213 -515q-24 -59 -46 -95t-53.5 -56.5t-78.5 -20.5q-65 0 -112 37zM311 561zM311 561h-58l-117 133h63z" />
    <glyph glyph-name="uni1EF4" unicode="&#x1ef4;" horiz-adv-x="584" 
d="M18 0zM319 0h-57v320l-244 390h66l205 -333h2l207 333h66l-245 -390v-320zM321.5 -121q12.5 -13 12.5 -31q0 -19 -12.5 -31t-31.5 -12t-31.5 12t-12.5 31q0 18 12.5 31t31.5 13t31.5 -13z" />
    <glyph glyph-name="uni1EF5" unicode="&#x1ef5;" horiz-adv-x="516" 
d="M0 0zM-15 -165l22 44q39 -32 89 -32q44 0 71.5 29t57.5 106l11 28l-214 475h59l181 -411h1l168 411h57l-213 -515q-24 -59 -46 -95t-53.5 -56.5t-78.5 -20.5q-65 0 -112 37zM410.5 -121q12.5 -13 12.5 -31q0 -19 -12.5 -31t-31.5 -12t-31.5 12t-12.5 31q0 18 12.5 31
t31.5 13t31.5 -13z" />
    <glyph glyph-name="uni1EF6" unicode="&#x1ef6;" horiz-adv-x="584" 
d="M18 0zM319 0h-57v320l-244 390h66l205 -333h2l207 333h66l-245 -390v-320zM268 781q7 5 32.5 23t39 33.5t13.5 29.5q0 36 -49 36q-23 0 -48.5 -9t-41.5 -22l-12 35q22 16 50.5 26t60.5 10q39 0 63 -18t24 -54q0 -20 -13 -36.5t-26.5 -26t-41.5 -27.5h-51z" />
    <glyph glyph-name="uni1EF7" unicode="&#x1ef7;" horiz-adv-x="516" 
d="M0 0zM-15 -165l22 44q39 -32 89 -32q44 0 71.5 29t57.5 106l11 28l-214 475h59l181 -411h1l168 411h57l-213 -515q-24 -59 -46 -95t-53.5 -56.5t-78.5 -20.5q-65 0 -112 37zM229 555q42 29 66.5 52.5t24.5 47.5q0 36 -49 36q-24 0 -47.5 -8.5t-42.5 -23.5l-12 35
q22 17 50.5 27.5t60.5 10.5q39 0 62.5 -18t23.5 -55q0 -51 -86 -104h-51z" />
    <glyph glyph-name="uni1EF8" unicode="&#x1ef8;" horiz-adv-x="584" 
d="M18 0zM319 0h-57v320l-244 390h66l205 -333h2l207 333h66l-245 -390v-320zM331 797q-19 9 -47 28q-40 27 -64 27q-19 0 -34.5 -15t-25.5 -43l-37 15q30 86 94 86q22 0 38.5 -7.5t43.5 -23.5q7 -4 20.5 -13.5t25 -14.5t22.5 -5q18 0 33 14.5t24 44.5l37 -13
q-13 -44 -37 -66.5t-54 -22.5q-20 0 -39 9z" />
    <glyph glyph-name="uni1EF9" unicode="&#x1ef9;" horiz-adv-x="516" 
d="M0 0zM-15 -165l22 44q39 -32 89 -32q44 0 71.5 29t57.5 106l11 28l-214 475h59l181 -411h1l168 411h57l-213 -515q-24 -59 -46 -95t-53.5 -56.5t-78.5 -20.5q-65 0 -112 37zM428 572zM297.5 581q-17.5 9 -48.5 29q-36 25 -61 25q-40 0 -62 -57l-37 14q29 89 94 89
q23 0 40 -7.5t40 -22.5q5 -4 19 -13.5t26 -15t23 -5.5q19 0 34.5 15t24.5 44l38 -13q-13 -44 -37.5 -67.5t-53.5 -23.5q-22 0 -39.5 9z" />
    <glyph glyph-name="uni2002" unicode="&#x2002;" horiz-adv-x="467" 
 />
    <glyph glyph-name="uni2003" unicode="&#x2003;" horiz-adv-x="934" 
 />
    <glyph glyph-name="uni2007" unicode="&#x2007;" horiz-adv-x="586" 
 />
    <glyph glyph-name="uni2009" unicode="&#x2009;" horiz-adv-x="25" 
 />
    <glyph glyph-name="uni2010" unicode="&#x2010;" horiz-adv-x="415" 
d="M62 282zM354 282h-292v52h292v-52z" />
    <glyph glyph-name="figuredash" unicode="&#x2012;" horiz-adv-x="596" 
d="M535 273h-473v48h473v-48z" />
    <glyph glyph-name="endash" unicode="&#x2013;" horiz-adv-x="589" 
d="M528 273h-466v48h466v-48z" />
    <glyph glyph-name="emdash" unicode="&#x2014;" horiz-adv-x="1056" 
d="M995 273h-933v48h933v-48z" />
    <glyph glyph-name="uni2015" unicode="&#x2015;" horiz-adv-x="1202" 
d="M1141 273h-1079v48h1079v-48z" />
    <glyph glyph-name="quoteleft" unicode="&#x2018;" horiz-adv-x="189" 
d="M97 710h43l-33 -230h-59z" />
    <glyph glyph-name="quoteright" unicode="&#x2019;" horiz-adv-x="189" 
d="M48 481zM92 481h-44l34 229h58z" />
    <glyph glyph-name="quotesinglbase" unicode="&#x201a;" horiz-adv-x="193" 
d="M36 0zM78 -76h-42l34 230h59z" />
    <glyph glyph-name="quotedblleft" unicode="&#x201c;" horiz-adv-x="303" 
d="M97 710h44l-34 -229h-59zM211 710h44l-34 -229h-58z" />
    <glyph glyph-name="quotedblright" unicode="&#x201d;" horiz-adv-x="303" 
d="M48 481zM92 481h-44l34 229h58zM207 481h-45l34 229h59z" />
    <glyph glyph-name="quotedblbase" unicode="&#x201e;" horiz-adv-x="307" 
d="M36 0zM80 -74h-44l34 229h58zM195 -74h-45l34 229h59z" />
    <glyph glyph-name="dagger" unicode="&#x2020;" horiz-adv-x="405" 
d="M225 299l-21 -38l-20 38l3 138l-1 112h-21l-103 -4v41l103 -2h21l-1 101h40l-4 -101h19l104 2v-41l-104 4h-20v-112z" />
    <glyph glyph-name="daggerdbl" unicode="&#x2021;" horiz-adv-x="405" 
d="M225 60h-40l1 100h-21l-103 -2v40l103 -2h22v110l-3 73l3 73v97h-22l-103 -3v40l103 -3h21l-2 102h41l-4 -102h19l104 3v-40l-104 3h-20v-97l5 -73l-5 -73v-110h20l104 3v-40l-123 1z" />
    <glyph glyph-name="bullet" unicode="&#x2022;" horiz-adv-x="407" 
d="M136.5 249q-27.5 27 -27.5 67q0 39 27.5 66.5t66.5 27.5t67 -27.5t28 -66.5t-28 -66.5t-67 -27.5t-66.5 27z" />
    <glyph glyph-name="ellipsis" unicode="&#x2026;" horiz-adv-x="1019" 
d="M132 0zM478 7.5q-13 12.5 -13 31.5t13 31.5t32 12.5t32 -12.5t13 -31.5t-13 -31.5t-32 -12.5t-32 12.5zM145 7.5q-13 12.5 -13 31.5t13 31.5t32 12.5t32 -12.5t13 -31.5t-13 -31.5t-32 -12.5t-32 12.5zM812 7.5q-13 12.5 -13 31.5t13 31.5t32 12.5t32 -12.5t13 -31.5
t-13 -31.5t-32 -12.5t-32 12.5z" />
    <glyph glyph-name="perthousand" unicode="&#x2030;" horiz-adv-x="1236" 
d="M688 665l-503 -667l-39 28l503 668zM121.5 366q-40.5 22 -64.5 61.5t-24 91.5q0 48 22.5 87.5t63 62.5t92.5 23q48 0 88.5 -22t64.5 -61t24 -90q0 -48 -22.5 -88t-62.5 -63.5t-92 -23.5q-49 0 -89.5 22zM303.5 426q36.5 37 36.5 92q0 56 -36.5 92.5t-92.5 36.5t-92 -36.5
t-36 -92.5t36 -92.5t92 -36.5t92.5 37zM530.5 17q-40.5 22 -64 61.5t-23.5 90.5q0 48 22.5 88t62.5 63t92 23q48 0 88.5 -22t64.5 -61.5t24 -90.5q0 -47 -22.5 -87t-62.5 -63.5t-92 -23.5q-49 0 -89.5 22zM934.5 17q-40.5 22 -64.5 61.5t-24 90.5q0 48 22.5 87.5t63 63
t92.5 23.5q48 0 88.5 -22t64.5 -61.5t24 -90.5q0 -47 -22.5 -87t-63 -63.5t-91.5 -23.5q-49 0 -89.5 22zM712.5 77q36.5 37 36.5 92q0 56 -36.5 92.5t-92.5 36.5t-92 -36.5t-36 -92.5q0 -57 36 -93t92 -36t92.5 37zM1116.5 77q36.5 37 36.5 92q0 56 -36.5 92.5t-92.5 36.5
t-92.5 -36.5t-36.5 -92.5q0 -57 36.5 -93t92.5 -36t92.5 37z" />
    <glyph glyph-name="minute" unicode="&#x2032;" horiz-adv-x="224" 
d="M92 481h-44l74 229h59z" />
    <glyph glyph-name="second" unicode="&#x2033;" horiz-adv-x="348" 
d="M92 481h-44l74 229h59zM216 481h-43l74 229h58z" />
    <glyph glyph-name="guilsinglleft" unicode="&#x2039;" horiz-adv-x="294" 
d="M167 470h53l-126 -225l127 -225h-54l-127 225z" />
    <glyph glyph-name="guilsinglright" unicode="&#x203a;" horiz-adv-x="289" 
d="M120 20h-53l127 225l-127 225h53l128 -225z" />
    <glyph glyph-name="uni203D" unicode="&#x203d;" horiz-adv-x="438" 
d="M309 718q43 -23 67.5 -64.5t24.5 -93.5q0 -54 -24 -95.5t-68 -87.5l-18 -19q-36 -36 -53.5 -60.5t-18.5 -50.5l-1 -54h-45l-9 410h61l-6 -247h1q11 14 38 43q42 45 63 79t21 77q0 62 -38.5 97t-94.5 35q-42 0 -80.5 -20t-61.5 -58l-40 39q33 45 81 69t104 24q54 0 97 -23
zM232 70.5q13 -12.5 13 -31.5t-13 -31.5t-32 -12.5t-32 12.5t-13 31.5t13 31.5t32 12.5t32 -12.5z" />
    <glyph glyph-name="uni2042" unicode="&#x2042;" horiz-adv-x="846" 
d="M62 64zM658 64h-39l4 128l-109 -68l-20 35l114 60l-115 61l21 35l109 -68l-4 128h39l-4 -128l110 68l19 -35l-114 -60l114 -61l-19 -33l-109 66zM438 399h-39l4 128l-109 -68l-20 35l114 60l-115 61l21 35l109 -68l-4 128h39l-4 -128l110 68l19 -35l-114 -60l114 -61
l-19 -33l-109 66zM227 64h-39l4 128l-109 -68l-20 35l114 60l-115 61l21 35l109 -68l-4 128h39l-4 -128l110 68l19 -35l-114 -60l114 -61l-19 -33l-109 66z" />
    <glyph glyph-name="fraction" unicode="&#x2044;" horiz-adv-x="218" 
d="M292 701l-307 -713l-45 18l308 714z" />
    <glyph glyph-name="uni2051" unicode="&#x2051;" horiz-adv-x="415" 
d="M227 399h-39l4 128l-109 -68l-20 35l114 60l-115 61l21 35l109 -68l-4 128h39l-4 -128l110 68l19 -35l-114 -60l114 -61l-19 -33l-109 66zM227 50h-39l4 128l-109 -68l-20 35l114 60l-115 61l21 34l109 -66l-4 128h39l-4 -128l110 67l19 -35l-114 -61l114 -60l-19 -34
l-109 67z" />
    <glyph glyph-name="uni2070" unicode="&#x2070;" horiz-adv-x="395" 
d="M30 431zM76 487q-46 56 -46 154q0 96 45 154t122 58q76 0 122 -56.5t46 -155.5q0 -95 -45 -152.5t-123 -57.5q-75 0 -121 56zM286 520.5q32 44.5 32 120.5q0 81 -33.5 124t-87.5 43q-57 0 -88.5 -45t-31.5 -122q0 -79 33 -122t87 -43q57 0 89 44.5z" />
    <glyph glyph-name="uni2074" unicode="&#x2074;" horiz-adv-x="359" 
d="M13 436zM270 847v-283h64v-42h-64v-86h-46v86h-211v33l220 292h37zM228 779l-166 -218h166v218z" />
    <glyph glyph-name="uni2075" unicode="&#x2075;" horiz-adv-x="344" 
d="M25 432zM278 661q39 -35 39 -96t-40.5 -97t-113.5 -36q-82 0 -138 45l21 40q50 -42 117 -42q51 0 79 24t28 68q0 43 -29 67.5t-77 24.5q-55 0 -90 -24l-27 7l14 205h237v-42h-199l-9 -125q39 16 87 16q62 0 101 -35z" />
    <glyph glyph-name="uni2076" unicode="&#x2076;" horiz-adv-x="354" 
d="M30 432zM295 662q37 -34 37 -94q0 -59 -39 -97.5t-106 -38.5q-74 0 -115.5 52t-41.5 148q0 121 52 170.5t124 49.5q25 0 53 -5t47 -13l-15 -40q-17 7 -41 11.5t-44 4.5q-65 0 -97 -44t-35 -122q21 24 53.5 38t67.5 14q63 0 100 -34zM259 500q27 25 27 69q0 41 -26 64.5
t-71 23.5q-37 0 -67 -19t-46 -47q7 -57 36 -86.5t75 -29.5q45 0 72 25z" />
    <glyph glyph-name="uni2077" unicode="&#x2077;" horiz-adv-x="323" 
d="M21 436zM119 436h-51l178 368h-225v43h278v-32z" />
    <glyph glyph-name="uni2078" unicode="&#x2078;" horiz-adv-x="367" 
d="M29 432zM69.5 464.5q-40.5 32.5 -40.5 84.5q0 39 24.5 68.5t60.5 39.5v2q-27 7 -47 30t-20 55q0 48 37 78t99 30t98.5 -29.5t36.5 -78.5q0 -32 -20 -55t-46 -30v-2q36 -10 60.5 -39t24.5 -69q0 -52 -41.5 -84.5t-112.5 -32.5q-73 0 -113.5 32.5zM249 693q25 18 25 49
q0 29 -23.5 49t-68.5 20q-44 0 -67.5 -20t-23.5 -49q0 -31 25 -49t66 -18q42 0 67 18zM260.5 496q28.5 22 28.5 59q0 36 -29.5 59t-76.5 23t-76.5 -23t-29.5 -59q0 -37 28.5 -59t77.5 -22t77.5 22z" />
    <glyph glyph-name="uni2079" unicode="&#x2079;" horiz-adv-x="354" 
d="M21 431zM281.5 799q41.5 -52 41.5 -148q0 -121 -52 -170.5t-124 -49.5q-26 0 -54.5 5t-48.5 14l14 41q16 -8 41.5 -12.5t46.5 -4.5q65 0 97.5 44t35.5 121q-21 -24 -53.5 -38t-68.5 -14q-62 0 -99 34t-37 92q0 60 39 99t106 39q74 0 115.5 -52zM231 645q30 19 46 47
q-7 57 -36 86.5t-75 29.5q-45 0 -72.5 -25t-27.5 -69q0 -40 26.5 -64t71.5 -24q37 0 67 19z" />
    <glyph glyph-name="uni207A" unicode="&#x207a;" horiz-adv-x="350" 
d="M43 496zM199 650h114v-40h-114v-114h-42v114h-114v40h114v115h42v-115z" />
    <glyph glyph-name="uni207B" unicode="&#x207b;" horiz-adv-x="352" 
d="M44 608zM314 608h-270v43h270v-43z" />
    <glyph glyph-name="uni207C" unicode="&#x207c;" horiz-adv-x="375" 
d="M56 522zM326 688h-270v40h270v-40zM326 522h-270v40h270v-40z" />
    <glyph glyph-name="uni207D" unicode="&#x207d;" horiz-adv-x="166" 
d="M102 370q-71 135 -71 272q0 76 20.5 147.5t55.5 126.5l35 -17q-31 -48 -50 -116.5t-19 -140.5q0 -133 66 -258z" />
    <glyph glyph-name="uni207E" unicode="&#x207e;" horiz-adv-x="166" 
d="M27 384q66 125 66 258q0 72 -19 140.5t-50 116.5l35 17q35 -55 55.5 -126.5t20.5 -147.5q0 -137 -71 -272z" />
    <glyph glyph-name="uni207F" unicode="&#x207f;" horiz-adv-x="355" 
d="M46 -66v293h44v-60h2q19 30 50.5 46t68.5 16q50 0 77.5 -29.5t27.5 -87.5v-178h-43v166q0 89 -73 89q-47 0 -78.5 -30t-31.5 -79v-146h-44z" />
    <glyph glyph-name="uni2080" unicode="&#x2080;" horiz-adv-x="395" 
d="M30 0zM76 -15q-46 56 -46 154q0 96 45 154t122 58q76 0 122 -56.5t46 -155.5q0 -95 -45 -152.5t-123 -57.5q-75 0 -121 56zM286 18.5q32 44.5 32 120.5q0 81 -33.5 124t-87.5 43q-57 0 -88.5 -45t-31.5 -122q0 -79 33 -122t87 -43q57 0 89 44.5z" />
    <glyph glyph-name="uni2081" unicode="&#x2081;" horiz-adv-x="247" 
d="M18 0zM177 -66h-46v351l-90 -61l-23 37l122 84h37v-411z" />
    <glyph glyph-name="uni2082" unicode="&#x2082;" horiz-adv-x="335" 
d="M22 0zM26 -66v34l150 139q37 35 54.5 60.5t17.5 55.5q0 37 -25.5 59.5t-67.5 22.5q-56 0 -110 -44l-23 40q67 49 135 49q63 0 101 -34t38 -90q0 -36 -20 -69.5t-65 -74.5l-113 -103l1 -2h202v-43h-275z" />
    <glyph glyph-name="uni2083" unicode="&#x2083;" horiz-adv-x="342" 
d="M21 0zM21 -25l21 40q54 -42 123 -42q50 0 74.5 21t24.5 57q0 37 -28 57.5t-83 20.5h-31v39h38q48 0 72 19t24 51t-23 50.5t-68 18.5q-63 0 -110 -38l-22 38q60 43 135 43q61 0 97.5 -28.5t36.5 -77.5q0 -34 -18.5 -58t-52.5 -35v-2q39 -11 60 -37t21 -65q0 -53 -36 -85
t-109 -32q-89 0 -146 45z" />
    <glyph glyph-name="uni2084" unicode="&#x2084;" horiz-adv-x="359" 
d="M13 0zM270 345v-283h64v-42h-64v-86h-46v86h-211v33l220 292h37zM228 277l-166 -218h166v218z" />
    <glyph glyph-name="uni2085" unicode="&#x2085;" horiz-adv-x="344" 
d="M25 0zM278 159q39 -35 39 -96t-40.5 -97t-113.5 -36q-82 0 -138 45l21 40q50 -42 117 -42q51 0 79 24t28 68q0 43 -29 67.5t-77 24.5q-55 0 -90 -24l-27 7l14 205h237v-42h-199l-9 -125q39 16 87 16q62 0 101 -35z" />
    <glyph glyph-name="uni2086" unicode="&#x2086;" horiz-adv-x="354" 
d="M30 0zM295 160q37 -34 37 -94q0 -59 -39 -97.5t-106 -38.5q-74 0 -115.5 52t-41.5 148q0 121 52 170.5t124 49.5q25 0 53 -5t47 -13l-15 -40q-17 7 -41 11.5t-44 4.5q-65 0 -97 -44t-35 -122q21 24 53.5 38t67.5 14q63 0 100 -34zM259 -2q27 25 27 69q0 41 -26 64.5
t-71 23.5q-37 0 -67 -19t-46 -47q7 -57 36 -86.5t75 -29.5q45 0 72 25z" />
    <glyph glyph-name="uni2087" unicode="&#x2087;" horiz-adv-x="323" 
d="M21 0zM119 -66h-51l178 368h-225v43h278v-32z" />
    <glyph glyph-name="uni2088" unicode="&#x2088;" horiz-adv-x="367" 
d="M29 0zM69.5 -37.5q-40.5 32.5 -40.5 84.5q0 39 24.5 68.5t60.5 39.5v2q-27 7 -47 30t-20 55q0 48 37 78t99 30t98.5 -29.5t36.5 -78.5q0 -32 -20 -55t-46 -30v-2q36 -10 60.5 -39t24.5 -69q0 -52 -41.5 -84.5t-112.5 -32.5q-73 0 -113.5 32.5zM249 191q25 18 25 49
q0 29 -23.5 49t-68.5 20q-44 0 -67.5 -20t-23.5 -49q0 -31 25 -49t66 -18q42 0 67 18zM260.5 -6q28.5 22 28.5 59q0 36 -29.5 59t-76.5 23t-76.5 -23t-29.5 -59q0 -37 28.5 -59t77.5 -22t77.5 22z" />
    <glyph glyph-name="uni2089" unicode="&#x2089;" horiz-adv-x="354" 
d="M21 0zM281.5 297q41.5 -52 41.5 -148q0 -121 -52 -170.5t-124 -49.5q-26 0 -54.5 5t-48.5 14l14 41q16 -8 41.5 -12.5t46.5 -4.5q65 0 97.5 44t35.5 121q-21 -24 -53.5 -38t-68.5 -14q-62 0 -99 34t-37 92q0 60 39 99t106 39q74 0 115.5 -52zM231 143q30 19 46 47
q-7 57 -36 86.5t-75 29.5q-45 0 -72.5 -25t-27.5 -69q0 -40 26.5 -64t71.5 -24q37 0 67 19z" />
    <glyph glyph-name="uni208A" unicode="&#x208a;" horiz-adv-x="351" 
d="M196 141h114v-40h-114v-114h-42v114h-114v40h114v115h42v-115z" />
    <glyph glyph-name="uni208B" unicode="&#x208b;" horiz-adv-x="354" 
d="M312 99h-270v43h270v-43z" />
    <glyph glyph-name="uni208C" unicode="&#x208c;" horiz-adv-x="376" 
d="M322 190h-270v40h270v-40zM322 24h-270v40h270v-40z" />
    <glyph glyph-name="uni208D" unicode="&#x208d;" horiz-adv-x="169" 
d="M102 -133q-33 63 -51.5 129.5t-18.5 143.5q0 76 20 147.5t55 126.5l37 -18q-30 -47 -49.5 -115.5t-19.5 -140.5q0 -131 65 -257z" />
    <glyph glyph-name="uni208E" unicode="&#x208e;" horiz-adv-x="169" 
d="M29 -117q65 126 65 257q0 72 -19.5 140.5t-49.5 115.5l37 18q35 -55 55 -126.5t20 -147.5q0 -77 -18.5 -143.5t-51.5 -129.5z" />
    <glyph glyph-name="uni2090" unicode="&#x2090;" horiz-adv-x="381" 
d="M69 -28q-41 41 -41 106t40 108t104 43q35 0 66 -16.5t51 -45.5h1v59h42v-292h-42v55h-2q-18 -28 -48 -43t-66 -15q-64 0 -105 41zM259 0.5q31 29.5 31 77.5q0 47 -30 79t-77 32q-48 0 -80 -31t-32 -80q0 -46 31 -76.5t80 -30.5q46 0 77 29.5z" />
    <glyph glyph-name="uni2091" unicode="&#x2091;" horiz-adv-x="344" 
d="M317 69h-249q3 -48 36 -74t92 -26q51 0 92 23l17 -36q-47 -27 -111 -27q-81 0 -125 40.5t-44 108.5q0 43 19.5 77t54 53.5t77.5 19.5q65 0 104 -40.5t39 -103.5q0 -9 -2 -15zM106.5 166q-29.5 -24 -36.5 -64h206q-5 40 -31.5 64t-67.5 24t-70.5 -24z" />
    <glyph glyph-name="uni2092" unicode="&#x2092;" horiz-adv-x="371" 
d="M75 -27.5q-42 42.5 -42 106.5t42 106.5t110 42.5q66 0 109.5 -41.5t43.5 -107.5q0 -65 -43.5 -107t-109.5 -42q-68 0 -110 42.5zM262.5 0.5q31.5 30.5 31.5 78.5t-31.5 78.5t-77.5 30.5q-48 0 -78 -31.5t-30 -77.5t30 -77.5t78 -31.5q46 0 77.5 30.5z" />
    <glyph glyph-name="uni2093" unicode="&#x2093;" horiz-adv-x="301" 
d="M62 -66h-50l112 147l-112 146h52l85 -112h2l88 112h51l-114 -145l115 -148h-50l-89 111h-2z" />
    <glyph glyph-name="peseta" unicode="&#x20a7;" horiz-adv-x="640" 
d="M618 501v-42h-79q-6 -95 -68 -140t-163 -45h-141v-274h-56v459h-86v42h86v186h214q103 0 156 -49t58 -137h79zM167 636v-135h316q-7 69 -48.5 102t-108.5 33h-159zM310 324q83 0 125.5 36t47.5 99h-316v-135h143z" />
    <glyph glyph-name="dong" unicode="&#x20ab;" horiz-adv-x="608" 
d="M50 0zM591 620v-41h-58v-579h-51v111h-2q-25 -53 -75.5 -84.5t-115.5 -31.5q-67 0 -121.5 30.5t-86 86t-31.5 127.5q0 70 30.5 127.5t85 90.5t123.5 33q62 0 112.5 -30.5t77.5 -85.5h2v205h-229v41h229v116h52v-116h58zM389 69q43 24 68 68t25 101q0 56 -23.5 102.5
t-66.5 73.5t-97 27q-53 0 -96.5 -25.5t-69 -71.5t-25.5 -106q0 -54 24 -98t67.5 -69.5t99.5 -25.5q51 0 94 24zM540 -134h-464v49h464v-49z" />
    <glyph glyph-name="Euro" unicode="&#x20ac;" horiz-adv-x="593" 
d="M564 56q-83 -60 -192 -60q-69 0 -131 27.5t-106 86.5t-59 148h-62v42h58q-2 26 -2 42q0 15 2 43h-58v42h63q20 124 98 194t197 70q104 0 187 -57l-33 -43q-67 48 -154 48q-92 0 -155.5 -55.5t-81.5 -156.5h315v-42h-321q-2 -28 -2 -43q0 -16 2 -42h321v-42h-316
q20 -105 86 -157.5t152 -52.5q91 0 160 50z" />
    <glyph glyph-name="uni20B1" unicode="&#x20b1;" horiz-adv-x="640" 
d="M617 549v-39h-78q1 -10 1 -31q0 -11 -2 -31h79v-40h-86q-20 -69 -78.5 -101.5t-144.5 -32.5h-141v-274h-56v408h-86v40h86v62h-86v39h86v138h214q88 0 139.5 -36t67.5 -102h85zM167 636v-89h309q-29 89 -146 89h-163zM167 510v-62h317q2 18 2 29q0 13 -2 33h-317z
M315 324q128 0 160 86h-308v-86h148z" />
    <glyph glyph-name="uni20B9" unicode="&#x20b9;" horiz-adv-x="576" 
d="M535 642h-184v-1q59 -36 75 -108h109v-45h-105q0 -91 -62 -143.5t-176 -52.5h-38l317 -292h-77l-323 298v44h130q82 0 125 38.5t45 107.5h-300v45h296q-12 51 -53 80t-106 29h-137v45h464v-45z" />
    <glyph glyph-name="uni20BA" unicode="&#x20ba;" horiz-adv-x="518" 
d="M493 169q-33 -91 -94.5 -130t-149.5 -39h-166v225l-65 -32l-17 39l82 41v75l-65 -32l-17 38l82 41v292h57v-264l205 102l18 -39l-223 -110v-75l205 101l18 -39l-223 -110v-204h103q83 0 130 34t72 106z" />
    <glyph glyph-name="uni2113" unicode="&#x2113;" horiz-adv-x="444" 
d="M423 87q-32 -45 -75 -68.5t-94 -23.5q-71 0 -111 43t-43 115q-39 -32 -55 -43l-15 21q22 18 33 26q35 29 37 31l2 272q1 116 43.5 167.5t109.5 51.5q53 0 80.5 -39t27.5 -107q0 -145 -197 -325v-24q0 -83 30 -119.5t74 -36.5q38 0 72.5 23t57.5 54zM165 467l1 -222
q83 81 125 150.5t42 136.5q0 58 -17 85t-57 27q-94 0 -94 -177z" />
    <glyph glyph-name="uni2116" unicode="&#x2116;" horiz-adv-x="1143" 
d="M838.5 433q-34.5 20 -54 54t-19.5 76t19.5 76t54 53.5t79.5 19.5q42 0 77 -19t55 -53t20 -77q0 -44 -20 -78t-55 -53t-77 -19q-45 0 -79.5 20zM153 0h-57v710h55l460 -616h1v616h56v-710h-56l-458 612h-1v-612zM995 484.5q31 30.5 31 78.5t-31 78.5t-77 30.5
q-48 0 -78 -31.5t-30 -77.5t30 -77.5t78 -31.5q46 0 77 30.5zM1066 306h-294v45h294v-45z" />
    <glyph glyph-name="uni2117" unicode="&#x2117;" horiz-adv-x="689" 
d="M195.5 60.5q-67.5 40.5 -107 109t-39.5 148.5t39.5 148.5t107.5 109t149 40.5t148.5 -40.5t106.5 -109t39 -148.5t-39 -148.5t-107 -109t-149 -40.5t-148.5 40.5zM472.5 96q58.5 35 92 94t33.5 128t-33.5 128t-91.5 94t-128 35t-128.5 -35t-92.5 -94t-34 -128
q0 -70 33.5 -129t92 -93.5t128.5 -34.5t128.5 35zM245 158v324h111q53 0 78.5 -26.5t25.5 -70.5q0 -49 -29.5 -73.5t-81.5 -24.5h-67v-129h-37zM347 321q40 0 57.5 18t17.5 46q0 29 -18 45.5t-50 16.5h-71v-126h64z" />
    <glyph glyph-name="trademark" unicode="&#x2122;" horiz-adv-x="676" 
d="M157 387h-39v287h-97v36h234v-36h-98v-287zM345 387h-39v323h41l119 -210l118 210h41v-323h-40v250l-106 -184h-27l-107 184v-250z" />
    <glyph glyph-name="uni2126" unicode="&#x2126;" horiz-adv-x="789" 
d="M75 0v52h174v2q-87 51 -136 133.5t-49 184.5q0 96 42 174.5t117 123.5t172 45q96 0 171.5 -45t117.5 -123.5t42 -174.5q0 -102 -49 -184.5t-136 -133.5l1 -2h173v-52h-260v52q100 50 156 132t56 187q0 82 -34.5 148.5t-96 104t-141.5 37.5t-141.5 -38t-96 -104
t-34.5 -148q0 -105 56 -187t156 -132v-52h-260z" />
    <glyph glyph-name="estimated" unicode="&#x212e;" horiz-adv-x="790" 
d="M224.5 33q-75.5 43 -117.5 116.5t-42 161.5q0 92 44 165.5t119.5 114.5t166.5 41q96 0 171.5 -43t117.5 -116.5t42 -161.5v-9h-553v-185q40 -52 101 -76.5t122 -24.5q60 0 115.5 23t90.5 63h42q-41 -52 -109.5 -82t-139.5 -30q-95 0 -170.5 43zM173 330h439l1 183
q-38 45 -97.5 68.5t-119.5 23.5q-64 0 -125 -25.5t-97 -74.5z" />
    <glyph glyph-name="oneeighth" unicode="&#x215b;" horiz-adv-x="773" 
d="M18 0zM18 299zM177 299h-46v351l-90 -61l-23 37l122 84h37v-411zM525 701l-307 -713l-45 18l308 714zM475.5 28.5q-40.5 32.5 -40.5 84.5q0 39 24.5 68.5t60.5 39.5v2q-27 7 -47 30t-20 55q0 48 37 78t99 30t98.5 -29.5t36.5 -78.5q0 -32 -20 -55t-46 -30v-2
q36 -10 60.5 -39t24.5 -69q0 -52 -41.5 -84.5t-112.5 -32.5q-73 0 -113.5 32.5zM655 257q25 18 25 49q0 29 -23.5 49t-68.5 20q-44 0 -67.5 -20t-23.5 -49q0 -31 25 -49t66 -18q42 0 67 18zM666.5 60q28.5 22 28.5 59q0 36 -29.5 59t-76.5 23t-76.5 -23t-29.5 -59
q0 -37 28.5 -59t77.5 -22t77.5 22z" />
    <glyph glyph-name="threeeighths" unicode="&#x215c;" horiz-adv-x="852" 
d="M21 0zM21 295zM21 340l21 40q54 -42 123 -42q50 0 74.5 21t24.5 57q0 37 -28 57.5t-83 20.5h-31v39h38q48 0 72 19t24 51t-23 50.5t-68 18.5q-63 0 -110 -38l-22 38q60 43 135 43q61 0 97.5 -28.5t36.5 -77.5q0 -34 -18.5 -58t-52.5 -35v-2q39 -11 60 -37t21 -65
q0 -53 -36 -85t-109 -32q-89 0 -146 45zM604 701l-307 -713l-45 18l308 714zM554.5 28.5q-40.5 32.5 -40.5 84.5q0 39 24.5 68.5t60.5 39.5v2q-27 7 -47 30t-20 55q0 48 37 78t99 30t98.5 -29.5t36.5 -78.5q0 -32 -20 -55t-46 -30v-2q36 -10 60.5 -39t24.5 -69
q0 -52 -41.5 -84.5t-112.5 -32.5q-73 0 -113.5 32.5zM734 257q25 18 25 49q0 29 -23.5 49t-68.5 20q-44 0 -67.5 -20t-23.5 -49q0 -31 25 -49t66 -18q42 0 67 18zM745.5 60q28.5 22 28.5 59q0 36 -29.5 59t-76.5 23t-76.5 -23t-29.5 -59q0 -37 28.5 -59t77.5 -22t77.5 22z
" />
    <glyph glyph-name="fiveeighths" unicode="&#x215d;" horiz-adv-x="852" 
d="M25 0zM25 295zM278 524q39 -35 39 -96t-40.5 -97t-113.5 -36q-82 0 -138 45l21 40q50 -42 117 -42q51 0 79 24t28 68q0 43 -29 67.5t-77 24.5q-55 0 -90 -24l-27 7l14 205h237v-42h-199l-9 -125q39 16 87 16q62 0 101 -35zM604 701l-307 -713l-45 18l308 714zM554.5 28.5
q-40.5 32.5 -40.5 84.5q0 39 24.5 68.5t60.5 39.5v2q-27 7 -47 30t-20 55q0 48 37 78t99 30t98.5 -29.5t36.5 -78.5q0 -32 -20 -55t-46 -30v-2q36 -10 60.5 -39t24.5 -69q0 -52 -41.5 -84.5t-112.5 -32.5q-73 0 -113.5 32.5zM734 257q25 18 25 49q0 29 -23.5 49t-68.5 20
q-44 0 -67.5 -20t-23.5 -49q0 -31 25 -49t66 -18q42 0 67 18zM745.5 60q28.5 22 28.5 59q0 36 -29.5 59t-76.5 23t-76.5 -23t-29.5 -59q0 -37 28.5 -59t77.5 -22t77.5 22z" />
    <glyph glyph-name="seveneighths" unicode="&#x215e;" horiz-adv-x="778" 
d="M21 0zM21 299zM119 299h-51l178 368h-225v43h278v-32zM530 701l-307 -713l-45 18l308 714zM480.5 28.5q-40.5 32.5 -40.5 84.5q0 39 24.5 68.5t60.5 39.5v2q-27 7 -47 30t-20 55q0 48 37 78t99 30t98.5 -29.5t36.5 -78.5q0 -32 -20 -55t-46 -30v-2q36 -10 60.5 -39
t24.5 -69q0 -52 -41.5 -84.5t-112.5 -32.5q-73 0 -113.5 32.5zM660 257q25 18 25 49q0 29 -23.5 49t-68.5 20q-44 0 -67.5 -20t-23.5 -49q0 -31 25 -49t66 -18q42 0 67 18zM671.5 60q28.5 22 28.5 59q0 36 -29.5 59t-76.5 23t-76.5 -23t-29.5 -59q0 -37 28.5 -59t77.5 -22
t77.5 22z" />
    <glyph glyph-name="arrowleft" unicode="&#x2190;" horiz-adv-x="883" 
d="M118 383h735v-56h-735l328 -327h-75l-356 356l355 354h76z" />
    <glyph glyph-name="arrowup" unicode="&#x2191;" horiz-adv-x="770" 
d="M384 837l356 -356v-75l-327 328v-735h-56v735l-327 -328v76z" />
    <glyph glyph-name="arrowright" unicode="&#x2192;" horiz-adv-x="883" 
d="M437 710h76l355 -354l-356 -356h-75l328 327h-735v56h735z" />
    <glyph glyph-name="arrowdown" unicode="&#x2193;" horiz-adv-x="770" 
d="M413 711v-735l327 328v-76l-354 -355l-356 356v75l327 -328v735h56z" />
    <glyph glyph-name="arrowboth" unicode="&#x2194;" horiz-adv-x="1288" 
d="M842 710h76l355 -354l-356 -356h-75l328 327h-1052l328 -327h-75l-356 356l355 354h76l-328 -327h1052z" />
    <glyph glyph-name="arrowupdn" unicode="&#x2195;" horiz-adv-x="770" 
d="M413 878v-1052l327 328v-76l-354 -355l-356 356v75l327 -328v1052l-327 -328v75l356 356l354 -355v-76z" />
    <glyph glyph-name="uni2196" unicode="&#x2196;" horiz-adv-x="719" 
d="M154 656l520 -519l-40 -40l-519 520v-464l-53 54v503l502 -1l54 -53h-464z" />
    <glyph glyph-name="uni2197" unicode="&#x2197;" horiz-adv-x="719" 
d="M101 657l54 53l502 1v-503l-53 -54v464l-519 -520l-40 40l520 519h-464z" />
    <glyph glyph-name="uni2198" unicode="&#x2198;" horiz-adv-x="719" 
d="M604 93v464l53 -54v-503l-502 1l-54 53h464l-520 519l40 40z" />
    <glyph glyph-name="uni2199" unicode="&#x2199;" horiz-adv-x="719" 
d="M634 613l40 -40l-520 -519h464l-54 -53l-502 -1v503l53 54v-464z" />
    <glyph glyph-name="partialdiff" unicode="&#x2202;" horiz-adv-x="567" 
d="M420 627q54 -64 76.5 -155.5t22.5 -182.5q0 -97 -30.5 -163t-84 -98.5t-123.5 -32.5q-67 0 -120.5 28t-83 78t-29.5 112q0 67 28 116.5t78 76.5t113 27q62 0 112.5 -26t82.5 -71q-8 127 -53 215.5t-141 88.5q-37 0 -70 -11t-83 -34l-17 49q97 47 179 47q89 0 143 -64z
M410 104.5q50 54.5 54 153.5q-26 53 -75 89t-115 36q-77 0 -123 -46t-46 -124q0 -46 22 -83t62.5 -58.5t92.5 -21.5q78 0 128 54.5z" />
    <glyph glyph-name="emptyset" unicode="&#x2205;" horiz-adv-x="696" 
d="M570 512q34 -41 52.5 -90.5t18.5 -103.5q0 -79 -39 -147t-106.5 -108.5t-147.5 -40.5q-55 0 -104.5 19.5t-88.5 54.5l-43 -43l-27 27l43 43q-35 39 -54 89.5t-19 105.5q0 79 39 147t106.5 108.5t148.5 40.5q55 0 105 -19.5t89 -55.5l37 37l27 -27zM115.5 230
q15.5 -42 44.5 -75l351 352q-33 29 -74.5 45t-87.5 16q-69 0 -126 -34t-90 -91.5t-33 -124.5q0 -46 15.5 -88zM473 102q57 34 90 91.5t33 124.5q0 45 -15 86.5t-43 75.5l-352 -352q33 -28 74.5 -44t87.5 -16q68 0 125 34z" />
    <glyph glyph-name="uni2206" unicode="&#x2206;" horiz-adv-x="650" 
d="M615 0h-580v46l258 664h61l261 -664v-46zM324 640l-225 -588h451l-225 588h-1z" />
    <glyph glyph-name="product" unicode="&#x220f;" horiz-adv-x="687" 
d="M147 -101h-57v811h507v-811h-57v759h-393v-759z" />
    <glyph glyph-name="summation" unicode="&#x2211;" horiz-adv-x="592" 
d="M553 -90h-494v44l227 357l-227 355v44h494v-52h-418v-3l217 -344l-217 -345l1 -3h417v-53z" />
    <glyph glyph-name="minus" unicode="&#x2212;" horiz-adv-x="600" 
d="M532 252h-464v49h464v-49z" />
    <glyph glyph-name="radical" unicode="&#x221a;" horiz-adv-x="670" 
d="M350 0h-41l-167 499h-108v49h151l155 -470h2l330 744h45z" />
    <glyph glyph-name="infinity" unicode="&#x221e;" horiz-adv-x="776" 
d="M640 409.5q36 -20.5 57 -56.5t21 -80t-21.5 -79.5t-57.5 -56t-78 -20.5q-48 0 -91 27t-83 89q-73 -116 -172 -116q-43 0 -79 20.5t-57 56.5t-21 79q0 45 21.5 81t57.5 56t78 20q47 0 90 -27t83 -89q37 55 79 85.5t94 30.5q43 0 79 -20.5zM288 188q35 26 72 85
q-33 53 -67.5 82.5t-76.5 29.5q-46 0 -79 -32t-33 -80q0 -47 33 -79t79 -32q37 0 72 26zM638.5 194q32.5 32 32.5 79q0 48 -32.5 80t-77.5 32q-38 0 -73.5 -26.5t-71.5 -85.5q32 -52 67 -81.5t78 -29.5q45 0 77.5 32z" />
    <glyph glyph-name="integral" unicode="&#x222b;" horiz-adv-x="315" 
d="M-12 -169q-14 0 -20 1l4 43h8q32 0 47 9t21.5 29.5t14.5 70.5l87 579q8 50 20 77.5t34 40t60 13.5q19 0 39 -4l-4 -40l-17 1q-33 0 -47.5 -8t-20.5 -28.5t-14 -73.5l-87 -581q-8 -49 -20.5 -76t-34.5 -39.5t-60 -13.5h-10z" />
    <glyph glyph-name="uni2236" unicode="&#x2236;" horiz-adv-x="217" 
d="M67 56zM67 61zM80 475.5q-13 12.5 -13 31.5t13 31.5t32 12.5t32 -12.5t13 -31.5t-13 -31.5t-32 -12.5t-32 12.5zM80 68.5q-13 12.5 -13 31.5t13 31.5t32 12.5t32 -12.5t13 -31.5t-13 -31.5t-32 -12.5t-32 12.5z" />
    <glyph glyph-name="approxequal" unicode="&#x2248;" horiz-adv-x="602" 
d="M367.5 337q-22.5 6 -55.5 18q-31 12 -56 18.5t-51 6.5q-37 0 -68.5 -12.5t-51.5 -26.5l-16 38q19 17 55.5 33.5t79.5 16.5q30 0 55 -6.5t57 -19.5q29 -11 50 -17t45 -6q32 0 56 13t49 36l16 -40q-25 -26 -52.5 -42t-65.5 -16q-24 0 -46.5 6zM367.5 121q-22.5 6 -55.5 18
q-31 12 -56 18.5t-51 6.5q-37 0 -68.5 -12.5t-51.5 -26.5l-16 38q21 17 57 33.5t78 16.5q30 0 55 -6.5t57 -19.5q29 -11 50 -17t45 -6q32 0 56 13t49 35l16 -39q-24 -26 -52 -42t-66 -16q-24 0 -46.5 6z" />
    <glyph glyph-name="notequal" unicode="&#x2260;" horiz-adv-x="575" 
d="M531 414v-50h-178l-82 -176h260v-49h-283l-61 -132l-38 15l54 117h-136v49h159l82 176h-241v50h264l63 135l38 -16l-55 -119h154z" />
    <glyph glyph-name="lessequal" unicode="&#x2264;" horiz-adv-x="582" 
d="M497 196v-54l-440 207v39l440 208v-54l-365 -173zM498 50v-50h-441v50h441z" />
    <glyph glyph-name="greaterequal" unicode="&#x2265;" horiz-adv-x="579" 
d="M523 349l-440 -207v54l365 173l-365 173v54l440 -208v-39zM524 0h-442v50h442v-50z" />
    <glyph glyph-name="filledbox" unicode="&#x25a0;" horiz-adv-x="652" 
d="M601 0h-552v551h552v-551z" />
    <glyph glyph-name="uni25A1" unicode="&#x25a1;" horiz-adv-x="652" 
d="M601 0h-552v551h552v-551zM94 506v-461h461v461h-461z" />
    <glyph glyph-name="triagup" unicode="&#x25b2;" horiz-adv-x="643" 
d="M635 0h-627l314 580z" />
    <glyph glyph-name="uni25B3" unicode="&#x25b3;" horiz-adv-x="643" 
d="M635 0h-627l314 580zM322 484l-238 -439h474z" />
    <glyph glyph-name="uni25B6" unicode="&#x25b6;" horiz-adv-x="642" 
d="M634 275l-579 -313v627z" />
    <glyph glyph-name="uni25B7" unicode="&#x25b7;" horiz-adv-x="642" 
d="M634 275l-579 -313v627zM100 513v-475l438 237z" />
    <glyph glyph-name="triagdn" unicode="&#x25bc;" horiz-adv-x="643" 
d="M635 551l-313 -579l-314 579h627z" />
    <glyph glyph-name="uni25BD" unicode="&#x25bd;" horiz-adv-x="643" 
d="M635 551l-313 -579l-314 579h627zM84 506l238 -439l236 439h-474z" />
    <glyph glyph-name="uni25C0" unicode="&#x25c0;" horiz-adv-x="642" 
d="M588 589v-627l-580 313z" />
    <glyph glyph-name="uni25C1" unicode="&#x25c1;" horiz-adv-x="642" 
d="M588 589v-627l-580 313zM103 275l439 -237v475z" />
    <glyph glyph-name="uni25C6" unicode="&#x25c6;" horiz-adv-x="694" 
d="M687 275l-339 -339l-340 339l340 340z" />
    <glyph glyph-name="uni25C7" unicode="&#x25c7;" horiz-adv-x="694" 
d="M687 275l-339 -339l-340 339l340 340zM72 275l276 -275l275 275l-275 276z" />
    <glyph glyph-name="lozenge" unicode="&#x25ca;" horiz-adv-x="450" 
d="M406 338l-182 -338l-180 338l180 339zM101 338l123 -244l124 244l-125 245z" />
    <glyph glyph-name="circle" unicode="&#x25cb;" horiz-adv-x="644" 
d="M183 33q-64 38 -101.5 102t-37.5 140q0 77 37.5 141.5t101.5 102t139 37.5t139 -37.5t101 -102t37 -141.5q0 -76 -37.5 -140t-101 -102t-138.5 -38t-139 38zM437.5 73.5q53.5 31.5 84.5 85t31 116.5t-31 117t-84 85.5t-116 31.5q-62 0 -115.5 -31.5t-84.5 -85.5t-31 -117
t31 -116.5t84.5 -85t115.5 -31.5t115.5 31.5z" />
    <glyph glyph-name="uni25CF" unicode="&#x25cf;" horiz-adv-x="644" 
d="M183 33q-64 38 -101.5 102t-37.5 140q0 77 37.5 141.5t101.5 102t139 37.5t139 -37.5t101 -102t37 -141.5q0 -76 -37.5 -140t-101 -102t-138.5 -38t-139 38z" />
    <glyph glyph-name="uni2605" unicode="&#x2605;" horiz-adv-x="757" 
d="M378 128l-227 -165l87 267l-228 167h282l86 268l88 -268h282l-229 -167l88 -267z" />
    <glyph glyph-name="uni2606" unicode="&#x2606;" horiz-adv-x="757" 
d="M378 128l-227 -165l87 267l-228 167h282l86 268l88 -268h282l-229 -167l88 -267zM282 243l-59 -182l155 113l156 -113l-59 182l157 114h-194l-60 183l-59 -183h-193z" />
    <glyph glyph-name="uni2610" unicode="&#x2610;" horiz-adv-x="778" 
d="M601 0h-552v551h552v-551zM94 506v-461h461v461h-461z" />
    <glyph glyph-name="uni2713" unicode="&#x2713;" horiz-adv-x="662" 
d="M207 151l424 529l34 -27l-455 -571l-183 189l33 32z" />
    <glyph glyph-name="uni2715" unicode="&#x2715;" horiz-adv-x="662" 
d="M287 209l-137 -135l-31 30l137 137l-137 138l31 31l137 -137l137 137l32 -31l-137 -139l137 -136l-32 -30z" />
    <glyph glyph-name="uni2780" unicode="&#x2780;" horiz-adv-x="768" 
d="M205 38q-82 48 -130.5 130t-48.5 179t48.5 179t130.5 130.5t179 48.5t179 -48.5t130.5 -130.5t48.5 -179t-48.5 -179t-130.5 -130t-179 -48t-179 48zM542 74.5q72 42.5 114.5 114.5t42.5 158t-42.5 158t-114.5 114.5t-158 42.5t-158 -42.5t-114.5 -114.5t-42.5 -158
t42.5 -158t114.5 -114.5t158 -42.5t158 42.5zM416 143h-46v351l-90 -61l-23 37l122 84h37v-411z" />
    <glyph glyph-name="uni2781" unicode="&#x2781;" horiz-adv-x="768" 
d="M205 38q-82 48 -130.5 130t-48.5 179t48.5 179t130.5 130.5t179 48.5t179 -48.5t130.5 -130.5t48.5 -179t-48.5 -179t-130.5 -130t-179 -48t-179 48zM542 74.5q72 42.5 114.5 114.5t42.5 158t-42.5 158t-114.5 114.5t-158 42.5t-158 -42.5t-114.5 -114.5t-42.5 -158
t42.5 -158t114.5 -114.5t158 -42.5t158 42.5zM252 143v34l151 139q37 35 54 60.5t17 55.5q0 37 -25 59.5t-67 22.5q-57 0 -110 -44l-23 40q65 49 135 49q63 0 100.5 -34t37.5 -90q0 -36 -20 -69.5t-65 -74.5l-113 -103l1 -2h203v-43h-276z" />
    <glyph glyph-name="uni2782" unicode="&#x2782;" horiz-adv-x="768" 
d="M205 38q-82 48 -130.5 130t-48.5 179t48.5 179t130.5 130.5t179 48.5t179 -48.5t130.5 -130.5t48.5 -179t-48.5 -179t-130.5 -130t-179 -48t-179 48zM542 74.5q72 42.5 114.5 114.5t42.5 158t-42.5 158t-114.5 114.5t-158 42.5t-158 -42.5t-114.5 -114.5t-42.5 -158
t42.5 -158t114.5 -114.5t158 -42.5t158 42.5zM241 184l21 40q54 -42 123 -42q50 0 74.5 21t24.5 57q0 37 -28 57.5t-83 20.5h-31v39h38q48 0 72 19t24 51t-23 50.5t-68 18.5q-63 0 -110 -38l-22 38q60 43 135 43q61 0 97 -28.5t36 -77.5q0 -34 -18 -58t-52 -35v-2
q39 -11 60 -37t21 -65q0 -53 -36 -85t-109 -32q-89 0 -146 45z" />
    <glyph glyph-name="uni2783" unicode="&#x2783;" horiz-adv-x="768" 
d="M563 656.5q82 -48.5 130.5 -130.5t48.5 -179t-48.5 -179t-130.5 -130t-179 -48t-179 48t-130.5 130t-48.5 179t48.5 179t130.5 130.5t179 48.5t179 -48.5zM542 74.5q72 42.5 114.5 114.5t42.5 158t-42.5 158t-114.5 114.5t-158 42.5t-158 -42.5t-114.5 -114.5t-42.5 -158
t42.5 -158t114.5 -114.5t158 -42.5t158 42.5zM426 554h37v-283h65v-42h-65v-86h-46v86h-211v33zM422 488l-167 -220h167v220z" />
    <glyph glyph-name="uni2784" unicode="&#x2784;" horiz-adv-x="768" 
d="M563 656.5q82 -48.5 130.5 -130.5t48.5 -179t-48.5 -179t-130.5 -130t-179 -48t-179 48t-130.5 130t-48.5 179t48.5 179t130.5 130.5t179 48.5t179 -48.5zM542 74.5q72 42.5 114.5 114.5t42.5 158t-42.5 158t-114.5 114.5t-158 42.5t-158 -42.5t-114.5 -114.5t-42.5 -158
t42.5 -158t114.5 -114.5t158 -42.5t158 42.5zM494.5 368q39.5 -35 39.5 -96t-40.5 -97t-113.5 -36q-44 0 -77 11t-61 34l21 40q27 -22 54.5 -32t61.5 -10q52 0 80 24t28 68q0 43 -29.5 67.5t-76.5 24.5q-54 0 -91 -24l-26 7l13 205h238v-42h-199l-9 -125q39 16 86 16
q62 0 101.5 -35z" />
    <glyph glyph-name="uni2785" unicode="&#x2785;" horiz-adv-x="768" 
d="M563 656.5q82 -48.5 130.5 -130.5t48.5 -179t-48.5 -179t-130.5 -130t-179 -48t-179 48t-130.5 130t-48.5 179t48.5 179t130.5 130.5t179 48.5t179 -48.5zM542 74.5q72 42.5 114.5 114.5t42.5 158t-42.5 158t-114.5 114.5t-158 42.5t-158 -42.5t-114.5 -114.5t-42.5 -158
t42.5 -158t114.5 -114.5t158 -42.5t158 42.5zM493 368q37 -34 37 -94q0 -59 -39 -97.5t-106 -38.5q-74 0 -115.5 52t-41.5 148q0 121 52 170.5t124 49.5q25 0 53 -5t47 -13l-15 -40q-17 7 -41 11.5t-44 4.5q-65 0 -97 -44t-35 -122q21 24 53.5 38t67.5 14q63 0 100 -34z
M457 206q27 25 27 69q0 41 -26 64.5t-71 23.5q-37 0 -67.5 -19t-45.5 -47q7 -57 35.5 -86.5t75.5 -29.5q45 0 72 25z" />
    <glyph glyph-name="uni2786" unicode="&#x2786;" horiz-adv-x="768" 
d="M205 38q-82 48 -130.5 130t-48.5 179t48.5 179t130.5 130.5t179 48.5t179 -48.5t130.5 -130.5t48.5 -179t-48.5 -179t-130.5 -130t-179 -48t-179 48zM542 74.5q72 42.5 114.5 114.5t42.5 158t-42.5 158t-114.5 114.5t-158 42.5t-158 -42.5t-114.5 -114.5t-42.5 -158
t42.5 -158t114.5 -114.5t158 -42.5t158 42.5zM352 143h-51l178 368h-225v43h278v-32z" />
    <glyph glyph-name="uni2787" unicode="&#x2787;" horiz-adv-x="768" 
d="M205 38q-82 48 -130.5 130t-48.5 179t48.5 179t130.5 130.5t179 48.5t179 -48.5t130.5 -130.5t48.5 -179t-48.5 -179t-130.5 -130t-179 -48t-179 48zM542 74.5q72 42.5 114.5 114.5t42.5 158t-42.5 158t-114.5 114.5t-158 42.5t-158 -42.5t-114.5 -114.5t-42.5 -158
t42.5 -158t114.5 -114.5t158 -42.5t158 42.5zM273.5 171.5q-40.5 32.5 -40.5 84.5q0 39 24.5 68.5t60.5 39.5v2q-27 7 -47 30t-20 55q0 48 37 78t99 30t98.5 -29.5t36.5 -78.5q0 -32 -20 -55t-46 -30v-2q36 -10 60.5 -39t24.5 -69q0 -52 -41 -84.5t-113 -32.5
q-73 0 -113.5 32.5zM453 400q25 18 25 49q0 29 -23.5 49t-67.5 20q-45 0 -68.5 -20t-23.5 -49q0 -31 25 -49t67 -18q41 0 66 18zM464.5 203q28.5 22 28.5 59q0 36 -29.5 59t-76.5 23t-76.5 -23t-29.5 -59q0 -37 28.5 -59t77.5 -22t77.5 22z" />
    <glyph glyph-name="uni2788" unicode="&#x2788;" horiz-adv-x="768" 
d="M563 656.5q82 -48.5 130.5 -130.5t48.5 -179t-48.5 -179t-130.5 -130t-179 -48t-179 48t-130.5 130t-48.5 179t48.5 179t130.5 130.5t179 48.5t179 -48.5zM542 74.5q72 42.5 114.5 114.5t42.5 158t-42.5 158t-114.5 114.5t-158 42.5t-158 -42.5t-114.5 -114.5t-42.5 -158
t42.5 -158t114.5 -114.5t158 -42.5t158 42.5zM505.5 506q41.5 -52 41.5 -148q0 -120 -52.5 -170t-123.5 -50q-26 0 -54.5 5t-48.5 14l14 41q16 -8 41 -12.5t47 -4.5q65 0 97.5 44t35.5 121q-21 -24 -53.5 -38t-68.5 -14q-62 0 -99 34t-37 92q0 60 39 99t106 39
q74 0 115.5 -52zM455.5 352.5q30.5 19.5 45.5 47.5q-7 56 -36.5 85.5t-74.5 29.5t-72.5 -25t-27.5 -69q0 -41 26 -64.5t71 -23.5q38 0 68.5 19.5z" />
    <glyph glyph-name="uni278A" unicode="&#x278a;" horiz-adv-x="768" 
d="M205 38q-82 48 -130.5 130t-48.5 179t48.5 179t130.5 130.5t179 48.5t179 -48.5t130.5 -130.5t48.5 -179t-48.5 -179t-130.5 -130t-179 -48t-179 48zM369 494v-351h46v411h-37l-122 -84l23 -37z" />
    <glyph glyph-name="uni278B" unicode="&#x278b;" horiz-adv-x="768" 
d="M205 38q-82 48 -130.5 130t-48.5 179t48.5 179t130.5 130.5t179 48.5t179 -48.5t130.5 -130.5t48.5 -179t-48.5 -179t-130.5 -130t-179 -48t-179 48zM250 143h276v43h-203l-1 2l113 103q45 41 65 74.5t20 69.5q0 56 -37.5 90t-100.5 34q-70 0 -135 -49l23 -40
q53 44 110 44q42 0 67 -22.5t25 -59.5q0 -30 -17 -55.5t-54 -60.5l-151 -139v-34z" />
    <glyph glyph-name="uni278C" unicode="&#x278c;" horiz-adv-x="768" 
d="M205 38q-82 48 -130.5 130t-48.5 179t48.5 179t130.5 130.5t179 48.5t179 -48.5t130.5 -130.5t48.5 -179t-48.5 -179t-130.5 -130t-179 -48t-179 48zM494.5 171q35.5 32 35.5 85q0 39 -21 65t-60 37v2q34 11 52.5 35t18.5 57q0 50 -36 78.5t-97 28.5q-75 0 -135 -43
l22 -38q47 38 110 38q45 0 68 -19t23 -51q0 -31 -24.5 -50t-71.5 -19h-36v-39h29q55 0 83 -20.5t28 -57.5q0 -35 -24.5 -56.5t-73.5 -21.5q-70 0 -124 42l-21 -40q57 -45 147 -45q72 0 107.5 32z" />
    <glyph glyph-name="uni278D" unicode="&#x278d;" horiz-adv-x="768" 
d="M205 38q-82 48 -130.5 130t-48.5 179t48.5 179t130.5 130.5t179 48.5t179 -48.5t130.5 -130.5t48.5 -179t-48.5 -179t-130.5 -130t-179 -48t-179 48zM414 229v-86h46v86h65v42h-65v283h-37l-216 -292v-33h207zM418 269h-163l163 216v-216z" />
    <glyph glyph-name="uni278E" unicode="&#x278e;" horiz-adv-x="768" 
d="M205 38q-82 48 -130.5 130t-48.5 179t48.5 179t130.5 130.5t179 48.5t179 -48.5t130.5 -130.5t48.5 -179t-48.5 -179t-130.5 -130t-179 -48t-179 48zM492 175.5q40 36.5 40 96.5q0 61 -39.5 96t-101.5 35q-48 0 -86 -16l9 125h199v42h-238l-13 -205l26 -7q37 24 91 24
q47 0 76.5 -24.5t29.5 -68.5q0 -43 -28 -67t-79 -24q-67 0 -117 42l-21 -40q28 -23 61.5 -34t79.5 -11q71 0 111 36.5z" />
    <glyph glyph-name="uni278F" unicode="&#x278f;" horiz-adv-x="768" 
d="M205 38q-82 48 -130.5 130t-48.5 179t48.5 179t130.5 130.5t179 48.5t179 -48.5t130.5 -130.5t48.5 -179t-48.5 -179t-130.5 -130t-179 -48t-179 48zM487 176.5q39 38.5 39 97.5q0 60 -36.5 94t-99.5 34q-36 0 -68 -15t-52 -40h-1q2 83 34.5 126t96.5 43q20 0 43.5 -4.5
t40.5 -11.5l15 40q-18 8 -46 13t-53 5q-71 0 -123 -50t-52 -171q0 -95 41.5 -147t115.5 -52q66 0 105 38.5zM307 210.5q-29 29.5 -36 85.5q15 28 45 47.5t68 19.5q45 0 71 -23.5t26 -64.5q0 -44 -27.5 -69t-71.5 -25q-46 0 -75 29.5z" />
    <glyph glyph-name="uni2790" unicode="&#x2790;" horiz-adv-x="768" 
d="M205 38q-82 48 -130.5 130t-48.5 179t48.5 179t130.5 130.5t179 48.5t179 -48.5t130.5 -130.5t48.5 -179t-48.5 -179t-130.5 -130t-179 -48t-179 48zM478 511l-178 -368h51l179 379v32h-277v-43h225z" />
    <glyph glyph-name="uni2791" unicode="&#x2791;" horiz-adv-x="768" 
d="M205 38q-82 48 -130.5 130t-48.5 179t48.5 179t130.5 130.5t179 48.5t179 -48.5t130.5 -130.5t48.5 -179t-48.5 -179t-130.5 -130t-179 -48t-179 48zM498 171.5q41 32.5 41 84.5q0 40 -24.5 69t-60.5 39v2q26 7 46 30t20 55q0 49 -36.5 78.5t-98.5 29.5t-99 -30t-37 -78
q0 -32 20 -55t47 -30v-2q-36 -10 -60.5 -39.5t-24.5 -68.5q0 -52 40.5 -84.5t113.5 -32.5q72 0 113 32.5zM318 400q-25 18 -25 49q0 29 23.5 49t68.5 20q44 0 67.5 -20t23.5 -49q0 -31 -25 -49t-66 -18q-42 0 -67 18zM307.5 203q-28.5 22 -28.5 59q0 36 29.5 59t76.5 23
t76.5 -23t29.5 -59q0 -37 -28.5 -59t-77.5 -22t-77.5 22z" />
    <glyph glyph-name="uni2792" unicode="&#x2792;" horiz-adv-x="768" 
d="M205 38q-82 48 -130.5 130t-48.5 179t48.5 179t130.5 130.5t179 48.5t179 -48.5t130.5 -130.5t48.5 -179t-48.5 -179t-130.5 -130t-179 -48t-179 48zM493 187.5q52 49.5 52 170.5q0 96 -41.5 148t-115.5 52q-67 0 -105.5 -39t-38.5 -99q0 -58 36.5 -92t98.5 -34
q37 0 69 15t52 40h1q-2 -81 -35 -124.5t-97 -43.5q-21 0 -46 5t-42 13l-14 -42q20 -9 48.5 -14t53.5 -5q72 0 124 49.5zM315 356.5q-26 23.5 -26 64.5q0 44 27.5 69t71.5 25q46 0 75 -29.5t36 -85.5q-16 -28 -46 -47.5t-67 -19.5q-45 0 -71 23.5z" />
    <glyph glyph-name="uni2E18" unicode="&#x2e18;" horiz-adv-x="403" 
d="M200 414.5q-13 12.5 -13 31.5t13 32t32 13q20 0 32.5 -12.5t12.5 -32.5q0 -19 -13 -31.5t-32 -12.5t-32 12.5zM405 -163q-32 -45 -80.5 -69t-104.5 -24q-54 0 -97 23t-67 64.5t-24 93.5q0 55 24 97t67 87l20 20q36 37 53 60.5t17 48.5l1 55h45l9 -410h-61l6 246h-1
q-6 -8 -38 -42q-41 -44 -62 -78.5t-21 -78.5q0 -61 38 -96.5t94 -35.5q42 0 80.5 20.5t62.5 57.5z" />
    <glyph glyph-name="u1F10B" unicode="&#x1f10b;" horiz-adv-x="768" 
d="M205 38q-82 48 -130.5 130t-48.5 179t48.5 179t130.5 130.5t179 48.5t179 -48.5t130.5 -130.5t48.5 -179t-48.5 -179t-130.5 -130t-179 -48t-179 48zM542 74.5q72 42.5 114.5 114.5t42.5 158t-42.5 158t-114.5 114.5t-158 42.5t-158 -42.5t-114.5 -114.5t-42.5 -158
t42.5 -158t114.5 -114.5t158 -42.5t158 42.5zM265 194q-46 56 -46 154q0 96 45 154t123 58q75 0 121 -56.5t46 -155.5q0 -95 -45 -152.5t-122 -57.5q-76 0 -122 56zM475 227.5q32 44.5 32 120.5q0 81 -33 124t-87 43q-57 0 -89 -45t-32 -122q0 -79 33.5 -122t87.5 -43
q56 0 88 44.5z" />
    <glyph glyph-name="u1F10C" unicode="&#x1f10c;" horiz-adv-x="768" 
d="M205 38q-82 48 -130.5 130t-48.5 179t48.5 179t130.5 130.5t179 48.5t179 -48.5t130.5 -130.5t48.5 -179t-48.5 -179t-130.5 -130t-179 -48t-179 48zM506.5 195.5q45.5 57.5 45.5 152.5q0 99 -46 155.5t-122 56.5q-77 0 -122.5 -58t-45.5 -154q0 -98 46 -154t122 -56
q77 0 122.5 57.5zM297 226q-33 43 -33 122q0 77 31.5 122t88.5 45q54 0 87.5 -43t33.5 -124q0 -76 -32 -120.5t-89 -44.5q-54 0 -87 43z" />
    <glyph glyph-name="NULL" 
 />
    <glyph glyph-name="uni004A0301" horiz-adv-x="533" 
d="M20 0zM121.5 24q-58.5 28 -101.5 78l35 44q43 -49 87 -73t108 -24q69 0 110.5 44t41.5 139v478h57v-478q0 -119 -53 -177.5t-154 -58.5q-72 0 -130.5 28zM458 788h-57l113 128h62z" />
    <glyph glyph-name="C.ita" horiz-adv-x="693" 
d="M203 30.5q-62 35.5 -96.5 103t-34.5 160.5q0 111 46 208t128.5 155t185.5 58q156 0 246 -139l-46 -37q-40 63 -89.5 93t-111.5 30q-87 0 -155.5 -51.5t-107 -135.5t-38.5 -177q0 -116 58.5 -182.5t161.5 -66.5q118 0 216 93l34 -42q-51 -51 -114.5 -78t-137.5 -27
q-83 0 -145 35.5z" />
    <glyph glyph-name="I.ita" horiz-adv-x="255" 
d="M126 0h-56l87 710h56z" />
    <glyph glyph-name="i.loclTRK" horiz-adv-x="237" 
d="M75 0zM144 0h-53v485h53v-485zM163 590zM87.5 603q-12.5 13 -12.5 31q0 19 12.5 31t31.5 12t31.5 -12t12.5 -31q0 -18 -12.5 -31t-31.5 -13t-31.5 13z" />
    <glyph glyph-name="uni006A0301" horiz-adv-x="198" 
d="M0 0zM-56 -187l10 49q25 -15 58 -15q67 0 67 86v552h53v-553q0 -64 -27.5 -99t-85.5 -35q-42 0 -75 15zM259 572zM135 572h-59l120 138h63z" />
    <glyph glyph-name="f.calt" horiz-adv-x="352" 
d="M107 0v438h-85v47h85v95q0 83 38 122t108 39q47 0 82 -13l-16 -45q-31 11 -64 11q-94 0 -94 -116v-93h172v-47h-172v-438h-54z" />
    <glyph glyph-name="j.calt" horiz-adv-x="213" 
d="M0 0zM-1 -198l6 49q11 -4 30 -4q50 0 50 83v555h53v-555q0 -61 -24.5 -97t-72.5 -36q-20 0 -42 5zM156 590zM80.5 603q-12.5 13 -12.5 31q0 19 12.5 31t31.5 12t31.5 -12t12.5 -31q0 -18 -12.5 -31t-31.5 -13t-31.5 13z" />
    <glyph glyph-name="uni0237.calt" horiz-adv-x="213" 
d="M-1 -198l6 49q11 -4 30 -4q50 0 50 83v555h53v-555q0 -61 -24.5 -97t-72.5 -36q-20 0 -42 5z" />
    <glyph glyph-name="jcircumflex.calt" horiz-adv-x="213" 
d="M0 0zM-1 -198l6 49q11 -4 30 -4q50 0 50 83v555h53v-555q0 -61 -24.5 -97t-72.5 -36q-20 0 -42 5zM257 560zM22 560h-57l119 133h57l116 -133h-57l-86 98h-2z" />
    <glyph glyph-name="germandbls.calt" horiz-adv-x="733" 
d="M78 0zM502 381q68 -27 106.5 -48t64 -57.5t25.5 -93.5q0 -86 -61.5 -136.5t-165.5 -50.5q-67 0 -128.5 20t-109.5 63l28 52q36 -40 93 -60.5t117 -20.5q73 0 120.5 35.5t47.5 96.5q0 42 -22.5 69t-55 42.5t-101.5 42.5q-51 19 -95 40l143 265l-1 3q-100 20 -187 20
q-96 0 -140.5 -39t-44.5 -124v-500h-57v504q0 108 59 159.5t176 51.5q56 0 131 -10t144 -27l-147 -273l38 -15z" />
    <glyph glyph-name="zero.tf" horiz-adv-x="586" 
d="M34 0zM157.5 35q-58.5 40 -91 118.5t-32.5 188.5q0 102 29.5 181t88 123.5t142.5 44.5q77 0 136 -40t91.5 -118.5t32.5 -190.5q0 -100 -29.5 -178.5t-88 -123.5t-142.5 -45q-78 0 -136.5 40zM444.5 128q52.5 80 52.5 214q0 144 -55 220.5t-148 76.5q-98 0 -151 -80.5
t-53 -216.5q0 -94 25.5 -160t71.5 -100t107 -34q98 0 150.5 80z" />
    <glyph glyph-name="one.tf" horiz-adv-x="586" 
d="M351 687v-635h148v-52h-384v52h182v567l-176 -112l-28 41l211 139h47z" />
    <glyph glyph-name="two.tf" horiz-adv-x="586" 
d="M76 0zM80 0v41l245 241q57 56 87 103.5t30 104.5q0 66 -43 107.5t-116 41.5q-91 0 -177 -72l-30 45q47 37 98 58t114 21q60 0 108 -24t75 -68.5t27 -103.5q0 -62 -31 -119.5t-96 -121.5l-207 -200l1 -2h340v-52h-425z" />
    <glyph glyph-name="three.tf" horiz-adv-x="586" 
d="M58 0zM58 64l27 48q87 -64 193 -64q89 0 134.5 37t45.5 103q0 64 -44.5 104.5t-129.5 40.5h-71v49h81q73 0 110.5 37.5t37.5 88.5q0 60 -43 95.5t-115 35.5q-49 0 -93.5 -14t-87.5 -50l-30 44q92 72 214 72q93 0 152 -47t59 -129q0 -50 -29 -93t-82 -62v-2q60 -20 94 -66
t34 -111q0 -85 -59 -135.5t-172 -50.5q-130 0 -226 69z" />
    <glyph glyph-name="four.tf" horiz-adv-x="586" 
d="M29 0zM440 0h-55v155h-356v43l364 489h47v-481h104v-51h-104v-155zM388 596l-294 -393h294v393z" />
    <glyph glyph-name="five.tf" horiz-adv-x="586" 
d="M49 0zM405.5 406q52.5 -26 83 -75t30.5 -117q0 -103 -69 -161t-182 -58q-66 0 -119 17.5t-100 51.5l27 49q47 -34 94 -50t99 -16q87 0 140 45t53 122q0 79 -53 124t-134 45q-43 0 -77 -10t-77 -30l-33 15l20 330h378v-52h-327l-14 -236q66 32 142 32q66 0 118.5 -26z" />
    <glyph glyph-name="six.tf" horiz-adv-x="586" 
d="M52 0zM428 406.5q50 -25.5 79.5 -74t29.5 -115.5q0 -65 -31 -115.5t-83.5 -78.5t-116.5 -28q-119 0 -186.5 87.5t-67.5 249.5q0 135 42.5 215.5t106 112.5t134.5 32q43 0 85.5 -9t71.5 -23l-22 -50q-28 14 -63 22t-72 8q-113 0 -171 -83.5t-58 -226.5v-4l1 -1
q33 49 87.5 78t122.5 29q61 0 111 -25.5zM394 69q40 21 63 59t23 88q0 51 -23 88t-62 57t-86 20q-71 0 -121.5 -35.5t-76.5 -89.5q13 -100 64.5 -154t130.5 -54q48 0 88 21z" />
    <glyph glyph-name="seven.tf" horiz-adv-x="586" 
d="M81 0zM227 0h-60l287 635h-373v52h434v-42z" />
    <glyph glyph-name="eight.tf" horiz-adv-x="586" 
d="M55 0zM118.5 46q-63.5 50 -63.5 140q0 68 39 117.5t103 64.5v2q-46 14 -81 55t-35 99q0 77 57 122t155 45t155 -45.5t57 -121.5q0 -59 -35.5 -100t-81.5 -54v-2q65 -15 104.5 -64.5t39.5 -117.5q0 -91 -64 -140.5t-175 -49.5t-174.5 50zM406.5 427q44.5 35 44.5 93
q0 57 -43 89t-115 32t-115 -32t-43 -89q0 -58 44.5 -93t113.5 -35t113.5 35zM427.5 85.5q47.5 39.5 47.5 105.5q0 68 -49.5 109.5t-132.5 41.5t-132.5 -41.5t-49.5 -109.5q0 -66 47.5 -105.5t134.5 -39.5t134.5 39.5z" />
    <glyph glyph-name="nine.tf" horiz-adv-x="586" 
d="M45 0zM411.5 653q56.5 -39 87 -115.5t30.5 -185.5q0 -134 -43 -213.5t-107 -111.5t-136 -32q-93 0 -163 36l23 48q59 -32 137 -32q116 0 175 82t59 224v9q-33 -48 -87 -77.5t-120 -29.5q-62 0 -112.5 25.5t-80 74t-29.5 114.5t31 116.5t84.5 78.5t118.5 28
q76 0 132.5 -39zM394 342.5q50 36.5 75 89.5q-13 100 -63.5 153.5t-127.5 53.5q-50 0 -90 -21t-63 -59.5t-23 -88.5q0 -75 49.5 -119.5t124.5 -44.5q68 0 118 36.5z" />
    <glyph glyph-name="zero.tf.zero" horiz-adv-x="586" 
d="M34 0zM157.5 35q-58.5 40 -91 118.5t-32.5 188.5q0 102 29.5 181t88 123.5t142.5 44.5q77 0 136 -40t91.5 -118.5t32.5 -190.5q0 -100 -29.5 -178.5t-88 -123.5t-142.5 -45q-78 0 -136.5 40zM444.5 128q52.5 80 52.5 214q0 144 -55 220.5t-148 76.5q-98 0 -151 -80.5
t-53 -216.5q0 -94 25.5 -160t71.5 -100t107 -34q98 0 150.5 80zM264.5 311q-12.5 12 -12.5 31q0 18 12.5 30.5t31.5 12.5q18 0 30.5 -12.5t12.5 -30.5q0 -19 -12.5 -31t-30.5 -12q-19 0 -31.5 12z" />
    <glyph glyph-name="zero.zero" horiz-adv-x="639" 
d="M182.5 35q-58.5 40 -91 118.5t-32.5 188.5q0 102 29.5 181t88 123.5t142.5 44.5q77 0 136 -40t91.5 -118.5t32.5 -190.5q0 -100 -29.5 -178.5t-88 -123.5t-142.5 -45q-78 0 -136.5 40zM469.5 128q52.5 80 52.5 214q0 144 -55 220.5t-148 76.5q-98 0 -151 -80.5
t-53 -216.5q0 -94 25.5 -160t71.5 -100t107 -34q98 0 150.5 80zM289.5 311q-12.5 12 -12.5 31q0 18 12.5 30.5t31.5 12.5q18 0 30.5 -12.5t12.5 -30.5q0 -19 -12.5 -31t-30.5 -12q-19 0 -31.5 12z" />
    </font>
</defs>
</svg>
