<?xml version="1.0" standalone="no"?>
<!DOCTYPE svg PUBLIC "-//W3C//DTD SVG 1.1//EN" "http://www.w3.org/Graphics/SVG/1.1/DTD/svg11.dtd" >
<svg xmlns="http://www.w3.org/2000/svg" xmlns:xlink="http://www.w3.org/1999/xlink" version="1.1">
<metadata>
Created by FontForge 20190801 at Tue Feb 20 16:57:54 2024
 By www-data
Copyright (c) 2017 by Kostas Bartsokas. All rights reserved.
</metadata>
<defs>
<font id="ICCFontBold" horiz-adv-x="0" >
  <font-face 
    font-family="ICCFontBold"
    font-weight="800"
    font-stretch="normal"
    units-per-em="1000"
    panose-1="0 0 9 0 0 0 0 0 0 0"
    ascent="800"
    descent="-200"
    x-height="489"
    cap-height="710"
    bbox="-710 -277 1273 1063"
    underline-thickness="58"
    underline-position="-97"
    unicode-range="U+000D-1F10C"
  />
<missing-glyph horiz-adv-x="441" 
 />
    <glyph glyph-name=".notdef" horiz-adv-x="441" 
 />
    <glyph glyph-name=".null" 
 />
    <glyph glyph-name="nonmarkingreturn" unicode="&#xd;" 
 />
    <glyph glyph-name="space" unicode=" " horiz-adv-x="242" 
 />
    <glyph glyph-name="exclam" unicode="!" horiz-adv-x="289" 
d="M201 245h-112l-27 491h166zM80.5 16.5q-26.5 25.5 -26.5 62.5t26.5 63t64.5 26q37 0 63.5 -26t26.5 -63t-26.5 -62.5t-63.5 -25.5q-38 0 -64.5 25.5z" />
    <glyph glyph-name="quotedbl" unicode="&#x22;" horiz-adv-x="444" 
d="M144 440h-116l30 270h154zM353 440h-116l30 270h155z" />
    <glyph glyph-name="numbersign" unicode="#" horiz-adv-x="643" 
d="M204 -48h-106l28 179h-99v115h117l20 128h-111v114h129l26 168h104l-26 -168h125l26 168h104l-26 -168h103l-1 -114h-120l-20 -128h114l-1 -115h-130l-28 -179h-105l28 179h-124zM269 374l-21 -128h125l20 128h-124z" />
    <glyph glyph-name="dollar" unicode="$" horiz-adv-x="564" 
d="M481 63q-53 -54 -143 -66v-114h-107v114q-121 13 -201 78l73 137q42 -34 93 -51.5t93 -17.5q33 0 50.5 13t17.5 33q0 22 -20 37t-76 32q-69 20 -113.5 42.5t-73 62t-28.5 100.5q0 81 49.5 135.5t136.5 66.5v117h108v-118q108 -13 180 -71l-89 -133q-77 60 -149 60
q-30 0 -45.5 -13t-15.5 -32t19.5 -33t67.5 -29q81 -25 127.5 -47.5t72.5 -61t26 -102.5q0 -85 -53 -139z" />
    <glyph glyph-name="percent" unicode="%" horiz-adv-x="883" 
d="M118 352.5q-43 23.5 -68 65.5t-25 96q0 50 23.5 92.5t66 67t97.5 24.5q51 0 94 -23t68 -65t25 -96q0 -50 -23.5 -92.5t-66.5 -67.5t-97 -25q-51 0 -94 23.5zM729 624l-473 -624l-98 71l474 625zM267 456.5q21 22.5 21 56.5q0 35 -21.5 57t-54.5 22q-32 0 -53 -23t-21 -56
q0 -35 21.5 -57t52.5 -22q34 0 55 22.5zM575.5 14q-42.5 23 -67.5 65t-25 96q0 51 23.5 93t66 66.5t97.5 24.5q51 0 94 -23t68 -65t25 -96q0 -50 -23.5 -92t-66 -67t-97.5 -25q-52 0 -94.5 23zM725 118q21 23 21 56q0 35 -21.5 57.5t-54.5 22.5q-32 0 -53 -23.5t-21 -56.5
q0 -34 21.5 -56.5t52.5 -22.5q34 0 55 23z" />
    <glyph glyph-name="ampersand" unicode="&#x26;" horiz-adv-x="638" 
d="M546 136l124 -136h-177l-46 50h-2q-30 -26 -80.5 -42.5t-107.5 -16.5q-69 0 -122.5 25.5t-83.5 72.5t-30 109q0 63 32 111t87 80l-9 9q-52 58 -52 132q0 54 27.5 97.5t77 68t111.5 24.5q92 0 149 -45.5t57 -126.5q0 -62 -40 -110t-112 -81l94 -104h4q21 43 21 92l142 1
q-2 -54 -18.5 -111.5t-45.5 -94.5v-4zM244.5 573.5q-18.5 -16.5 -18.5 -43.5q0 -38 35 -75l11 -12q39 17 60.5 39t21.5 54q0 25 -17 39.5t-45 14.5q-29 0 -47.5 -16.5zM355 152l-133 147q-23 -16 -35.5 -37t-12.5 -43q0 -42 29 -65.5t76 -23.5q45 0 76 19v3z" />
    <glyph glyph-name="quotesingle" unicode="'" horiz-adv-x="234" 
d="M144 440h-116l30 270h154z" />
    <glyph glyph-name="parenleft" unicode="(" horiz-adv-x="312" 
d="M169 -161q-61 91 -93 207.5t-32 247.5q0 132 32.5 249.5t93.5 207.5l111 -50q-48 -88 -73.5 -192.5t-25.5 -214.5q0 -109 25.5 -211.5t73.5 -193.5z" />
    <glyph glyph-name="parenright" unicode=")" horiz-adv-x="312" 
d="M31 -111q48 90 73 193t25 212q0 110 -25.5 214.5t-73.5 192.5l112 50q61 -90 93 -208t32 -249t-32 -247.5t-92 -207.5z" />
    <glyph glyph-name="asterisk" unicode="*" horiz-adv-x="390" 
d="M240 379h-90l5 95l-80 -50l-46 78l84 42l-84 44l46 79l80 -51l-5 94h90l-5 -94l80 49l46 -77l-84 -43l84 -43l-46 -79l-78 51z" />
    <glyph glyph-name="plus" unicode="+" horiz-adv-x="573" 
d="M352 40h-132v172h-173v131h173v173h132v-173h173v-131h-173v-172z" />
    <glyph glyph-name="comma" unicode="," horiz-adv-x="245" 
d="M130 -134h-112l30 270h154z" />
    <glyph glyph-name="hyphen" unicode="-" horiz-adv-x="384" 
d="M345 238h-306v142h306v-142z" />
    <glyph glyph-name="period" unicode="." horiz-adv-x="268" 
d="M70 16.5q-26 25.5 -26 62.5t26.5 63t63.5 26t63.5 -26t26.5 -63t-26.5 -62.5t-63.5 -25.5q-38 0 -64 25.5z" />
    <glyph glyph-name="slash" unicode="/" horiz-adv-x="441" 
d="M462 743l-379 -854l-111 50l381 854z" />
    <glyph glyph-name="zero" unicode="0" horiz-adv-x="623" 
d="M165 33q-62 42 -95 121.5t-33 189.5q0 106 32.5 185.5t94.5 123t148 43.5q85 0 146.5 -42t94.5 -121.5t33 -188.5q0 -108 -32 -187.5t-94 -122.5t-148 -43q-85 0 -147 42zM390.5 193.5q28.5 50.5 28.5 150.5q0 92 -27.5 146t-79.5 54q-50 0 -78.5 -50.5t-28.5 -149.5
q0 -93 27.5 -147t79.5 -54q50 0 78.5 50.5z" />
    <glyph glyph-name="one" unicode="1" horiz-adv-x="422" 
d="M351 0h-164v491l-104 -77l-77 120l215 153h130v-687z" />
    <glyph glyph-name="two" unicode="2" horiz-adv-x="523" 
d="M31 0l-2 106l205 216q42 44 62 77.5t20 69.5q0 32 -21 54.5t-66 22.5q-36 0 -71 -15.5t-63 -38.5l-76 131q103 73 232 73q106 0 168 -54t62 -145q0 -121 -113 -238l-107 -109l1 -3h225v-147h-456z" />
    <glyph glyph-name="three" unicode="3" horiz-adv-x="535" 
d="M119.5 8.5q-59.5 17.5 -108.5 50.5l68 134q40 -30 77.5 -45t77.5 -15q48 0 73.5 19.5t25.5 54.5q0 36 -24 58.5t-69 22.5h-57v126h62q39 0 59 18.5t20 48.5q0 32 -24.5 51.5t-67.5 19.5q-66 0 -123 -47l-83 128q41 29 98.5 46t122.5 17q107 0 170 -48.5t63 -135.5
q0 -52 -23.5 -91.5t-61.5 -63.5v-3q49 -24 77.5 -66t28.5 -101q0 -94 -65.5 -145t-179.5 -51q-77 0 -136.5 17.5z" />
    <glyph glyph-name="four" unicode="4" horiz-adv-x="578" 
d="M465 0h-158v122h-291v97l323 468h126v-431h89v-134h-89v-122zM330 454l-141 -208h141v208z" />
    <glyph glyph-name="five" unicode="5" horiz-adv-x="541" 
d="M409 418.5q48 -27.5 74.5 -77.5t26.5 -116q0 -108 -69 -171t-196 -63q-130 0 -232 68l70 137q80 -58 158 -58q51 0 78.5 23.5t27.5 66.5q0 45 -30.5 68.5t-77.5 23.5q-56 0 -106 -34l-80 40l22 361h399v-146h-265l-7 -107q51 12 96 12q63 0 111 -27.5z" />
    <glyph glyph-name="six" unicode="6" horiz-adv-x="584" 
d="M447.5 419q50.5 -26 80.5 -76.5t30 -119.5q0 -109 -68.5 -170.5t-180.5 -61.5q-130 0 -201 90.5t-71 245.5q0 202 87 286t213 84q48 0 98 -11t88 -32l-63 -135q-62 35 -125 35q-58 0 -90.5 -36t-42.5 -112l2 -1q58 40 133 40q60 0 110.5 -26zM374 160q24 25 24 64
q0 42 -26 68t-67 26q-30 0 -58 -12.5t-48 -33.5q6 -63 36 -100t76 -37q39 0 63 25z" />
    <glyph glyph-name="seven" unicode="7" horiz-adv-x="492" 
d="M242 0h-172l221 542h-275v145h451v-106z" />
    <glyph glyph-name="eight" unicode="8" horiz-adv-x="573" 
d="M96.5 44q-69.5 53 -69.5 146q0 64 33.5 110.5t86.5 67.5v2q-39 16 -66 56t-27 92q0 85 64 131.5t167 46.5q104 0 168 -47t64 -131q0 -52 -26.5 -92.5t-66.5 -55.5v-2q55 -20 88 -66.5t33 -111.5q0 -95 -70 -147t-190 -52q-119 0 -188.5 53zM345 451.5q22 17.5 22 47.5
t-22 48t-60 18q-37 0 -59 -18t-22 -48q0 -29 21.5 -47t59.5 -18t60 17.5zM353 153.5q25 23.5 25 61.5t-25 62t-68 24q-42 0 -67 -23.5t-25 -62.5q0 -38 25 -61.5t67 -23.5q43 0 68 23.5z" />
    <glyph glyph-name="nine" unicode="9" horiz-adv-x="584" 
d="M476.5 606q70.5 -91 70.5 -249q0 -201 -87.5 -283.5t-215.5 -82.5q-115 0 -193 45l65 134q65 -37 128 -37q62 0 96 36.5t43 113.5h-1q-58 -40 -133 -40q-60 0 -110.5 26t-80.5 76t-30 119q0 110 68.5 171.5t180.5 61.5q129 0 199.5 -91zM214 395q26 -26 69 -26
q29 0 55.5 12.5t46.5 33.5q-6 62 -35.5 99.5t-72.5 37.5q-40 0 -64.5 -24.5t-24.5 -63.5q0 -43 26 -69z" />
    <glyph glyph-name="colon" unicode=":" horiz-adv-x="271" 
d="M45 0zM71 346.5q-26 25.5 -26 62.5t26.5 63t63.5 26t63.5 -26t26.5 -63t-26.5 -62.5t-63.5 -25.5q-38 0 -64 25.5zM71 16.5q-26 25.5 -26 62.5t26.5 63t63.5 26t63.5 -26t26.5 -63t-26.5 -62.5t-63.5 -25.5q-38 0 -64 25.5z" />
    <glyph glyph-name="semicolon" unicode=";" horiz-adv-x="253" 
d="M24 0zM68 346.5q-26 25.5 -26 62.5t26.5 63t63.5 26t63.5 -26t26.5 -63t-26.5 -62.5t-63.5 -25.5q-38 0 -64 25.5zM136 -134h-112l30 270h154z" />
    <glyph glyph-name="less" unicode="&#x3c;" horiz-adv-x="572" 
d="M524 160v-141l-470 198v108l470 203v-145l-277 -111z" />
    <glyph glyph-name="equal" unicode="=" horiz-adv-x="582" 
d="M55 97zM533 97h-478v131h478v-131zM533 327h-478v131h478v-131z" />
    <glyph glyph-name="greater" unicode="&#x3e;" horiz-adv-x="572" 
d="M527 217l-471 -198v141l278 112l-278 111v145l471 -203v-108z" />
    <glyph glyph-name="question" unicode="?" horiz-adv-x="467" 
d="M126 290q-1 37 16.5 65t52.5 65l15 15q31 33 46.5 55.5t15.5 48.5q0 30 -17.5 46.5t-48.5 16.5q-26 0 -50 -13t-43 -34l-108 99q35 42 92.5 67t121.5 25q60 0 109.5 -22t79 -66.5t29.5 -109.5q0 -53 -24 -92.5t-65 -78.5q-7 -6 -30 -26.5t-35 -37.5t-13 -32l-4 -40h-139z
M135.5 16.5q-26.5 25.5 -26.5 62.5t26.5 63t64.5 26q37 0 63 -26t26 -63t-26 -62.5t-63 -25.5q-38 0 -64.5 25.5z" />
    <glyph glyph-name="at" unicode="@" horiz-adv-x="887" 
d="M220 -101.5q-85 49.5 -134 137.5t-49 199q0 100 45.5 198t144.5 163.5t251 65.5q115 0 200 -48.5t130.5 -133t45.5 -188.5q0 -56 -20.5 -113.5t-72 -98.5t-138.5 -41q-101 0 -123 66l-3 1q-20 -27 -49.5 -42t-64.5 -15q-74 0 -118 52t-44 137q0 48 19 103.5t60.5 95
t104.5 39.5q68 0 106 -55h2l5 46h149l-27 -273q-2 -16 -2 -22q0 -21 7.5 -30.5t23.5 -9.5q30 0 51.5 26t32 63.5t10.5 69.5q0 79 -33.5 143.5t-97.5 102.5t-154 38q-120 0 -198 -51.5t-114 -129.5t-36 -160q0 -86 37.5 -153.5t103 -105.5t148.5 -38q50 0 100.5 14.5
t95.5 42.5l44 -68q-107 -77 -249 -77q-105 0 -190 49.5zM483.5 207q23.5 27 23.5 67q0 31 -16.5 50.5t-40.5 19.5q-31 0 -55.5 -26.5t-24.5 -66.5q0 -32 17 -51.5t42 -19.5q31 0 54.5 27z" />
    <glyph glyph-name="A" unicode="A" horiz-adv-x="694" 
d="M181 0h-175l261 710h160l260 -710h-174l-42 128h-248zM346 508l-78 -240h159l-79 240h-2z" />
    <glyph glyph-name="B" unicode="B" horiz-adv-x="633" 
d="M64 0v710h269q116 0 174.5 -45t58.5 -128q0 -51 -25 -93t-82 -64v-2q74 -19 109 -65.5t35 -114.5q0 -90 -59.5 -144t-174.5 -54h-305zM318 425q40 0 61 17.5t21 52.5q0 33 -21 51t-70 18h-82v-139h91zM341 145q42 0 65.5 19.5t23.5 56.5q0 36 -24.5 56.5t-70.5 20.5h-108
v-153h114z" />
    <glyph glyph-name="C" unicode="C" horiz-adv-x="708" 
d="M215.5 34q-83.5 43 -130.5 125t-47 195q0 106 43.5 188.5t127 130t199.5 47.5q80 0 152.5 -28t125.5 -85l-107 -127q-29 35 -74.5 57.5t-101.5 22.5q-52 0 -95 -25t-68.5 -71.5t-25.5 -109.5q0 -56 23.5 -102.5t68.5 -73.5t107 -27q52 0 94.5 17t82.5 52l94 -137
q-48 -44 -119.5 -68t-159.5 -24q-106 0 -189.5 43z" />
    <glyph glyph-name="D" unicode="D" horiz-adv-x="717" 
d="M64 0v710h246q111 0 194.5 -45t129 -126t45.5 -185q0 -105 -44 -185t-126.5 -124.5t-195.5 -44.5h-249zM302 149q60 0 106 27t71 74t25 104q0 59 -24.5 106t-68 74t-97.5 27h-87v-412h75z" />
    <glyph glyph-name="E" unicode="E" horiz-adv-x="613" 
d="M574 0h-510v710h496v-149h-333v-136h302v-144h-302v-132h347v-149z" />
    <glyph glyph-name="F" unicode="F" horiz-adv-x="585" 
d="M227 0h-163v710h491v-149h-328v-160h296v-148h-296v-253z" />
    <glyph glyph-name="G" unicode="G" horiz-adv-x="739" 
d="M216.5 35q-83.5 43 -131 124.5t-47.5 194.5q0 106 43.5 188.5t127 130t199.5 47.5q81 0 153.5 -26.5t124.5 -81.5l-107 -128q-30 34 -74 55t-97 21q-56 0 -100 -24.5t-69.5 -71.5t-25.5 -110q0 -91 52 -150t148 -59q71 0 126 26v89h-139v138h298v-322
q-47 -39 -126.5 -61.5t-166.5 -22.5q-105 0 -188.5 43z" />
    <glyph glyph-name="H" unicode="H" horiz-adv-x="715" 
d="M233 0h-169v710h169v-294h250v294h168v-710h-168v268h-250v-268z" />
    <glyph glyph-name="I" unicode="I" horiz-adv-x="308" 
d="M239 0h-171v710h171v-710z" />
    <glyph glyph-name="J" unicode="J" horiz-adv-x="546" 
d="M106.5 15q-58.5 24 -104.5 70l100 122q57 -61 127 -61q89 0 89 103v461h170v-457q0 -262 -256 -262q-67 0 -125.5 24z" />
    <glyph glyph-name="K" unicode="K" horiz-adv-x="672" 
d="M474 0q-25 71 -73 148.5t-104 138.5l-66 -82v-205h-167v710h167v-281h2l213 281h212l-249 -301q79 -84 148 -194.5t106 -214.5h-189z" />
    <glyph glyph-name="L" unicode="L" horiz-adv-x="582" 
d="M558 0h-494v710h171v-561h323v-149z" />
    <glyph glyph-name="M" unicode="M" horiz-adv-x="860" 
d="M230 0h-165v710h168l197 -377h2l195 377h169v-710h-166v391h-2l-144 -260h-107l-144 261h-3v-392z" />
    <glyph glyph-name="N" unicode="N" horiz-adv-x="746" 
d="M228 0h-164v710h160l291 -439l2 1v438h165v-710h-164l-288 428h-2v-428z" />
    <glyph glyph-name="O" unicode="O" horiz-adv-x="808" 
d="M214 37.5q-83 46.5 -129.5 129t-46.5 188.5t46.5 189t129.5 129.5t190 46.5q105 0 188 -46t130 -129t47 -190t-47 -189.5t-130 -128.5t-188 -46q-107 0 -190 46.5zM501.5 173.5q43.5 27.5 68 75.5t24.5 106t-24.5 106t-68 75.5t-97.5 27.5q-55 0 -98.5 -28t-68 -75.5
t-24.5 -105.5t24.5 -105.5t68 -75.5t98.5 -28q54 0 97.5 27.5z" />
    <glyph glyph-name="P" unicode="P" horiz-adv-x="612" 
d="M64 0v710h270q126 0 189.5 -66.5t63.5 -178.5q0 -116 -71 -176t-195 -60h-94v-229h-163zM302 375q55 0 83.5 24.5t28.5 69.5q0 43 -27.5 68.5t-81.5 25.5h-78v-188h75z" />
    <glyph glyph-name="Q" unicode="Q" horiz-adv-x="819" 
d="M789 84l-84 -108l-85 78q-91 -63 -215 -63q-107 0 -190.5 46.5t-130 129t-46.5 188.5t46.5 189t130 129.5t190.5 46.5q105 0 188 -46t129.5 -129t46.5 -190q0 -115 -55 -205zM238 247q25 -48 68.5 -75.5t98.5 -27.5q54 0 101 29l-62 56l71 84l61 -54q19 46 19 96
q0 58 -24 105.5t-67.5 75.5t-98.5 28t-98.5 -27.5t-68.5 -75t-25 -106.5q0 -60 25 -108z" />
    <glyph glyph-name="R" unicode="R" horiz-adv-x="648" 
d="M446 0q-55 132 -154 229h-65v-229h-163v710h277q130 0 192 -63t62 -170q0 -73 -33 -125.5t-96 -79.5q103 -110 169 -272h-189zM311 375q54 0 82.5 24.5t28.5 69.5q0 43 -27 68.5t-81 25.5h-87v-188h84z" />
    <glyph glyph-name="S" unicode="S" horiz-adv-x="569" 
d="M141.5 11q-67.5 20 -117.5 59l72 140q46 -35 96 -53t92 -18q46 0 69 16.5t23 42.5q0 28 -25 44t-95 40q-66 22 -111.5 47t-76 69t-30.5 110q0 101 68 156t180 55q74 0 137.5 -19.5t111.5 -58.5l-90 -134q-81 66 -157 66q-34 0 -55.5 -14.5t-21.5 -41.5q0 -26 23.5 -43.5
t88.5 -41.5q83 -31 125.5 -53t72.5 -63t30 -108q0 -112 -74.5 -164.5t-193.5 -52.5q-74 0 -141.5 20z" />
    <glyph glyph-name="T" unicode="T" horiz-adv-x="586" 
d="M378 0h-170v561h-185v149h541v-149h-186v-561z" />
    <glyph glyph-name="U" unicode="U" horiz-adv-x="700" 
d="M135 65.5q-79 74.5 -79 220.5v424h168v-414q0 -68 32.5 -108.5t92.5 -40.5q58 0 93 37.5t35 111.5v414h167v-424q0 -142 -77 -218.5t-218 -76.5q-135 0 -214 74.5z" />
    <glyph glyph-name="V" unicode="V" horiz-adv-x="688" 
d="M418 0h-146l-262 710h182l153 -475h2l152 475h181z" />
    <glyph glyph-name="W" unicode="W" horiz-adv-x="1025" 
d="M387 0h-149l-223 710h181l119 -443h2l112 443h168l109 -442h3l120 442h181l-225 -710h-148l-121 472h-2z" />
    <glyph glyph-name="X" unicode="X" horiz-adv-x="706" 
d="M208 0h-193l227 355l-218 355h193l136 -229h2l138 229h189l-218 -354l227 -356h-197l-141 231h-3z" />
    <glyph glyph-name="Y" unicode="Y" horiz-adv-x="636" 
d="M402 0h-170v304l-231 406h191l125 -244h2l123 244h193l-233 -406v-304z" />
    <glyph glyph-name="Z" unicode="Z" horiz-adv-x="613" 
d="M572 0h-531v130l308 429l-2 2h-295v149h519v-126l-316 -432l2 -3h315v-149z" />
    <glyph glyph-name="bracketleft" unicode="[" horiz-adv-x="353" 
d="M316 -150h-258v885h258v-113h-127v-657h127v-115z" />
    <glyph glyph-name="backslash" unicode="\" horiz-adv-x="443" 
d="M476 -61l-110 -50l-379 854l109 50z" />
    <glyph glyph-name="bracketright" unicode="]" horiz-adv-x="353" 
d="M295 735v-885h-258v115h127v657h-127v113h258z" />
    <glyph glyph-name="asciicircum" unicode="^" horiz-adv-x="456" 
d="M156 500h-115l134 210h105l135 -210h-120l-67 118z" />
    <glyph glyph-name="underscore" unicode="_" horiz-adv-x="528" 
d="M534 -131h-541v104h541v-104z" />
    <glyph glyph-name="grave" unicode="`" horiz-adv-x="492" 
d="M358 524h-142l-123 149l159 -1z" />
    <glyph glyph-name="a" unicode="a" horiz-adv-x="549" 
d="M536 3q-33 -9 -71 -9q-47 0 -76.5 14t-42.5 37h-2q-25 -29 -67 -41.5t-90 -12.5q-77 0 -119 40.5t-42 109.5q0 155 201 156h95v2q0 38 -21 57.5t-66 19.5q-66 0 -139 -34l-39 122q87 34 193 34q77 0 124.5 -18t72 -65t24.5 -132v-126q0 -38 35 -38q14 0 24 2zM277.5 113
q19.5 9 30 22t10.5 25v49h-74q-31 0 -49 -14t-18 -39q0 -24 14 -38t43 -14q24 0 43.5 9z" />
    <glyph glyph-name="b" unicode="b" horiz-adv-x="604" 
d="M204 52h-2v-52h-148v736h156v-299h2q26 30 61.5 45.5t77.5 15.5q63 0 114 -32.5t80 -90t29 -131.5t-29.5 -131.5t-82 -89.5t-119.5 -32q-91 0 -139 61zM386.5 161q29.5 32 29.5 83q0 52 -29.5 84t-75.5 32q-47 0 -77.5 -33t-30.5 -83q0 -52 31 -83.5t78 -31.5
q45 0 74.5 32z" />
    <glyph glyph-name="c" unicode="c" horiz-adv-x="512" 
d="M156 22.5q-62 31.5 -94 88.5t-32 131q0 76 32.5 134t93 90t141.5 32q116 0 202 -67l-85 -117q-23 20 -53 32.5t-60 12.5q-49 0 -81 -32t-32 -85t34 -82.5t96 -29.5q61 0 112 36l74 -124q-78 -51 -200 -51q-86 0 -148 31.5z" />
    <glyph glyph-name="d" unicode="d" horiz-adv-x="603" 
d="M140.5 23q-52.5 32 -82 89.5t-29.5 131.5t29.5 131.5t80 90t113.5 32.5q42 0 78 -15.5t62 -45.5h1v299h157v-736h-149v52h-2q-49 -61 -139 -61q-67 0 -119.5 32zM368.5 160.5q30.5 31.5 30.5 83.5q0 50 -30 83t-77 33q-45 0 -75 -32t-30 -84q0 -51 29.5 -83t75.5 -32
t76.5 31.5z" />
    <glyph glyph-name="e" unicode="e" horiz-adv-x="544" 
d="M518 203h-333q7 -42 40.5 -64t89.5 -22q69 0 134 35l67 -112q-48 -28 -99 -38.5t-119 -10.5q-81 0 -142 31.5t-93.5 89t-32.5 133.5q0 73 32 130.5t89.5 90t130.5 32.5q71 0 125.5 -31.5t84 -88t29.5 -128.5q0 -17 -3 -47zM218.5 353.5q-25.5 -20.5 -32.5 -57.5h184
q-7 37 -30 57.5t-60 20.5q-36 0 -61.5 -20.5z" />
    <glyph glyph-name="f" unicode="f" horiz-adv-x="373" 
d="M74 0v363h-67v126h67v71q0 92 47.5 139t138.5 47q44 0 86.5 -10.5t69.5 -29.5l-55 -115q-42 23 -79 23q-24 0 -37.5 -16t-13.5 -49v-60h120v-126h-120v-363h-157z" />
    <glyph glyph-name="g" unicode="g" horiz-adv-x="594" 
d="M158 -197.5q-54 9.5 -102 33.5l57 124q72 -36 150 -36q61 0 94.5 26.5t33.5 66.5v45l-2 1q-52 -54 -135 -54q-65 0 -116.5 31t-80.5 86t-29 124q0 71 28.5 127.5t78 88.5t110.5 32q40 0 76.5 -14.5t63.5 -42.5h2v48h157v-425q0 -128 -61.5 -199.5t-202.5 -71.5
q-68 0 -122 9.5zM364.5 178q29.5 30 29.5 76t-29.5 75.5t-73.5 29.5q-45 0 -74.5 -29.5t-29.5 -76.5t29.5 -76t74.5 -29q44 0 73.5 30z" />
    <glyph glyph-name="h" unicode="h" horiz-adv-x="587" 
d="M54 0v736h156v-302l2 -1q28 32 67 48.5t84 16.5q176 0 176 -203v-295h-156v256q0 57 -19.5 80t-62.5 23t-67 -28t-24 -84v-247h-156z" />
    <glyph glyph-name="i" unicode="i" horiz-adv-x="274" 
d="M44 0zM215 0h-156v489h156v-489zM231 550zM70.5 576q-26.5 26 -26.5 64q0 37 26.5 62.5t66.5 25.5t67 -25.5t27 -62.5q0 -38 -27 -64t-67 -26t-66.5 26z" />
    <glyph glyph-name="j" unicode="j" horiz-adv-x="267" 
d="M0 0zM-50 -188l25 125q21 -12 41 -12q22 0 32.5 13.5t10.5 43.5v507h156v-509q0 -98 -39 -142.5t-121 -44.5q-64 0 -105 19zM232 550zM71.5 576q-26.5 26 -26.5 64q0 37 26.5 62.5t66.5 25.5t67 -25.5t27 -62.5q0 -38 -27 -64t-67 -26t-66.5 26z" />
    <glyph glyph-name="k" unicode="k" horiz-adv-x="550" 
d="M549 489l-177 -206q51 -64 97 -138t78 -145h-172q-46 98 -119 192l-48 -55v-137h-154v736h154v-430l2 -1l154 184h185z" />
    <glyph glyph-name="l" unicode="l" horiz-adv-x="346" 
d="M90 29.5q-36 39.5 -36 126.5v580h156v-542q0 -38 10 -55t37 -17q30 0 63 15l19 -124q-51 -23 -133 -23q-80 0 -116 39.5z" />
    <glyph glyph-name="m" unicode="m" horiz-adv-x="880" 
d="M54 0v489h156v-58h1q28 33 63.5 50t74.5 17q100 0 142 -73h2q29 36 71 54.5t94 18.5q82 0 127.5 -51t45.5 -162v-285h-156v249q0 110 -71 110q-36 0 -59 -29.5t-23 -84.5v-245h-156v249q0 110 -71 110q-38 0 -61.5 -29t-23.5 -85v-245h-156z" />
    <glyph glyph-name="n" unicode="n" horiz-adv-x="582" 
d="M54 0v489h156v-57h2q28 33 66 49.5t81 16.5q175 0 175 -205v-293h-156v255q0 58 -19 81t-59 23q-42 0 -66 -28.5t-24 -84.5v-246h-156z" />
    <glyph glyph-name="o" unicode="o" horiz-adv-x="589" 
d="M157 23.5q-60 32.5 -93.5 90t-33.5 130.5q0 74 33.5 131.5t93.5 90t138 32.5q76 0 136 -32t94 -90t34 -132t-34 -131.5t-94 -89.5t-136 -32q-78 0 -138 32.5zM370.5 161.5q30.5 32.5 30.5 82.5q0 51 -30 83t-76 32q-47 0 -77 -32.5t-30 -82.5q0 -49 30.5 -82t76.5 -33
q45 0 75.5 32.5z" />
    <glyph glyph-name="p" unicode="p" horiz-adv-x="604" 
d="M54 -198v687h156v-52h2q26 30 62 45.5t77 15.5q63 0 114 -32.5t80 -90t29 -131.5t-29.5 -131.5t-82 -89.5t-119.5 -32q-82 0 -131 57l-2 -1v-245h-156zM386.5 161q29.5 32 29.5 83q0 52 -29.5 84t-75.5 32q-47 0 -77.5 -33t-30.5 -83q0 -52 31 -83.5t78 -31.5
q45 0 74.5 32z" />
    <glyph glyph-name="q" unicode="q" horiz-adv-x="604" 
d="M395 -198v246l-2 1q-47 -58 -133 -58q-66 0 -118.5 32t-82 89.5t-29.5 131.5t29 131.5t80 90t114 32.5q86 0 139 -61h2v52h157v-687h-156zM369.5 160.5q30.5 31.5 30.5 83.5q0 50 -30.5 83t-76.5 33t-75.5 -32t-29.5 -84q0 -51 29.5 -83t75.5 -32t76.5 31.5z" />
    <glyph glyph-name="r" unicode="r" horiz-adv-x="441" 
d="M54 0v489h156v-70h2q55 79 158 79q44 0 75 -13l-36 -150q-43 15 -84 15q-57 0 -86 -29t-29 -99v-222h-156z" />
    <glyph glyph-name="s" unicode="s" horiz-adv-x="446" 
d="M21 34l60 115q67 -40 139 -40q32 0 46 7t14 21t-16.5 23t-64.5 21q-84 20 -127.5 56.5t-43.5 102.5q0 74 52 116t147 42q102 0 184 -45l-64 -112q-27 20 -58.5 29.5t-60.5 9.5q-54 0 -54 -30q0 -12 19 -22t73 -23q87 -22 125 -55.5t38 -99.5q0 -76 -54 -117.5t-167 -41.5
q-107 0 -187 43z" />
    <glyph glyph-name="t" unicode="t" horiz-adv-x="411" 
d="M76 155v208h-69v126h69v160l157 16v-176h142v-126h-142v-177q0 -64 51 -64q31 0 67 25l48 -121q-34 -19 -71.5 -27t-89.5 -8q-162 0 -162 164z" />
    <glyph glyph-name="u" unicode="u" horiz-adv-x="570" 
d="M46 199v290h156v-251q0 -59 17.5 -84t57.5 -25q37 0 61.5 30.5t24.5 87.5v242h157v-489h-157v55l-2 1q-27 -32 -62.5 -48.5t-76.5 -16.5q-176 0 -176 208z" />
    <glyph glyph-name="v" unicode="v" horiz-adv-x="540" 
d="M341 0h-142l-190 489h166l95 -304h1l97 304h163z" />
    <glyph glyph-name="w" unicode="w" horiz-adv-x="766" 
d="M302 0h-127l-164 489h162l74 -275h1l74 275h121l74 -275h2l75 275h161l-165 -489h-125l-82 287h-1z" />
    <glyph glyph-name="x" unicode="x" horiz-adv-x="525" 
d="M180 0h-170l166 252l-163 237h176l72 -126h1l73 126h176l-163 -238l166 -251h-171l-80 127h-1z" />
    <glyph glyph-name="y" unicode="y" horiz-adv-x="538" 
d="M-16 -169l57 122q35 -28 74 -28q29 0 46 19t31 60l9 24l-192 461h167l98 -270h2l93 270h159l-177 -467q-32 -84 -59 -131t-68.5 -72.5t-106.5 -25.5q-76 0 -133 38z" />
    <glyph glyph-name="z" unicode="z" horiz-adv-x="488" 
d="M461 0h-430v104l211 259v3h-195v123h402v-103l-215 -260l1 -2h226v-124z" />
    <glyph glyph-name="braceleft" unicode="{" horiz-adv-x="354" 
d="M241 -148q-51 0 -86.5 37.5t-35.5 96.5v171q0 27 -4.5 42.5t-22.5 26t-58 10.5v113q39 0 57.5 12t23 27.5t4.5 39.5v173q0 57 34 95.5t88 38.5h82v-100h-21q-31 0 -42.5 -20t-11.5 -43v-168q0 -45 -12.5 -71t-39.5 -39v-1q20 -9 30.5 -19t16 -31.5t5.5 -61.5v-162
q0 -34 10.5 -50.5t43.5 -16.5h21v-100h-82z" />
    <glyph glyph-name="bar" unicode="|" horiz-adv-x="315" 
d="M219 -115h-123v852h123v-852z" />
    <glyph glyph-name="braceright" unicode="}" horiz-adv-x="354" 
d="M31 -148v100h20q33 0 44 16.5t11 50.5v162q0 40 5.5 61.5t16 31.5t30.5 19v1q-27 13 -39.5 39t-12.5 71v168q0 22 -12 42.5t-43 20.5h-20v100h82q54 0 87.5 -38.5t33.5 -95.5v-173q0 -24 4.5 -39.5t23.5 -27.5t58 -12v-113q-40 0 -58.5 -10.5t-23 -26t-4.5 -42.5v-171
q0 -60 -35 -97t-86 -37h-82z" />
    <glyph glyph-name="asciitilde" unicode="~" horiz-adv-x="565" 
d="M325.5 196q-21.5 6 -52.5 18q-20 9 -33.5 13t-28.5 4q-38 0 -64 -43l-104 42q20 61 58.5 98.5t90.5 37.5q32 0 53.5 -6.5t49.5 -18.5q27 -15 58 -15q40 0 65 43l103 -35q-19 -63 -57 -103.5t-88 -40.5q-29 0 -50.5 6z" />
    <glyph glyph-name="uni00A0" unicode="&#xa0;" horiz-adv-x="242" 
 />
    <glyph glyph-name="exclamdown" unicode="&#xa1;" horiz-adv-x="289" 
d="M208.5 472q26.5 -26 26.5 -63q0 -36 -26.5 -62t-63.5 -26t-64 26t-27 62q0 37 26.5 63t64.5 26q37 0 63.5 -26zM62 -248l27 491h112l27 -491h-166z" />
    <glyph glyph-name="cent" unicode="&#xa2;" horiz-adv-x="531" 
d="M510 135q-27 -32 -70 -55t-97 -32v-95h-104v95q-61 10 -108 44t-73.5 87.5t-26.5 118.5q0 98 57 165t151 84v91h104v-90q50 -8 93 -31.5t72 -61.5l-105 -89q-40 47 -102 47q-50 0 -81 -31.5t-31 -81.5q0 -51 31.5 -83.5t81.5 -32.5q34 0 59 13t42 32z" />
    <glyph glyph-name="sterling" unicode="&#xa3;" horiz-adv-x="562" 
d="M39 0v147h60v150h-52v111h52v41q0 127 63 186.5t159 59.5q66 0 115.5 -25.5t87.5 -75.5l-100 -93q-16 23 -38.5 35.5t-47.5 12.5q-33 0 -53 -22.5t-20 -80.5v-38h143v-111h-141v-150h272v-147h-500z" />
    <glyph glyph-name="currency" unicode="&#xa4;" horiz-adv-x="509" 
d="M414 298l80 -81l-69 -70l-81 82q-43 -24 -91 -24q-47 0 -90 24l-81 -81l-69 69l81 82q-23 40 -23 89t23 89l-81 83l69 69l82 -81q43 24 90 24t90 -24l81 82l69 -70l-80 -82q24 -43 24 -90t-24 -90zM308 336.5q22 22.5 23 53.5q0 32 -22.5 55t-54.5 23q-32 -1 -54.5 -23.5
t-23.5 -54.5q0 -31 23 -53.5t55 -23.5q32 1 54 23.5z" />
    <glyph glyph-name="yen" unicode="&#xa5;" horiz-adv-x="607" 
d="M412 687h195l-173 -318h89v-87h-135v-49h135v-86h-135v-147h-170v147h-144v86h144v49h-144v87h98l-172 318h193l109 -239h2z" />
    <glyph glyph-name="brokenbar" unicode="&#xa6;" horiz-adv-x="315" 
d="M219 384h-123v353h123v-353zM219 -114h-123v351h123v-351z" />
    <glyph glyph-name="section" unicode="&#xa7;" horiz-adv-x="541" 
d="M470.5 94q12.5 -28 12.5 -68q0 -89 -59 -134.5t-162 -45.5q-51 0 -104 13.5t-99 40.5l60 133q75 -50 138 -50q32 0 47.5 11t15.5 31q0 12 -7.5 21t-28.5 19.5t-64 27.5q-60 23 -96.5 43.5t-59 52t-22.5 78.5q0 41 18 74t53 55q-50 44 -50 115q0 82 55.5 132t157.5 50
q51 0 102.5 -13.5t91.5 -40.5l-67 -120q-65 34 -124 34q-54 0 -54 -39q0 -16 14 -27t55 -28l26 -11q73 -31 108 -50t55 -47t20 -73q0 -44 -18 -78t-52 -56q25 -22 37.5 -50zM210.5 255.5q18.5 -15.5 76.5 -38.5q6 -3 13 -5.5t14 -5.5q19 6 28.5 18t9.5 27q0 13 -7 22.5
t-28.5 21.5t-65.5 29l-22 9q-17 -5 -27 -17.5t-10 -24.5q0 -20 18.5 -35.5z" />
    <glyph glyph-name="dieresis" unicode="&#xa8;" horiz-adv-x="532" 
d="M87.5 552.5q-26.5 25.5 -26.5 63.5q0 36 26.5 61.5t66.5 25.5t67 -25t27 -62q0 -38 -27 -63.5t-67 -25.5t-66.5 25.5zM311.5 552.5q-26.5 25.5 -26.5 63.5q0 36 26.5 61.5t66.5 25.5t66.5 -25t26.5 -62q0 -38 -26.5 -63.5t-66.5 -25.5t-66.5 25.5z" />
    <glyph glyph-name="copyright" unicode="&#xa9;" horiz-adv-x="723" 
d="M198 38q-74 44 -117 119t-43 162t43 162t117.5 119.5t163.5 44.5t163 -44t117 -119t43 -163q0 -87 -43 -161.5t-117.5 -119t-163.5 -44.5t-163 44zM476 120q52 31 82 84t30 115q0 63 -29.5 116t-81.5 83.5t-115 30.5q-64 0 -116 -31t-82 -84t-30 -116t29.5 -115.5
t81.5 -83t116 -30.5q63 0 115 31zM249.5 197q-47.5 43 -47.5 120q0 70 44 116.5t122 46.5q36 0 70 -15t60 -47l-61 -52q-12 14 -30.5 24t-38.5 10q-33 0 -55 -22.5t-22 -60.5q0 -36 21 -59.5t56 -23.5q19 0 38 9.5t31 24.5l61 -54q-23 -27 -56 -43.5t-74 -16.5
q-71 0 -118.5 43z" />
    <glyph glyph-name="ordfeminine" unicode="&#xaa;" horiz-adv-x="390" 
d="M58.5 428q-37.5 43 -37.5 112q0 68 36.5 110.5t94.5 42.5q53 0 90 -42h2v36h106v-295h-106v28h-2q-29 -35 -84 -35q-62 0 -99.5 43zM225.5 500q15.5 15 15.5 39t-15.5 39.5t-38.5 15.5q-24 0 -40 -15.5t-16 -39.5t16 -39t40 -15q23 0 38.5 15z" />
    <glyph glyph-name="guillemotleft" unicode="&#xab;" horiz-adv-x="530" 
d="M174 247l116 -201h-147l-114 201l116 205h146zM399 247l117 -201h-147l-114 201l115 205h147z" />
    <glyph glyph-name="logicalnot" unicode="&#xac;" horiz-adv-x="541" 
d="M500 139h-132v163h-327v130h459v-293z" />
    <glyph glyph-name="registered" unicode="&#xae;" horiz-adv-x="723" 
d="M525 601q74 -44 117 -119t43 -163q0 -87 -43 -161.5t-117.5 -119t-163.5 -44.5t-163 44t-117 119t-43 162t43 162t117.5 119.5t163.5 44.5t163 -44zM476 120q52 31 82 84t30 115q0 63 -29.5 116t-81.5 83.5t-115 30.5q-64 0 -116 -31t-82 -84t-30 -116t29.5 -115.5
t81.5 -83t116 -30.5q63 0 115 31zM474.5 309q-14.5 -25 -41.5 -37l72 -113h-96l-61 100h-22v-100h-82v324h129q58 0 87 -31t29 -83q0 -35 -14.5 -60zM326 408v-75h28q22 0 35 10t13 28q0 16 -12.5 26.5t-35.5 10.5h-28z" />
    <glyph glyph-name="macron" unicode="&#xaf;" horiz-adv-x="439" 
d="M376 549h-313v120h313v-120z" />
    <glyph glyph-name="degree" unicode="&#xb0;" horiz-adv-x="373" 
d="M115 457q-33 19 -52 51.5t-19 70.5t20 70.5t53 51.5t70 19t70 -19.5t53 -52t20 -71.5q0 -37 -19.5 -69t-52.5 -51t-71 -19q-39 0 -72 19zM224 541q15 15 15 38q0 22 -15.5 38t-36.5 16q-22 0 -37.5 -16t-15.5 -39q0 -22 15.5 -37t37.5 -15t37 15z" />
    <glyph glyph-name="plusminus" unicode="&#xb1;" horiz-adv-x="584" 
d="M53 0zM358 186h-132v172h-173v131h173v173h132v-173h173v-131h-173v-172zM531 0h-478v131h478v-131z" />
    <glyph glyph-name="uni00B2" unicode="&#xb2;" horiz-adv-x="330" 
d="M8 435zM17 435l-1 76l122 126q25 25 37.5 43.5t12.5 34.5q0 31 -40 31q-39 0 -89 -33l-51 97q33 20 69 32t80 12q73 0 112 -33t39 -93q0 -36 -18 -70t-62 -74l-48 -43l1 -2h130v-104h-294z" />
    <glyph glyph-name="uni00B3" unicode="&#xb3;" horiz-adv-x="342" 
d="M10 428zM76.5 437q-36.5 9 -66.5 28l49 100q45 -36 95 -36q51 0 51 34q0 19 -13.5 28t-43.5 9h-26v84h29q26 0 38.5 9t12.5 24q0 33 -46 33q-45 0 -87 -27l-49 93q29 17 67.5 27.5t80.5 10.5q67 0 106 -30.5t39 -82.5q0 -59 -52 -92v-1q31 -14 48 -39t17 -61
q0 -56 -40.5 -88t-122.5 -32q-50 0 -86.5 9z" />
    <glyph glyph-name="acute" unicode="&#xb4;" horiz-adv-x="493" 
d="M276 533h-145l111 149l158 1z" />
    <glyph glyph-name="uni00B5" unicode="&#xb5;" horiz-adv-x="576" 
d="M52 -198v687h156v-247q0 -59 19 -86t59 -27q37 0 60 29.5t23 85.5v245h157v-489h-144l-10 54h-1q-24 -30 -55 -46.5t-66 -16.5q-36 0 -55 15l-2 -2q15 -62 15 -119v-83h-156z" />
    <glyph glyph-name="paragraph" unicode="&#xb6;" horiz-adv-x="526" 
d="M275 274q-98 8 -157.5 60.5t-59.5 141.5q0 61 28.5 107t83 71.5t129.5 25.5h162v-680h-186v274z" />
    <glyph glyph-name="periodcentered" unicode="&#xb7;" horiz-adv-x="277" 
d="M54 154zM80 179.5q-26 25.5 -26 62.5t26.5 63t63.5 26t63.5 -26t26.5 -63t-26.5 -62.5t-63.5 -25.5q-38 0 -64 25.5z" />
    <glyph glyph-name="cedilla" unicode="&#xb8;" horiz-adv-x="361" 
d="M85 -187v64q23 -7 46 -7q18 0 31 6.5t13 20.5t-20 22t-53 8v38l22 41h80l-20 -35l1 -2q104 -3 104 -80q0 -37 -35.5 -59.5t-103.5 -22.5q-35 0 -65 6z" />
    <glyph glyph-name="uni00B9" unicode="&#xb9;" horiz-adv-x="281" 
d="M6 435zM234 435h-115v269l-56 -39l-57 88l140 94h88v-412z" />
    <glyph glyph-name="ordmasculine" unicode="&#xba;" horiz-adv-x="379" 
d="M66.5 428q-45.5 43 -45.5 112q0 68 45.5 110.5t117.5 42.5q73 0 118.5 -42.5t45.5 -110.5q0 -69 -45.5 -112t-118.5 -43q-72 0 -117.5 43zM222 500q15 16 15 40t-14.5 39.5t-38.5 15.5q-23 0 -37.5 -15.5t-14.5 -39.5q0 -25 14.5 -40.5t37.5 -15.5t38 16z" />
    <glyph glyph-name="guillemotright" unicode="&#xbb;" horiz-adv-x="530" 
d="M161 46h-147l117 201l-118 205h146l116 -205zM386 46h-146l116 201l-117 205h145l117 -205z" />
    <glyph glyph-name="onequarter" unicode="&#xbc;" horiz-adv-x="817" 
d="M6 0zM6 298zM234 298h-115v269l-56 -39l-57 88l140 94h88v-412zM620 679l-316 -705l-112 48l316 705zM750 412v-245h53v-99h-53v-68h-115v68h-167v69l192 275h90zM647 275l-82 -117h82v117z" />
    <glyph glyph-name="onehalf" unicode="&#xbd;" horiz-adv-x="839" 
d="M6 0zM6 298zM234 298h-115v269l-56 -39l-57 88l140 94h88v-412zM620 679l-316 -705l-112 48l316 705zM526 0l-1 76l122 126q25 25 37.5 43.5t12.5 34.5q0 31 -40 31q-39 0 -89 -33l-51 97q33 20 69 32t80 12q73 0 112 -33t39 -93q0 -36 -18 -70t-62 -74l-48 -43l1 -2h130
v-104h-294z" />
    <glyph glyph-name="threequarters" unicode="&#xbe;" horiz-adv-x="853" 
d="M10 0zM10 291zM76.5 300q-36.5 9 -66.5 28l49 100q45 -36 95 -36q51 0 51 34q0 19 -13.5 28t-43.5 9h-26v84h29q26 0 38.5 9t12.5 24q0 33 -46 33q-45 0 -87 -27l-49 93q29 17 67.5 27.5t80.5 10.5q67 0 106 -30.5t39 -82.5q0 -59 -52 -92v-1q31 -14 48 -39t17 -61
q0 -56 -40.5 -88t-122.5 -32q-50 0 -86.5 9zM656 679l-316 -705l-112 48l316 705zM786 412v-245h53v-99h-53v-68h-115v68h-167v69l192 275h90zM683 275l-82 -117h82v117z" />
    <glyph glyph-name="questiondown" unicode="&#xbf;" horiz-adv-x="446" 
d="M331.5 472q26.5 -26 26.5 -63q0 -36 -27 -62t-64 -26t-63 26t-26 62q0 37 26 63t63 26q38 0 64.5 -26zM341 198q1 -38 -17.5 -66t-39.5 -50t-27 -28q-32 -36 -47 -57.5t-15 -47.5q0 -29 17.5 -45.5t48.5 -16.5q26 0 50 12.5t43 34.5l108 -100q-35 -41 -93 -66.5
t-121 -25.5q-94 0 -156 51t-62 148q0 52 24 91.5t65 78.5l17 16q30 26 44.5 43.5t16.5 36.5l4 40h139z" />
    <glyph glyph-name="Agrave" unicode="&#xc0;" horiz-adv-x="694" 
d="M6 0zM181 0h-175l261 710h160l260 -710h-174l-42 128h-248zM346 508l-78 -240h159l-79 240h-2zM427 761h-142l-126 140h160z" />
    <glyph glyph-name="Aacute" unicode="&#xc1;" horiz-adv-x="694" 
d="M6 0zM181 0h-175l261 710h160l260 -710h-174l-42 128h-248zM346 508l-78 -240h159l-79 240h-2zM419 761h-141l108 140h159z" />
    <glyph glyph-name="Acircumflex" unicode="&#xc2;" horiz-adv-x="694" 
d="M6 0zM181 0h-175l261 710h160l260 -710h-174l-42 128h-248zM346 508l-78 -240h159l-79 240h-2zM299 761h-133l95 140h168l98 -140h-136l-45 65h-2z" />
    <glyph glyph-name="Atilde" unicode="&#xc3;" horiz-adv-x="694" 
d="M6 0zM181 0h-175l261 710h160l260 -710h-174l-42 128h-248zM346 508l-78 -240h159l-79 240h-2zM390.5 767.5q-17.5 6.5 -44.5 20.5q-19 10 -31.5 15t-23.5 5q-33 0 -54 -46l-90 35q17 50 49.5 82.5t77.5 32.5q30 0 50.5 -7t39.5 -20q15 -9 26.5 -13.5t24.5 -4.5
q32 0 53 46l90 -29q-18 -55 -50 -89t-76 -34q-24 0 -41.5 6.5z" />
    <glyph glyph-name="Adieresis" unicode="&#xc4;" horiz-adv-x="694" 
d="M6 0zM181 0h-175l261 710h160l260 -710h-174l-42 128h-248zM346 508l-78 -240h159l-79 240h-2zM551 756zM551 756zM167.5 781.5q-26.5 25.5 -26.5 63.5q0 36 26.5 61.5t66.5 25.5t67 -25t27 -62q0 -38 -27 -63.5t-67 -25.5t-66.5 25.5zM391.5 781.5
q-26.5 25.5 -26.5 63.5q0 36 26.5 61.5t66.5 25.5t66.5 -25t26.5 -62q0 -38 -26.5 -63.5t-66.5 -25.5t-66.5 25.5z" />
    <glyph glyph-name="Aring" unicode="&#xc5;" horiz-adv-x="694" 
d="M6 0zM181 0h-175l261 710h160l260 -710h-174l-42 128h-248zM346 508l-78 -240h159l-79 240h-2zM457 745zM269 775q-32 30 -32 76q0 44 30.5 74.5t79.5 30.5q46 0 78 -29.5t32 -75.5q0 -44 -30.5 -75t-79.5 -31q-46 0 -78 30zM372.5 827q10.5 11 10.5 25q0 15 -10.5 25.5
t-25.5 10.5t-25 -10.5t-10 -25.5t10 -25.5t25 -10.5t25.5 11z" />
    <glyph glyph-name="AE" unicode="&#xc6;" horiz-adv-x="957" 
d="M178 0h-176l322 710h587v-149h-325v-136h294v-144h-294v-132h339v-149h-500v128h-191zM429 582l-137 -320h139v320h-2z" />
    <glyph glyph-name="Ccedilla" unicode="&#xc7;" horiz-adv-x="708" 
d="M405 -29v-2q105 -3 105 -80q0 -37 -35.5 -59.5t-104.5 -22.5q-34 0 -64 6v64q23 -7 46 -7q17 0 30.5 6.5t13.5 20.5t-20 22t-53 8v38l16 30q-89 13 -157 59t-106 122.5t-38 177.5q0 106 43.5 188.5t127 130t199.5 47.5q80 0 152.5 -28t125.5 -85l-107 -127
q-29 35 -74.5 57.5t-101.5 22.5q-52 0 -95 -25t-68.5 -71.5t-25.5 -109.5q0 -56 23.5 -102.5t68.5 -73.5t107 -27q52 0 94.5 17t82.5 52l94 -137q-47 -42 -115.5 -66.5t-152.5 -25.5z" />
    <glyph glyph-name="Egrave" unicode="&#xc8;" horiz-adv-x="613" 
d="M64 0zM574 0h-510v710h496v-149h-333v-136h302v-144h-302v-132h347v-149zM426 759h-142l-126 140h160z" />
    <glyph glyph-name="Eacute" unicode="&#xc9;" horiz-adv-x="613" 
d="M64 0zM574 0h-510v710h496v-149h-333v-136h302v-144h-302v-132h347v-149zM345 759h-141l108 140h159z" />
    <glyph glyph-name="Ecircumflex" unicode="&#xca;" horiz-adv-x="613" 
d="M64 0zM574 0h-510v710h496v-149h-333v-136h302v-144h-302v-132h347v-149zM270 759h-133l95 140h168l98 -140h-136l-45 65h-2z" />
    <glyph glyph-name="Edieresis" unicode="&#xcb;" horiz-adv-x="613" 
d="M64 0zM574 0h-510v710h496v-149h-333v-136h302v-144h-302v-132h347v-149zM522 754zM522 754zM138.5 779.5q-26.5 25.5 -26.5 63.5q0 36 26.5 61.5t66.5 25.5t67 -25t27 -62q0 -38 -27 -63.5t-67 -25.5t-66.5 25.5zM362.5 779.5q-26.5 25.5 -26.5 63.5q0 36 26.5 61.5
t66.5 25.5t66.5 -25t26.5 -62q0 -38 -26.5 -63.5t-66.5 -25.5t-66.5 25.5z" />
    <glyph glyph-name="Igrave" unicode="&#xcc;" horiz-adv-x="308" 
d="M0 0zM239 0h-171v710h171v-710zM232 759h-142l-126 140h160z" />
    <glyph glyph-name="Iacute" unicode="&#xcd;" horiz-adv-x="308" 
d="M68 0zM239 0h-171v710h171v-710zM218 759h-141l108 140h159z" />
    <glyph glyph-name="Icircumflex" unicode="&#xce;" horiz-adv-x="308" 
d="M0 0zM239 0h-171v710h171v-710zM106 759h-133l95 140h168l98 -140h-136l-45 65h-2z" />
    <glyph glyph-name="Idieresis" unicode="&#xcf;" horiz-adv-x="308" 
d="M0 0zM239 0h-171v710h171v-710zM358 754zM358 754zM-25.5 779.5q-26.5 25.5 -26.5 63.5q0 36 26.5 61.5t66.5 25.5t67 -25t27 -62q0 -38 -27 -63.5t-67 -25.5t-66.5 25.5zM198.5 779.5q-26.5 25.5 -26.5 63.5q0 36 26.5 61.5t66.5 25.5t66.5 -25t26.5 -62
q0 -38 -26.5 -63.5t-66.5 -25.5t-66.5 25.5z" />
    <glyph glyph-name="Eth" unicode="&#xd0;" horiz-adv-x="717" 
d="M310 710q111 0 194.5 -45t129 -126t45.5 -185q0 -105 -44 -185t-126.5 -124.5t-195.5 -44.5h-249v279h-48v139h48v292h246zM302 149q60 0 106 27t71 74t25 104q0 59 -24.5 106t-68 74t-97.5 27h-87v-143h135v-139h-135v-130h75z" />
    <glyph glyph-name="Ntilde" unicode="&#xd1;" horiz-adv-x="746" 
d="M64 0zM228 0h-164v710h160l291 -439l2 1v438h165v-710h-164l-288 428h-2v-428zM415.5 767.5q-17.5 6.5 -44.5 20.5q-19 10 -31.5 15t-23.5 5q-33 0 -54 -46l-90 35q17 50 49.5 82.5t77.5 32.5q30 0 50.5 -7t39.5 -20q15 -9 26.5 -13.5t24.5 -4.5q32 0 53 46l90 -29
q-18 -55 -50 -89t-76 -34q-24 0 -41.5 6.5z" />
    <glyph glyph-name="Ograve" unicode="&#xd2;" horiz-adv-x="808" 
d="M38 0zM214 37.5q-83 46.5 -129.5 129t-46.5 188.5t46.5 189t129.5 129.5t190 46.5q105 0 188 -46t130 -129t47 -190t-47 -189.5t-130 -128.5t-188 -46q-107 0 -190 46.5zM501.5 173.5q43.5 27.5 68 75.5t24.5 106t-24.5 106t-68 75.5t-97.5 27.5q-55 0 -98.5 -28
t-68 -75.5t-24.5 -105.5t24.5 -105.5t68 -75.5t98.5 -28q54 0 97.5 27.5zM493 761h-142l-126 140h160z" />
    <glyph glyph-name="Oacute" unicode="&#xd3;" horiz-adv-x="808" 
d="M38 0zM214 37.5q-83 46.5 -129.5 129t-46.5 188.5t46.5 189t129.5 129.5t190 46.5q105 0 188 -46t130 -129t47 -190t-47 -189.5t-130 -128.5t-188 -46q-107 0 -190 46.5zM501.5 173.5q43.5 27.5 68 75.5t24.5 106t-24.5 106t-68 75.5t-97.5 27.5q-55 0 -98.5 -28
t-68 -75.5t-24.5 -105.5t24.5 -105.5t68 -75.5t98.5 -28q54 0 97.5 27.5zM464 761h-141l108 140h159z" />
    <glyph glyph-name="Ocircumflex" unicode="&#xd4;" horiz-adv-x="808" 
d="M38 0zM214 37.5q-83 46.5 -129.5 129t-46.5 188.5t46.5 189t129.5 129.5t190 46.5q105 0 188 -46t130 -129t47 -190t-47 -189.5t-130 -128.5t-188 -46q-107 0 -190 46.5zM501.5 173.5q43.5 27.5 68 75.5t24.5 106t-24.5 106t-68 75.5t-97.5 27.5q-55 0 -98.5 -28
t-68 -75.5t-24.5 -105.5t24.5 -105.5t68 -75.5t98.5 -28q54 0 97.5 27.5zM357 761h-133l95 140h168l98 -140h-136l-45 65h-2z" />
    <glyph glyph-name="Otilde" unicode="&#xd5;" horiz-adv-x="808" 
d="M38 0zM214 37.5q-83 46.5 -129.5 129t-46.5 188.5t46.5 189t129.5 129.5t190 46.5q105 0 188 -46t130 -129t47 -190t-47 -189.5t-130 -128.5t-188 -46q-107 0 -190 46.5zM501.5 173.5q43.5 27.5 68 75.5t24.5 106t-24.5 106t-68 75.5t-97.5 27.5q-55 0 -98.5 -28
t-68 -75.5t-24.5 -105.5t24.5 -105.5t68 -75.5t98.5 -28q54 0 97.5 27.5zM448.5 767.5q-17.5 6.5 -44.5 20.5q-19 10 -31.5 15t-23.5 5q-33 0 -54 -46l-90 35q17 50 49.5 82.5t77.5 32.5q30 0 50.5 -7t39.5 -20q15 -9 26.5 -13.5t24.5 -4.5q32 0 53 46l90 -29
q-18 -55 -50 -89t-76 -34q-24 0 -41.5 6.5z" />
    <glyph glyph-name="Odieresis" unicode="&#xd6;" horiz-adv-x="808" 
d="M38 0zM214 37.5q-83 46.5 -129.5 129t-46.5 188.5t46.5 189t129.5 129.5t190 46.5q105 0 188 -46t130 -129t47 -190t-47 -189.5t-130 -128.5t-188 -46q-107 0 -190 46.5zM501.5 173.5q43.5 27.5 68 75.5t24.5 106t-24.5 106t-68 75.5t-97.5 27.5q-55 0 -98.5 -28
t-68 -75.5t-24.5 -105.5t24.5 -105.5t68 -75.5t98.5 -28q54 0 97.5 27.5zM609 756zM609 756zM225.5 781.5q-26.5 25.5 -26.5 63.5q0 36 26.5 61.5t66.5 25.5t67 -25t27 -62q0 -38 -27 -63.5t-67 -25.5t-66.5 25.5zM449.5 781.5q-26.5 25.5 -26.5 63.5q0 36 26.5 61.5
t66.5 25.5t66.5 -25t26.5 -62q0 -38 -26.5 -63.5t-66.5 -25.5t-66.5 25.5z" />
    <glyph glyph-name="multiply" unicode="&#xd7;" horiz-adv-x="525" 
d="M263 185l-132 -132l-93 94l132 131l-132 131l93 92l131 -131l131 132l94 -93l-132 -132l131 -132l-92 -92z" />
    <glyph glyph-name="Oslash" unicode="&#xd8;" horiz-adv-x="808" 
d="M691 592q38 -47 58 -107.5t20 -129.5q0 -107 -47 -189.5t-130 -128.5t-188 -46q-118 0 -208 57l-78 -85l-69 64l75 82q-42 48 -64 110.5t-22 135.5q0 106 46.5 189t129.5 129.5t190 46.5q126 0 219 -65l77 85l68 -63zM243 239l266 292q-46 33 -105 33q-55 0 -98.5 -28
t-68 -75.5t-24.5 -105.5q0 -64 30 -116zM501.5 173.5q43.5 27.5 68 75.5t24.5 106q0 55 -24 105l-262 -288q43 -26 96 -26q54 0 97.5 27.5z" />
    <glyph glyph-name="Ugrave" unicode="&#xd9;" horiz-adv-x="700" 
d="M56 0zM135 65.5q-79 74.5 -79 220.5v424h168v-414q0 -68 32.5 -108.5t92.5 -40.5q58 0 93 37.5t35 111.5v414h167v-424q0 -142 -77 -218.5t-218 -76.5q-135 0 -214 74.5zM427 761h-142l-126 140h160z" />
    <glyph glyph-name="Uacute" unicode="&#xda;" horiz-adv-x="700" 
d="M56 0zM135 65.5q-79 74.5 -79 220.5v424h168v-414q0 -68 32.5 -108.5t92.5 -40.5q58 0 93 37.5t35 111.5v414h167v-424q0 -142 -77 -218.5t-218 -76.5q-135 0 -214 74.5zM407 761h-141l108 140h159z" />
    <glyph glyph-name="Ucircumflex" unicode="&#xdb;" horiz-adv-x="700" 
d="M56 0zM135 65.5q-79 74.5 -79 220.5v424h168v-414q0 -68 32.5 -108.5t92.5 -40.5q58 0 93 37.5t35 111.5v414h167v-424q0 -142 -77 -218.5t-218 -76.5q-135 0 -214 74.5zM302 761h-133l95 140h168l98 -140h-136l-45 65h-2z" />
    <glyph glyph-name="Udieresis" unicode="&#xdc;" horiz-adv-x="700" 
d="M56 0zM135 65.5q-79 74.5 -79 220.5v424h168v-414q0 -68 32.5 -108.5t92.5 -40.5q58 0 93 37.5t35 111.5v414h167v-424q0 -142 -77 -218.5t-218 -76.5q-135 0 -214 74.5zM553 756zM553 756zM169.5 781.5q-26.5 25.5 -26.5 63.5q0 36 26.5 61.5t66.5 25.5t67 -25t27 -62
q0 -38 -27 -63.5t-67 -25.5t-66.5 25.5zM393.5 781.5q-26.5 25.5 -26.5 63.5q0 36 26.5 61.5t66.5 25.5t66.5 -25t26.5 -62q0 -38 -26.5 -63.5t-66.5 -25.5t-66.5 25.5z" />
    <glyph glyph-name="Yacute" unicode="&#xdd;" horiz-adv-x="636" 
d="M1 0zM402 0h-170v304l-231 406h191l125 -244h2l123 244h193l-233 -406v-304zM376 761h-141l108 140h159z" />
    <glyph glyph-name="Thorn" unicode="&#xde;" horiz-adv-x="636" 
d="M64 0v710h163v-118h129q126 0 189 -67t63 -178q0 -114 -71 -173.5t-194 -59.5h-116v-114h-163zM324 260q54 0 82.5 24.5t28.5 66.5t-27 67.5t-81 25.5h-100v-184h97z" />
    <glyph glyph-name="germandbls" unicode="&#xdf;" horiz-adv-x="611" 
d="M275 -9v137h47q49 0 78.5 29t29.5 74q0 47 -32 76t-87 29h-26v127h19q44 0 66.5 23.5t22.5 52.5q0 32 -24.5 52.5t-66.5 20.5q-45 0 -68 -26.5t-23 -85.5v-500h-157v489q0 127 65 192t184 65q78 0 132.5 -26.5t82 -69.5t27.5 -94q0 -39 -17 -75t-56 -61v-2
q54 -26 84.5 -78.5t30.5 -117.5q0 -107 -63 -169t-171 -62h-78z" />
    <glyph glyph-name="agrave" unicode="&#xe0;" horiz-adv-x="549" 
d="M26 0zM536 3q-33 -9 -71 -9q-47 0 -76.5 14t-42.5 37h-2q-25 -29 -67 -41.5t-90 -12.5q-77 0 -119 40.5t-42 109.5q0 155 201 156h95v2q0 38 -21 57.5t-66 19.5q-66 0 -139 -34l-39 122q87 34 193 34q77 0 124.5 -18t72 -65t24.5 -132v-126q0 -38 35 -38q14 0 24 2z
M277.5 113q19.5 9 30 22t10.5 25v49h-74q-31 0 -49 -14t-18 -39q0 -24 14 -38t43 -14q24 0 43.5 9zM372 548zM372 548h-142l-123 149l159 -1z" />
    <glyph glyph-name="aacute" unicode="&#xe1;" horiz-adv-x="549" 
d="M26 0zM536 3q-33 -9 -71 -9q-47 0 -76.5 14t-42.5 37h-2q-25 -29 -67 -41.5t-90 -12.5q-77 0 -119 40.5t-42 109.5q0 155 201 156h95v2q0 38 -21 57.5t-66 19.5q-66 0 -139 -34l-39 122q87 34 193 34q77 0 124.5 -18t72 -65t24.5 -132v-126q0 -38 35 -38q14 0 24 2z
M277.5 113q19.5 9 30 22t10.5 25v49h-74q-31 0 -49 -14t-18 -39q0 -24 14 -38t43 -14q24 0 43.5 9zM437 547zM313 547h-145l111 149l158 1z" />
    <glyph glyph-name="acircumflex" unicode="&#xe2;" horiz-adv-x="549" 
d="M26 0zM536 3q-33 -9 -71 -9q-47 0 -76.5 14t-42.5 37h-2q-25 -29 -67 -41.5t-90 -12.5q-77 0 -119 40.5t-42 109.5q0 155 201 156h95v2q0 38 -21 57.5t-66 19.5q-66 0 -139 -34l-39 122q87 34 193 34q77 0 124.5 -18t72 -65t24.5 -132v-126q0 -38 35 -38q14 0 24 2z
M277.5 113q19.5 9 30 22t10.5 25v49h-74q-31 0 -49 -14t-18 -39q0 -24 14 -38t43 -14q24 0 43.5 9zM451 548zM224 548h-133l95 149h168l97 -149h-136l-44 72h-2z" />
    <glyph glyph-name="atilde" unicode="&#xe3;" horiz-adv-x="549" 
d="M26 0zM536 3q-33 -9 -71 -9q-47 0 -76.5 14t-42.5 37h-2q-25 -29 -67 -41.5t-90 -12.5q-77 0 -119 40.5t-42 109.5q0 155 201 156h95v2q0 38 -21 57.5t-66 19.5q-66 0 -139 -34l-39 122q87 34 193 34q77 0 124.5 -18t72 -65t24.5 -132v-126q0 -38 35 -38q14 0 24 2z
M277.5 113q19.5 9 30 22t10.5 25v49h-74q-31 0 -49 -14t-18 -39q0 -24 14 -38t43 -14q24 0 43.5 9zM482 548zM311.5 556q-20.5 7 -42.5 20q-19 10 -30 15t-23 5q-33 0 -55 -48l-90 38q17 55 50 89t78 34q28 0 47 -6.5t41 -19.5q15 -10 26 -14.5t24 -4.5q17 0 31 12.5
t24 33.5l90 -29q-17 -59 -49.5 -95.5t-75.5 -36.5q-25 0 -45.5 7z" />
    <glyph glyph-name="adieresis" unicode="&#xe4;" horiz-adv-x="549" 
d="M26 0zM536 3q-33 -9 -71 -9q-47 0 -76.5 14t-42.5 37h-2q-25 -29 -67 -41.5t-90 -12.5q-77 0 -119 40.5t-42 109.5q0 155 201 156h95v2q0 38 -21 57.5t-66 19.5q-66 0 -139 -34l-39 122q87 34 193 34q77 0 124.5 -18t72 -65t24.5 -132v-126q0 -38 35 -38q14 0 24 2z
M277.5 113q19.5 9 30 22t10.5 25v49h-74q-31 0 -49 -14t-18 -39q0 -24 14 -38t43 -14q24 0 43.5 9zM475 551zM91.5 576.5q-26.5 25.5 -26.5 63.5q0 36 26.5 61.5t66.5 25.5t67 -25t27 -62q0 -38 -27 -63.5t-67 -25.5t-66.5 25.5zM315.5 576.5q-26.5 25.5 -26.5 63.5
q0 36 26.5 61.5t66.5 25.5t66.5 -25t26.5 -62q0 -38 -26.5 -63.5t-66.5 -25.5t-66.5 25.5z" />
    <glyph glyph-name="aring" unicode="&#xe5;" horiz-adv-x="549" 
d="M26 0zM536 3q-33 -9 -71 -9q-47 0 -76.5 14t-42.5 37h-2q-25 -29 -67 -41.5t-90 -12.5q-77 0 -119 40.5t-42 109.5q0 155 201 156h95v2q0 38 -21 57.5t-66 19.5q-66 0 -139 -34l-39 122q87 34 193 34q77 0 124.5 -18t72 -65t24.5 -132v-126q0 -38 35 -38q14 0 24 2z
M277.5 113q19.5 9 30 22t10.5 25v49h-74q-31 0 -49 -14t-18 -39q0 -24 14 -38t43 -14q24 0 43.5 9zM381 538zM193 568q-32 30 -32 76q0 44 30.5 74.5t79.5 30.5q46 0 78 -29.5t32 -75.5q0 -44 -30.5 -75t-79.5 -31q-46 0 -78 30zM296.5 620q10.5 11 10.5 25q0 15 -10.5 25.5
t-25.5 10.5t-25 -10.5t-10 -25.5t10 -25.5t25 -10.5t25.5 11z" />
    <glyph glyph-name="ae" unicode="&#xe6;" horiz-adv-x="815" 
d="M795 203h-332q7 -43 40.5 -64.5t92.5 -21.5q65 0 130 35l67 -112q-47 -27 -96 -38t-106 -11q-135 0 -195 69h-3q-30 -35 -82 -52t-117 -17q-87 0 -132 40.5t-45 109.5q0 156 201 156h94v2q0 38 -20.5 57.5t-65.5 19.5q-37 0 -70 -8.5t-68 -25.5l-40 122q85 34 190 34
q117 0 164 -61h4q28 29 70.5 45t94.5 16q107 0 167 -68.5t60 -179.5q0 -17 -3 -47zM497.5 353q-26.5 -21 -33.5 -57h183q-5 37 -27.5 57.5t-57.5 20.5q-38 0 -64.5 -21zM269 113q19 9 29.5 22t10.5 25v49h-74q-31 0 -49 -14t-18 -39q0 -24 14 -38t43 -14q25 0 44 9z" />
    <glyph glyph-name="ccedilla" unicode="&#xe7;" horiz-adv-x="512" 
d="M290 -31q105 -3 105 -80q0 -37 -35.5 -59.5t-104.5 -22.5q-34 0 -64 6v64q23 -7 46 -7q17 0 30.5 6.5t13.5 20.5t-20 22t-53 8v38l18 34q-94 19 -145 84t-51 159q0 76 32.5 134t93 90t141.5 32q116 0 202 -67l-85 -117q-23 20 -53 32.5t-60 12.5q-49 0 -81 -32t-32 -85
t34 -82.5t96 -29.5q61 0 112 36l74 -124q-78 -51 -200 -51h-3l-11 -20v-2z" />
    <glyph glyph-name="egrave" unicode="&#xe8;" horiz-adv-x="544" 
d="M30 0zM518 203h-333q7 -42 40.5 -64t89.5 -22q69 0 134 35l67 -112q-48 -28 -99 -38.5t-119 -10.5q-81 0 -142 31.5t-93.5 89t-32.5 133.5q0 73 32 130.5t89.5 90t130.5 32.5q71 0 125.5 -31.5t84 -88t29.5 -128.5q0 -17 -3 -47zM218.5 353.5q-25.5 -20.5 -32.5 -57.5
h184q-7 37 -30 57.5t-60 20.5q-36 0 -61.5 -20.5zM374 548zM374 548h-142l-123 149l159 -1z" />
    <glyph glyph-name="eacute" unicode="&#xe9;" horiz-adv-x="544" 
d="M30 0zM518 203h-333q7 -42 40.5 -64t89.5 -22q69 0 134 35l67 -112q-48 -28 -99 -38.5t-119 -10.5q-81 0 -142 31.5t-93.5 89t-32.5 133.5q0 73 32 130.5t89.5 90t130.5 32.5q71 0 125.5 -31.5t84 -88t29.5 -128.5q0 -17 -3 -47zM218.5 353.5q-25.5 -20.5 -32.5 -57.5
h184q-7 37 -30 57.5t-60 20.5q-36 0 -61.5 -20.5zM481 549zM357 549h-145l111 149l158 1z" />
    <glyph glyph-name="ecircumflex" unicode="&#xea;" horiz-adv-x="544" 
d="M30 0zM518 203h-333q7 -42 40.5 -64t89.5 -22q69 0 134 35l67 -112q-48 -28 -99 -38.5t-119 -10.5q-81 0 -142 31.5t-93.5 89t-32.5 133.5q0 73 32 130.5t89.5 90t130.5 32.5q71 0 125.5 -31.5t84 -88t29.5 -128.5q0 -17 -3 -47zM218.5 353.5q-25.5 -20.5 -32.5 -57.5
h184q-7 37 -30 57.5t-60 20.5q-36 0 -61.5 -20.5zM462 548zM235 548h-133l95 149h168l97 -149h-136l-44 72h-2z" />
    <glyph glyph-name="edieresis" unicode="&#xeb;" horiz-adv-x="544" 
d="M30 0zM518 203h-333q7 -42 40.5 -64t89.5 -22q69 0 134 35l67 -112q-48 -28 -99 -38.5t-119 -10.5q-81 0 -142 31.5t-93.5 89t-32.5 133.5q0 73 32 130.5t89.5 90t130.5 32.5q71 0 125.5 -31.5t84 -88t29.5 -128.5q0 -17 -3 -47zM218.5 353.5q-25.5 -20.5 -32.5 -57.5
h184q-7 37 -30 57.5t-60 20.5q-36 0 -61.5 -20.5zM486 551zM102.5 576.5q-26.5 25.5 -26.5 63.5q0 36 26.5 61.5t66.5 25.5t67 -25t27 -62q0 -38 -27 -63.5t-67 -25.5t-66.5 25.5zM326.5 576.5q-26.5 25.5 -26.5 63.5q0 36 26.5 61.5t66.5 25.5t66.5 -25t26.5 -62
q0 -38 -26.5 -63.5t-66.5 -25.5t-66.5 25.5z" />
    <glyph glyph-name="igrave" unicode="&#xec;" horiz-adv-x="274" 
d="M212 557h-144l-83 150l157 -1zM215 0h-156v489h156v-489z" />
    <glyph glyph-name="iacute" unicode="&#xed;" horiz-adv-x="274" 
d="M59 0zM215 0h-156v489h156v-489zM337 549zM213 549h-145l111 149l158 1z" />
    <glyph glyph-name="icircumflex" unicode="&#xee;" horiz-adv-x="274" 
d="M0 0zM215 0h-156v489h156v-489zM317 548zM90 548h-133l95 149h168l97 -149h-136l-44 72h-2z" />
    <glyph glyph-name="idieresis" unicode="&#xef;" horiz-adv-x="274" 
d="M0 0zM215 0h-156v489h156v-489zM-29 576.5q-27 26.5 -27 63.5q0 36 27 62t65 26q36 0 62.5 -26t26.5 -62q0 -37 -26.5 -63.5t-62.5 -26.5q-38 0 -65 26.5zM174.5 577q-26.5 26 -26.5 63q0 35 26.5 61.5t63.5 26.5t63.5 -26.5t26.5 -61.5q0 -37 -26.5 -63t-63.5 -26
t-63.5 26z" />
    <glyph glyph-name="eth" unicode="&#xf0;" horiz-adv-x="585" 
d="M408 589q148 -145 148 -320q0 -135 -71.5 -206.5t-191.5 -71.5q-75 0 -135 31.5t-94 87t-34 124.5q0 73 29.5 129t79.5 86.5t109 30.5q47 0 89 -21l1 1q-38 51 -93.5 93.5t-132.5 81.5l59 113q79 -37 144 -83l74 100l100 -72zM369 161.5q30 32.5 30 81.5t-29.5 80
t-76.5 31q-46 0 -75.5 -31.5t-29.5 -79.5q0 -49 30 -81.5t75 -32.5q46 0 76 32.5z" />
    <glyph glyph-name="ntilde" unicode="&#xf1;" horiz-adv-x="582" 
d="M54 0zM54 0v489h156v-57h2q28 33 66 49.5t81 16.5q175 0 175 -205v-293h-156v255q0 58 -19 81t-59 23q-42 0 -66 -28.5t-24 -84.5v-246h-156zM511 548zM340.5 556q-20.5 7 -42.5 20q-19 10 -30 15t-23 5q-33 0 -55 -48l-90 38q17 55 50 89t78 34q28 0 47 -6.5t41 -19.5
q15 -10 26 -14.5t24 -4.5q17 0 31 12.5t24 33.5l90 -29q-17 -59 -49.5 -95.5t-75.5 -36.5q-25 0 -45.5 7z" />
    <glyph glyph-name="ograve" unicode="&#xf2;" horiz-adv-x="589" 
d="M30 0zM157 23.5q-60 32.5 -93.5 90t-33.5 130.5q0 74 33.5 131.5t93.5 90t138 32.5q76 0 136 -32t94 -90t34 -132t-34 -131.5t-94 -89.5t-136 -32q-78 0 -138 32.5zM370.5 161.5q30.5 32.5 30.5 82.5q0 51 -30 83t-76 32q-47 0 -77 -32.5t-30 -82.5q0 -49 30.5 -82
t76.5 -33q45 0 75.5 32.5zM383 548zM383 548h-142l-123 149l159 -1z" />
    <glyph glyph-name="oacute" unicode="&#xf3;" horiz-adv-x="589" 
d="M30 0zM157 23.5q-60 32.5 -93.5 90t-33.5 130.5q0 74 33.5 131.5t93.5 90t138 32.5q76 0 136 -32t94 -90t34 -132t-34 -131.5t-94 -89.5t-136 -32q-78 0 -138 32.5zM370.5 161.5q30.5 32.5 30.5 82.5q0 51 -30 83t-76 32q-47 0 -77 -32.5t-30 -82.5q0 -49 30.5 -82
t76.5 -33q45 0 75.5 32.5zM492 549zM368 549h-145l111 149l158 1z" />
    <glyph glyph-name="ocircumflex" unicode="&#xf4;" horiz-adv-x="589" 
d="M30 0zM157 23.5q-60 32.5 -93.5 90t-33.5 130.5q0 74 33.5 131.5t93.5 90t138 32.5q76 0 136 -32t94 -90t34 -132t-34 -131.5t-94 -89.5t-136 -32q-78 0 -138 32.5zM370.5 161.5q30.5 32.5 30.5 82.5q0 51 -30 83t-76 32q-47 0 -77 -32.5t-30 -82.5q0 -49 30.5 -82
t76.5 -33q45 0 75.5 32.5zM475 548zM248 548h-133l95 149h168l97 -149h-136l-44 72h-2z" />
    <glyph glyph-name="otilde" unicode="&#xf5;" horiz-adv-x="589" 
d="M30 0zM157 23.5q-60 32.5 -93.5 90t-33.5 130.5q0 74 33.5 131.5t93.5 90t138 32.5q76 0 136 -32t94 -90t34 -132t-34 -131.5t-94 -89.5t-136 -32q-78 0 -138 32.5zM370.5 161.5q30.5 32.5 30.5 82.5q0 51 -30 83t-76 32q-47 0 -77 -32.5t-30 -82.5q0 -49 30.5 -82
t76.5 -33q45 0 75.5 32.5zM506 548zM335.5 556q-20.5 7 -42.5 20q-19 10 -30 15t-23 5q-33 0 -55 -48l-90 38q17 55 50 89t78 34q28 0 47 -6.5t41 -19.5q15 -10 26 -14.5t24 -4.5q17 0 31 12.5t24 33.5l90 -29q-17 -59 -49.5 -95.5t-75.5 -36.5q-25 0 -45.5 7z" />
    <glyph glyph-name="odieresis" unicode="&#xf6;" horiz-adv-x="589" 
d="M30 0zM157 23.5q-60 32.5 -93.5 90t-33.5 130.5q0 74 33.5 131.5t93.5 90t138 32.5q76 0 136 -32t94 -90t34 -132t-34 -131.5t-94 -89.5t-136 -32q-78 0 -138 32.5zM370.5 161.5q30.5 32.5 30.5 82.5q0 51 -30 83t-76 32q-47 0 -77 -32.5t-30 -82.5q0 -49 30.5 -82
t76.5 -33q45 0 75.5 32.5zM499 551zM115.5 576.5q-26.5 25.5 -26.5 63.5q0 36 26.5 61.5t66.5 25.5t67 -25t27 -62q0 -38 -27 -63.5t-67 -25.5t-66.5 25.5zM339.5 576.5q-26.5 25.5 -26.5 63.5q0 36 26.5 61.5t66.5 25.5t66.5 -25t26.5 -62q0 -38 -26.5 -63.5t-66.5 -25.5
t-66.5 25.5z" />
    <glyph glyph-name="divide" unicode="&#xf7;" horiz-adv-x="560" 
d="M217 416.5q-25 24.5 -25 59.5t25 58.5t62 23.5q38 0 63 -23.5t25 -58.5q0 -36 -25 -60t-63 -24q-37 0 -62 24.5zM522 212h-478v131h478v-131zM217 16.5q-25 24.5 -25 59.5q0 34 25 58t62 24q38 0 63 -23.5t25 -58.5q0 -36 -25 -60t-63 -24q-37 0 -62 24.5z" />
    <glyph glyph-name="oslash" unicode="&#xf8;" horiz-adv-x="589" 
d="M502 410q57 -68 57 -166q0 -74 -34 -131.5t-94 -89.5t-136 -32q-84 0 -146 37l-52 -56l-58 54l49 53q-58 67 -58 165q0 74 33.5 131.5t93.5 90t138 32.5q83 0 146 -37l50 54l58 -54zM197 197l142 153q-21 9 -44 9q-47 0 -77 -32.5t-30 -82.5q0 -26 9 -47zM370.5 161.5
q30.5 32.5 30.5 82.5q0 26 -8 48l-142 -154q20 -9 44 -9q45 0 75.5 32.5z" />
    <glyph glyph-name="ugrave" unicode="&#xf9;" horiz-adv-x="570" 
d="M46 0zM46 199v290h156v-251q0 -59 17.5 -84t57.5 -25q37 0 61.5 30.5t24.5 87.5v242h157v-489h-157v55l-2 1q-27 -32 -62.5 -48.5t-76.5 -16.5q-176 0 -176 208zM374 548zM374 548h-142l-123 149l159 -1z" />
    <glyph glyph-name="uacute" unicode="&#xfa;" horiz-adv-x="570" 
d="M46 0zM46 199v290h156v-251q0 -59 17.5 -84t57.5 -25q37 0 61.5 30.5t24.5 87.5v242h157v-489h-157v55l-2 1q-27 -32 -62.5 -48.5t-76.5 -16.5q-176 0 -176 208zM477 549zM353 549h-145l111 149l158 1z" />
    <glyph glyph-name="ucircumflex" unicode="&#xfb;" horiz-adv-x="570" 
d="M46 0zM46 199v290h156v-251q0 -59 17.5 -84t57.5 -25q37 0 61.5 30.5t24.5 87.5v242h157v-489h-157v55l-2 1q-27 -32 -62.5 -48.5t-76.5 -16.5q-176 0 -176 208zM466 548zM239 548h-133l95 149h168l97 -149h-136l-44 72h-2z" />
    <glyph glyph-name="udieresis" unicode="&#xfc;" horiz-adv-x="570" 
d="M46 0zM46 199v290h156v-251q0 -59 17.5 -84t57.5 -25q37 0 61.5 30.5t24.5 87.5v242h157v-489h-157v55l-2 1q-27 -32 -62.5 -48.5t-76.5 -16.5q-176 0 -176 208zM490 551zM106.5 576.5q-26.5 25.5 -26.5 63.5q0 36 26.5 61.5t66.5 25.5t67 -25t27 -62q0 -38 -27 -63.5
t-67 -25.5t-66.5 25.5zM330.5 576.5q-26.5 25.5 -26.5 63.5q0 36 26.5 61.5t66.5 25.5t66.5 -25t26.5 -62q0 -38 -26.5 -63.5t-66.5 -25.5t-66.5 25.5z" />
    <glyph glyph-name="yacute" unicode="&#xfd;" horiz-adv-x="538" 
d="M0 0zM-16 -169l57 122q35 -28 74 -28q29 0 46 19t31 60l9 24l-192 461h167l98 -270h2l93 270h159l-177 -467q-32 -84 -59 -131t-68.5 -72.5t-106.5 -25.5q-76 0 -133 38zM453 549zM329 549h-145l111 149l158 1z" />
    <glyph glyph-name="thorn" unicode="&#xfe;" horiz-adv-x="604" 
d="M54 -198v934h156v-298h2q26 30 61.5 45t77.5 15q63 0 114 -32.5t80 -90t29 -131.5t-29.5 -131.5t-82 -89.5t-119.5 -32q-83 0 -131 57l-2 -1v-245h-156zM386.5 161q29.5 32 29.5 83q0 52 -29.5 84t-75.5 32q-47 0 -77.5 -33t-30.5 -83q0 -52 31 -83.5t78 -31.5
q45 0 74.5 32z" />
    <glyph glyph-name="ydieresis" unicode="&#xff;" horiz-adv-x="538" 
d="M0 0zM-16 -169l57 122q35 -28 74 -28q29 0 46 19t31 60l9 24l-192 461h167l98 -270h2l93 270h159l-177 -467q-32 -84 -59 -131t-68.5 -72.5t-106.5 -25.5q-76 0 -133 38zM474 551zM90.5 576.5q-26.5 25.5 -26.5 63.5q0 36 26.5 61.5t66.5 25.5t67 -25t27 -62
q0 -38 -27 -63.5t-67 -25.5t-66.5 25.5zM314.5 576.5q-26.5 25.5 -26.5 63.5q0 36 26.5 61.5t66.5 25.5t66.5 -25t26.5 -62q0 -38 -26.5 -63.5t-66.5 -25.5t-66.5 25.5z" />
    <glyph glyph-name="Amacron" unicode="&#x100;" horiz-adv-x="694" 
d="M6 0zM181 0h-175l261 710h160l260 -710h-174l-42 128h-248zM346 508l-78 -240h159l-79 240h-2zM503 777h-313v114h313v-114z" />
    <glyph glyph-name="amacron" unicode="&#x101;" horiz-adv-x="549" 
d="M26 0zM536 3q-33 -9 -71 -9q-47 0 -76.5 14t-42.5 37h-2q-25 -29 -67 -41.5t-90 -12.5q-77 0 -119 40.5t-42 109.5q0 155 201 156h95v2q0 38 -21 57.5t-66 19.5q-66 0 -139 -34l-39 122q87 34 193 34q77 0 124.5 -18t72 -65t24.5 -132v-126q0 -38 35 -38q14 0 24 2z
M277.5 113q19.5 9 30 22t10.5 25v49h-74q-31 0 -49 -14t-18 -39q0 -24 14 -38t43 -14q24 0 43.5 9zM427 573zM427 573h-313v120h313v-120z" />
    <glyph glyph-name="Abreve" unicode="&#x102;" horiz-adv-x="694" 
d="M6 0zM181 0h-175l261 710h160l260 -710h-174l-42 128h-248zM346 508l-78 -240h159l-79 240h-2zM225.5 792q-44.5 38 -51.5 109h114q2 -20 18 -33t40 -13q25 0 41 13.5t18 32.5h114q-6 -68 -49 -107.5t-124 -39.5q-76 0 -120.5 38z" />
    <glyph glyph-name="abreve" unicode="&#x103;" horiz-adv-x="549" 
d="M26 0zM536 3q-33 -9 -71 -9q-47 0 -76.5 14t-42.5 37h-2q-25 -29 -67 -41.5t-90 -12.5q-77 0 -119 40.5t-42 109.5q0 155 201 156h95v2q0 38 -21 57.5t-66 19.5q-66 0 -139 -34l-39 122q87 34 193 34q77 0 124.5 -18t72 -65t24.5 -132v-126q0 -38 35 -38q14 0 24 2z
M277.5 113q19.5 9 30 22t10.5 25v49h-74q-31 0 -49 -14t-18 -39q0 -24 14 -38t43 -14q24 0 43.5 9zM443 539zM151.5 580.5q-47.5 41.5 -53.5 115.5h114q2 -21 18 -35t40 -14q25 0 41 14.5t18 34.5h114q-5 -70 -50.5 -113.5t-122.5 -43.5q-71 0 -118.5 41.5z" />
    <glyph glyph-name="Aogonek" unicode="&#x104;" horiz-adv-x="694" 
d="M660 0q-42 -2 -68 -22.5t-26 -46.5q0 -19 10.5 -29t27.5 -10t25.5 2t11.5 3l7 -77q-27 -11 -75 -11q-55 0 -87.5 26t-32.5 68q0 26 14.5 53t44.5 46l-41 126h-248l-42 -128h-175l261 710h160l260 -710h-27zM346 508l-78 -240h159l-79 240h-2z" />
    <glyph glyph-name="aogonek" unicode="&#x105;" horiz-adv-x="549" 
d="M483.5 -106q8.5 2 11.5 3l7 -77q-27 -11 -75 -11q-55 0 -87.5 26t-32.5 68q0 30 19 59.5t56 49.5q-24 13 -36 33h-2q-25 -29 -67 -41.5t-90 -12.5q-77 0 -119 40.5t-42 109.5q0 155 201 156h95v2q0 38 -21 57.5t-66 19.5q-66 0 -139 -34l-39 122q87 34 193 34
q77 0 124.5 -18t72 -65t24.5 -132v-126q0 -38 35 -38q14 0 24 2l6 -118q-25 -7 -56 -9q-28 -8 -44 -26t-16 -37t10.5 -29t27.5 -10t25.5 2zM277.5 113q19.5 9 30 22t10.5 25v49h-74q-31 0 -49 -14t-18 -39q0 -24 14 -38t43 -14q24 0 43.5 9z" />
    <glyph glyph-name="Cacute" unicode="&#x106;" horiz-adv-x="708" 
d="M38 0zM215.5 34q-83.5 43 -130.5 125t-47 195q0 106 43.5 188.5t127 130t199.5 47.5q80 0 152.5 -28t125.5 -85l-107 -127q-29 35 -74.5 57.5t-101.5 22.5q-52 0 -95 -25t-68.5 -71.5t-25.5 -109.5q0 -56 23.5 -102.5t68.5 -73.5t107 -27q52 0 94.5 17t82.5 52l94 -137
q-48 -44 -119.5 -68t-159.5 -24q-106 0 -189.5 43zM458 761h-141l108 140h159z" />
    <glyph glyph-name="cacute" unicode="&#x107;" horiz-adv-x="512" 
d="M30 0zM156 22.5q-62 31.5 -94 88.5t-32 131q0 76 32.5 134t93 90t141.5 32q116 0 202 -67l-85 -117q-23 20 -53 32.5t-60 12.5q-49 0 -81 -32t-32 -85t34 -82.5t96 -29.5q61 0 112 36l74 -124q-78 -51 -200 -51q-86 0 -148 31.5zM480 549zM356 549h-145l111 149l158 1z
" />
    <glyph glyph-name="Ccircumflex" unicode="&#x108;" horiz-adv-x="708" 
d="M38 0zM215.5 34q-83.5 43 -130.5 125t-47 195q0 106 43.5 188.5t127 130t199.5 47.5q80 0 152.5 -28t125.5 -85l-107 -127q-29 35 -74.5 57.5t-101.5 22.5q-52 0 -95 -25t-68.5 -71.5t-25.5 -109.5q0 -56 23.5 -102.5t68.5 -73.5t107 -27q52 0 94.5 17t82.5 52l94 -137
q-48 -44 -119.5 -68t-159.5 -24q-106 0 -189.5 43zM356 761h-133l95 140h168l98 -140h-136l-45 65h-2z" />
    <glyph glyph-name="ccircumflex" unicode="&#x109;" horiz-adv-x="512" 
d="M30 0zM156 22.5q-62 31.5 -94 88.5t-32 131q0 76 32.5 134t93 90t141.5 32q116 0 202 -67l-85 -117q-23 20 -53 32.5t-60 12.5q-49 0 -81 -32t-32 -85t34 -82.5t96 -29.5q61 0 112 36l74 -124q-78 -51 -200 -51q-86 0 -148 31.5zM470 548zM243 548h-133l95 149h168
l97 -149h-136l-44 72h-2z" />
    <glyph glyph-name="Cdotaccent" unicode="&#x10a;" horiz-adv-x="708" 
d="M38 0zM215.5 34q-83.5 43 -130.5 125t-47 195q0 106 43.5 188.5t127 130t199.5 47.5q80 0 152.5 -28t125.5 -85l-107 -127q-29 35 -74.5 57.5t-101.5 22.5q-52 0 -95 -25t-68.5 -71.5t-25.5 -109.5q0 -56 23.5 -102.5t68.5 -73.5t107 -27q52 0 94.5 17t82.5 52l94 -137
q-48 -44 -119.5 -68t-159.5 -24q-106 0 -189.5 43zM498 755zM498 755zM337.5 781q-26.5 26 -26.5 64q0 37 26.5 62.5t66.5 25.5t67 -25.5t27 -62.5q0 -38 -27 -64t-67 -26t-66.5 26z" />
    <glyph glyph-name="cdotaccent" unicode="&#x10b;" horiz-adv-x="512" 
d="M30 0zM156 22.5q-62 31.5 -94 88.5t-32 131q0 76 32.5 134t93 90t141.5 32q116 0 202 -67l-85 -117q-23 20 -53 32.5t-60 12.5q-49 0 -81 -32t-32 -85t34 -82.5t96 -29.5q61 0 112 36l74 -124q-78 -51 -200 -51q-86 0 -148 31.5zM384 550zM223.5 576q-26.5 26 -26.5 64
q0 37 26.5 62.5t66.5 25.5t67 -25.5t27 -62.5q0 -38 -27 -64t-67 -26t-66.5 26z" />
    <glyph glyph-name="Ccaron" unicode="&#x10c;" horiz-adv-x="708" 
d="M38 0zM215.5 34q-83.5 43 -130.5 125t-47 195q0 106 43.5 188.5t127 130t199.5 47.5q80 0 152.5 -28t125.5 -85l-107 -127q-29 35 -74.5 57.5t-101.5 22.5q-52 0 -95 -25t-68.5 -71.5t-25.5 -109.5q0 -56 23.5 -102.5t68.5 -73.5t107 -27q52 0 94.5 17t82.5 52l94 -137
q-48 -44 -119.5 -68t-159.5 -24q-106 0 -189.5 43zM489 761h-168l-98 140h136l45 -65h2l45 65h133z" />
    <glyph glyph-name="ccaron" unicode="&#x10d;" horiz-adv-x="512" 
d="M30 0zM156 22.5q-62 31.5 -94 88.5t-32 131q0 76 32.5 134t93 90t141.5 32q116 0 202 -67l-85 -117q-23 20 -53 32.5t-60 12.5q-49 0 -81 -32t-32 -85t34 -82.5t96 -29.5q61 0 112 36l74 -124q-78 -51 -200 -51q-86 0 -148 31.5zM470 547zM376 547h-169l-97 149h137
l44 -72h2l44 72h133z" />
    <glyph glyph-name="Dcaron" unicode="&#x10e;" horiz-adv-x="717" 
d="M64 0zM64 0v710h246q111 0 194.5 -45t129 -126t45.5 -185q0 -105 -44 -185t-126.5 -124.5t-195.5 -44.5h-249zM302 149q60 0 106 27t71 74t25 104q0 59 -24.5 106t-68 74t-97.5 27h-87v-412h75zM425 759h-168l-98 140h136l45 -65h2l45 65h133z" />
    <glyph glyph-name="dcaron" unicode="&#x10f;" horiz-adv-x="670" 
d="M29 0zM140.5 23q-52.5 32 -82 89.5t-29.5 131.5t29.5 131.5t80 90t113.5 32.5q42 0 78 -15.5t62 -45.5h1v299h157v-736h-149v52h-2q-49 -61 -139 -61q-67 0 -119.5 32zM368.5 160.5q30.5 31.5 30.5 83.5q0 50 -30 83t-77 33q-45 0 -75 -32t-30 -84q0 -51 29.5 -83
t75.5 -32t76.5 31.5zM711 577h-109l32 217h148z" />
    <glyph glyph-name="Dcroat" unicode="&#x110;" horiz-adv-x="717" 
d="M16 0zM310 710q111 0 194.5 -45t129 -126t45.5 -185q0 -105 -44 -185t-126.5 -124.5t-195.5 -44.5h-249v279h-48v139h48v292h246zM302 149q60 0 106 27t71 74t25 104q0 59 -24.5 106t-68 74t-97.5 27h-87v-143h135v-139h-135v-130h75z" />
    <glyph glyph-name="dcroat" unicode="&#x111;" horiz-adv-x="601" 
d="M605 637v-92h-55v-545h-149v52h-2q-49 -61 -139 -61q-67 0 -119.5 32t-82 89.5t-29.5 131.5t29.5 131.5t80 90t113.5 32.5q42 0 78 -15.5t62 -45.5h1v108h-165v92h165v99h157v-99h55zM368.5 160.5q30.5 31.5 30.5 83.5q0 50 -30 83t-77 33q-45 0 -75 -32t-30 -84
q0 -51 29.5 -83t75.5 -32t76.5 31.5z" />
    <glyph glyph-name="Emacron" unicode="&#x112;" horiz-adv-x="613" 
d="M64 0zM574 0h-510v710h496v-149h-333v-136h302v-144h-302v-132h347v-149zM474 775h-313v114h313v-114z" />
    <glyph glyph-name="emacron" unicode="&#x113;" horiz-adv-x="544" 
d="M30 0zM518 203h-333q7 -42 40.5 -64t89.5 -22q69 0 134 35l67 -112q-48 -28 -99 -38.5t-119 -10.5q-81 0 -142 31.5t-93.5 89t-32.5 133.5q0 73 32 130.5t89.5 90t130.5 32.5q71 0 125.5 -31.5t84 -88t29.5 -128.5q0 -17 -3 -47zM218.5 353.5q-25.5 -20.5 -32.5 -57.5
h184q-7 37 -30 57.5t-60 20.5q-36 0 -61.5 -20.5zM438 573zM438 573h-313v120h313v-120z" />
    <glyph glyph-name="Ebreve" unicode="&#x114;" horiz-adv-x="613" 
d="M64 0zM574 0h-510v710h496v-149h-333v-136h302v-144h-302v-132h347v-149zM196.5 790q-44.5 38 -51.5 109h114q2 -20 18 -33t40 -13q25 0 41 13.5t18 32.5h114q-6 -68 -49 -107.5t-124 -39.5q-76 0 -120.5 38z" />
    <glyph glyph-name="ebreve" unicode="&#x115;" horiz-adv-x="544" 
d="M30 0zM518 203h-333q7 -42 40.5 -64t89.5 -22q69 0 134 35l67 -112q-48 -28 -99 -38.5t-119 -10.5q-81 0 -142 31.5t-93.5 89t-32.5 133.5q0 73 32 130.5t89.5 90t130.5 32.5q71 0 125.5 -31.5t84 -88t29.5 -128.5q0 -17 -3 -47zM218.5 353.5q-25.5 -20.5 -32.5 -57.5
h184q-7 37 -30 57.5t-60 20.5q-36 0 -61.5 -20.5zM454 539zM162.5 580.5q-47.5 41.5 -53.5 115.5h114q2 -21 18 -35t40 -14q25 0 41 14.5t18 34.5h114q-5 -70 -50.5 -113.5t-122.5 -43.5q-71 0 -118.5 41.5z" />
    <glyph glyph-name="Edotaccent" unicode="&#x116;" horiz-adv-x="613" 
d="M64 0zM574 0h-510v710h496v-149h-333v-136h302v-144h-302v-132h347v-149zM412 753zM412 753zM251.5 779q-26.5 26 -26.5 64q0 37 26.5 62.5t66.5 25.5t67 -25.5t27 -62.5q0 -38 -27 -64t-67 -26t-66.5 26z" />
    <glyph glyph-name="edotaccent" unicode="&#x117;" horiz-adv-x="544" 
d="M30 0zM518 203h-333q7 -42 40.5 -64t89.5 -22q69 0 134 35l67 -112q-48 -28 -99 -38.5t-119 -10.5q-81 0 -142 31.5t-93.5 89t-32.5 133.5q0 73 32 130.5t89.5 90t130.5 32.5q71 0 125.5 -31.5t84 -88t29.5 -128.5q0 -17 -3 -47zM218.5 353.5q-25.5 -20.5 -32.5 -57.5
h184q-7 37 -30 57.5t-60 20.5q-36 0 -61.5 -20.5zM376 550zM215.5 576q-26.5 26 -26.5 64q0 37 26.5 62.5t66.5 25.5t67 -25.5t27 -62.5q0 -38 -27 -64t-67 -26t-66.5 26z" />
    <glyph glyph-name="Eogonek" unicode="&#x118;" horiz-adv-x="613" 
d="M227 149h347v-149h-2q-42 -2 -68 -22.5t-26 -46.5q0 -19 10.5 -29t27.5 -10t25.5 2t11.5 3l7 -77q-27 -11 -75 -11q-55 0 -87.5 26t-32.5 68q0 25 14 51.5t42 45.5h-357v710h496v-149h-333v-136h302v-144h-302v-132z" />
    <glyph glyph-name="eogonek" unicode="&#x119;" horiz-adv-x="544" 
d="M518 203h-333q7 -42 40.5 -64t89.5 -22q69 0 134 35l67 -112q-68 -39 -158 -47q-55 -26 -55 -60q0 -18 10.5 -28t28.5 -10t26 2t11 3l7 -78q-28 -12 -76 -12q-57 0 -90 26.5t-33 68.5q0 22 12 46t35 43v3q-95 17 -149.5 83.5t-54.5 164.5q0 73 32 130.5t89.5 90
t130.5 32.5q71 0 125.5 -31.5t84 -88t29.5 -128.5q0 -17 -3 -47zM218.5 353.5q-25.5 -20.5 -32.5 -57.5h184q-7 37 -30 57.5t-60 20.5q-36 0 -61.5 -20.5z" />
    <glyph glyph-name="Ecaron" unicode="&#x11a;" horiz-adv-x="613" 
d="M64 0zM574 0h-510v710h496v-149h-333v-136h302v-144h-302v-132h347v-149zM403 759h-168l-98 140h136l45 -65h2l45 65h133z" />
    <glyph glyph-name="ecaron" unicode="&#x11b;" horiz-adv-x="544" 
d="M30 0zM518 203h-333q7 -42 40.5 -64t89.5 -22q69 0 134 35l67 -112q-48 -28 -99 -38.5t-119 -10.5q-81 0 -142 31.5t-93.5 89t-32.5 133.5q0 73 32 130.5t89.5 90t130.5 32.5q71 0 125.5 -31.5t84 -88t29.5 -128.5q0 -17 -3 -47zM218.5 353.5q-25.5 -20.5 -32.5 -57.5
h184q-7 37 -30 57.5t-60 20.5q-36 0 -61.5 -20.5zM462 547zM368 547h-169l-97 149h137l44 -72h2l44 72h133z" />
    <glyph glyph-name="Gcircumflex" unicode="&#x11c;" horiz-adv-x="739" 
d="M38 0zM216.5 35q-83.5 43 -131 124.5t-47.5 194.5q0 106 43.5 188.5t127 130t199.5 47.5q81 0 153.5 -26.5t124.5 -81.5l-107 -128q-30 34 -74 55t-97 21q-56 0 -100 -24.5t-69.5 -71.5t-25.5 -110q0 -91 52 -150t148 -59q71 0 126 26v89h-139v138h298v-322
q-47 -39 -126.5 -61.5t-166.5 -22.5q-105 0 -188.5 43zM340 759h-133l95 140h168l98 -140h-136l-45 65h-2z" />
    <glyph glyph-name="gcircumflex" unicode="&#x11d;" horiz-adv-x="594" 
d="M28 0zM158 -197.5q-54 9.5 -102 33.5l57 124q72 -36 150 -36q61 0 94.5 26.5t33.5 66.5v45l-2 1q-52 -54 -135 -54q-65 0 -116.5 31t-80.5 86t-29 124q0 71 28.5 127.5t78 88.5t110.5 32q40 0 76.5 -14.5t63.5 -42.5h2v48h157v-425q0 -128 -61.5 -199.5t-202.5 -71.5
q-68 0 -122 9.5zM364.5 178q29.5 30 29.5 76t-29.5 75.5t-73.5 29.5q-45 0 -74.5 -29.5t-29.5 -76.5t29.5 -76t74.5 -29q44 0 73.5 30zM476 548zM249 548h-133l95 149h168l97 -149h-136l-44 72h-2z" />
    <glyph glyph-name="Gbreve" unicode="&#x11e;" horiz-adv-x="739" 
d="M38 0zM216.5 35q-83.5 43 -131 124.5t-47.5 194.5q0 106 43.5 188.5t127 130t199.5 47.5q81 0 153.5 -26.5t124.5 -81.5l-107 -128q-30 34 -74 55t-97 21q-56 0 -100 -24.5t-69.5 -71.5t-25.5 -110q0 -91 52 -150t148 -59q71 0 126 26v89h-139v138h298v-322
q-47 -39 -126.5 -61.5t-166.5 -22.5q-105 0 -188.5 43zM266.5 790q-44.5 38 -51.5 109h114q2 -20 18 -33t40 -13q25 0 41 13.5t18 32.5h114q-6 -68 -49 -107.5t-124 -39.5q-76 0 -120.5 38z" />
    <glyph glyph-name="gbreve" unicode="&#x11f;" horiz-adv-x="594" 
d="M28 0zM158 -197.5q-54 9.5 -102 33.5l57 124q72 -36 150 -36q61 0 94.5 26.5t33.5 66.5v45l-2 1q-52 -54 -135 -54q-65 0 -116.5 31t-80.5 86t-29 124q0 71 28.5 127.5t78 88.5t110.5 32q40 0 76.5 -14.5t63.5 -42.5h2v48h157v-425q0 -128 -61.5 -199.5t-202.5 -71.5
q-68 0 -122 9.5zM364.5 178q29.5 30 29.5 76t-29.5 75.5t-73.5 29.5q-45 0 -74.5 -29.5t-29.5 -76.5t29.5 -76t74.5 -29q44 0 73.5 30zM468 539zM176.5 580.5q-47.5 41.5 -53.5 115.5h114q2 -21 18 -35t40 -14q25 0 41 14.5t18 34.5h114q-5 -70 -50.5 -113.5t-122.5 -43.5
q-71 0 -118.5 41.5z" />
    <glyph glyph-name="Gdotaccent" unicode="&#x120;" horiz-adv-x="739" 
d="M38 0zM216.5 35q-83.5 43 -131 124.5t-47.5 194.5q0 106 43.5 188.5t127 130t199.5 47.5q81 0 153.5 -26.5t124.5 -81.5l-107 -128q-30 34 -74 55t-97 21q-56 0 -100 -24.5t-69.5 -71.5t-25.5 -110q0 -91 52 -150t148 -59q71 0 126 26v89h-139v138h298v-322
q-47 -39 -126.5 -61.5t-166.5 -22.5q-105 0 -188.5 43zM482 753zM482 753zM321.5 779q-26.5 26 -26.5 64q0 37 26.5 62.5t66.5 25.5t67 -25.5t27 -62.5q0 -38 -27 -64t-67 -26t-66.5 26z" />
    <glyph glyph-name="gdotaccent" unicode="&#x121;" horiz-adv-x="594" 
d="M28 0zM158 -197.5q-54 9.5 -102 33.5l57 124q72 -36 150 -36q61 0 94.5 26.5t33.5 66.5v45l-2 1q-52 -54 -135 -54q-65 0 -116.5 31t-80.5 86t-29 124q0 71 28.5 127.5t78 88.5t110.5 32q40 0 76.5 -14.5t63.5 -42.5h2v48h157v-425q0 -128 -61.5 -199.5t-202.5 -71.5
q-68 0 -122 9.5zM364.5 178q29.5 30 29.5 76t-29.5 75.5t-73.5 29.5q-45 0 -74.5 -29.5t-29.5 -76.5t29.5 -76t74.5 -29q44 0 73.5 30zM390 550zM229.5 576q-26.5 26 -26.5 64q0 37 26.5 62.5t66.5 25.5t67 -25.5t27 -62.5q0 -38 -27 -64t-67 -26t-66.5 26z" />
    <glyph glyph-name="uni0122" unicode="&#x122;" horiz-adv-x="739" 
d="M38 0zM216.5 35q-83.5 43 -131 124.5t-47.5 194.5q0 106 43.5 188.5t127 130t199.5 47.5q81 0 153.5 -26.5t124.5 -81.5l-107 -128q-30 34 -74 55t-97 21q-56 0 -100 -24.5t-69.5 -71.5t-25.5 -110q0 -91 52 -150t148 -59q71 0 126 26v89h-139v138h298v-322
q-47 -39 -126.5 -61.5t-166.5 -22.5q-105 0 -188.5 43zM274 -136q29 6 41.5 16.5t12.5 30.5q0 15 -7 36h128q5 -23 5 -42q0 -60 -39.5 -92t-112.5 -34z" />
    <glyph glyph-name="uni0123" unicode="&#x123;" horiz-adv-x="594" 
d="M409 649q-29 -6 -41.5 -16.5t-12.5 -30.5q0 -15 7 -36h-128q-5 23 -5 42q0 60 39.5 92t112.5 34zM158 -197.5q-54 9.5 -102 33.5l57 124q72 -36 150 -36q61 0 94.5 26.5t33.5 66.5v45l-2 1q-52 -54 -135 -54q-65 0 -116.5 31t-80.5 86t-29 124q0 71 28.5 127.5t78 88.5
t110.5 32q40 0 76.5 -14.5t63.5 -42.5h2v48h157v-425q0 -128 -61.5 -199.5t-202.5 -71.5q-68 0 -122 9.5zM364.5 178q29.5 30 29.5 76t-29.5 75.5t-73.5 29.5q-45 0 -74.5 -29.5t-29.5 -76.5t29.5 -76t74.5 -29q44 0 73.5 30z" />
    <glyph glyph-name="Hcircumflex" unicode="&#x124;" horiz-adv-x="715" 
d="M64 0zM233 0h-169v710h169v-294h250v294h168v-710h-168v268h-250v-268zM313 761h-133l95 140h168l98 -140h-136l-45 65h-2z" />
    <glyph glyph-name="hcircumflex" unicode="&#x125;" horiz-adv-x="587" 
d="M54 0zM54 0v736h156v-302l2 -1q28 32 67 48.5t84 16.5q176 0 176 -203v-295h-156v256q0 57 -19.5 80t-62.5 23t-67 -28t-24 -84v-247h-156zM212 773h-133l95 140h168l98 -140h-136l-45 65h-2z" />
    <glyph glyph-name="Hbar" unicode="&#x126;" horiz-adv-x="734" 
d="M660 617h51v-108h-51v-509h-168v268h-250v-268h-168v509h-49v108h49v93h168v-93h250v93h168v-93zM242 416h250v93h-250v-93z" />
    <glyph glyph-name="hbar" unicode="&#x127;" horiz-adv-x="587" 
d="M539 295v-295h-156v256q0 57 -19.5 80t-62.5 23t-67 -28t-24 -84v-247h-156v545h-53v92h53v99h156v-99h166v-92h-166v-111l2 -1q28 32 67 48.5t84 16.5q176 0 176 -203z" />
    <glyph glyph-name="Itilde" unicode="&#x128;" horiz-adv-x="308" 
d="M0 0zM239 0h-171v710h171v-710zM197.5 765.5q-17.5 6.5 -44.5 20.5q-19 10 -31.5 15t-23.5 5q-33 0 -54 -46l-90 35q17 50 49.5 82.5t77.5 32.5q30 0 50.5 -7t39.5 -20q15 -9 26.5 -13.5t24.5 -4.5q32 0 53 46l90 -29q-18 -55 -50 -89t-76 -34q-24 0 -41.5 6.5z" />
    <glyph glyph-name="itilde" unicode="&#x129;" horiz-adv-x="274" 
d="M0 0zM215 0h-156v489h156v-489zM-54 580q19 50 49.5 81.5t74.5 31.5q22 0 38.5 -6.5t40.5 -19.5q15 -9 26 -13.5t18 -4.5q15 0 27 11.5t24 34.5l89 -29q-17 -52 -48.5 -87t-74.5 -35q-31 0 -73 25q-19 11 -28.5 15.5t-20.5 4.5q-30 0 -51 -47z" />
    <glyph glyph-name="Imacron" unicode="&#x12a;" horiz-adv-x="308" 
d="M0 0zM239 0h-171v710h171v-710zM310 775h-313v114h313v-114z" />
    <glyph glyph-name="imacron" unicode="&#x12b;" horiz-adv-x="274" 
d="M0 0zM215 0h-156v489h156v-489zM293 573zM293 573h-313v120h313v-120z" />
    <glyph glyph-name="Ibreve" unicode="&#x12c;" horiz-adv-x="308" 
d="M0 0zM239 0h-171v710h171v-710zM32.5 790q-44.5 38 -51.5 109h114q2 -20 18 -33t40 -13q25 0 41 13.5t18 32.5h114q-6 -68 -49 -107.5t-124 -39.5q-76 0 -120.5 38z" />
    <glyph glyph-name="ibreve" unicode="&#x12d;" horiz-adv-x="274" 
d="M33.5 591q-41.5 41 -47.5 115h110q2 -26 12.5 -41.5t28.5 -15.5q17 0 28 15t12 42h112q-6 -69 -45 -112.5t-107 -43.5q-62 0 -103.5 41zM215 0h-156v489h156v-489z" />
    <glyph glyph-name="Iogonek" unicode="&#x12e;" horiz-adv-x="308" 
d="M68 710h171v-710h-19q-42 -2 -68 -22.5t-26 -46.5q0 -19 10.5 -29t27.5 -10t25.5 2t11.5 3l7 -77q-28 -11 -75 -11q-55 0 -87.5 26t-32.5 68q0 25 14 51.5t42 45.5h-1v710z" />
    <glyph glyph-name="iogonek" unicode="&#x12f;" horiz-adv-x="274" 
d="M71 576q-27 26 -27 64q0 36 27 62t67 26t66.5 -25.5t26.5 -62.5q0 -38 -26.5 -64t-66.5 -26t-67 26zM59 489h156v-489h-7q-42 -2 -68 -22.5t-26 -46.5q0 -19 10.5 -29t27.5 -10t25.5 2t11.5 3l7 -77q-28 -11 -75 -11q-55 0 -87.5 26t-32.5 68q0 26 14.5 52.5t43.5 46.5
v487z" />
    <glyph glyph-name="Idotaccent" unicode="&#x130;" horiz-adv-x="308" 
d="M61 0zM239 0h-171v710h171v-710zM248 753zM248 753zM87.5 779q-26.5 26 -26.5 64q0 37 26.5 62.5t66.5 25.5t67 -25.5t27 -62.5q0 -38 -27 -64t-67 -26t-66.5 26z" />
    <glyph glyph-name="dotlessi" unicode="&#x131;" horiz-adv-x="274" 
d="M215 0h-156v489h156v-489z" />
    <glyph glyph-name="IJ" unicode="&#x132;" horiz-adv-x="854" 
d="M68 0zM239 0h-171v710h171v-710zM414.5 15q-58.5 24 -104.5 70l100 122q57 -61 127 -61q89 0 89 103v461h170v-457q0 -262 -256 -262q-67 0 -125.5 24z" />
    <glyph glyph-name="ij" unicode="&#x133;" horiz-adv-x="541" 
d="M44 0zM44 0zM215 0h-156v489h156v-489zM231 550zM70.5 576q-26.5 26 -26.5 64q0 37 26.5 62.5t66.5 25.5t67 -25.5t27 -62.5q0 -38 -27 -64t-67 -26t-66.5 26zM274 0zM224 -188l25 125q21 -12 41 -12q22 0 32.5 13.5t10.5 43.5v507h156v-509q0 -98 -39 -142.5t-121 -44.5
q-64 0 -105 19zM506 550zM345.5 576q-26.5 26 -26.5 64q0 37 26.5 62.5t66.5 25.5t67 -25.5t27 -62.5q0 -38 -27 -64t-67 -26t-66.5 26z" />
    <glyph glyph-name="Jcircumflex" unicode="&#x134;" horiz-adv-x="546" 
d="M2 0zM106.5 15q-58.5 24 -104.5 70l100 122q57 -61 127 -61q89 0 89 103v461h170v-457q0 -262 -256 -262q-67 0 -125.5 24zM357 761h-133l95 140h168l98 -140h-136l-45 65h-2z" />
    <glyph glyph-name="jcircumflex" unicode="&#x135;" horiz-adv-x="267" 
d="M0 0zM-50 -188l25 125q21 -12 41 -12q22 0 32.5 13.5t10.5 43.5v507h156v-509q0 -98 -39 -142.5t-121 -44.5q-64 0 -105 19zM318 548zM91 548h-133l95 149h168l97 -149h-136l-44 72h-2z" />
    <glyph glyph-name="uni0136" unicode="&#x136;" horiz-adv-x="672" 
d="M64 0zM474 0q-25 71 -73 148.5t-104 138.5l-66 -82v-205h-167v710h167v-281h2l213 281h212l-249 -301q79 -84 148 -194.5t106 -214.5h-189zM225 -136q29 6 41.5 16.5t12.5 30.5q0 15 -7 36h128q5 -23 5 -42q0 -60 -39.5 -92t-112.5 -34z" />
    <glyph glyph-name="uni0137" unicode="&#x137;" horiz-adv-x="550" 
d="M54 0zM549 489l-177 -206q51 -64 97 -138t78 -145h-172q-46 98 -119 192l-48 -55v-137h-154v736h154v-430l2 -1l154 184h185zM164 -136q29 6 41.5 16.5t12.5 30.5q0 15 -7 36h128q5 -23 5 -42q0 -60 -39.5 -92t-112.5 -34z" />
    <glyph glyph-name="kgreenlandic" unicode="&#x138;" horiz-adv-x="550" 
d="M549 489l-178 -206q51 -64 97.5 -138t78.5 -145h-172q-47 99 -119 192l-48 -55v-137h-154v489h154v-183l2 -1l154 184h185z" />
    <glyph glyph-name="Lacute" unicode="&#x139;" horiz-adv-x="582" 
d="M64 0zM558 0h-494v710h171v-561h323v-149zM314 761h-141l108 140h159z" />
    <glyph glyph-name="lacute" unicode="&#x13a;" horiz-adv-x="346" 
d="M54 0zM90 29.5q-36 39.5 -36 126.5v580h156v-542q0 -38 10 -55t37 -17q30 0 63 15l19 -124q-51 -23 -133 -23q-80 0 -116 39.5zM199 774h-141l108 140h159z" />
    <glyph glyph-name="uni013B" unicode="&#x13b;" horiz-adv-x="582" 
d="M64 0zM558 0h-494v710h171v-561h323v-149zM210 -136q29 6 41.5 16.5t12.5 30.5q0 15 -7 36h128q5 -23 5 -42q0 -60 -39.5 -92t-112.5 -34z" />
    <glyph glyph-name="uni013C" unicode="&#x13c;" horiz-adv-x="346" 
d="M54 0zM90 29.5q-36 39.5 -36 126.5v580h156v-542q0 -38 10 -55t37 -17q30 0 63 15l19 -124q-51 -23 -133 -23q-80 0 -116 39.5zM85 -136q29 6 41.5 16.5t12.5 30.5q0 15 -7 36h128q5 -23 5 -42q0 -60 -39.5 -92t-112.5 -34z" />
    <glyph glyph-name="Lcaron" unicode="&#x13d;" horiz-adv-x="582" 
d="M64 0zM558 0h-494v710h171v-561h323v-149zM445 575h-109l32 217h148z" />
    <glyph glyph-name="lcaron" unicode="&#x13e;" horiz-adv-x="336" 
d="M54 0zM90 29.5q-36 39.5 -36 126.5v580h156v-542q0 -38 10 -55t37 -17q30 0 63 15l19 -124q-51 -23 -133 -23q-80 0 -116 39.5zM376 577h-109l32 217h148z" />
    <glyph glyph-name="Ldot" unicode="&#x13f;" horiz-adv-x="582" 
d="M64 0zM558 0h-494v710h171v-561h323v-149zM341 253zM367 278.5q-26 25.5 -26 62.5t26.5 63t63.5 26t63.5 -26t26.5 -63t-26.5 -62.5t-63.5 -25.5q-38 0 -64 25.5z" />
    <glyph glyph-name="ldot" unicode="&#x140;" horiz-adv-x="482" 
d="M54 0zM90 29.5q-36 39.5 -36 126.5v580h156v-542q0 -38 10 -55t37 -17q30 0 63 15l19 -124q-51 -23 -133 -23q-80 0 -116 39.5zM288 208zM314 233.5q-26 25.5 -26 62.5t26.5 63t63.5 26t63.5 -26t26.5 -63t-26.5 -62.5t-63.5 -25.5q-38 0 -64 25.5z" />
    <glyph glyph-name="Lslash" unicode="&#x141;" horiz-adv-x="592" 
d="M246 329v-180h323v-149h-494v256l-65 -28v121l65 28v333h171v-259l107 46v-122z" />
    <glyph glyph-name="lslash" unicode="&#x142;" horiz-adv-x="375" 
d="M368 13q-53 -23 -133 -23q-81 0 -117 39.5t-36 126.5v83l-65 -29v105l65 29v392h157v-323l72 32v-106l-72 -32v-113q0 -39 10 -55.5t37 -16.5q28 0 63 15z" />
    <glyph glyph-name="Nacute" unicode="&#x143;" horiz-adv-x="746" 
d="M64 0zM228 0h-164v710h160l291 -439l2 1v438h165v-710h-164l-288 428h-2v-428zM399 761h-141l108 140h159z" />
    <glyph glyph-name="nacute" unicode="&#x144;" horiz-adv-x="582" 
d="M54 0zM54 0v489h156v-57h2q28 33 66 49.5t81 16.5q175 0 175 -205v-293h-156v255q0 58 -19 81t-59 23q-42 0 -66 -28.5t-24 -84.5v-246h-156zM474 549zM350 549h-145l111 149l158 1z" />
    <glyph glyph-name="uni0145" unicode="&#x145;" horiz-adv-x="746" 
d="M64 0zM228 0h-164v710h160l291 -439l2 1v438h165v-710h-164l-288 428h-2v-428zM257 -136q29 6 41.5 16.5t12.5 30.5q0 15 -7 36h128q5 -23 5 -42q0 -60 -39.5 -92t-112.5 -34z" />
    <glyph glyph-name="uni0146" unicode="&#x146;" horiz-adv-x="582" 
d="M54 0zM54 0v489h156v-57h2q28 33 66 49.5t81 16.5q175 0 175 -205v-293h-156v255q0 58 -19 81t-59 23q-42 0 -66 -28.5t-24 -84.5v-246h-156zM191 -136q29 6 41.5 16.5t12.5 30.5q0 15 -7 36h128q5 -23 5 -42q0 -60 -39.5 -92t-112.5 -34z" />
    <glyph glyph-name="Ncaron" unicode="&#x147;" horiz-adv-x="746" 
d="M64 0zM228 0h-164v710h160l291 -439l2 1v438h165v-710h-164l-288 428h-2v-428zM457 761h-168l-98 140h136l45 -65h2l45 65h133z" />
    <glyph glyph-name="ncaron" unicode="&#x148;" horiz-adv-x="582" 
d="M54 0zM54 0v489h156v-57h2q28 33 66 49.5t81 16.5q175 0 175 -205v-293h-156v255q0 58 -19 81t-59 23q-42 0 -66 -28.5t-24 -84.5v-246h-156zM480 547zM386 547h-169l-97 149h137l44 -72h2l44 72h133z" />
    <glyph glyph-name="napostrophe" unicode="&#x149;" horiz-adv-x="710" 
d="M82 483h-109l33 227h147zM182 0v489h157v-57h2q27 33 65 49.5t81 16.5q83 0 129.5 -47.5t46.5 -157.5v-293h-157v255q0 59 -18.5 81.5t-59.5 22.5q-42 0 -65.5 -28.5t-23.5 -84.5v-246h-157z" />
    <glyph glyph-name="Eng" unicode="&#x14a;" horiz-adv-x="746" 
d="M517 710h165v-711q0 -108 -56 -157t-152 -49q-45 0 -99 12l12 126q24 -7 50 -7q79 0 79 73v4l-286 427h-2v-428h-164v710h160l291 -439l2 1v438z" />
    <glyph glyph-name="eng" unicode="&#x14b;" horiz-adv-x="578" 
d="M258 -192l12 114q24 -7 42 -7q33 0 47.5 19t14.5 59v262q0 59 -18.5 81.5t-59.5 22.5q-40 0 -63 -28.5t-23 -84.5v-246h-156v489h156v-57h2q27 33 63.5 49.5t79.5 16.5q83 0 129.5 -47.5t46.5 -157.5v-296q0 -107 -45 -155.5t-143 -48.5q-47 0 -85 15z" />
    <glyph glyph-name="Omacron" unicode="&#x14c;" horiz-adv-x="808" 
d="M38 0zM214 37.5q-83 46.5 -129.5 129t-46.5 188.5t46.5 189t129.5 129.5t190 46.5q105 0 188 -46t130 -129t47 -190t-47 -189.5t-130 -128.5t-188 -46q-107 0 -190 46.5zM501.5 173.5q43.5 27.5 68 75.5t24.5 106t-24.5 106t-68 75.5t-97.5 27.5q-55 0 -98.5 -28
t-68 -75.5t-24.5 -105.5t24.5 -105.5t68 -75.5t98.5 -28q54 0 97.5 27.5zM561 777h-313v114h313v-114z" />
    <glyph glyph-name="omacron" unicode="&#x14d;" horiz-adv-x="589" 
d="M30 0zM157 23.5q-60 32.5 -93.5 90t-33.5 130.5q0 74 33.5 131.5t93.5 90t138 32.5q76 0 136 -32t94 -90t34 -132t-34 -131.5t-94 -89.5t-136 -32q-78 0 -138 32.5zM370.5 161.5q30.5 32.5 30.5 82.5q0 51 -30 83t-76 32q-47 0 -77 -32.5t-30 -82.5q0 -49 30.5 -82
t76.5 -33q45 0 75.5 32.5zM451 573zM451 573h-313v120h313v-120z" />
    <glyph glyph-name="Obreve" unicode="&#x14e;" horiz-adv-x="808" 
d="M38 0zM214 37.5q-83 46.5 -129.5 129t-46.5 188.5t46.5 189t129.5 129.5t190 46.5q105 0 188 -46t130 -129t47 -190t-47 -189.5t-130 -128.5t-188 -46q-107 0 -190 46.5zM501.5 173.5q43.5 27.5 68 75.5t24.5 106t-24.5 106t-68 75.5t-97.5 27.5q-55 0 -98.5 -28
t-68 -75.5t-24.5 -105.5t24.5 -105.5t68 -75.5t98.5 -28q54 0 97.5 27.5zM283.5 792q-44.5 38 -51.5 109h114q2 -20 18 -33t40 -13q25 0 41 13.5t18 32.5h114q-6 -68 -49 -107.5t-124 -39.5q-76 0 -120.5 38z" />
    <glyph glyph-name="obreve" unicode="&#x14f;" horiz-adv-x="589" 
d="M30 0zM157 23.5q-60 32.5 -93.5 90t-33.5 130.5q0 74 33.5 131.5t93.5 90t138 32.5q76 0 136 -32t94 -90t34 -132t-34 -131.5t-94 -89.5t-136 -32q-78 0 -138 32.5zM370.5 161.5q30.5 32.5 30.5 82.5q0 51 -30 83t-76 32q-47 0 -77 -32.5t-30 -82.5q0 -49 30.5 -82
t76.5 -33q45 0 75.5 32.5zM467 539zM175.5 580.5q-47.5 41.5 -53.5 115.5h114q2 -21 18 -35t40 -14q25 0 41 14.5t18 34.5h114q-5 -70 -50.5 -113.5t-122.5 -43.5q-71 0 -118.5 41.5z" />
    <glyph glyph-name="Ohungarumlaut" unicode="&#x150;" horiz-adv-x="808" 
d="M38 0zM214 37.5q-83 46.5 -129.5 129t-46.5 188.5t46.5 189t129.5 129.5t190 46.5q105 0 188 -46t130 -129t47 -190t-47 -189.5t-130 -128.5t-188 -46q-107 0 -190 46.5zM501.5 173.5q43.5 27.5 68 75.5t24.5 106t-24.5 106t-68 75.5t-97.5 27.5q-55 0 -98.5 -28
t-68 -75.5t-24.5 -105.5t24.5 -105.5t68 -75.5t98.5 -28q54 0 97.5 27.5zM713 762zM368 762h-142l110 149l155 1zM590 762h-142l110 149l155 1z" />
    <glyph glyph-name="ohungarumlaut" unicode="&#x151;" horiz-adv-x="589" 
d="M30 0zM157 23.5q-60 32.5 -93.5 90t-33.5 130.5q0 74 33.5 131.5t93.5 90t138 32.5q76 0 136 -32t94 -90t34 -132t-34 -131.5t-94 -89.5t-136 -32q-78 0 -138 32.5zM370.5 161.5q30.5 32.5 30.5 82.5q0 51 -30 83t-76 32q-47 0 -77 -32.5t-30 -82.5q0 -49 30.5 -82
t76.5 -33q45 0 75.5 32.5zM603 557zM258 557h-142l110 149l155 1zM480 557h-142l110 149l155 1z" />
    <glyph glyph-name="OE" unicode="&#x152;" horiz-adv-x="975" 
d="M596 149h340v-149h-545q-108 0 -188 45.5t-122.5 126.5t-42.5 183q0 103 42.5 183.5t122.5 126t188 45.5h530v-148h-325v-137h295v-143h-295v-133zM435 156v399h-42q-55 0 -96 -26.5t-62.5 -72t-21.5 -101.5t21.5 -101.5t62.5 -72t96 -26.5z" />
    <glyph glyph-name="oe" unicode="&#x153;" horiz-adv-x="856" 
d="M836 203h-329q7 -43 40.5 -64.5t91.5 -21.5q65 0 128 35l67 -112q-47 -27 -95.5 -38t-103.5 -11q-138 0 -200 73h-3q-22 -35 -71 -54t-99 -19q-112 0 -177.5 68.5t-65.5 184.5q0 77 30 134.5t85 88.5t130 31q52 0 97 -18t75 -55h2q28 36 75 54.5t102 18.5
q70 0 120.5 -31.5t77 -87.5t26.5 -129q0 -17 -3 -47zM540.5 353.5q-25.5 -20.5 -32.5 -57.5h180q-5 37 -27.5 57.5t-57.5 20.5q-37 0 -62.5 -20.5zM332.5 157.5q25.5 32.5 25.5 84.5q0 53 -25 85t-67 32t-66.5 -32t-24.5 -85q0 -54 24.5 -85.5t66.5 -31.5q41 0 66.5 32.5z
" />
    <glyph glyph-name="Racute" unicode="&#x154;" horiz-adv-x="648" 
d="M64 0zM446 0q-55 132 -154 229h-65v-229h-163v710h277q130 0 192 -63t62 -170q0 -73 -33 -125.5t-96 -79.5q103 -110 169 -272h-189zM311 375q54 0 82.5 24.5t28.5 69.5q0 43 -27 68.5t-81 25.5h-87v-188h84zM341 761h-141l108 140h159z" />
    <glyph glyph-name="racute" unicode="&#x155;" horiz-adv-x="441" 
d="M54 0zM54 0v489h156v-70h2q55 79 158 79q44 0 75 -13l-36 -150q-43 15 -84 15q-57 0 -86 -29t-29 -99v-222h-156zM378 549zM254 549h-145l111 149l158 1z" />
    <glyph glyph-name="uni0156" unicode="&#x156;" horiz-adv-x="648" 
d="M64 0zM446 0q-55 132 -154 229h-65v-229h-163v710h277q130 0 192 -63t62 -170q0 -73 -33 -125.5t-96 -79.5q103 -110 169 -272h-189zM311 375q54 0 82.5 24.5t28.5 69.5q0 43 -27 68.5t-81 25.5h-87v-188h84zM216 -136q29 6 41.5 16.5t12.5 30.5q0 15 -7 36h128
q5 -23 5 -42q0 -60 -39.5 -92t-112.5 -34z" />
    <glyph glyph-name="uni0157" unicode="&#x157;" horiz-adv-x="441" 
d="M21 0zM54 0v489h156v-70h2q55 79 158 79q44 0 75 -13l-36 -150q-43 15 -84 15q-57 0 -86 -29t-29 -99v-222h-156zM21 -136q29 6 41.5 16.5t12.5 30.5q0 15 -7 36h128q5 -23 5 -42q0 -60 -39.5 -92t-112.5 -34z" />
    <glyph glyph-name="Rcaron" unicode="&#x158;" horiz-adv-x="648" 
d="M64 0zM446 0q-55 132 -154 229h-65v-229h-163v710h277q130 0 192 -63t62 -170q0 -73 -33 -125.5t-96 -79.5q103 -110 169 -272h-189zM311 375q54 0 82.5 24.5t28.5 69.5q0 43 -27 68.5t-81 25.5h-87v-188h84zM399 761h-168l-98 140h136l45 -65h2l45 65h133z" />
    <glyph glyph-name="rcaron" unicode="&#x159;" horiz-adv-x="441" 
d="M54 0zM54 0v489h156v-70h2q55 79 158 79q44 0 75 -13l-36 -150q-43 15 -84 15q-57 0 -86 -29t-29 -99v-222h-156zM428 547zM334 547h-169l-97 149h137l44 -72h2l44 72h133z" />
    <glyph glyph-name="Sacute" unicode="&#x15a;" horiz-adv-x="569" 
d="M24 0zM141.5 11q-67.5 20 -117.5 59l72 140q46 -35 96 -53t92 -18q46 0 69 16.5t23 42.5q0 28 -25 44t-95 40q-66 22 -111.5 47t-76 69t-30.5 110q0 101 68 156t180 55q74 0 137.5 -19.5t111.5 -58.5l-90 -134q-81 66 -157 66q-34 0 -55.5 -14.5t-21.5 -41.5
q0 -26 23.5 -43.5t88.5 -41.5q83 -31 125.5 -53t72.5 -63t30 -108q0 -112 -74.5 -164.5t-193.5 -52.5q-74 0 -141.5 20zM341 761h-141l108 140h159z" />
    <glyph glyph-name="sacute" unicode="&#x15b;" horiz-adv-x="446" 
d="M21 0zM21 34l60 115q67 -40 139 -40q32 0 46 7t14 21t-16.5 23t-64.5 21q-84 20 -127.5 56.5t-43.5 102.5q0 74 52 116t147 42q102 0 184 -45l-64 -112q-27 20 -58.5 29.5t-60.5 9.5q-54 0 -54 -30q0 -12 19 -22t73 -23q87 -22 125 -55.5t38 -99.5q0 -76 -54 -117.5
t-167 -41.5q-107 0 -187 43zM399 549zM275 549h-145l111 149l158 1z" />
    <glyph glyph-name="Scircumflex" unicode="&#x15c;" horiz-adv-x="569" 
d="M24 0zM141.5 11q-67.5 20 -117.5 59l72 140q46 -35 96 -53t92 -18q46 0 69 16.5t23 42.5q0 28 -25 44t-95 40q-66 22 -111.5 47t-76 69t-30.5 110q0 101 68 156t180 55q74 0 137.5 -19.5t111.5 -58.5l-90 -134q-81 66 -157 66q-34 0 -55.5 -14.5t-21.5 -41.5
q0 -26 23.5 -43.5t88.5 -41.5q83 -31 125.5 -53t72.5 -63t30 -108q0 -112 -74.5 -164.5t-193.5 -52.5q-74 0 -141.5 20zM235 761h-133l95 140h168l98 -140h-136l-45 65h-2z" />
    <glyph glyph-name="scircumflex" unicode="&#x15d;" horiz-adv-x="446" 
d="M21 0zM21 34l60 115q67 -40 139 -40q32 0 46 7t14 21t-16.5 23t-64.5 21q-84 20 -127.5 56.5t-43.5 102.5q0 74 52 116t147 42q102 0 184 -45l-64 -112q-27 20 -58.5 29.5t-60.5 9.5q-54 0 -54 -30q0 -12 19 -22t73 -23q87 -22 125 -55.5t38 -99.5q0 -76 -54 -117.5
t-167 -41.5q-107 0 -187 43zM403 548zM176 548h-133l95 149h168l97 -149h-136l-44 72h-2z" />
    <glyph glyph-name="Scedilla" unicode="&#x15e;" horiz-adv-x="569" 
d="M284 -29v-2q105 -3 105 -80q0 -37 -35.5 -59.5t-104.5 -22.5q-34 0 -64 6v64q23 -7 46 -7q17 0 30.5 6.5t13.5 20.5t-20 22t-53 8v38l16 30q-118 15 -194 75l72 140q46 -35 96 -53t92 -18q46 0 69 16.5t23 42.5q0 28 -25 44t-95 40q-66 22 -111.5 47t-76 69t-30.5 110
q0 101 68 156t180 55q74 0 137.5 -19.5t111.5 -58.5l-90 -134q-81 66 -157 66q-34 0 -55.5 -14.5t-21.5 -41.5q0 -26 23.5 -43.5t88.5 -41.5q83 -31 125.5 -53t72.5 -63t30 -108q0 -109 -70.5 -162t-185.5 -55z" />
    <glyph glyph-name="scedilla" unicode="&#x15f;" horiz-adv-x="446" 
d="M223 -29v-2q105 -3 105 -80q0 -37 -35.5 -59.5t-104.5 -22.5q-34 0 -64 6v64q23 -7 46 -7q17 0 30.5 6.5t13.5 20.5t-20 22t-53 8v38l15 29q-73 8 -135 40l60 115q67 -40 139 -40q32 0 46 7t14 21t-16.5 23t-64.5 21q-84 20 -127.5 56.5t-43.5 102.5q0 74 52 116t147 42
q102 0 184 -45l-64 -112q-27 20 -58.5 29.5t-60.5 9.5q-54 0 -54 -30q0 -12 19 -22t73 -23q87 -22 125 -55.5t38 -99.5q0 -72 -47.5 -113t-147.5 -45z" />
    <glyph glyph-name="Scaron" unicode="&#x160;" horiz-adv-x="569" 
d="M24 0zM141.5 11q-67.5 20 -117.5 59l72 140q46 -35 96 -53t92 -18q46 0 69 16.5t23 42.5q0 28 -25 44t-95 40q-66 22 -111.5 47t-76 69t-30.5 110q0 101 68 156t180 55q74 0 137.5 -19.5t111.5 -58.5l-90 -134q-81 66 -157 66q-34 0 -55.5 -14.5t-21.5 -41.5
q0 -26 23.5 -43.5t88.5 -41.5q83 -31 125.5 -53t72.5 -63t30 -108q0 -112 -74.5 -164.5t-193.5 -52.5q-74 0 -141.5 20zM368 761h-168l-98 140h136l45 -65h2l45 65h133z" />
    <glyph glyph-name="scaron" unicode="&#x161;" horiz-adv-x="446" 
d="M21 0zM21 34l60 115q67 -40 139 -40q32 0 46 7t14 21t-16.5 23t-64.5 21q-84 20 -127.5 56.5t-43.5 102.5q0 74 52 116t147 42q102 0 184 -45l-64 -112q-27 20 -58.5 29.5t-60.5 9.5q-54 0 -54 -30q0 -12 19 -22t73 -23q87 -22 125 -55.5t38 -99.5q0 -76 -54 -117.5
t-167 -41.5q-107 0 -187 43zM403 547zM309 547h-169l-97 149h137l44 -72h2l44 72h133z" />
    <glyph glyph-name="uni0162" unicode="&#x162;" horiz-adv-x="586" 
d="M307 0l-16 -29v-2q105 -3 105 -80q0 -37 -35.5 -59.5t-104.5 -22.5q-34 0 -64 6v64q23 -7 46 -7q17 0 30.5 6.5t13.5 20.5t-20 22t-53 8v38l19 35h-20v561h-185v149h541v-149h-186v-561h-71z" />
    <glyph glyph-name="uni0163" unicode="&#x163;" horiz-adv-x="411" 
d="M241 -31q105 -3 105 -80q0 -37 -35.5 -59.5t-104.5 -22.5q-34 0 -64 6v64q23 -7 46 -7q17 0 30.5 6.5t13.5 20.5t-20 22t-53 8v38l18 33q-101 28 -101 157v208h-69v126h69v160l157 16v-176h142v-126h-142v-177q0 -64 51 -64q31 0 67 25l48 -121q-32 -18 -67 -26t-80 -9
l-11 -20v-2z" />
    <glyph glyph-name="Tcaron" unicode="&#x164;" horiz-adv-x="586" 
d="M23 0zM378 0h-170v561h-185v149h541v-149h-186v-561zM377 761h-168l-98 140h136l45 -65h2l45 65h133z" />
    <glyph glyph-name="tcaron" unicode="&#x165;" horiz-adv-x="411" 
d="M7 0zM76 155v208h-69v126h69v160l157 16v-176h142v-126h-142v-177q0 -64 51 -64q31 0 67 25l48 -121q-34 -19 -71.5 -27t-89.5 -8q-162 0 -162 164zM378 577h-109l32 217h148z" />
    <glyph glyph-name="Tbar" unicode="&#x166;" horiz-adv-x="586" 
d="M564 710v-149h-186v-181h117v-117h-117v-263h-170v263h-109v117h109v181h-185v149h541z" />
    <glyph glyph-name="tbar" unicode="&#x167;" horiz-adv-x="411" 
d="M399 26q-34 -19 -71.5 -27t-89.5 -8q-162 0 -162 164v57h-52v93h52v58h-69v126h69v160l157 16v-176h142v-126h-142v-58h90v-93h-90v-26q0 -64 51 -64q31 0 67 25z" />
    <glyph glyph-name="Utilde" unicode="&#x168;" horiz-adv-x="700" 
d="M56 0zM135 65.5q-79 74.5 -79 220.5v424h168v-414q0 -68 32.5 -108.5t92.5 -40.5q58 0 93 37.5t35 111.5v414h167v-424q0 -142 -77 -218.5t-218 -76.5q-135 0 -214 74.5zM393.5 767.5q-17.5 6.5 -44.5 20.5q-19 10 -31.5 15t-23.5 5q-33 0 -54 -46l-90 35
q17 50 49.5 82.5t77.5 32.5q30 0 50.5 -7t39.5 -20q15 -9 26.5 -13.5t24.5 -4.5q32 0 53 46l90 -29q-18 -55 -50 -89t-76 -34q-24 0 -41.5 6.5z" />
    <glyph glyph-name="utilde" unicode="&#x169;" horiz-adv-x="570" 
d="M46 0zM46 199v290h156v-251q0 -59 17.5 -84t57.5 -25q37 0 61.5 30.5t24.5 87.5v242h157v-489h-157v55l-2 1q-27 -32 -62.5 -48.5t-76.5 -16.5q-176 0 -176 208zM497 548zM326.5 556q-20.5 7 -42.5 20q-19 10 -30 15t-23 5q-33 0 -55 -48l-90 38q17 55 50 89t78 34
q28 0 47 -6.5t41 -19.5q15 -10 26 -14.5t24 -4.5q17 0 31 12.5t24 33.5l90 -29q-17 -59 -49.5 -95.5t-75.5 -36.5q-25 0 -45.5 7z" />
    <glyph glyph-name="Umacron" unicode="&#x16a;" horiz-adv-x="700" 
d="M56 0zM135 65.5q-79 74.5 -79 220.5v424h168v-414q0 -68 32.5 -108.5t92.5 -40.5q58 0 93 37.5t35 111.5v414h167v-424q0 -142 -77 -218.5t-218 -76.5q-135 0 -214 74.5zM506 777h-313v114h313v-114z" />
    <glyph glyph-name="umacron" unicode="&#x16b;" horiz-adv-x="570" 
d="M46 0zM46 199v290h156v-251q0 -59 17.5 -84t57.5 -25q37 0 61.5 30.5t24.5 87.5v242h157v-489h-157v55l-2 1q-27 -32 -62.5 -48.5t-76.5 -16.5q-176 0 -176 208zM442 573zM442 573h-313v120h313v-120z" />
    <glyph glyph-name="Ubreve" unicode="&#x16c;" horiz-adv-x="700" 
d="M56 0zM135 65.5q-79 74.5 -79 220.5v424h168v-414q0 -68 32.5 -108.5t92.5 -40.5q58 0 93 37.5t35 111.5v414h167v-424q0 -142 -77 -218.5t-218 -76.5q-135 0 -214 74.5zM228.5 792q-44.5 38 -51.5 109h114q2 -20 18 -33t40 -13q25 0 41 13.5t18 32.5h114
q-6 -68 -49 -107.5t-124 -39.5q-76 0 -120.5 38z" />
    <glyph glyph-name="ubreve" unicode="&#x16d;" horiz-adv-x="570" 
d="M46 0zM46 199v290h156v-251q0 -59 17.5 -84t57.5 -25q37 0 61.5 30.5t24.5 87.5v242h157v-489h-157v55l-2 1q-27 -32 -62.5 -48.5t-76.5 -16.5q-176 0 -176 208zM458 539zM166.5 580.5q-47.5 41.5 -53.5 115.5h114q2 -21 18 -35t40 -14q25 0 41 14.5t18 34.5h114
q-5 -70 -50.5 -113.5t-122.5 -43.5q-71 0 -118.5 41.5z" />
    <glyph glyph-name="Uring" unicode="&#x16e;" horiz-adv-x="700" 
d="M56 0zM135 65.5q-79 74.5 -79 220.5v424h168v-414q0 -68 32.5 -108.5t92.5 -40.5q58 0 93 37.5t35 111.5v414h167v-424q0 -142 -77 -218.5t-218 -76.5q-135 0 -214 74.5zM460 745zM272 775q-32 30 -32 76q0 44 30.5 74.5t79.5 30.5q46 0 78 -29.5t32 -75.5
q0 -44 -30.5 -75t-79.5 -31q-46 0 -78 30zM375.5 827q10.5 11 10.5 25q0 15 -10.5 25.5t-25.5 10.5t-25 -10.5t-10 -25.5t10 -25.5t25 -10.5t25.5 11z" />
    <glyph glyph-name="uring" unicode="&#x16f;" horiz-adv-x="570" 
d="M46 0zM46 199v290h156v-251q0 -59 17.5 -84t57.5 -25q37 0 61.5 30.5t24.5 87.5v242h157v-489h-157v55l-2 1q-27 -32 -62.5 -48.5t-76.5 -16.5q-176 0 -176 208zM396 538zM208 568q-32 30 -32 76q0 44 30.5 74.5t79.5 30.5q46 0 78 -29.5t32 -75.5q0 -44 -30.5 -75
t-79.5 -31q-46 0 -78 30zM311.5 620q10.5 11 10.5 25q0 15 -10.5 25.5t-25.5 10.5t-25 -10.5t-10 -25.5t10 -25.5t25 -10.5t25.5 11z" />
    <glyph glyph-name="Uhungarumlaut" unicode="&#x170;" horiz-adv-x="700" 
d="M56 0zM135 65.5q-79 74.5 -79 220.5v424h168v-414q0 -68 32.5 -108.5t92.5 -40.5q58 0 93 37.5t35 111.5v414h167v-424q0 -142 -77 -218.5t-218 -76.5q-135 0 -214 74.5zM658 762zM313 762h-142l110 149l155 1zM535 762h-142l110 149l155 1z" />
    <glyph glyph-name="uhungarumlaut" unicode="&#x171;" horiz-adv-x="570" 
d="M46 0zM46 199v290h156v-251q0 -59 17.5 -84t57.5 -25q37 0 61.5 30.5t24.5 87.5v242h157v-489h-157v55l-2 1q-27 -32 -62.5 -48.5t-76.5 -16.5q-176 0 -176 208zM594 557zM249 557h-142l110 149l155 1zM471 557h-142l110 149l155 1z" />
    <glyph glyph-name="Uogonek" unicode="&#x172;" horiz-adv-x="700" 
d="M477 710h167v-424q0 -115 -51.5 -188t-148.5 -97q-77 -29 -77 -72q0 -17 10.5 -26t28.5 -9q22 0 37 5l6 -77q-27 -12 -75 -12q-55 0 -87.5 26.5t-32.5 68.5q0 22 11.5 45t33.5 42v2q-113 13 -178 87t-65 205v424h168v-414q0 -68 32.5 -108.5t92.5 -40.5q58 0 93 37.5
t35 111.5v414z" />
    <glyph glyph-name="uogonek" unicode="&#x173;" horiz-adv-x="570" 
d="M363 489h157v-489h-8q-42 -2 -68 -22.5t-26 -46.5q0 -19 10.5 -29t27.5 -10t25.5 2t11.5 3l7 -77q-27 -11 -75 -11q-55 0 -87.5 26t-32.5 68q0 26 14.5 52.5t43.5 46.5v53l-2 1q-27 -32 -62.5 -48.5t-76.5 -16.5q-176 0 -176 208v290h156v-251q0 -59 17.5 -84t57.5 -25
q37 0 61.5 30.5t24.5 87.5v242z" />
    <glyph glyph-name="Wcircumflex" unicode="&#x174;" horiz-adv-x="1025" 
d="M15 0zM387 0h-149l-223 710h181l119 -443h2l112 443h168l109 -442h3l120 442h181l-225 -710h-148l-121 472h-2zM466 761h-133l95 140h168l98 -140h-136l-45 65h-2z" />
    <glyph glyph-name="wcircumflex" unicode="&#x175;" horiz-adv-x="766" 
d="M11 0zM302 0h-127l-164 489h162l74 -275h1l74 275h121l74 -275h2l75 275h161l-165 -489h-125l-82 287h-1zM562 548zM335 548h-133l95 149h168l97 -149h-136l-44 72h-2z" />
    <glyph glyph-name="Ycircumflex" unicode="&#x176;" horiz-adv-x="636" 
d="M1 0zM402 0h-170v304l-231 406h191l125 -244h2l123 244h193l-233 -406v-304zM271 761h-133l95 140h168l98 -140h-136l-45 65h-2z" />
    <glyph glyph-name="ycircumflex" unicode="&#x177;" horiz-adv-x="538" 
d="M0 0zM-16 -169l57 122q35 -28 74 -28q29 0 46 19t31 60l9 24l-192 461h167l98 -270h2l93 270h159l-177 -467q-32 -84 -59 -131t-68.5 -72.5t-106.5 -25.5q-76 0 -133 38zM450 548zM223 548h-133l95 149h168l97 -149h-136l-44 72h-2z" />
    <glyph glyph-name="Ydieresis" unicode="&#x178;" horiz-adv-x="636" 
d="M1 0zM402 0h-170v304l-231 406h191l125 -244h2l123 244h193l-233 -406v-304zM522 756zM522 756zM138.5 781.5q-26.5 25.5 -26.5 63.5q0 36 26.5 61.5t66.5 25.5t67 -25t27 -62q0 -38 -27 -63.5t-67 -25.5t-66.5 25.5zM362.5 781.5q-26.5 25.5 -26.5 63.5q0 36 26.5 61.5
t66.5 25.5t66.5 -25t26.5 -62q0 -38 -26.5 -63.5t-66.5 -25.5t-66.5 25.5z" />
    <glyph glyph-name="Zacute" unicode="&#x179;" horiz-adv-x="613" 
d="M41 0zM572 0h-531v130l308 429l-2 2h-295v149h519v-126l-316 -432l2 -3h315v-149zM331 761h-141l108 140h159z" />
    <glyph glyph-name="zacute" unicode="&#x17a;" horiz-adv-x="488" 
d="M31 0zM461 0h-430v104l211 259v3h-195v123h402v-103l-215 -260l1 -2h226v-124zM418 549zM294 549h-145l111 149l158 1z" />
    <glyph glyph-name="Zdotaccent" unicode="&#x17b;" horiz-adv-x="613" 
d="M41 0zM572 0h-531v130l308 429l-2 2h-295v149h519v-126l-316 -432l2 -3h315v-149zM398 755zM398 755zM237.5 781q-26.5 26 -26.5 64q0 37 26.5 62.5t66.5 25.5t67 -25.5t27 -62.5q0 -38 -27 -64t-67 -26t-66.5 26z" />
    <glyph glyph-name="zdotaccent" unicode="&#x17c;" horiz-adv-x="488" 
d="M31 0zM461 0h-430v104l211 259v3h-195v123h402v-103l-215 -260l1 -2h226v-124zM337 550zM176.5 576q-26.5 26 -26.5 64q0 37 26.5 62.5t66.5 25.5t67 -25.5t27 -62.5q0 -38 -27 -64t-67 -26t-66.5 26z" />
    <glyph glyph-name="Zcaron" unicode="&#x17d;" horiz-adv-x="613" 
d="M41 0zM572 0h-531v130l308 429l-2 2h-295v149h519v-126l-316 -432l2 -3h315v-149zM389 761h-168l-98 140h136l45 -65h2l45 65h133z" />
    <glyph glyph-name="zcaron" unicode="&#x17e;" horiz-adv-x="488" 
d="M31 0zM461 0h-430v104l211 259v3h-195v123h402v-103l-215 -260l1 -2h226v-124zM423 547zM329 547h-169l-97 149h137l44 -72h2l44 72h133z" />
    <glyph glyph-name="longs" unicode="&#x17f;" horiz-adv-x="348" 
d="M74 0v363h-67v126h67v77q0 89 44 134.5t123 45.5q74 0 130 -35l-40 -119q-33 21 -58 21q-42 0 -42 -67v-546h-157z" />
    <glyph glyph-name="uni018F" unicode="&#x18f;" horiz-adv-x="765" 
d="M560.5 675q81.5 -45 124 -127t42.5 -193q0 -118 -45.5 -199.5t-125 -123t-180.5 -41.5q-109 0 -186.5 43t-117.5 118.5t-41 173.5q0 46 6 74h516q-10 83 -62 124.5t-140 41.5q-99 0 -181 -56l-88 134q51 36 126.5 56t154.5 20q116 0 197.5 -45zM491.5 170.5
q46.5 34.5 58.5 94.5h-349q6 -56 53 -92.5t120 -36.5q71 0 117.5 34.5z" />
    <glyph glyph-name="florin" unicode="&#x192;" horiz-adv-x="543" 
d="M1 -154q-40 14 -54 29l52 103q45 -12 71 -12q30 0 46.5 18.5t22.5 62.5l38 296h-74l18 127h74l13 98q23 178 195 178q58 0 98 -14.5t56 -29.5l-54 -103q-43 12 -70 12q-30 0 -47 -19t-23 -63l-6 -59h124l-18 -127h-125l-43 -334q-12 -88 -59.5 -132.5t-134.5 -44.5
q-60 0 -100 14z" />
    <glyph glyph-name="uni019D" unicode="&#x19d;" horiz-adv-x="746" 
d="M517 710h165v-710h-164l-288 428v-432q0 -106 -47.5 -154.5t-127.5 -48.5q-37 0 -90 12l11 126q21 -7 39 -7q26 0 38 16t12 48v12h-1v710h160l291 -439l2 1v438z" />
    <glyph glyph-name="Ohorn" unicode="&#x1a0;" horiz-adv-x="841" 
d="M849 774v-76q0 -70 -30.5 -113.5t-86.5 -58.5q37 -77 37 -171q0 -107 -47 -189.5t-130 -128.5t-188 -46q-107 0 -190 46.5t-129.5 129t-46.5 188.5t46.5 189t129.5 129.5t190 46.5q87 0 159.5 -31.5t121.5 -89.5q19 12 25 34.5t6 61.5v79h133zM501.5 173.5
q43.5 27.5 68 75.5t24.5 106t-24.5 106t-68 75.5t-97.5 27.5q-55 0 -98.5 -28t-68 -75.5t-24.5 -105.5t24.5 -105.5t68 -75.5t98.5 -28q54 0 97.5 27.5z" />
    <glyph glyph-name="ohorn" unicode="&#x1a1;" horiz-adv-x="694" 
d="M675 565v-76q0 -73 -32.5 -116t-92.5 -58q9 -33 9 -71q0 -74 -34 -131.5t-94 -89.5t-136 -32q-78 0 -138 32.5t-93.5 90t-33.5 130.5q0 74 33.5 131.5t93.5 90t138 32.5q71 0 128 -28t92 -78q17 12 22 34t5 60v79h133zM370.5 161.5q30.5 32.5 30.5 82.5q0 51 -30 83
t-76 32q-47 0 -77 -32.5t-30 -82.5q0 -49 30.5 -82t76.5 -33q45 0 75.5 32.5z" />
    <glyph glyph-name="Uhorn" unicode="&#x1af;" horiz-adv-x="825" 
d="M840 774v-76q0 -93 -52 -138t-144 -43v-231q0 -142 -77 -218.5t-218 -76.5q-135 0 -214 74.5t-79 220.5v424h168v-414q0 -68 32.5 -108.5t92.5 -40.5q58 0 93 37.5t35 111.5v414h167v-122q39 6 51 31t12 76v79h133z" />
    <glyph glyph-name="uhorn" unicode="&#x1b0;" horiz-adv-x="714" 
d="M705 565v-76q0 -90 -49 -135t-136 -46v-308h-157v55l-2 1q-27 -32 -62.5 -48.5t-76.5 -16.5q-176 0 -176 208v290h156v-251q0 -59 17.5 -84t57.5 -25q37 0 61.5 30.5t24.5 87.5v242h157v-108q33 8 42.5 32.5t9.5 72.5v79h133z" />
    <glyph glyph-name="Gcaron" unicode="&#x1e6;" horiz-adv-x="739" 
d="M38 0zM216.5 35q-83.5 43 -131 124.5t-47.5 194.5q0 106 43.5 188.5t127 130t199.5 47.5q81 0 153.5 -26.5t124.5 -81.5l-107 -128q-30 34 -74 55t-97 21q-56 0 -100 -24.5t-69.5 -71.5t-25.5 -110q0 -91 52 -150t148 -59q71 0 126 26v89h-139v138h298v-322
q-47 -39 -126.5 -61.5t-166.5 -22.5q-105 0 -188.5 43zM473 759h-168l-98 140h136l45 -65h2l45 65h133z" />
    <glyph glyph-name="gcaron" unicode="&#x1e7;" horiz-adv-x="594" 
d="M28 0zM158 -197.5q-54 9.5 -102 33.5l57 124q72 -36 150 -36q61 0 94.5 26.5t33.5 66.5v45l-2 1q-52 -54 -135 -54q-65 0 -116.5 31t-80.5 86t-29 124q0 71 28.5 127.5t78 88.5t110.5 32q40 0 76.5 -14.5t63.5 -42.5h2v48h157v-425q0 -128 -61.5 -199.5t-202.5 -71.5
q-68 0 -122 9.5zM364.5 178q29.5 30 29.5 76t-29.5 75.5t-73.5 29.5q-45 0 -74.5 -29.5t-29.5 -76.5t29.5 -76t74.5 -29q44 0 73.5 30zM476 547zM382 547h-169l-97 149h137l44 -72h2l44 72h133z" />
    <glyph glyph-name="uni01EA" unicode="&#x1ea;" horiz-adv-x="808" 
d="M734.5 189.5q-34.5 -74.5 -97 -123.5t-144.5 -66h1h-3q-17 -4 -29 -5q-29 -8 -45.5 -26t-16.5 -38q0 -19 10.5 -29t27.5 -10t25.5 2t11.5 3l7 -77q-27 -11 -75 -11q-55 0 -87.5 26t-32.5 68q0 24 12 48.5t37 43.5l-1 1q-89 14 -156 63t-104 125.5t-37 170.5
q0 106 46.5 189t129.5 129.5t190 46.5q105 0 188 -46t130 -129t47 -190q0 -91 -34.5 -165.5zM501.5 173.5q43.5 27.5 68 75.5t24.5 106t-24.5 106t-68 75.5t-97.5 27.5q-55 0 -98.5 -28t-68 -75.5t-24.5 -105.5t24.5 -105.5t68 -75.5t98.5 -28q54 0 97.5 27.5z" />
    <glyph glyph-name="uni01EB" unicode="&#x1eb;" horiz-adv-x="589" 
d="M290 -33q-15 -17 -15 -36t10.5 -29t27.5 -10t25.5 2t11.5 3l7 -77q-27 -11 -75 -11q-55 0 -87.5 26t-32.5 68q0 25 13.5 50.5t40.5 44.5l-1 3q-85 22 -135 87.5t-50 155.5q0 74 33.5 131.5t93.5 90t138 32.5q76 0 136 -32t94 -90t34 -132q0 -68 -28.5 -122.5t-80.5 -88
t-119 -40.5q-26 -9 -41 -26zM218 326.5q-30 -32.5 -30 -82.5q0 -49 30.5 -82t76.5 -33q45 0 75.5 32.5t30.5 82.5q0 51 -30 83t-76 32q-47 0 -77 -32.5z" />
    <glyph glyph-name="Aringacute" unicode="&#x1fa;" horiz-adv-x="694" 
d="M269 774.5q-32 29.5 -32 75.5q0 45 30.5 75.5t79.5 30.5q41 0 70 -23l63 50l159 1l-183 -149q-5 -39 -35 -64.5t-74 -25.5q-46 0 -78 29.5zM321.5 876.5q-10.5 -10.5 -10.5 -25.5t10.5 -25t25.5 -10t25 10.5t10 25.5t-10 25t-25 10t-25.5 -10.5zM267 710h160l260 -710
h-174l-42 128h-248l-42 -128h-175zM346 508l-78 -240h159l-79 240h-2z" />
    <glyph glyph-name="aringacute" unicode="&#x1fb;" horiz-adv-x="549" 
d="M193 568.5q-32 29.5 -32 75.5q0 45 30.5 75.5t79.5 30.5q42 0 72 -25l63 49h158l-185 -150q-7 -37 -36.5 -61t-71.5 -24q-46 0 -78 29.5zM245.5 670.5q-10.5 -10.5 -10.5 -25.5t10.5 -25t25.5 -10t25 10.5t10 25.5t-10 25t-25 10t-25.5 -10.5zM530 121l6 -118
q-33 -9 -71 -9q-47 0 -76.5 14t-42.5 37h-2q-25 -29 -67 -41.5t-90 -12.5q-77 0 -119 40.5t-42 109.5q0 155 201 156h95v2q0 38 -21 57.5t-66 19.5q-66 0 -139 -34l-39 122q87 34 193 34q77 0 124.5 -18t72 -65t24.5 -132v-126q0 -38 35 -38q14 0 24 2zM277.5 113
q19.5 9 30 22t10.5 25v49h-74q-31 0 -49 -14t-18 -39q0 -24 14 -38t43 -14q24 0 43.5 9z" />
    <glyph glyph-name="AEacute" unicode="&#x1fc;" horiz-adv-x="957" 
d="M2 0zM178 0h-176l322 710h587v-149h-325v-136h294v-144h-294v-132h339v-149h-500v128h-191zM429 582l-137 -320h139v320h-2zM519 761h-141l108 140h159z" />
    <glyph glyph-name="aeacute" unicode="&#x1fd;" horiz-adv-x="815" 
d="M17 0zM795 203h-332q7 -43 40.5 -64.5t92.5 -21.5q65 0 130 35l67 -112q-47 -27 -96 -38t-106 -11q-135 0 -195 69h-3q-30 -35 -82 -52t-117 -17q-87 0 -132 40.5t-45 109.5q0 156 201 156h94v2q0 38 -20.5 57.5t-65.5 19.5q-37 0 -70 -8.5t-68 -25.5l-40 122
q85 34 190 34q117 0 164 -61h4q28 29 70.5 45t94.5 16q107 0 167 -68.5t60 -179.5q0 -17 -3 -47zM497.5 353q-26.5 -21 -33.5 -57h183q-5 37 -27.5 57.5t-57.5 20.5q-38 0 -64.5 -21zM269 113q19 9 29.5 22t10.5 25v49h-74q-31 0 -49 -14t-18 -39q0 -24 14 -38t43 -14
q25 0 44 9zM576 549zM452 549h-145l111 149l158 1z" />
    <glyph glyph-name="Oslashacute" unicode="&#x1fe;" horiz-adv-x="808" 
d="M38 0zM691 592q38 -47 58 -107.5t20 -129.5q0 -107 -47 -189.5t-130 -128.5t-188 -46q-118 0 -208 57l-78 -85l-69 64l75 82q-42 48 -64 110.5t-22 135.5q0 106 46.5 189t129.5 129.5t190 46.5q126 0 219 -65l77 85l68 -63zM243 239l266 292q-46 33 -105 33
q-55 0 -98.5 -28t-68 -75.5t-24.5 -105.5q0 -64 30 -116zM501.5 173.5q43.5 27.5 68 75.5t24.5 106q0 55 -24 105l-262 -288q43 -26 96 -26q54 0 97.5 27.5zM471 759h-141l108 140h159z" />
    <glyph glyph-name="oslashacute" unicode="&#x1ff;" horiz-adv-x="589" 
d="M30 0zM502 410q57 -68 57 -166q0 -74 -34 -131.5t-94 -89.5t-136 -32q-84 0 -146 37l-52 -56l-58 54l49 53q-58 67 -58 165q0 74 33.5 131.5t93.5 90t138 32.5q83 0 146 -37l50 54l58 -54zM197 197l142 153q-21 9 -44 9q-47 0 -77 -32.5t-30 -82.5q0 -26 9 -47z
M370.5 161.5q30.5 32.5 30.5 82.5q0 26 -8 48l-142 -154q20 -9 44 -9q45 0 75.5 32.5zM492 549zM368 549h-145l111 149l158 1z" />
    <glyph glyph-name="uni0218" unicode="&#x218;" horiz-adv-x="569" 
d="M24 0zM141.5 11q-67.5 20 -117.5 59l72 140q46 -35 96 -53t92 -18q46 0 69 16.5t23 42.5q0 28 -25 44t-95 40q-66 22 -111.5 47t-76 69t-30.5 110q0 101 68 156t180 55q74 0 137.5 -19.5t111.5 -58.5l-90 -134q-81 66 -157 66q-34 0 -55.5 -14.5t-21.5 -41.5
q0 -26 23.5 -43.5t88.5 -41.5q83 -31 125.5 -53t72.5 -63t30 -108q0 -112 -74.5 -164.5t-193.5 -52.5q-74 0 -141.5 20zM171 -136q29 6 41.5 16.5t12.5 30.5q0 15 -7 36h128q5 -23 5 -42q0 -60 -39.5 -92t-112.5 -34z" />
    <glyph glyph-name="uni0219" unicode="&#x219;" horiz-adv-x="446" 
d="M21 0zM21 34l60 115q67 -40 139 -40q32 0 46 7t14 21t-16.5 23t-64.5 21q-84 20 -127.5 56.5t-43.5 102.5q0 74 52 116t147 42q102 0 184 -45l-64 -112q-27 20 -58.5 29.5t-60.5 9.5q-54 0 -54 -30q0 -12 19 -22t73 -23q87 -22 125 -55.5t38 -99.5q0 -76 -54 -117.5
t-167 -41.5q-107 0 -187 43zM110 -136q29 6 41.5 16.5t12.5 30.5q0 15 -7 36h128q5 -23 5 -42q0 -60 -39.5 -92t-112.5 -34z" />
    <glyph glyph-name="uni021A" unicode="&#x21a;" horiz-adv-x="586" 
d="M23 0zM378 0h-170v561h-185v149h541v-149h-186v-561zM178 -136q29 6 41.5 16.5t12.5 30.5q0 15 -7 36h128q5 -23 5 -42q0 -60 -39.5 -92t-112.5 -34z" />
    <glyph glyph-name="uni021B" unicode="&#x21b;" horiz-adv-x="411" 
d="M7 0zM76 155v208h-69v126h69v160l157 16v-176h142v-126h-142v-177q0 -64 51 -64q31 0 67 25l48 -121q-34 -19 -71.5 -27t-89.5 -8q-162 0 -162 164zM128 -136q29 6 41.5 16.5t12.5 30.5q0 15 -7 36h128q5 -23 5 -42q0 -60 -39.5 -92t-112.5 -34z" />
    <glyph glyph-name="uni0232" unicode="&#x232;" horiz-adv-x="636" 
d="M1 0zM402 0h-170v304l-231 406h191l125 -244h2l123 244h193l-233 -406v-304zM475 777h-313v114h313v-114z" />
    <glyph glyph-name="uni0233" unicode="&#x233;" horiz-adv-x="538" 
d="M0 0zM-16 -169l57 122q35 -28 74 -28q29 0 46 19t31 60l9 24l-192 461h167l98 -270h2l93 270h159l-177 -467q-32 -84 -59 -131t-68.5 -72.5t-106.5 -25.5q-76 0 -133 38zM426 573zM426 573h-313v120h313v-120z" />
    <glyph glyph-name="uni0237" unicode="&#x237;" horiz-adv-x="267" 
d="M-50 -188l25 125q21 -12 41 -12q22 0 32.5 13.5t10.5 43.5v507h156v-509q0 -98 -39 -142.5t-121 -44.5q-64 0 -105 19z" />
    <glyph glyph-name="uni0259" unicode="&#x259;" horiz-adv-x="548" 
d="M444 431q74 -67 74 -190q0 -116 -65 -183t-181 -67q-117 0 -181.5 62t-64.5 163q0 17 2 38.5t4 32.5h333q-8 40 -41.5 61.5t-83.5 21.5q-33 0 -69 -8t-68 -23l-41 126q87 33 184 33q124 0 198 -67zM339 135q24 20 28 58h-193q1 -36 28.5 -57t71.5 -21q41 0 65 20z" />
    <glyph glyph-name="uni0272" unicode="&#x272;" horiz-adv-x="582" 
d="M534 293v-293h-156v255q0 58 -19 81t-59 23q-38 0 -61.5 -23.5t-27.5 -68.5v-273q0 -104 -41.5 -152.5t-130.5 -48.5q-47 0 -82 15l11 114q20 -6 35 -6q26 0 38.5 18t12.5 55v500h156v-1h1v-56h1q28 33 66 49.5t81 16.5q175 0 175 -205z" />
    <glyph glyph-name="circumflex" unicode="&#x2c6;" horiz-adv-x="464" 
d="M185 524h-133l95 149h168l97 -149h-136l-44 72h-2z" />
    <glyph glyph-name="caron" unicode="&#x2c7;" horiz-adv-x="464" 
d="M318 523h-169l-97 149h137l44 -72h2l44 72h133z" />
    <glyph glyph-name="breve" unicode="&#x2d8;" horiz-adv-x="461" 
d="M111.5 556.5q-47.5 41.5 -53.5 115.5h114q2 -21 18 -35t40 -14q25 0 41 14.5t18 34.5h114q-5 -70 -50.5 -113.5t-122.5 -43.5q-71 0 -118.5 41.5z" />
    <glyph glyph-name="dotaccent" unicode="&#x2d9;" horiz-adv-x="502" 
d="M184.5 552q-26.5 26 -26.5 64q0 37 26.5 62.5t66.5 25.5t67 -25.5t27 -62.5q0 -38 -27 -64t-67 -26t-66.5 26z" />
    <glyph glyph-name="ring" unicode="&#x2da;" horiz-adv-x="450" 
d="M147 542q-32 30 -32 76q0 44 30.5 74.5t79.5 30.5q46 0 78 -29.5t32 -75.5q0 -44 -30.5 -75t-79.5 -31q-46 0 -78 30zM250.5 594q10.5 11 10.5 25q0 15 -10.5 25.5t-25.5 10.5t-25 -10.5t-10 -25.5t10 -25.5t25 -10.5t25.5 11z" />
    <glyph glyph-name="ogonek" unicode="&#x2db;" horiz-adv-x="478" 
d="M185.5 -165q-32.5 26 -32.5 68q0 30 20.5 61t60.5 50l126 -14q-42 -2 -68 -23t-26 -46q0 -19 10.5 -29t28.5 -10q16 0 25 2t12 3l7 -77q-29 -11 -76 -11q-55 0 -87.5 26z" />
    <glyph glyph-name="tilde" unicode="&#x2dc;" horiz-adv-x="498" 
d="M284.5 532q-20.5 7 -42.5 20q-19 10 -30 15t-23 5q-33 0 -55 -48l-90 38q17 55 50 89t78 34q28 0 47 -6.5t41 -19.5q15 -10 26 -14.5t24 -4.5q17 0 31 12.5t24 33.5l90 -29q-17 -59 -49.5 -95.5t-75.5 -36.5q-25 0 -45.5 7z" />
    <glyph glyph-name="hungarumlaut" unicode="&#x2dd;" horiz-adv-x="550" 
d="M178 533h-142l110 149l155 1zM400 533h-142l110 149l155 1z" />
    <glyph glyph-name="gravecomb" unicode="&#x300;" 
d="M-392 524zM-392 524h-142l-123 149l159 -1z" />
    <glyph glyph-name="acutecomb" unicode="&#x301;" 
d="M-346 525zM-470 525h-145l111 149l158 1z" />
    <glyph glyph-name="uni0302" unicode="&#x302;" 
d="M-320 524zM-547 524h-133l95 149h168l97 -149h-136l-44 72h-2z" />
    <glyph glyph-name="tildecomb" unicode="&#x303;" 
d="M-289 524zM-459.5 532q-20.5 7 -42.5 20q-19 10 -30 15t-23 5q-33 0 -55 -48l-90 38q17 55 50 89t78 34q28 0 47 -6.5t41 -19.5q15 -10 26 -14.5t24 -4.5q17 0 31 12.5t24 33.5l90 -29q-17 -59 -49.5 -95.5t-75.5 -36.5q-25 0 -45.5 7z" />
    <glyph glyph-name="uni0304" unicode="&#x304;" 
d="M-344 549zM-344 549h-313v120h313v-120z" />
    <glyph glyph-name="uni0306" unicode="&#x306;" 
d="M-328 515zM-619.5 556.5q-47.5 41.5 -53.5 115.5h114q2 -21 18 -35t40 -14q25 0 41 14.5t18 34.5h114q-5 -70 -50.5 -113.5t-122.5 -43.5q-71 0 -118.5 41.5z" />
    <glyph glyph-name="uni0307" unicode="&#x307;" 
d="M-406 526zM-566.5 552q-26.5 26 -26.5 64q0 37 26.5 62.5t66.5 25.5t67 -25.5t27 -62.5q0 -38 -27 -64t-67 -26t-66.5 26z" />
    <glyph glyph-name="uni0308" unicode="&#x308;" 
d="M-296 527zM-679.5 552.5q-26.5 25.5 -26.5 63.5q0 36 26.5 61.5t66.5 25.5t67 -25t27 -62q0 -38 -27 -63.5t-67 -25.5t-66.5 25.5zM-455.5 552.5q-26.5 25.5 -26.5 63.5q0 36 26.5 61.5t66.5 25.5t66.5 -25t26.5 -62q0 -38 -26.5 -63.5t-66.5 -25.5t-66.5 25.5z" />
    <glyph glyph-name="hookabovecomb" unicode="&#x309;" 
d="M-542 526q26 21 40.5 39t14.5 35q0 24 -29 24q-33 0 -68 -23l-28 65q22 22 61.5 38.5t83.5 16.5q50 0 78 -22t28 -64q0 -33 -25.5 -62.5t-64.5 -46.5h-91z" />
    <glyph glyph-name="uni030A" unicode="&#x30a;" 
d="M-390 515zM-578 545q-32 30 -32 76q0 44 30.5 74.5t79.5 30.5q46 0 78 -29.5t32 -75.5q0 -44 -30.5 -75t-79.5 -31q-46 0 -78 30zM-474.5 597q10.5 11 10.5 25q0 15 -10.5 25.5t-25.5 10.5t-25 -10.5t-10 -25.5t10 -25.5t25 -10.5t25.5 11z" />
    <glyph glyph-name="uni030B" unicode="&#x30b;" 
d="M-192 533zM-537 533h-142l110 149l155 1zM-315 533h-142l110 149l155 1z" />
    <glyph glyph-name="uni030C" unicode="&#x30c;" 
d="M-320 523zM-414 523h-169l-97 149h137l44 -72h2l44 72h133z" />
    <glyph glyph-name="uni0312" unicode="&#x312;" 
d="M-561 542q-5 18 -5 42q0 60 39 92t112 34l29 -85q-29 -6 -41.5 -16.5t-12.5 -29.5q0 -14 6 -37h-127z" />
    <glyph glyph-name="uni0313" unicode="&#x313;" 
d="M-431 700q5 -16 5 -41q0 -61 -39 -93t-112 -34l-29 85q29 7 41.5 17.5t12.5 29.5q0 14 -6 36h127z" />
    <glyph glyph-name="uni031B" unicode="&#x31b;" 
d="M-524 522q35 2 51.5 15t21.5 34.5t5 59.5v79h134v-76q0 -95 -55.5 -140.5t-153.5 -40.5z" />
    <glyph glyph-name="dotbelowcomb" unicode="&#x323;" 
d="M-433 -84q27 -26 27 -64q0 -36 -27 -62t-67 -26t-66.5 25.5t-26.5 62.5q0 38 26.5 64t66.5 26t67 -26z" />
    <glyph glyph-name="uni0326" unicode="&#x326;" 
d="M-613 -136q29 6 41.5 16.5t12.5 30.5q0 15 -7 36h128q5 -23 5 -42q0 -60 -39.5 -92t-112.5 -34z" />
    <glyph glyph-name="uni0327" unicode="&#x327;" 
d="M-395 0zM-599 -187v64q23 -7 46 -7q18 0 31 6.5t13 20.5t-20 22t-53 8v38l22 41h80l-20 -35l1 -2q104 -3 104 -80q0 -37 -35.5 -59.5t-103.5 -22.5q-35 0 -65 6z" />
    <glyph glyph-name="uni0328" unicode="&#x328;" 
d="M-503 0zM-677.5 -165q-32.5 26 -32.5 68q0 30 20.5 61t60.5 50l126 -14q-42 -2 -68 -23t-26 -46q0 -19 10.5 -29t28.5 -10q16 0 25 2t12 3l7 -77q-29 -11 -76 -11q-55 0 -87.5 26z" />
    <glyph glyph-name="uni0335" unicode="&#x335;" 
d="M-348 213h-299v93h299v-93z" />
    <glyph glyph-name="Wgrave" unicode="&#x1e80;" horiz-adv-x="1025" 
d="M15 0zM387 0h-149l-223 710h181l119 -443h2l112 443h168l109 -442h3l120 442h181l-225 -710h-148l-121 472h-2zM591 761h-142l-126 140h160z" />
    <glyph glyph-name="wgrave" unicode="&#x1e81;" horiz-adv-x="766" 
d="M11 0zM302 0h-127l-164 489h162l74 -275h1l74 275h121l74 -275h2l75 275h161l-165 -489h-125l-82 287h-1zM454 548zM454 548h-142l-123 149l159 -1z" />
    <glyph glyph-name="Wacute" unicode="&#x1e82;" horiz-adv-x="1025" 
d="M15 0zM387 0h-149l-223 710h181l119 -443h2l112 443h168l109 -442h3l120 442h181l-225 -710h-148l-121 472h-2zM581 761h-141l108 140h159z" />
    <glyph glyph-name="wacute" unicode="&#x1e83;" horiz-adv-x="766" 
d="M11 0zM302 0h-127l-164 489h162l74 -275h1l74 275h121l74 -275h2l75 275h161l-165 -489h-125l-82 287h-1zM579 549zM455 549h-145l111 149l158 1z" />
    <glyph glyph-name="Wdieresis" unicode="&#x1e84;" horiz-adv-x="1025" 
d="M15 0zM387 0h-149l-223 710h181l119 -443h2l112 443h168l109 -442h3l120 442h181l-225 -710h-148l-121 472h-2zM717 756zM717 756zM333.5 781.5q-26.5 25.5 -26.5 63.5q0 36 26.5 61.5t66.5 25.5t67 -25t27 -62q0 -38 -27 -63.5t-67 -25.5t-66.5 25.5zM557.5 781.5
q-26.5 25.5 -26.5 63.5q0 36 26.5 61.5t66.5 25.5t66.5 -25t26.5 -62q0 -38 -26.5 -63.5t-66.5 -25.5t-66.5 25.5z" />
    <glyph glyph-name="wdieresis" unicode="&#x1e85;" horiz-adv-x="766" 
d="M11 0zM302 0h-127l-164 489h162l74 -275h1l74 275h121l74 -275h2l75 275h161l-165 -489h-125l-82 287h-1zM586 551zM202.5 576.5q-26.5 25.5 -26.5 63.5q0 36 26.5 61.5t66.5 25.5t67 -25t27 -62q0 -38 -27 -63.5t-67 -25.5t-66.5 25.5zM426.5 576.5
q-26.5 25.5 -26.5 63.5q0 36 26.5 61.5t66.5 25.5t66.5 -25t26.5 -62q0 -38 -26.5 -63.5t-66.5 -25.5t-66.5 25.5z" />
    <glyph glyph-name="uni1E9E" unicode="&#x1e9e;" horiz-adv-x="769" 
d="M551 428q70 -28 111.5 -52t67.5 -64t26 -103q0 -78 -36 -126.5t-91 -70t-116 -21.5q-138 0 -237 67l72 140q85 -59 156 -59q36 0 56 17t20 42q0 28 -22 46t-83 39q-42 16 -71.5 29.5t-58.5 32.5l118 218l-2 4q-73 7 -115 7q-61 0 -95.5 -29t-34.5 -90l-1 -455h-164l1 461
q0 139 73.5 199t210.5 60q78 0 169 -13t176 -35z" />
    <glyph glyph-name="uni1EA0" unicode="&#x1ea0;" horiz-adv-x="694" 
d="M6 0zM181 0h-175l261 710h160l260 -710h-174l-42 128h-248zM346 508l-78 -240h159l-79 240h-2zM415 -84q27 -26 27 -64q0 -36 -27 -62t-67 -26t-66.5 25.5t-26.5 62.5q0 38 26.5 64t66.5 26t67 -26z" />
    <glyph glyph-name="uni1EA1" unicode="&#x1ea1;" horiz-adv-x="549" 
d="M26 0zM536 3q-33 -9 -71 -9q-47 0 -76.5 14t-42.5 37h-2q-25 -29 -67 -41.5t-90 -12.5q-77 0 -119 40.5t-42 109.5q0 155 201 156h95v2q0 38 -21 57.5t-66 19.5q-66 0 -139 -34l-39 122q87 34 193 34q77 0 124.5 -18t72 -65t24.5 -132v-126q0 -38 35 -38q14 0 24 2z
M277.5 113q19.5 9 30 22t10.5 25v49h-74q-31 0 -49 -14t-18 -39q0 -24 14 -38t43 -14q24 0 43.5 9zM334 -84q27 -26 27 -64q0 -36 -27 -62t-67 -26t-66.5 25.5t-26.5 62.5q0 38 26.5 64t66.5 26t67 -26z" />
    <glyph glyph-name="uni1EA2" unicode="&#x1ea2;" horiz-adv-x="694" 
d="M6 0zM181 0h-175l261 710h160l260 -710h-174l-42 128h-248zM346 508l-78 -240h159l-79 240h-2zM305 761q55 35 55 60q0 19 -29 19q-16 0 -35 -5.5t-34 -13.5l-28 65q22 19 62 33t84 14q50 0 78 -20t28 -58q0 -30 -25 -54.5t-65 -39.5h-91z" />
    <glyph glyph-name="uni1EA3" unicode="&#x1ea3;" horiz-adv-x="549" 
d="M26 0zM536 3q-33 -9 -71 -9q-47 0 -76.5 14t-42.5 37h-2q-25 -29 -67 -41.5t-90 -12.5q-77 0 -119 40.5t-42 109.5q0 155 201 156h95v2q0 38 -21 57.5t-66 19.5q-66 0 -139 -34l-39 122q87 34 193 34q77 0 124.5 -18t72 -65t24.5 -132v-126q0 -38 35 -38q14 0 24 2z
M277.5 113q19.5 9 30 22t10.5 25v49h-74q-31 0 -49 -14t-18 -39q0 -24 14 -38t43 -14q24 0 43.5 9zM229 550q26 21 40.5 39t14.5 35q0 24 -29 24q-33 0 -68 -23l-28 65q22 22 61.5 38.5t83.5 16.5q50 0 78 -22t28 -64q0 -33 -25.5 -62.5t-64.5 -46.5h-91z" />
    <glyph glyph-name="uni1EA4" unicode="&#x1ea4;" horiz-adv-x="694" 
d="M6 0zM181 0h-175l261 710h160l260 -710h-174l-42 128h-248zM346 508l-78 -240h159l-79 240h-2zM623 822h-114l81 146l150 1zM299 761h-133l95 140h168l98 -140h-136l-45 65h-2z" />
    <glyph glyph-name="uni1EA5" unicode="&#x1ea5;" horiz-adv-x="549" 
d="M26 0zM536 3q-33 -9 -71 -9q-47 0 -76.5 14t-42.5 37h-2q-25 -29 -67 -41.5t-90 -12.5q-77 0 -119 40.5t-42 109.5q0 155 201 156h95v2q0 38 -21 57.5t-66 19.5q-66 0 -139 -34l-39 122q87 34 193 34q77 0 124.5 -18t72 -65t24.5 -132v-126q0 -38 35 -38q14 0 24 2z
M277.5 113q19.5 9 30 22t10.5 25v49h-74q-31 0 -49 -14t-18 -39q0 -24 14 -38t43 -14q24 0 43.5 9zM519 652h-107l75 150l149 1zM224 548h-133l94 149h168l97 -149h-136l-44 72h-2z" />
    <glyph glyph-name="uni1EA6" unicode="&#x1ea6;" horiz-adv-x="694" 
d="M6 0zM181 0h-175l261 710h160l260 -710h-174l-42 128h-248zM346 508l-78 -240h159l-79 240h-2zM662 822h-114l-116 147l149 -1zM299 761h-133l95 140h168l98 -140h-136l-45 65h-2z" />
    <glyph glyph-name="uni1EA7" unicode="&#x1ea7;" horiz-adv-x="549" 
d="M26 0zM536 3q-33 -9 -71 -9q-47 0 -76.5 14t-42.5 37h-2q-25 -29 -67 -41.5t-90 -12.5q-77 0 -119 40.5t-42 109.5q0 155 201 156h95v2q0 38 -21 57.5t-66 19.5q-66 0 -139 -34l-39 122q87 34 193 34q77 0 124.5 -18t72 -65t24.5 -132v-126q0 -38 35 -38q14 0 24 2z
M277.5 113q19.5 9 30 22t10.5 25v49h-74q-31 0 -49 -14t-18 -39q0 -24 14 -38t43 -14q24 0 43.5 9zM551 652h-107l-117 151l150 -1zM224 548h-133l95 149h168l97 -149h-136l-44 72h-2z" />
    <glyph glyph-name="uni1EA8" unicode="&#x1ea8;" horiz-adv-x="694" 
d="M6 0zM181 0h-175l261 710h160l260 -710h-174l-42 128h-248zM346 508l-78 -240h159l-79 240h-2zM513 837q24 16 37 28.5t13 25.5q0 17 -26 17q-15 0 -32 -4.5t-30 -12.5l-26 58q20 18 56 30.5t75 12.5q45 0 70.5 -18t25.5 -52q0 -27 -22.5 -49t-58.5 -36h-82zM299 761
h-133l95 140h168l98 -140h-136l-45 65h-2z" />
    <glyph glyph-name="uni1EA9" unicode="&#x1ea9;" horiz-adv-x="549" 
d="M26 0zM536 3q-33 -9 -71 -9q-47 0 -76.5 14t-42.5 37h-2q-25 -29 -67 -41.5t-90 -12.5q-77 0 -119 40.5t-42 109.5q0 155 201 156h95v2q0 38 -21 57.5t-66 19.5q-66 0 -139 -34l-39 122q87 34 193 34q77 0 124.5 -18t72 -65t24.5 -132v-126q0 -38 35 -38q14 0 24 2z
M277.5 113q19.5 9 30 22t10.5 25v49h-74q-31 0 -49 -14t-18 -39q0 -24 14 -38t43 -14q24 0 43.5 9zM424 646q50 39 50 67q0 10 -6.5 16.5t-19.5 6.5q-30 0 -63 -22l-26 60q21 21 57 36t76 15q46 0 71.5 -20.5t25.5 -59.5q0 -31 -23 -57.5t-59 -41.5h-83zM225 548h-133
l94 149h168l97 -149h-136l-44 72h-2z" />
    <glyph glyph-name="uni1EAA" unicode="&#x1eaa;" horiz-adv-x="694" 
d="M6 0zM181 0h-175l261 710h160l260 -710h-174l-42 128h-248zM346 508l-78 -240h159l-79 240h-2zM383.5 928.5q-18.5 6.5 -39.5 18.5q-19 10 -30 14.5t-22 4.5q-31 0 -49 -43l-85 33q16 47 46.5 76.5t72.5 29.5q28 0 47 -6.5t37 -18.5q27 -17 47 -17q30 0 50 43l84 -27
q-16 -51 -46.5 -82.5t-70.5 -31.5q-23 0 -41.5 6.5zM299 761h-133l95 140h168l98 -140h-136l-45 65h-2z" />
    <glyph glyph-name="uni1EAB" unicode="&#x1eab;" horiz-adv-x="549" 
d="M26 0zM536 3q-33 -9 -71 -9q-47 0 -76.5 14t-42.5 37h-2q-25 -29 -67 -41.5t-90 -12.5q-77 0 -119 40.5t-42 109.5q0 155 201 156h95v2q0 38 -21 57.5t-66 19.5q-66 0 -139 -34l-39 122q87 34 193 34q77 0 124.5 -18t72 -65t24.5 -132v-126q0 -38 35 -38q14 0 24 2z
M277.5 113q19.5 9 30 22t10.5 25v49h-74q-31 0 -49 -14t-18 -39q0 -24 14 -38t43 -14q24 0 43.5 9zM81 762q19 48 49 78.5t74 30.5q23 0 40.5 -6t38.5 -19q30 -17 45 -17t27 11t23 34l89 -29q-17 -50 -48.5 -84t-74.5 -34q-32 0 -72 25q-4 2 -15 8t-19 8.5t-16 2.5
q-30 0 -51 -46zM225 548h-133l94 149h169l97 -149h-137l-44 72h-2z" />
    <glyph glyph-name="uni1EAC" unicode="&#x1eac;" horiz-adv-x="694" 
d="M6 0zM181 0h-175l261 710h160l260 -710h-174l-42 128h-248zM346 508l-78 -240h159l-79 240h-2zM415 -84q27 -26 27 -64q0 -36 -27 -62t-67 -26t-66.5 25.5t-26.5 62.5q0 38 26.5 64t66.5 26t67 -26zM299 761h-133l95 140h168l98 -140h-136l-45 65h-2z" />
    <glyph glyph-name="uni1EAD" unicode="&#x1ead;" horiz-adv-x="549" 
d="M26 0zM536 3q-33 -9 -71 -9q-47 0 -76.5 14t-42.5 37h-2q-25 -29 -67 -41.5t-90 -12.5q-77 0 -119 40.5t-42 109.5q0 155 201 156h95v2q0 38 -21 57.5t-66 19.5q-66 0 -139 -34l-39 122q87 34 193 34q77 0 124.5 -18t72 -65t24.5 -132v-126q0 -38 35 -38q14 0 24 2z
M277.5 113q19.5 9 30 22t10.5 25v49h-74q-31 0 -49 -14t-18 -39q0 -24 14 -38t43 -14q24 0 43.5 9zM334 -84q27 -26 27 -64q0 -36 -27 -62t-67 -26t-66.5 25.5t-26.5 62.5q0 38 26.5 64t66.5 26t67 -26zM451 548zM224 548h-133l95 149h168l97 -149h-136l-44 72h-2z" />
    <glyph glyph-name="uni1EAE" unicode="&#x1eae;" horiz-adv-x="694" 
d="M6 0zM181 0h-175l261 710h160l260 -710h-174l-42 128h-248zM346 508l-78 -240h159l-79 240h-2zM407 899h-111l81 133l150 1zM220 783q-47 35 -54 102h120q2 -18 18 -30.5t42 -12.5t43 12.5t19 30.5h119q-6 -63 -51.5 -100t-129.5 -37q-79 0 -126 35z" />
    <glyph glyph-name="uni1EAF" unicode="&#x1eaf;" horiz-adv-x="549" 
d="M26 0zM536 3q-33 -9 -71 -9q-47 0 -76.5 14t-42.5 37h-2q-25 -29 -67 -41.5t-90 -12.5q-77 0 -119 40.5t-42 109.5q0 155 201 156h95v2q0 38 -21 57.5t-66 19.5q-66 0 -139 -34l-39 122q87 34 193 34q77 0 124.5 -18t72 -65t24.5 -132v-126q0 -38 35 -38q14 0 24 2z
M277.5 113q19.5 9 30 22t10.5 25v49h-74q-31 0 -49 -14t-18 -39q0 -24 14 -38t43 -14q24 0 43.5 9zM323 715h-107l74 150l150 1zM151.5 580.5q-47.5 41.5 -53.5 115.5h114q2 -21 18 -35t40 -14q25 0 41 14.5t18 34.5h114q-5 -70 -50.5 -113.5t-122.5 -43.5
q-71 0 -118.5 41.5z" />
    <glyph glyph-name="uni1EB0" unicode="&#x1eb0;" horiz-adv-x="694" 
d="M6 0zM181 0h-175l261 710h160l260 -710h-174l-42 128h-248zM346 508l-78 -240h159l-79 240h-2zM411 902h-111l-119 134l149 -1zM220 783q-47 35 -54 102h120q2 -18 18 -30.5t42 -12.5t43 12.5t19 30.5h119q-6 -63 -51.5 -100t-129.5 -37q-79 0 -126 35z" />
    <glyph glyph-name="uni1EB1" unicode="&#x1eb1;" horiz-adv-x="549" 
d="M26 0zM536 3q-33 -9 -71 -9q-47 0 -76.5 14t-42.5 37h-2q-25 -29 -67 -41.5t-90 -12.5q-77 0 -119 40.5t-42 109.5q0 155 201 156h95v2q0 38 -21 57.5t-66 19.5q-66 0 -139 -34l-39 122q87 34 193 34q77 0 124.5 -18t72 -65t24.5 -132v-126q0 -38 35 -38q14 0 24 2z
M277.5 113q19.5 9 30 22t10.5 25v49h-74q-31 0 -49 -14t-18 -39q0 -24 14 -38t43 -14q24 0 43.5 9zM330 715h-107l-117 151l150 -1zM151.5 580.5q-47.5 41.5 -53.5 115.5h114q2 -21 18 -35t40 -14q25 0 41 14.5t18 34.5h114q-5 -70 -50.5 -113.5t-122.5 -43.5
q-71 0 -118.5 41.5z" />
    <glyph glyph-name="uni1EB2" unicode="&#x1eb2;" horiz-adv-x="694" 
d="M6 0zM181 0h-175l261 710h160l260 -710h-174l-42 128h-248zM346 508l-78 -240h159l-79 240h-2zM294 890q24 16 37 28.5t13 25.5q0 17 -26 17q-15 0 -32 -4.5t-31 -12.5l-25 58q19 18 55.5 30.5t75.5 12.5q45 0 70 -18t25 -52q0 -27 -22 -49t-58 -36h-82zM220 783
q-47 35 -54 102h120q2 -18 18 -30.5t42 -12.5t43 12.5t19 30.5h119q-6 -63 -51.5 -100t-129.5 -37q-79 0 -126 35z" />
    <glyph glyph-name="uni1EB3" unicode="&#x1eb3;" horiz-adv-x="549" 
d="M26 0zM536 3q-33 -9 -71 -9q-47 0 -76.5 14t-42.5 37h-2q-25 -29 -67 -41.5t-90 -12.5q-77 0 -119 40.5t-42 109.5q0 155 201 156h95v2q0 38 -21 57.5t-66 19.5q-66 0 -139 -34l-39 122q87 34 193 34q77 0 124.5 -18t72 -65t24.5 -132v-126q0 -38 35 -38q14 0 24 2z
M277.5 113q19.5 9 30 22t10.5 25v49h-74q-31 0 -49 -14t-18 -39q0 -24 14 -38t43 -14q24 0 43.5 9zM220 700q51 37 51 69q0 9 -7 15t-20 6q-29 0 -62 -22l-26 60q21 21 57 36t76 15q46 0 71.5 -20.5t25.5 -59.5q0 -31 -23 -57.5t-59 -41.5h-84zM147.5 577.5
q-48.5 39.5 -54.5 110.5h117q2 -20 18.5 -33t41.5 -13t41.5 13.5t18.5 32.5h117q-5 -67 -52 -108.5t-125 -41.5q-74 0 -122.5 39.5z" />
    <glyph glyph-name="uni1EB4" unicode="&#x1eb4;" horiz-adv-x="694" 
d="M6 0zM181 0h-175l261 710h160l260 -710h-174l-42 128h-248zM346 508l-78 -240h159l-79 240h-2zM384 909.5q-18 6.5 -41 18.5q-34 18 -51 18q-31 0 -50 -42l-84 32q16 47 46.5 77t72.5 30q27 0 46.5 -6.5t37.5 -18.5q27 -17 47 -17q30 0 50 42l83 -26q-16 -51 -46 -82.5
t-71 -31.5q-22 0 -40 6.5zM220 783q-47 35 -54 102h120q2 -18 18 -30.5t42 -12.5t43 12.5t19 30.5h119q-6 -63 -51.5 -100t-129.5 -37q-79 0 -126 35z" />
    <glyph glyph-name="uni1EB5" unicode="&#x1eb5;" horiz-adv-x="549" 
d="M26 0zM536 3q-33 -9 -71 -9q-47 0 -76.5 14t-42.5 37h-2q-25 -29 -67 -41.5t-90 -12.5q-77 0 -119 40.5t-42 109.5q0 155 201 156h95v2q0 38 -21 57.5t-66 19.5q-66 0 -139 -34l-39 122q87 34 193 34q77 0 124.5 -18t72 -65t24.5 -132v-126q0 -38 35 -38q14 0 24 2z
M277.5 113q19.5 9 30 22t10.5 25v49h-74q-31 0 -49 -14t-18 -39q0 -24 14 -38t43 -14q24 0 43.5 9zM80 761q42 109 124 109q22 0 39 -6t40 -19q30 -17 44 -17q15 0 27 11t23 34l90 -29q-17 -50 -48.5 -84t-74.5 -34q-19 0 -36 6.5t-37 18.5q-20 11 -29 15t-20 4
q-30 0 -51 -46zM149.5 580.5q-47.5 41.5 -52.5 115.5h114q2 -21 17.5 -35t40.5 -14t40.5 14.5t17.5 34.5h114q-5 -70 -50.5 -113.5t-121.5 -43.5q-72 0 -119.5 41.5z" />
    <glyph glyph-name="uni1EB6" unicode="&#x1eb6;" horiz-adv-x="694" 
d="M6 0zM181 0h-175l261 710h160l260 -710h-174l-42 128h-248zM346 508l-78 -240h159l-79 240h-2zM415 -84q27 -26 27 -64q0 -36 -27 -62t-67 -26t-66.5 25.5t-26.5 62.5q0 38 26.5 64t66.5 26t67 -26zM225.5 792q-44.5 38 -51.5 109h114q2 -20 18 -33t40 -13q25 0 41 13.5
t18 32.5h114q-6 -68 -49 -107.5t-124 -39.5q-76 0 -120.5 38z" />
    <glyph glyph-name="uni1EB7" unicode="&#x1eb7;" horiz-adv-x="549" 
d="M26 0zM536 3q-33 -9 -71 -9q-47 0 -76.5 14t-42.5 37h-2q-25 -29 -67 -41.5t-90 -12.5q-77 0 -119 40.5t-42 109.5q0 155 201 156h95v2q0 38 -21 57.5t-66 19.5q-66 0 -139 -34l-39 122q87 34 193 34q77 0 124.5 -18t72 -65t24.5 -132v-126q0 -38 35 -38q14 0 24 2z
M277.5 113q19.5 9 30 22t10.5 25v49h-74q-31 0 -49 -14t-18 -39q0 -24 14 -38t43 -14q24 0 43.5 9zM334 -84q27 -26 27 -64q0 -36 -27 -62t-67 -26t-66.5 25.5t-26.5 62.5q0 38 26.5 64t66.5 26t67 -26zM443 539zM151.5 580.5q-47.5 41.5 -53.5 115.5h114q2 -21 18 -35
t40 -14q25 0 41 14.5t18 34.5h114q-5 -70 -50.5 -113.5t-122.5 -43.5q-71 0 -118.5 41.5z" />
    <glyph glyph-name="uni1EB8" unicode="&#x1eb8;" horiz-adv-x="613" 
d="M64 0zM574 0h-510v710h496v-149h-333v-136h302v-144h-302v-132h347v-149zM388 -84q27 -26 27 -64q0 -36 -27 -62t-67 -26t-66.5 25.5t-26.5 62.5q0 38 26.5 64t66.5 26t67 -26z" />
    <glyph glyph-name="uni1EB9" unicode="&#x1eb9;" horiz-adv-x="544" 
d="M30 0zM518 203h-333q7 -42 40.5 -64t89.5 -22q69 0 134 35l67 -112q-48 -28 -99 -38.5t-119 -10.5q-81 0 -142 31.5t-93.5 89t-32.5 133.5q0 73 32 130.5t89.5 90t130.5 32.5q71 0 125.5 -31.5t84 -88t29.5 -128.5q0 -17 -3 -47zM218.5 353.5q-25.5 -20.5 -32.5 -57.5
h184q-7 37 -30 57.5t-60 20.5q-36 0 -61.5 -20.5zM352 -84q27 -26 27 -64q0 -36 -27 -62t-67 -26t-66.5 25.5t-26.5 62.5q0 38 26.5 64t66.5 26t67 -26z" />
    <glyph glyph-name="uni1EBA" unicode="&#x1eba;" horiz-adv-x="613" 
d="M64 0zM574 0h-510v710h496v-149h-333v-136h302v-144h-302v-132h347v-149zM276 759q55 35 55 60q0 19 -29 19q-16 0 -35 -5.5t-34 -13.5l-28 65q22 19 62 33t84 14q50 0 78 -20t28 -58q0 -30 -25 -54.5t-65 -39.5h-91z" />
    <glyph glyph-name="uni1EBB" unicode="&#x1ebb;" horiz-adv-x="544" 
d="M30 0zM518 203h-333q7 -42 40.5 -64t89.5 -22q69 0 134 35l67 -112q-48 -28 -99 -38.5t-119 -10.5q-81 0 -142 31.5t-93.5 89t-32.5 133.5q0 73 32 130.5t89.5 90t130.5 32.5q71 0 125.5 -31.5t84 -88t29.5 -128.5q0 -17 -3 -47zM218.5 353.5q-25.5 -20.5 -32.5 -57.5
h184q-7 37 -30 57.5t-60 20.5q-36 0 -61.5 -20.5zM240 550q26 21 40.5 39t14.5 35q0 24 -29 24q-33 0 -68 -23l-28 65q22 22 61.5 38.5t83.5 16.5q50 0 78 -22t28 -64q0 -33 -25.5 -62.5t-64.5 -46.5h-91z" />
    <glyph glyph-name="uni1EBC" unicode="&#x1ebc;" horiz-adv-x="613" 
d="M64 0zM574 0h-510v710h496v-149h-333v-136h302v-144h-302v-132h347v-149zM361.5 765.5q-17.5 6.5 -44.5 20.5q-19 10 -31.5 15t-23.5 5q-33 0 -54 -46l-90 35q17 50 49.5 82.5t77.5 32.5q30 0 50.5 -7t39.5 -20q15 -9 26.5 -13.5t24.5 -4.5q32 0 53 46l90 -29
q-18 -55 -50 -89t-76 -34q-24 0 -41.5 6.5z" />
    <glyph glyph-name="uni1EBD" unicode="&#x1ebd;" horiz-adv-x="544" 
d="M30 0zM518 203h-333q7 -42 40.5 -64t89.5 -22q69 0 134 35l67 -112q-48 -28 -99 -38.5t-119 -10.5q-81 0 -142 31.5t-93.5 89t-32.5 133.5q0 73 32 130.5t89.5 90t130.5 32.5q71 0 125.5 -31.5t84 -88t29.5 -128.5q0 -17 -3 -47zM218.5 353.5q-25.5 -20.5 -32.5 -57.5
h184q-7 37 -30 57.5t-60 20.5q-36 0 -61.5 -20.5zM493 548zM322.5 556q-20.5 7 -42.5 20q-19 10 -30 15t-23 5q-33 0 -55 -48l-90 38q17 55 50 89t78 34q28 0 47 -6.5t41 -19.5q15 -10 26 -14.5t24 -4.5q17 0 31 12.5t24 33.5l90 -29q-17 -59 -49.5 -95.5t-75.5 -36.5
q-25 0 -45.5 7z" />
    <glyph glyph-name="uni1EBE" unicode="&#x1ebe;" horiz-adv-x="613" 
d="M64 0zM574 0h-510v710h496v-149h-333v-136h302v-144h-302v-132h347v-149zM594 820h-114l81 146l150 1zM270 759h-133l95 140h168l98 -140h-136l-45 65h-2z" />
    <glyph glyph-name="uni1EBF" unicode="&#x1ebf;" horiz-adv-x="544" 
d="M30 0zM518 203h-333q7 -42 40.5 -64t89.5 -22q69 0 134 35l67 -112q-48 -28 -99 -38.5t-119 -10.5q-81 0 -142 31.5t-93.5 89t-32.5 133.5q0 73 32 130.5t89.5 90t130.5 32.5q71 0 125.5 -31.5t84 -88t29.5 -128.5q0 -17 -3 -47zM218.5 353.5q-25.5 -20.5 -32.5 -57.5
h184q-7 37 -30 57.5t-60 20.5q-36 0 -61.5 -20.5zM530 652h-107l75 150l149 1zM235 548h-133l94 149h168l97 -149h-136l-44 72h-2z" />
    <glyph glyph-name="uni1EC0" unicode="&#x1ec0;" horiz-adv-x="613" 
d="M64 0zM574 0h-510v710h496v-149h-333v-136h302v-144h-302v-132h347v-149zM633 820h-114l-116 147l149 -1zM270 759h-133l95 140h168l98 -140h-136l-45 65h-2z" />
    <glyph glyph-name="uni1EC1" unicode="&#x1ec1;" horiz-adv-x="544" 
d="M30 0zM518 203h-333q7 -42 40.5 -64t89.5 -22q69 0 134 35l67 -112q-48 -28 -99 -38.5t-119 -10.5q-81 0 -142 31.5t-93.5 89t-32.5 133.5q0 73 32 130.5t89.5 90t130.5 32.5q71 0 125.5 -31.5t84 -88t29.5 -128.5q0 -17 -3 -47zM218.5 353.5q-25.5 -20.5 -32.5 -57.5
h184q-7 37 -30 57.5t-60 20.5q-36 0 -61.5 -20.5zM562 652h-107l-117 151l150 -1zM235 548h-133l95 149h168l97 -149h-136l-44 72h-2z" />
    <glyph glyph-name="uni1EC2" unicode="&#x1ec2;" horiz-adv-x="613" 
d="M64 0zM574 0h-510v710h496v-149h-333v-136h302v-144h-302v-132h347v-149zM484 835q24 16 37 28.5t13 25.5q0 17 -26 17q-15 0 -32 -4.5t-30 -12.5l-26 58q20 18 56 30.5t75 12.5q45 0 70.5 -18t25.5 -52q0 -27 -22.5 -49t-58.5 -36h-82zM270 759h-133l95 140h168l98 -140
h-136l-45 65h-2z" />
    <glyph glyph-name="uni1EC3" unicode="&#x1ec3;" horiz-adv-x="544" 
d="M30 0zM518 203h-333q7 -42 40.5 -64t89.5 -22q69 0 134 35l67 -112q-48 -28 -99 -38.5t-119 -10.5q-81 0 -142 31.5t-93.5 89t-32.5 133.5q0 73 32 130.5t89.5 90t130.5 32.5q71 0 125.5 -31.5t84 -88t29.5 -128.5q0 -17 -3 -47zM218.5 353.5q-25.5 -20.5 -32.5 -57.5
h184q-7 37 -30 57.5t-60 20.5q-36 0 -61.5 -20.5zM435 646q50 39 50 67q0 10 -6.5 16.5t-19.5 6.5q-30 0 -63 -22l-26 60q21 21 57 36t76 15q46 0 71.5 -20.5t25.5 -59.5q0 -31 -23 -57.5t-59 -41.5h-83zM236 548h-133l94 149h168l97 -149h-136l-44 72h-2z" />
    <glyph glyph-name="uni1EC4" unicode="&#x1ec4;" horiz-adv-x="613" 
d="M64 0zM574 0h-510v710h496v-149h-333v-136h302v-144h-302v-132h347v-149zM354.5 926.5q-18.5 6.5 -39.5 18.5q-19 10 -30 14.5t-22 4.5q-31 0 -49 -43l-85 33q16 47 46.5 76.5t72.5 29.5q28 0 47 -6.5t37 -18.5q27 -17 47 -17q30 0 50 43l84 -27q-16 -51 -46.5 -82.5
t-70.5 -31.5q-23 0 -41.5 6.5zM270 759h-133l95 140h168l98 -140h-136l-45 65h-2z" />
    <glyph glyph-name="uni1EC5" unicode="&#x1ec5;" horiz-adv-x="544" 
d="M30 0zM518 203h-333q7 -42 40.5 -64t89.5 -22q69 0 134 35l67 -112q-48 -28 -99 -38.5t-119 -10.5q-81 0 -142 31.5t-93.5 89t-32.5 133.5q0 73 32 130.5t89.5 90t130.5 32.5q71 0 125.5 -31.5t84 -88t29.5 -128.5q0 -17 -3 -47zM218.5 353.5q-25.5 -20.5 -32.5 -57.5
h184q-7 37 -30 57.5t-60 20.5q-36 0 -61.5 -20.5zM92 762q19 48 49 78.5t74 30.5q23 0 40.5 -6t38.5 -19q30 -17 45 -17t27 11t23 34l89 -29q-17 -50 -48.5 -84t-74.5 -34q-32 0 -72 25q-4 2 -15 8t-19 8.5t-16 2.5q-30 0 -51 -46zM236 548h-133l94 149h169l97 -149h-137
l-44 72h-2z" />
    <glyph glyph-name="uni1EC6" unicode="&#x1ec6;" horiz-adv-x="613" 
d="M64 0zM574 0h-510v710h496v-149h-333v-136h302v-144h-302v-132h347v-149zM388 -84q27 -26 27 -64q0 -36 -27 -62t-67 -26t-66.5 25.5t-26.5 62.5q0 38 26.5 64t66.5 26t67 -26zM270 759h-133l95 140h168l98 -140h-136l-45 65h-2z" />
    <glyph glyph-name="uni1EC7" unicode="&#x1ec7;" horiz-adv-x="544" 
d="M30 0zM518 203h-333q7 -42 40.5 -64t89.5 -22q69 0 134 35l67 -112q-48 -28 -99 -38.5t-119 -10.5q-81 0 -142 31.5t-93.5 89t-32.5 133.5q0 73 32 130.5t89.5 90t130.5 32.5q71 0 125.5 -31.5t84 -88t29.5 -128.5q0 -17 -3 -47zM218.5 353.5q-25.5 -20.5 -32.5 -57.5
h184q-7 37 -30 57.5t-60 20.5q-36 0 -61.5 -20.5zM352 -84q27 -26 27 -64q0 -36 -27 -62t-67 -26t-66.5 25.5t-26.5 62.5q0 38 26.5 64t66.5 26t67 -26zM462 548zM235 548h-133l95 149h168l97 -149h-136l-44 72h-2z" />
    <glyph glyph-name="uni1EC8" unicode="&#x1ec8;" horiz-adv-x="308" 
d="M41 0zM239 0h-171v710h171v-710zM112 759q55 35 55 60q0 19 -29 19q-16 0 -35 -5.5t-34 -13.5l-28 65q22 19 62 33t84 14q50 0 78 -20t28 -58q0 -30 -25 -54.5t-65 -39.5h-91z" />
    <glyph glyph-name="uni1EC9" unicode="&#x1ec9;" horiz-adv-x="274" 
d="M25 0zM215 0h-156v489h156v-489zM95 550q26 21 40.5 39t14.5 35q0 24 -29 24q-33 0 -68 -23l-28 65q22 22 61.5 38.5t83.5 16.5q50 0 78 -22t28 -64q0 -33 -25.5 -62.5t-64.5 -46.5h-91z" />
    <glyph glyph-name="uni1ECA" unicode="&#x1eca;" horiz-adv-x="308" 
d="M62 0zM239 0h-171v710h171v-710zM222 -84q27 -26 27 -64q0 -36 -27 -62t-67 -26t-66.5 25.5t-26.5 62.5q0 38 26.5 64t66.5 26t67 -26z" />
    <glyph glyph-name="uni1ECB" unicode="&#x1ecb;" horiz-adv-x="274" 
d="M44 0zM44 0zM215 0h-156v489h156v-489zM231 550zM70.5 576q-26.5 26 -26.5 64q0 37 26.5 62.5t66.5 25.5t67 -25.5t27 -62.5q0 -38 -27 -64t-67 -26t-66.5 26zM204 -84q27 -26 27 -64q0 -36 -27 -62t-67 -26t-66.5 25.5t-26.5 62.5q0 38 26.5 64t66.5 26t67 -26z" />
    <glyph glyph-name="uni1ECC" unicode="&#x1ecc;" horiz-adv-x="808" 
d="M38 0zM214 37.5q-83 46.5 -129.5 129t-46.5 188.5t46.5 189t129.5 129.5t190 46.5q105 0 188 -46t130 -129t47 -190t-47 -189.5t-130 -128.5t-188 -46q-107 0 -190 46.5zM501.5 173.5q43.5 27.5 68 75.5t24.5 106t-24.5 106t-68 75.5t-97.5 27.5q-55 0 -98.5 -28
t-68 -75.5t-24.5 -105.5t24.5 -105.5t68 -75.5t98.5 -28q54 0 97.5 27.5zM471 -84q27 -26 27 -64q0 -36 -27 -62t-67 -26t-66.5 25.5t-26.5 62.5q0 38 26.5 64t66.5 26t67 -26z" />
    <glyph glyph-name="uni1ECD" unicode="&#x1ecd;" horiz-adv-x="589" 
d="M30 0zM157 23.5q-60 32.5 -93.5 90t-33.5 130.5q0 74 33.5 131.5t93.5 90t138 32.5q76 0 136 -32t94 -90t34 -132t-34 -131.5t-94 -89.5t-136 -32q-78 0 -138 32.5zM370.5 161.5q30.5 32.5 30.5 82.5q0 51 -30 83t-76 32q-47 0 -77 -32.5t-30 -82.5q0 -49 30.5 -82
t76.5 -33q45 0 75.5 32.5zM362 -84q27 -26 27 -64q0 -36 -27 -62t-67 -26t-66.5 25.5t-26.5 62.5q0 38 26.5 64t66.5 26t67 -26z" />
    <glyph glyph-name="uni1ECE" unicode="&#x1ece;" horiz-adv-x="808" 
d="M38 0zM214 37.5q-83 46.5 -129.5 129t-46.5 188.5t46.5 189t129.5 129.5t190 46.5q105 0 188 -46t130 -129t47 -190t-47 -189.5t-130 -128.5t-188 -46q-107 0 -190 46.5zM501.5 173.5q43.5 27.5 68 75.5t24.5 106t-24.5 106t-68 75.5t-97.5 27.5q-55 0 -98.5 -28
t-68 -75.5t-24.5 -105.5t24.5 -105.5t68 -75.5t98.5 -28q54 0 97.5 27.5zM363 761q55 35 55 60q0 19 -29 19q-16 0 -35 -5.5t-34 -13.5l-28 65q22 19 62 33t84 14q50 0 78 -20t28 -58q0 -30 -25 -54.5t-65 -39.5h-91z" />
    <glyph glyph-name="uni1ECF" unicode="&#x1ecf;" horiz-adv-x="589" 
d="M30 0zM157 23.5q-60 32.5 -93.5 90t-33.5 130.5q0 74 33.5 131.5t93.5 90t138 32.5q76 0 136 -32t94 -90t34 -132t-34 -131.5t-94 -89.5t-136 -32q-78 0 -138 32.5zM370.5 161.5q30.5 32.5 30.5 82.5q0 51 -30 83t-76 32q-47 0 -77 -32.5t-30 -82.5q0 -49 30.5 -82
t76.5 -33q45 0 75.5 32.5zM253 550q26 21 40.5 39t14.5 35q0 24 -29 24q-33 0 -68 -23l-28 65q22 22 61.5 38.5t83.5 16.5q50 0 78 -22t28 -64q0 -33 -25.5 -62.5t-64.5 -46.5h-91z" />
    <glyph glyph-name="uni1ED0" unicode="&#x1ed0;" horiz-adv-x="808" 
d="M38 0zM214 37.5q-83 46.5 -129.5 129t-46.5 188.5t46.5 189t129.5 129.5t190 46.5q105 0 188 -46t130 -129t47 -190t-47 -189.5t-130 -128.5t-188 -46q-107 0 -190 46.5zM501.5 173.5q43.5 27.5 68 75.5t24.5 106t-24.5 106t-68 75.5t-97.5 27.5q-55 0 -98.5 -28
t-68 -75.5t-24.5 -105.5t24.5 -105.5t68 -75.5t98.5 -28q54 0 97.5 27.5zM681 822h-114l81 146l150 1zM357 761h-133l95 140h168l98 -140h-136l-45 65h-2z" />
    <glyph glyph-name="uni1ED1" unicode="&#x1ed1;" horiz-adv-x="589" 
d="M30 0zM157 23.5q-60 32.5 -93.5 90t-33.5 130.5q0 74 33.5 131.5t93.5 90t138 32.5q76 0 136 -32t94 -90t34 -132t-34 -131.5t-94 -89.5t-136 -32q-78 0 -138 32.5zM370.5 161.5q30.5 32.5 30.5 82.5q0 51 -30 83t-76 32q-47 0 -77 -32.5t-30 -82.5q0 -49 30.5 -82
t76.5 -33q45 0 75.5 32.5zM543 652h-107l75 150l149 1zM248 548h-133l94 149h168l97 -149h-136l-44 72h-2z" />
    <glyph glyph-name="uni1ED2" unicode="&#x1ed2;" horiz-adv-x="808" 
d="M38 0zM214 37.5q-83 46.5 -129.5 129t-46.5 188.5t46.5 189t129.5 129.5t190 46.5q105 0 188 -46t130 -129t47 -190t-47 -189.5t-130 -128.5t-188 -46q-107 0 -190 46.5zM501.5 173.5q43.5 27.5 68 75.5t24.5 106t-24.5 106t-68 75.5t-97.5 27.5q-55 0 -98.5 -28
t-68 -75.5t-24.5 -105.5t24.5 -105.5t68 -75.5t98.5 -28q54 0 97.5 27.5zM720 822h-114l-116 147l149 -1zM357 761h-133l95 140h168l98 -140h-136l-45 65h-2z" />
    <glyph glyph-name="uni1ED3" unicode="&#x1ed3;" horiz-adv-x="589" 
d="M30 0zM157 23.5q-60 32.5 -93.5 90t-33.5 130.5q0 74 33.5 131.5t93.5 90t138 32.5q76 0 136 -32t94 -90t34 -132t-34 -131.5t-94 -89.5t-136 -32q-78 0 -138 32.5zM370.5 161.5q30.5 32.5 30.5 82.5q0 51 -30 83t-76 32q-47 0 -77 -32.5t-30 -82.5q0 -49 30.5 -82
t76.5 -33q45 0 75.5 32.5zM575 652h-107l-117 151l150 -1zM248 548h-133l95 149h168l97 -149h-136l-44 72h-2z" />
    <glyph glyph-name="uni1ED4" unicode="&#x1ed4;" horiz-adv-x="808" 
d="M38 0zM214 37.5q-83 46.5 -129.5 129t-46.5 188.5t46.5 189t129.5 129.5t190 46.5q105 0 188 -46t130 -129t47 -190t-47 -189.5t-130 -128.5t-188 -46q-107 0 -190 46.5zM501.5 173.5q43.5 27.5 68 75.5t24.5 106t-24.5 106t-68 75.5t-97.5 27.5q-55 0 -98.5 -28
t-68 -75.5t-24.5 -105.5t24.5 -105.5t68 -75.5t98.5 -28q54 0 97.5 27.5zM571 837q24 16 37 28.5t13 25.5q0 17 -26 17q-15 0 -32 -4.5t-30 -12.5l-26 58q20 18 56 30.5t75 12.5q45 0 70.5 -18t25.5 -52q0 -27 -22.5 -49t-58.5 -36h-82zM357 761h-133l95 140h168l98 -140
h-136l-45 65h-2z" />
    <glyph glyph-name="uni1ED5" unicode="&#x1ed5;" horiz-adv-x="589" 
d="M30 0zM157 23.5q-60 32.5 -93.5 90t-33.5 130.5q0 74 33.5 131.5t93.5 90t138 32.5q76 0 136 -32t94 -90t34 -132t-34 -131.5t-94 -89.5t-136 -32q-78 0 -138 32.5zM370.5 161.5q30.5 32.5 30.5 82.5q0 51 -30 83t-76 32q-47 0 -77 -32.5t-30 -82.5q0 -49 30.5 -82
t76.5 -33q45 0 75.5 32.5zM448 646q50 39 50 67q0 10 -6.5 16.5t-19.5 6.5q-30 0 -63 -22l-26 60q21 21 57 36t76 15q46 0 71.5 -20.5t25.5 -59.5q0 -31 -23 -57.5t-59 -41.5h-83zM249 548h-133l94 149h168l97 -149h-136l-44 72h-2z" />
    <glyph glyph-name="uni1ED6" unicode="&#x1ed6;" horiz-adv-x="808" 
d="M38 0zM214 37.5q-83 46.5 -129.5 129t-46.5 188.5t46.5 189t129.5 129.5t190 46.5q105 0 188 -46t130 -129t47 -190t-47 -189.5t-130 -128.5t-188 -46q-107 0 -190 46.5zM501.5 173.5q43.5 27.5 68 75.5t24.5 106t-24.5 106t-68 75.5t-97.5 27.5q-55 0 -98.5 -28
t-68 -75.5t-24.5 -105.5t24.5 -105.5t68 -75.5t98.5 -28q54 0 97.5 27.5zM441.5 928.5q-18.5 6.5 -39.5 18.5q-19 10 -30 14.5t-22 4.5q-31 0 -49 -43l-85 33q16 47 46.5 76.5t72.5 29.5q28 0 47 -6.5t37 -18.5q27 -17 47 -17q30 0 50 43l84 -27q-16 -51 -46.5 -82.5
t-70.5 -31.5q-23 0 -41.5 6.5zM357 761h-133l95 140h168l98 -140h-136l-45 65h-2z" />
    <glyph glyph-name="uni1ED7" unicode="&#x1ed7;" horiz-adv-x="589" 
d="M30 0zM157 23.5q-60 32.5 -93.5 90t-33.5 130.5q0 74 33.5 131.5t93.5 90t138 32.5q76 0 136 -32t94 -90t34 -132t-34 -131.5t-94 -89.5t-136 -32q-78 0 -138 32.5zM370.5 161.5q30.5 32.5 30.5 82.5q0 51 -30 83t-76 32q-47 0 -77 -32.5t-30 -82.5q0 -49 30.5 -82
t76.5 -33q45 0 75.5 32.5zM105 762q19 48 49 78.5t74 30.5q23 0 40.5 -6t38.5 -19q30 -17 45 -17t27 11t23 34l89 -29q-17 -50 -48.5 -84t-74.5 -34q-32 0 -72 25q-4 2 -15 8t-19 8.5t-16 2.5q-30 0 -51 -46zM249 548h-133l94 149h169l97 -149h-137l-44 72h-2z" />
    <glyph glyph-name="uni1ED8" unicode="&#x1ed8;" horiz-adv-x="808" 
d="M38 0zM214 37.5q-83 46.5 -129.5 129t-46.5 188.5t46.5 189t129.5 129.5t190 46.5q105 0 188 -46t130 -129t47 -190t-47 -189.5t-130 -128.5t-188 -46q-107 0 -190 46.5zM501.5 173.5q43.5 27.5 68 75.5t24.5 106t-24.5 106t-68 75.5t-97.5 27.5q-55 0 -98.5 -28
t-68 -75.5t-24.5 -105.5t24.5 -105.5t68 -75.5t98.5 -28q54 0 97.5 27.5zM471 -84q27 -26 27 -64q0 -36 -27 -62t-67 -26t-66.5 25.5t-26.5 62.5q0 38 26.5 64t66.5 26t67 -26zM357 761h-133l95 140h168l98 -140h-136l-45 65h-2z" />
    <glyph glyph-name="uni1ED9" unicode="&#x1ed9;" horiz-adv-x="589" 
d="M30 0zM157 23.5q-60 32.5 -93.5 90t-33.5 130.5q0 74 33.5 131.5t93.5 90t138 32.5q76 0 136 -32t94 -90t34 -132t-34 -131.5t-94 -89.5t-136 -32q-78 0 -138 32.5zM370.5 161.5q30.5 32.5 30.5 82.5q0 51 -30 83t-76 32q-47 0 -77 -32.5t-30 -82.5q0 -49 30.5 -82
t76.5 -33q45 0 75.5 32.5zM362 -84q27 -26 27 -64q0 -36 -27 -62t-67 -26t-66.5 25.5t-26.5 62.5q0 38 26.5 64t66.5 26t67 -26zM475 548zM248 548h-133l95 149h168l97 -149h-136l-44 72h-2z" />
    <glyph glyph-name="uni1EDA" unicode="&#x1eda;" horiz-adv-x="841" 
d="M38 0zM849 774v-76q0 -70 -30.5 -113.5t-86.5 -58.5q37 -77 37 -171q0 -107 -47 -189.5t-130 -128.5t-188 -46q-107 0 -190 46.5t-129.5 129t-46.5 188.5t46.5 189t129.5 129.5t190 46.5q87 0 159.5 -31.5t121.5 -89.5q19 12 25 34.5t6 61.5v79h133zM501.5 173.5
q43.5 27.5 68 75.5t24.5 106t-24.5 106t-68 75.5t-97.5 27.5q-55 0 -98.5 -28t-68 -75.5t-24.5 -105.5t24.5 -105.5t68 -75.5t98.5 -28q54 0 97.5 27.5zM464 761h-141l108 140h159z" />
    <glyph glyph-name="uni1EDB" unicode="&#x1edb;" horiz-adv-x="694" 
d="M30 0zM675 565v-76q0 -73 -32.5 -116t-92.5 -58q9 -33 9 -71q0 -74 -34 -131.5t-94 -89.5t-136 -32q-78 0 -138 32.5t-93.5 90t-33.5 130.5q0 74 33.5 131.5t93.5 90t138 32.5q71 0 128 -28t92 -78q17 12 22 34t5 60v79h133zM370.5 161.5q30.5 32.5 30.5 82.5
q0 51 -30 83t-76 32q-47 0 -77 -32.5t-30 -82.5q0 -49 30.5 -82t76.5 -33q45 0 75.5 32.5zM492 549zM368 549h-145l111 149l158 1z" />
    <glyph glyph-name="uni1EDC" unicode="&#x1edc;" horiz-adv-x="841" 
d="M38 0zM849 774v-76q0 -70 -30.5 -113.5t-86.5 -58.5q37 -77 37 -171q0 -107 -47 -189.5t-130 -128.5t-188 -46q-107 0 -190 46.5t-129.5 129t-46.5 188.5t46.5 189t129.5 129.5t190 46.5q87 0 159.5 -31.5t121.5 -89.5q19 12 25 34.5t6 61.5v79h133zM501.5 173.5
q43.5 27.5 68 75.5t24.5 106t-24.5 106t-68 75.5t-97.5 27.5q-55 0 -98.5 -28t-68 -75.5t-24.5 -105.5t24.5 -105.5t68 -75.5t98.5 -28q54 0 97.5 27.5zM493 761h-142l-126 140h160z" />
    <glyph glyph-name="uni1EDD" unicode="&#x1edd;" horiz-adv-x="694" 
d="M30 0zM675 565v-76q0 -73 -32.5 -116t-92.5 -58q9 -33 9 -71q0 -74 -34 -131.5t-94 -89.5t-136 -32q-78 0 -138 32.5t-93.5 90t-33.5 130.5q0 74 33.5 131.5t93.5 90t138 32.5q71 0 128 -28t92 -78q17 12 22 34t5 60v79h133zM370.5 161.5q30.5 32.5 30.5 82.5
q0 51 -30 83t-76 32q-47 0 -77 -32.5t-30 -82.5q0 -49 30.5 -82t76.5 -33q45 0 75.5 32.5zM383 548zM383 548h-142l-123 149l159 -1z" />
    <glyph glyph-name="uni1EDE" unicode="&#x1ede;" horiz-adv-x="841" 
d="M38 0zM849 774v-76q0 -70 -30.5 -113.5t-86.5 -58.5q37 -77 37 -171q0 -107 -47 -189.5t-130 -128.5t-188 -46q-107 0 -190 46.5t-129.5 129t-46.5 188.5t46.5 189t129.5 129.5t190 46.5q87 0 159.5 -31.5t121.5 -89.5q19 12 25 34.5t6 61.5v79h133zM501.5 173.5
q43.5 27.5 68 75.5t24.5 106t-24.5 106t-68 75.5t-97.5 27.5q-55 0 -98.5 -28t-68 -75.5t-24.5 -105.5t24.5 -105.5t68 -75.5t98.5 -28q54 0 97.5 27.5zM363 761q55 35 55 60q0 19 -29 19q-16 0 -35 -5.5t-34 -13.5l-28 65q22 19 62 33t84 14q50 0 78 -20t28 -58
q0 -30 -25 -54.5t-65 -39.5h-91z" />
    <glyph glyph-name="uni1EDF" unicode="&#x1edf;" horiz-adv-x="694" 
d="M30 0zM675 565v-76q0 -73 -32.5 -116t-92.5 -58q9 -33 9 -71q0 -74 -34 -131.5t-94 -89.5t-136 -32q-78 0 -138 32.5t-93.5 90t-33.5 130.5q0 74 33.5 131.5t93.5 90t138 32.5q71 0 128 -28t92 -78q17 12 22 34t5 60v79h133zM370.5 161.5q30.5 32.5 30.5 82.5
q0 51 -30 83t-76 32q-47 0 -77 -32.5t-30 -82.5q0 -49 30.5 -82t76.5 -33q45 0 75.5 32.5zM253 550q26 21 40.5 39t14.5 35q0 24 -29 24q-33 0 -68 -23l-28 65q22 22 61.5 38.5t83.5 16.5q50 0 78 -22t28 -64q0 -33 -25.5 -62.5t-64.5 -46.5h-91z" />
    <glyph glyph-name="uni1EE0" unicode="&#x1ee0;" horiz-adv-x="841" 
d="M38 0zM849 774v-76q0 -70 -30.5 -113.5t-86.5 -58.5q37 -77 37 -171q0 -107 -47 -189.5t-130 -128.5t-188 -46q-107 0 -190 46.5t-129.5 129t-46.5 188.5t46.5 189t129.5 129.5t190 46.5q87 0 159.5 -31.5t121.5 -89.5q19 12 25 34.5t6 61.5v79h133zM501.5 173.5
q43.5 27.5 68 75.5t24.5 106t-24.5 106t-68 75.5t-97.5 27.5q-55 0 -98.5 -28t-68 -75.5t-24.5 -105.5t24.5 -105.5t68 -75.5t98.5 -28q54 0 97.5 27.5zM448.5 767.5q-17.5 6.5 -44.5 20.5q-19 10 -31.5 15t-23.5 5q-33 0 -54 -46l-90 35q17 50 49.5 82.5t77.5 32.5
q30 0 50.5 -7t39.5 -20q15 -9 26.5 -13.5t24.5 -4.5q32 0 53 46l90 -29q-18 -55 -50 -89t-76 -34q-24 0 -41.5 6.5z" />
    <glyph glyph-name="uni1EE1" unicode="&#x1ee1;" horiz-adv-x="694" 
d="M30 0zM675 565v-76q0 -73 -32.5 -116t-92.5 -58q9 -33 9 -71q0 -74 -34 -131.5t-94 -89.5t-136 -32q-78 0 -138 32.5t-93.5 90t-33.5 130.5q0 74 33.5 131.5t93.5 90t138 32.5q71 0 128 -28t92 -78q17 12 22 34t5 60v79h133zM370.5 161.5q30.5 32.5 30.5 82.5
q0 51 -30 83t-76 32q-47 0 -77 -32.5t-30 -82.5q0 -49 30.5 -82t76.5 -33q45 0 75.5 32.5zM506 548zM335.5 556q-20.5 7 -42.5 20q-19 10 -30 15t-23 5q-33 0 -55 -48l-90 38q17 55 50 89t78 34q28 0 47 -6.5t41 -19.5q15 -10 26 -14.5t24 -4.5q17 0 31 12.5t24 33.5l90 -29
q-17 -59 -49.5 -95.5t-75.5 -36.5q-25 0 -45.5 7z" />
    <glyph glyph-name="uni1EE2" unicode="&#x1ee2;" horiz-adv-x="841" 
d="M38 0zM849 774v-76q0 -70 -30.5 -113.5t-86.5 -58.5q37 -77 37 -171q0 -107 -47 -189.5t-130 -128.5t-188 -46q-107 0 -190 46.5t-129.5 129t-46.5 188.5t46.5 189t129.5 129.5t190 46.5q87 0 159.5 -31.5t121.5 -89.5q19 12 25 34.5t6 61.5v79h133zM501.5 173.5
q43.5 27.5 68 75.5t24.5 106t-24.5 106t-68 75.5t-97.5 27.5q-55 0 -98.5 -28t-68 -75.5t-24.5 -105.5t24.5 -105.5t68 -75.5t98.5 -28q54 0 97.5 27.5zM471 -84q27 -26 27 -64q0 -36 -27 -62t-67 -26t-66.5 25.5t-26.5 62.5q0 38 26.5 64t66.5 26t67 -26z" />
    <glyph glyph-name="uni1EE3" unicode="&#x1ee3;" horiz-adv-x="694" 
d="M30 0zM675 565v-76q0 -73 -32.5 -116t-92.5 -58q9 -33 9 -71q0 -74 -34 -131.5t-94 -89.5t-136 -32q-78 0 -138 32.5t-93.5 90t-33.5 130.5q0 74 33.5 131.5t93.5 90t138 32.5q71 0 128 -28t92 -78q17 12 22 34t5 60v79h133zM370.5 161.5q30.5 32.5 30.5 82.5
q0 51 -30 83t-76 32q-47 0 -77 -32.5t-30 -82.5q0 -49 30.5 -82t76.5 -33q45 0 75.5 32.5zM362 -84q27 -26 27 -64q0 -36 -27 -62t-67 -26t-66.5 25.5t-26.5 62.5q0 38 26.5 64t66.5 26t67 -26z" />
    <glyph glyph-name="uni1EE4" unicode="&#x1ee4;" horiz-adv-x="700" 
d="M56 0zM135 65.5q-79 74.5 -79 220.5v424h168v-414q0 -68 32.5 -108.5t92.5 -40.5q58 0 93 37.5t35 111.5v414h167v-424q0 -142 -77 -218.5t-218 -76.5q-135 0 -214 74.5zM416 -84q27 -26 27 -64q0 -36 -27 -62t-67 -26t-66.5 25.5t-26.5 62.5q0 38 26.5 64t66.5 26
t67 -26z" />
    <glyph glyph-name="uni1EE5" unicode="&#x1ee5;" horiz-adv-x="570" 
d="M46 0zM46 199v290h156v-251q0 -59 17.5 -84t57.5 -25q37 0 61.5 30.5t24.5 87.5v242h157v-489h-157v55l-2 1q-27 -32 -62.5 -48.5t-76.5 -16.5q-176 0 -176 208zM358 -84q27 -26 27 -64q0 -36 -27 -62t-67 -26t-66.5 25.5t-26.5 62.5q0 38 26.5 64t66.5 26t67 -26z" />
    <glyph glyph-name="uni1EE6" unicode="&#x1ee6;" horiz-adv-x="700" 
d="M56 0zM135 65.5q-79 74.5 -79 220.5v424h168v-414q0 -68 32.5 -108.5t92.5 -40.5q58 0 93 37.5t35 111.5v414h167v-424q0 -142 -77 -218.5t-218 -76.5q-135 0 -214 74.5zM308 761q55 35 55 60q0 19 -29 19q-16 0 -35 -5.5t-34 -13.5l-28 65q22 19 62 33t84 14
q50 0 78 -20t28 -58q0 -30 -25 -54.5t-65 -39.5h-91z" />
    <glyph glyph-name="uni1EE7" unicode="&#x1ee7;" horiz-adv-x="570" 
d="M46 0zM46 199v290h156v-251q0 -59 17.5 -84t57.5 -25q37 0 61.5 30.5t24.5 87.5v242h157v-489h-157v55l-2 1q-27 -32 -62.5 -48.5t-76.5 -16.5q-176 0 -176 208zM244 550q26 21 40.5 39t14.5 35q0 24 -29 24q-33 0 -68 -23l-28 65q22 22 61.5 38.5t83.5 16.5q50 0 78 -22
t28 -64q0 -33 -25.5 -62.5t-64.5 -46.5h-91z" />
    <glyph glyph-name="uni1EE8" unicode="&#x1ee8;" horiz-adv-x="825" 
d="M56 0zM840 774v-76q0 -93 -52 -138t-144 -43v-231q0 -142 -77 -218.5t-218 -76.5q-135 0 -214 74.5t-79 220.5v424h168v-414q0 -68 32.5 -108.5t92.5 -40.5q58 0 93 37.5t35 111.5v414h167v-122q39 6 51 31t12 76v79h133zM407 761h-141l108 140h159z" />
    <glyph glyph-name="uni1EE9" unicode="&#x1ee9;" horiz-adv-x="714" 
d="M46 0zM705 565v-76q0 -90 -49 -135t-136 -46v-308h-157v55l-2 1q-27 -32 -62.5 -48.5t-76.5 -16.5q-176 0 -176 208v290h156v-251q0 -59 17.5 -84t57.5 -25q37 0 61.5 30.5t24.5 87.5v242h157v-108q33 8 42.5 32.5t9.5 72.5v79h133zM477 549zM353 549h-145l111 149l158 1
z" />
    <glyph glyph-name="uni1EEA" unicode="&#x1eea;" horiz-adv-x="825" 
d="M56 0zM840 774v-76q0 -93 -52 -138t-144 -43v-231q0 -142 -77 -218.5t-218 -76.5q-135 0 -214 74.5t-79 220.5v424h168v-414q0 -68 32.5 -108.5t92.5 -40.5q58 0 93 37.5t35 111.5v414h167v-122q39 6 51 31t12 76v79h133zM427 761h-142l-126 140h160z" />
    <glyph glyph-name="uni1EEB" unicode="&#x1eeb;" horiz-adv-x="714" 
d="M46 0zM705 565v-76q0 -90 -49 -135t-136 -46v-308h-157v55l-2 1q-27 -32 -62.5 -48.5t-76.5 -16.5q-176 0 -176 208v290h156v-251q0 -59 17.5 -84t57.5 -25q37 0 61.5 30.5t24.5 87.5v242h157v-108q33 8 42.5 32.5t9.5 72.5v79h133zM374 548zM374 548h-142l-123 149
l159 -1z" />
    <glyph glyph-name="uni1EEC" unicode="&#x1eec;" horiz-adv-x="825" 
d="M56 0zM840 774v-76q0 -93 -52 -138t-144 -43v-231q0 -142 -77 -218.5t-218 -76.5q-135 0 -214 74.5t-79 220.5v424h168v-414q0 -68 32.5 -108.5t92.5 -40.5q58 0 93 37.5t35 111.5v414h167v-122q39 6 51 31t12 76v79h133zM308 761q55 35 55 60q0 19 -29 19
q-16 0 -35 -5.5t-34 -13.5l-28 65q22 19 62 33t84 14q50 0 78 -20t28 -58q0 -30 -25 -54.5t-65 -39.5h-91z" />
    <glyph glyph-name="uni1EED" unicode="&#x1eed;" horiz-adv-x="714" 
d="M46 0zM705 565v-76q0 -90 -49 -135t-136 -46v-308h-157v55l-2 1q-27 -32 -62.5 -48.5t-76.5 -16.5q-176 0 -176 208v290h156v-251q0 -59 17.5 -84t57.5 -25q37 0 61.5 30.5t24.5 87.5v242h157v-108q33 8 42.5 32.5t9.5 72.5v79h133zM244 550q26 21 40.5 39t14.5 35
q0 24 -29 24q-33 0 -68 -23l-28 65q22 22 61.5 38.5t83.5 16.5q50 0 78 -22t28 -64q0 -33 -25.5 -62.5t-64.5 -46.5h-91z" />
    <glyph glyph-name="uni1EEE" unicode="&#x1eee;" horiz-adv-x="825" 
d="M56 0zM840 774v-76q0 -93 -52 -138t-144 -43v-231q0 -142 -77 -218.5t-218 -76.5q-135 0 -214 74.5t-79 220.5v424h168v-414q0 -68 32.5 -108.5t92.5 -40.5q58 0 93 37.5t35 111.5v414h167v-122q39 6 51 31t12 76v79h133zM393.5 767.5q-17.5 6.5 -44.5 20.5
q-19 10 -31.5 15t-23.5 5q-33 0 -54 -46l-90 35q17 50 49.5 82.5t77.5 32.5q30 0 50.5 -7t39.5 -20q15 -9 26.5 -13.5t24.5 -4.5q32 0 53 46l90 -29q-18 -55 -50 -89t-76 -34q-24 0 -41.5 6.5z" />
    <glyph glyph-name="uni1EEF" unicode="&#x1eef;" horiz-adv-x="714" 
d="M46 0zM705 565v-76q0 -90 -49 -135t-136 -46v-308h-157v55l-2 1q-27 -32 -62.5 -48.5t-76.5 -16.5q-176 0 -176 208v290h156v-251q0 -59 17.5 -84t57.5 -25q37 0 61.5 30.5t24.5 87.5v242h157v-108q33 8 42.5 32.5t9.5 72.5v79h133zM497 548zM326.5 556q-20.5 7 -42.5 20
q-19 10 -30 15t-23 5q-33 0 -55 -48l-90 38q17 55 50 89t78 34q28 0 47 -6.5t41 -19.5q15 -10 26 -14.5t24 -4.5q17 0 31 12.5t24 33.5l90 -29q-17 -59 -49.5 -95.5t-75.5 -36.5q-25 0 -45.5 7z" />
    <glyph glyph-name="uni1EF0" unicode="&#x1ef0;" horiz-adv-x="825" 
d="M56 0zM840 774v-76q0 -93 -52 -138t-144 -43v-231q0 -142 -77 -218.5t-218 -76.5q-135 0 -214 74.5t-79 220.5v424h168v-414q0 -68 32.5 -108.5t92.5 -40.5q58 0 93 37.5t35 111.5v414h167v-122q39 6 51 31t12 76v79h133zM416 -84q27 -26 27 -64q0 -36 -27 -62t-67 -26
t-66.5 25.5t-26.5 62.5q0 38 26.5 64t66.5 26t67 -26z" />
    <glyph glyph-name="uni1EF1" unicode="&#x1ef1;" horiz-adv-x="714" 
d="M46 0zM705 565v-76q0 -90 -49 -135t-136 -46v-308h-157v55l-2 1q-27 -32 -62.5 -48.5t-76.5 -16.5q-176 0 -176 208v290h156v-251q0 -59 17.5 -84t57.5 -25q37 0 61.5 30.5t24.5 87.5v242h157v-108q33 8 42.5 32.5t9.5 72.5v79h133zM358 -84q27 -26 27 -64q0 -36 -27 -62
t-67 -26t-66.5 25.5t-26.5 62.5q0 38 26.5 64t66.5 26t67 -26z" />
    <glyph glyph-name="Ygrave" unicode="&#x1ef2;" horiz-adv-x="636" 
d="M1 0zM402 0h-170v304l-231 406h191l125 -244h2l123 244h193l-233 -406v-304zM408 761h-142l-126 140h160z" />
    <glyph glyph-name="ygrave" unicode="&#x1ef3;" horiz-adv-x="538" 
d="M0 0zM-16 -169l57 122q35 -28 74 -28q29 0 46 19t31 60l9 24l-192 461h167l98 -270h2l93 270h159l-177 -467q-32 -84 -59 -131t-68.5 -72.5t-106.5 -25.5q-76 0 -133 38zM357 548zM357 548h-142l-123 149l159 -1z" />
    <glyph glyph-name="uni1EF4" unicode="&#x1ef4;" horiz-adv-x="636" 
d="M1 0zM402 0h-170v304l-231 406h191l125 -244h2l123 244h193l-233 -406v-304zM384 -84q27 -26 27 -64q0 -36 -27 -62t-67 -26t-66.5 25.5t-26.5 62.5q0 38 26.5 64t66.5 26t67 -26z" />
    <glyph glyph-name="uni1EF5" unicode="&#x1ef5;" horiz-adv-x="538" 
d="M0 0zM-16 -169l57 122q35 -28 74 -28q29 0 46 19t31 60l9 24l-192 461h167l98 -270h2l93 270h159l-177 -467q-32 -84 -59 -131t-68.5 -72.5t-106.5 -25.5q-76 0 -133 38zM499 -84q27 -26 27 -64q0 -36 -27 -62t-67 -26t-66.5 25.5t-26.5 62.5q0 38 26.5 64t66.5 26
t67 -26z" />
    <glyph glyph-name="uni1EF6" unicode="&#x1ef6;" horiz-adv-x="636" 
d="M1 0zM402 0h-170v304l-231 406h191l125 -244h2l123 244h193l-233 -406v-304zM277 761q55 35 55 60q0 19 -29 19q-16 0 -35 -5.5t-34 -13.5l-28 65q22 19 62 33t84 14q50 0 78 -20t28 -58q0 -30 -25 -54.5t-65 -39.5h-91z" />
    <glyph glyph-name="uni1EF7" unicode="&#x1ef7;" horiz-adv-x="538" 
d="M0 0zM-16 -169l57 122q35 -28 74 -28q29 0 46 19t31 60l9 24l-192 461h167l98 -270h2l93 270h159l-177 -467q-32 -84 -59 -131t-68.5 -72.5t-106.5 -25.5q-76 0 -133 38zM228 550q26 21 40.5 39t14.5 35q0 24 -29 24q-33 0 -68 -23l-28 65q22 22 61.5 38.5t83.5 16.5
q50 0 78 -22t28 -64q0 -33 -25.5 -62.5t-64.5 -46.5h-91z" />
    <glyph glyph-name="uni1EF8" unicode="&#x1ef8;" horiz-adv-x="636" 
d="M1 0zM402 0h-170v304l-231 406h191l125 -244h2l123 244h193l-233 -406v-304zM362.5 767.5q-17.5 6.5 -44.5 20.5q-19 10 -31.5 15t-23.5 5q-33 0 -54 -46l-90 35q17 50 49.5 82.5t77.5 32.5q30 0 50.5 -7t39.5 -20q15 -9 26.5 -13.5t24.5 -4.5q32 0 53 46l90 -29
q-18 -55 -50 -89t-76 -34q-24 0 -41.5 6.5z" />
    <glyph glyph-name="uni1EF9" unicode="&#x1ef9;" horiz-adv-x="538" 
d="M0 0zM-16 -169l57 122q35 -28 74 -28q29 0 46 19t31 60l9 24l-192 461h167l98 -270h2l93 270h159l-177 -467q-32 -84 -59 -131t-68.5 -72.5t-106.5 -25.5q-76 0 -133 38zM481 548zM310.5 556q-20.5 7 -42.5 20q-19 10 -30 15t-23 5q-33 0 -55 -48l-90 38q17 55 50 89
t78 34q28 0 47 -6.5t41 -19.5q15 -10 26 -14.5t24 -4.5q17 0 31 12.5t24 33.5l90 -29q-17 -59 -49.5 -95.5t-75.5 -36.5q-25 0 -45.5 7z" />
    <glyph glyph-name="uni2002" unicode="&#x2002;" horiz-adv-x="467" 
 />
    <glyph glyph-name="uni2003" unicode="&#x2003;" horiz-adv-x="934" 
 />
    <glyph glyph-name="uni2007" unicode="&#x2007;" horiz-adv-x="586" 
 />
    <glyph glyph-name="uni2009" unicode="&#x2009;" horiz-adv-x="19" 
 />
    <glyph glyph-name="uni2010" unicode="&#x2010;" horiz-adv-x="384" 
d="M39 238zM345 238h-306v142h306v-142z" />
    <glyph glyph-name="figuredash" unicode="&#x2012;" horiz-adv-x="586" 
d="M547 233h-508v131h508v-131z" />
    <glyph glyph-name="endash" unicode="&#x2013;" horiz-adv-x="545" 
d="M506 233h-467v131h467v-131z" />
    <glyph glyph-name="emdash" unicode="&#x2014;" horiz-adv-x="1012" 
d="M973 233h-934v131h934v-131z" />
    <glyph glyph-name="uni2015" unicode="&#x2015;" horiz-adv-x="1179" 
d="M1140 233h-1101v131h1101v-131z" />
    <glyph glyph-name="quoteleft" unicode="&#x2018;" horiz-adv-x="234" 
d="M90 710h116l-30 -270h-155z" />
    <glyph glyph-name="quoteright" unicode="&#x2019;" horiz-adv-x="234" 
d="M28 440zM144 440h-116l30 270h154z" />
    <glyph glyph-name="quotesinglbase" unicode="&#x201a;" horiz-adv-x="245" 
d="M18 0zM130 -81h-112l30 270h154z" />
    <glyph glyph-name="quotedblleft" unicode="&#x201c;" horiz-adv-x="444" 
d="M91 710h115l-29 -270h-156zM300 710h116l-30 -270h-155z" />
    <glyph glyph-name="quotedblright" unicode="&#x201d;" horiz-adv-x="444" 
d="M28 440zM144 440h-116l30 270h154zM353 440h-116l30 270h155z" />
    <glyph glyph-name="quotedblbase" unicode="&#x201e;" horiz-adv-x="456" 
d="M18 0zM134 -80h-116l30 270h154zM343 -80h-116l30 270h155z" />
    <glyph glyph-name="dagger" unicode="&#x2020;" horiz-adv-x="376" 
d="M231 288l-42 -71l-43 71l5 124l-1 107h-18l-92 -6v84l92 -5h17l-3 95h85l-5 -95h19l92 7v-86l-92 6h-20v-107z" />
    <glyph glyph-name="daggerdbl" unicode="&#x2021;" horiz-adv-x="376" 
d="M230 52h-84l5 93h-19l-92 -6v84l91 -4h20v45l-5 104l5 104v47h-19l-92 -5v82l91 -5h19l-5 96h85l-5 -96h19l93 6v-83l-93 5h-19v-47l5 -104l-6 -104l1 -45h19l93 4v-83l-93 5h-19z" />
    <glyph glyph-name="bullet" unicode="&#x2022;" horiz-adv-x="417" 
d="M145.5 208.5q-28.5 16.5 -45.5 45t-17 62.5t17 62.5t46 45.5t62 17q52 0 89 -36.5t37 -88.5t-36.5 -88t-89.5 -36q-34 0 -62.5 16.5z" />
    <glyph glyph-name="ellipsis" unicode="&#x2026;" horiz-adv-x="1000" 
d="M72 0zM432 16.5q-26 25.5 -26 62.5t26.5 63t63.5 26t63.5 -26t26.5 -63t-26.5 -62.5t-63.5 -25.5q-38 0 -64 25.5zM98 16.5q-26 25.5 -26 62.5t26.5 63t63.5 26t63.5 -26t26.5 -63t-26.5 -62.5t-63.5 -25.5q-38 0 -64 25.5zM766 16.5q-26 25.5 -26 62.5t26.5 63t63.5 26
t63.5 -26t26.5 -63t-26.5 -62.5t-63.5 -25.5q-38 0 -64 25.5z" />
    <glyph glyph-name="perthousand" unicode="&#x2030;" horiz-adv-x="1285" 
d="M118 352.5q-43 23.5 -68 65.5t-25 96q0 50 23.5 92.5t66 67t97.5 24.5q51 0 94 -23t68 -65t25 -96q0 -50 -23.5 -92.5t-66.5 -67.5t-97 -25q-51 0 -94 23.5zM729 624l-473 -624l-98 71l474 625zM267 456.5q21 22.5 21 56.5q0 35 -21.5 57t-54.5 22q-32 0 -53 -23t-21 -56
q0 -35 21.5 -57t52.5 -22q34 0 55 22.5zM575.5 14q-42.5 23 -67.5 65t-25 96q0 51 23.5 93t66 66.5t97.5 24.5q51 0 94 -23t68 -65t25 -96q0 -50 -23.5 -92t-66 -67t-97.5 -25q-52 0 -94.5 23zM978 14q-43 23 -68 65t-25 96q0 51 23.5 93t66.5 66.5t98 24.5q51 0 93.5 -23
t67.5 -65t25 -96q0 -50 -23.5 -92t-66 -67t-96.5 -25q-52 0 -95 23zM725 118q21 23 21 56q0 35 -21.5 57.5t-54.5 22.5q-32 0 -53 -23.5t-21 -56.5q0 -34 21.5 -56.5t52.5 -22.5q34 0 55 23zM1127.5 118q21.5 23 21.5 56q0 35 -21.5 57.5t-54.5 22.5q-32 0 -53 -23t-21 -57
t21 -56.5t53 -22.5q33 0 54.5 23z" />
    <glyph glyph-name="minute" unicode="&#x2032;" horiz-adv-x="281" 
d="M144 440h-116l77 270h155z" />
    <glyph glyph-name="second" unicode="&#x2033;" horiz-adv-x="490" 
d="M144 440h-116l77 270h155zM353 440h-116l78 270h154z" />
    <glyph glyph-name="guilsinglleft" unicode="&#x2039;" horiz-adv-x="304" 
d="M143 452h147l-117 -201l118 -205h-146l-116 205z" />
    <glyph glyph-name="guilsinglright" unicode="&#x203a;" horiz-adv-x="304" 
d="M161 46h-147l117 201l-118 205h146l116 -205z" />
    <glyph glyph-name="uni203D" unicode="&#x203d;" horiz-adv-x="467" 
d="M376.5 694.5q60.5 -51.5 60.5 -140.5q0 -57 -23.5 -97.5t-65.5 -79.5q-7 -6 -30 -26.5t-35 -37.5t-13 -32l-4 -40h-129l-26 296h140v-73l2 -1q36 39 36 83q0 33 -19 50.5t-57 17.5q-30 0 -60 -12.5t-52 -33.5l-96 86q35 42 92.5 67t121.5 25q97 0 157.5 -51.5zM263 142
q26 -26 26 -63t-26 -62.5t-63 -25.5q-38 0 -64.5 25.5t-26.5 62.5t26.5 63t64.5 26q37 0 63 -26z" />
    <glyph glyph-name="uni2042" unicode="&#x2042;" horiz-adv-x="821" 
d="M29 44zM671 44h-90l5 95l-80 -50l-46 78l84 42l-84 44l46 79l80 -51l-5 94h90l-5 -94l80 49l46 -77l-84 -43l84 -43l-46 -79l-78 51zM451 379h-90l5 95l-80 -50l-46 78l84 42l-84 44l46 79l80 -51l-5 94h90l-5 -94l80 49l46 -77l-84 -43l84 -43l-46 -79l-78 51zM240 44
h-90l5 95l-80 -50l-46 78l84 42l-84 44l46 79l80 -51l-5 94h90l-5 -94l80 49l46 -77l-84 -43l84 -43l-46 -79l-78 51z" />
    <glyph glyph-name="fraction" unicode="&#x2044;" horiz-adv-x="236" 
d="M347 679l-316 -705l-112 48l316 705z" />
    <glyph glyph-name="uni2051" unicode="&#x2051;" horiz-adv-x="390" 
d="M240 379h-90l5 95l-80 -50l-46 78l84 42l-84 44l46 79l80 -51l-5 94h90l-5 -94l80 49l46 -77l-84 -43l84 -43l-46 -79l-78 51zM240 10h-90l5 96l-80 -51l-46 78l84 42l-84 45l46 78l80 -51l-5 95h90l-5 -95l80 50l46 -77l-84 -44l84 -43l-46 -78l-78 51z" />
    <glyph glyph-name="uni2070" unicode="&#x2070;" horiz-adv-x="403" 
d="M19 426zM67.5 485q-48.5 59 -48.5 157q0 102 50.5 158.5t131.5 56.5q86 0 134.5 -59t48.5 -156q0 -103 -50.5 -159.5t-132.5 -56.5q-85 0 -133.5 59zM249 560q18 28 18 81q0 52 -17.5 80.5t-48.5 28.5q-30 0 -47.5 -28t-17.5 -81q0 -51 17.5 -80t47.5 -29t48 28z" />
    <glyph glyph-name="uni2074" unicode="&#x2074;" horiz-adv-x="354" 
d="M6 436zM288 848v-245h53v-99h-53v-68h-115v68h-167v69l192 275h90zM185 711l-82 -117h82v117z" />
    <glyph glyph-name="uni2075" unicode="&#x2075;" horiz-adv-x="338" 
d="M8 429zM288.5 666.5q33.5 -35.5 33.5 -95.5q0 -66 -42.5 -104t-130.5 -38q-82 0 -141 37l49 99q43 -36 90 -36q57 0 57 48q0 23 -14 34t-39 11q-34 0 -62 -22l-59 23l15 225h253v-104h-159l-5 -50q32 8 61 8q60 0 93.5 -35.5z" />
    <glyph glyph-name="uni2076" unicode="&#x2076;" horiz-adv-x="353" 
d="M17 429zM304.5 666.5q36.5 -33.5 36.5 -95.5q0 -68 -44 -105t-111 -37q-82 0 -125.5 52t-43.5 150q0 123 53 174t125 51q30 0 62.5 -7t54.5 -17l-34 -95q-35 19 -78 19q-35 0 -52 -18.5t-22 -53.5h1q37 16 74 16q67 0 103.5 -33.5zM219.5 542.5q12.5 11.5 12.5 28.5
q0 20 -15.5 32.5t-38.5 12.5q-28 0 -51 -18q9 -67 59 -67q21 0 33.5 11.5z" />
    <glyph glyph-name="uni2077" unicode="&#x2077;" horiz-adv-x="311" 
d="M15 435zM168 435h-125l126 307h-154v105h282v-76z" />
    <glyph glyph-name="uni2078" unicode="&#x2078;" horiz-adv-x="363" 
d="M18 428zM61.5 460.5q-43.5 32.5 -43.5 90.5q0 38 20.5 66t50.5 40v2q-20 9 -36.5 33t-16.5 52q0 54 40.5 82.5t105.5 28.5q66 0 105.5 -29t39.5 -82q0 -28 -16 -52t-36 -33v-2q31 -12 51 -40t20 -66q0 -58 -44 -90.5t-120 -32.5q-77 0 -120.5 32.5zM212.5 701.5
q11.5 9.5 11.5 26.5q0 16 -11.5 25.5t-30.5 9.5t-30.5 -9.5t-11.5 -25.5q0 -17 11.5 -26.5t30.5 -9.5t30.5 9.5zM216.5 535.5q12.5 11.5 12.5 30.5t-12.5 30.5t-34.5 11.5t-34.5 -11.5t-12.5 -30.5t12.5 -30.5t34.5 -11.5t34.5 11.5z" />
    <glyph glyph-name="uni2079" unicode="&#x2079;" horiz-adv-x="359" 
d="M16 428zM296 802.5q44 -52.5 44 -150.5q0 -122 -54 -173t-131 -51q-28 0 -61.5 6.5t-59.5 17.5l34 96q22 -11 45.5 -15.5t39.5 -4.5q36 0 54 18.5t23 53.5h-1q-35 -16 -74 -16q-66 0 -102.5 33t-36.5 94q0 69 44 106.5t110 37.5q82 0 126 -52.5zM140 679.5
q16 -12.5 39 -12.5q29 0 51 19q-9 67 -59 67q-21 0 -33.5 -11.5t-13.5 -29.5q0 -20 16 -32.5z" />
    <glyph glyph-name="uni207A" unicode="&#x207a;" horiz-adv-x="342" 
d="M32 497zM221 682h89v-95h-89v-90h-100v90h-89v95h89v91h100v-91z" />
    <glyph glyph-name="uni207B" unicode="&#x207b;" horiz-adv-x="350" 
d="M36 583zM314 583h-278v104h278v-104z" />
    <glyph glyph-name="uni207C" unicode="&#x207c;" horiz-adv-x="366" 
d="M44 495zM321 657h-277v91h277v-91zM321 495h-277v92h277v-92z" />
    <glyph glyph-name="uni207D" unicode="&#x207d;" horiz-adv-x="236" 
d="M124 367q-74 130 -74 273q0 76 21.5 148t58.5 125l88 -36q-21 -32 -40.5 -101t-19.5 -136q0 -72 18 -136t42 -104z" />
    <glyph glyph-name="uni207E" unicode="&#x207e;" horiz-adv-x="236" 
d="M19 400q24 40 42 104t18 136q0 67 -19.5 136.5t-41.5 100.5l89 36q37 -54 58.5 -125.5t21.5 -147.5q0 -141 -75 -273z" />
    <glyph glyph-name="uni207F" unicode="&#x207f;" horiz-adv-x="349" 
d="M19 -66v295h111v-31h2q37 37 88 37q109 0 109 -129v-172h-111v145q0 29 -10 42t-32 13q-46 0 -46 -52v-148h-111z" />
    <glyph glyph-name="uni2080" unicode="&#x2080;" horiz-adv-x="403" 
d="M19 0zM67.5 -17q-48.5 59 -48.5 157q0 102 50.5 158.5t131.5 56.5q86 0 134.5 -59t48.5 -156q0 -103 -50.5 -159.5t-132.5 -56.5q-85 0 -133.5 59zM249 58q18 28 18 81q0 52 -17.5 80.5t-48.5 28.5q-30 0 -47.5 -28t-17.5 -81q0 -51 17.5 -80t47.5 -29t48 28z" />
    <glyph glyph-name="uni2081" unicode="&#x2081;" horiz-adv-x="281" 
d="M6 0zM234 -66h-115v269l-56 -39l-57 88l140 94h88v-412z" />
    <glyph glyph-name="uni2082" unicode="&#x2082;" horiz-adv-x="330" 
d="M8 0zM17 -66l-1 76l122 126q25 25 37.5 43.5t12.5 34.5q0 31 -40 31q-39 0 -89 -33l-51 97q33 20 69 32t80 12q73 0 112 -33t39 -93q0 -36 -18 -70t-62 -74l-48 -43l1 -2h130v-104h-294z" />
    <glyph glyph-name="uni2083" unicode="&#x2083;" horiz-adv-x="342" 
d="M10 0zM76.5 -64q-36.5 9 -66.5 28l49 100q45 -36 95 -36q51 0 51 34q0 19 -13.5 28t-43.5 9h-26v84h29q26 0 38.5 9t12.5 24q0 33 -46 33q-45 0 -87 -27l-49 93q29 17 67.5 27.5t80.5 10.5q67 0 106 -30.5t39 -82.5q0 -59 -52 -92v-1q31 -14 48 -39t17 -61
q0 -56 -40.5 -88t-122.5 -32q-50 0 -86.5 9z" />
    <glyph glyph-name="uni2084" unicode="&#x2084;" horiz-adv-x="354" 
d="M6 0zM288 346v-245h53v-99h-53v-68h-115v68h-167v69l192 275h90zM185 209l-82 -117h82v117z" />
    <glyph glyph-name="uni2085" unicode="&#x2085;" horiz-adv-x="338" 
d="M8 0zM288.5 164.5q33.5 -35.5 33.5 -95.5q0 -66 -42.5 -104t-130.5 -38q-82 0 -141 37l49 99q43 -36 90 -36q57 0 57 48q0 23 -14 34t-39 11q-34 0 -62 -22l-59 23l15 225h253v-104h-159l-5 -50q32 8 61 8q60 0 93.5 -35.5z" />
    <glyph glyph-name="uni2086" unicode="&#x2086;" horiz-adv-x="353" 
d="M17 0zM304.5 164.5q36.5 -33.5 36.5 -95.5q0 -68 -44 -105t-111 -37q-82 0 -125.5 52t-43.5 150q0 123 53 174t125 51q30 0 62.5 -7t54.5 -17l-34 -95q-35 19 -78 19q-35 0 -52 -18.5t-22 -53.5h1q37 16 74 16q67 0 103.5 -33.5zM219.5 40.5q12.5 11.5 12.5 28.5
q0 20 -15.5 32.5t-38.5 12.5q-28 0 -51 -18q9 -67 59 -67q21 0 33.5 11.5z" />
    <glyph glyph-name="uni2087" unicode="&#x2087;" horiz-adv-x="311" 
d="M15 0zM168 -66h-125l126 307h-154v105h282v-76z" />
    <glyph glyph-name="uni2088" unicode="&#x2088;" horiz-adv-x="363" 
d="M18 0zM61.5 -41.5q-43.5 32.5 -43.5 90.5q0 38 20.5 66t50.5 40v2q-20 9 -36.5 33t-16.5 52q0 54 40.5 82.5t105.5 28.5q66 0 105.5 -29t39.5 -82q0 -28 -16 -52t-36 -33v-2q31 -12 51 -40t20 -66q0 -58 -44 -90.5t-120 -32.5q-77 0 -120.5 32.5zM212.5 199.5
q11.5 9.5 11.5 26.5q0 16 -11.5 25.5t-30.5 9.5t-30.5 -9.5t-11.5 -25.5q0 -17 11.5 -26.5t30.5 -9.5t30.5 9.5zM216.5 33.5q12.5 11.5 12.5 30.5t-12.5 30.5t-34.5 11.5t-34.5 -11.5t-12.5 -30.5t12.5 -30.5t34.5 -11.5t34.5 11.5z" />
    <glyph glyph-name="uni2089" unicode="&#x2089;" horiz-adv-x="359" 
d="M16 0zM296 300.5q44 -52.5 44 -150.5q0 -122 -54 -173t-131 -51q-28 0 -61.5 6.5t-59.5 17.5l34 96q22 -11 45.5 -15.5t39.5 -4.5q36 0 54 18.5t23 53.5h-1q-35 -16 -74 -16q-66 0 -102.5 33t-36.5 94q0 69 44 106.5t110 37.5q82 0 126 -52.5zM140 177.5
q16 -12.5 39 -12.5q29 0 51 19q-9 67 -59 67q-21 0 -33.5 -11.5t-13.5 -29.5q0 -20 16 -32.5z" />
    <glyph glyph-name="uni208A" unicode="&#x208a;" horiz-adv-x="342" 
d="M221 174h89v-95h-89v-90h-100v90h-89v95h89v91h100v-91z" />
    <glyph glyph-name="uni208B" unicode="&#x208b;" horiz-adv-x="350" 
d="M314 74h-278v104h278v-104z" />
    <glyph glyph-name="uni208C" unicode="&#x208c;" horiz-adv-x="365" 
d="M321 168h-277v91h277v-91zM321 6h-277v92h277v-92z" />
    <glyph glyph-name="uni208D" unicode="&#x208d;" horiz-adv-x="239" 
d="M124 -141q-35 63 -54.5 129.5t-19.5 143.5q0 76 21.5 147.5t58.5 126.5l90 -38q-21 -30 -40.5 -99.5t-19.5 -136.5q0 -71 18 -135.5t41 -104.5z" />
    <glyph glyph-name="uni208E" unicode="&#x208e;" horiz-adv-x="239" 
d="M20 -108q23 41 41.5 105t18.5 135q0 67 -19.5 137t-41.5 99l90 38q37 -54 58.5 -126t21.5 -148q0 -141 -74 -273z" />
    <glyph glyph-name="uni2090" unicode="&#x2090;" horiz-adv-x="368" 
d="M53.5 -30q-37.5 43 -37.5 112q0 68 36.5 110.5t93.5 42.5q54 0 91 -42h2v36h106v-295h-106v28h-2q-29 -35 -85 -35q-61 0 -98.5 43zM220.5 42q15.5 15 15.5 39t-15.5 39.5t-38.5 15.5q-24 0 -40 -15.5t-16 -39.5t16 -39t40 -15q23 0 38.5 15z" />
    <glyph glyph-name="uni2091" unicode="&#x2091;" horiz-adv-x="341" 
d="M325 55h-201q14 -41 73 -41q22 0 40.5 4.5t40.5 16.5l39 -84q-46 -24 -130 -24q-81 0 -127 41t-46 112q0 67 45 110.5t113 43.5q70 0 113 -43t43 -110q0 -20 -3 -26zM144.5 142.5q-14.5 -9.5 -20.5 -29.5h106q-6 19 -20 29t-33 10q-18 0 -32.5 -9.5z" />
    <glyph glyph-name="uni2092" unicode="&#x2092;" horiz-adv-x="358" 
d="M60.5 -30.5q-45.5 42.5 -45.5 111.5q0 68 45.5 110.5t118.5 42.5t118.5 -42.5t45.5 -110.5q0 -69 -45.5 -111.5t-118.5 -42.5t-118.5 42.5zM217 41q15 16 15 40t-15 39.5t-38 15.5t-38 -15t-15 -40t15 -40.5t38 -15.5t38 16z" />
    <glyph glyph-name="uni2093" unicode="&#x2093;" horiz-adv-x="321" 
d="M115 -66h-121l103 153l-100 142h126l36 -58h2l37 58h126l-102 -142l105 -153h-122l-44 59h-2z" />
    <glyph glyph-name="peseta" unicode="&#x20a7;" horiz-adv-x="650" 
d="M632 494v-83h-60q-11 -95 -71.5 -138t-157.5 -43h-97v-230h-162v411h-67v83h67v193h251q111 0 169.5 -51t68.5 -142h59zM244 552v-58h167q-17 58 -82 58h-85zM330 354q66 0 81 57h-167v-57h86z" />
    <glyph glyph-name="dong" unicode="&#x20ab;" horiz-adv-x="610" 
d="M29 0zM605 637v-92h-55v-545h-149v52h-2q-49 -61 -139 -61q-67 0 -119.5 32t-82 89.5t-29.5 131.5t29.5 131.5t80 90t113.5 32.5q42 0 78 -15.5t62 -45.5h1v108h-165v92h165v99h157v-99h55zM368.5 160.5q30.5 31.5 30.5 83.5q0 50 -30 83t-77 33q-45 0 -75 -32t-30 -84
q0 -51 29.5 -83t75.5 -32t76.5 31.5zM549 -177h-478v131h478v-131z" />
    <glyph glyph-name="Euro" unicode="&#x20ac;" horiz-adv-x="601" 
d="M584 52q-85 -60 -191 -60q-117 0 -203.5 59.5t-112.5 182.5h-67v83h56v22q0 21 1 31h-57v83h68q27 115 108.5 178t206.5 63q48 0 95.5 -15t90.5 -44l-94 -118q-44 29 -92 29q-46 0 -82.5 -22.5t-56.5 -70.5h203v-83h-221q-1 -10 -1 -31q0 -15 1 -22h221v-83h-205
q19 -47 55.5 -70.5t85.5 -23.5q55 0 101 31z" />
    <glyph glyph-name="uni20B1" unicode="&#x20b1;" horiz-adv-x="649" 
d="M631 550v-81h-56v-14v-15h56v-81h-70q-43 -129 -218 -129h-97v-230h-162v359h-67v81h67v29h-67v81h67v137h251q92 0 148 -36t78 -101h70zM244 565v-31h161q-22 31 -71 31h-90zM244 469v-29h182v12q0 12 -1 17h-181zM334 341q53 0 75 34h-165v-34h90z" />
    <glyph glyph-name="uni20B9" unicode="&#x20b9;" horiz-adv-x="574" 
d="M533 575h-139v-2q20 -23 32 -50h107v-104h-92q-7 -70 -54.5 -115.5t-123.5 -60.5v-2l250 -241h-202l-254 247v118h114q76 0 93 63h-207v91h207q-8 29 -29.5 45t-60.5 16h-117v107h476v-112z" />
    <glyph glyph-name="uni20BA" unicode="&#x20ba;" horiz-adv-x="578" 
d="M559 244q-35 -132 -102.5 -188t-172.5 -56h-204v185l-61 -29l-34 73l95 45v59l-61 -29l-34 73l95 45v265h169v-184l147 70l34 -74l-181 -86v-58l147 70l34 -74l-181 -86v-138h29q58 0 93.5 37t61.5 123z" />
    <glyph glyph-name="uni2113" unicode="&#x2113;" horiz-adv-x="457" 
d="M439 99q-32 -55 -77 -82t-100 -27q-82 0 -126.5 36.5t-54.5 103.5l-29 -22l-27 -21l-28 39l30 23q54 45 50 41l2 258q1 120 46.5 175.5t125.5 55.5q58 0 88.5 -41t30.5 -105q0 -79 -44.5 -154.5t-130.5 -156.5v-21q0 -81 27 -111.5t65 -30.5q30 0 57.5 20.5t49.5 50.5z
M216.5 567.5q-22.5 -37.5 -22.5 -115.5l1 -164q125 133 125 235q0 82 -53 82q-28 0 -50.5 -37.5z" />
    <glyph glyph-name="uni2116" unicode="&#x2116;" horiz-adv-x="1113" 
d="M779.5 450q-45.5 43 -45.5 112q0 68 45.5 110.5t117.5 42.5q73 0 118.5 -42.5t45.5 -110.5q0 -69 -45.5 -112t-118.5 -43q-72 0 -117.5 43zM228 0h-164v710h160l291 -439l2 1v438h165v-710h-164l-288 428h-2v-428zM935 522q15 16 15 40t-14.5 39.5t-38.5 15.5
q-23 0 -37.5 -15.5t-14.5 -39.5q0 -25 14.5 -40.5t37.5 -15.5t38 16zM1056 257h-313v105h313v-105z" />
    <glyph glyph-name="uni2117" unicode="&#x2117;" horiz-adv-x="723" 
d="M198 38q-74 44 -117 119t-43 162t43 162t117.5 119.5t163.5 44.5t163 -44t117 -119t43 -163q0 -87 -43 -161.5t-117.5 -119t-163.5 -44.5t-163 44zM476 120q52 31 82 84t30 115q0 63 -29.5 116t-81.5 83.5t-115 30.5q-64 0 -116 -31t-82 -84t-30 -116t29.5 -115.5
t81.5 -83t116 -30.5q63 0 115 31zM244 159v324h129q58 0 87 -31t29 -83q0 -54 -32.5 -82t-89.5 -28h-41v-100h-82zM354 333q22 0 35 10t13 28q0 16 -12.5 26.5t-35.5 10.5h-28v-75h28z" />
    <glyph glyph-name="trademark" unicode="&#x2122;" horiz-adv-x="678" 
d="M187 387h-91v242h-81v81h252v-81h-80v-242zM396 387h-88v323h92l78 -158l76 158h93v-323h-90v156l-51 -97h-58l-52 97v-156z" />
    <glyph glyph-name="uni2126" unicode="&#x2126;" horiz-adv-x="745" 
d="M46 0v149h107l1 2q-116 94 -116 243q0 93 41 167.5t117 116.5t176 42t176 -42t117.5 -116.5t41.5 -167.5q0 -148 -116 -243l1 -2h107v-149h-284v149q117 102 117 237q0 79 -43.5 130t-114.5 51q-72 0 -117 -50.5t-45 -130.5q0 -134 118 -237v-149h-284z" />
    <glyph glyph-name="estimated" unicode="&#x212e;" horiz-adv-x="786" 
d="M215.5 33q-80.5 43 -127.5 117t-47 161q0 88 47 161.5t127.5 116.5t176.5 43q97 0 178 -43t128 -117t47 -161v-9h-495v-237q65 -37 143 -37q133 0 211 84h65q-48 -56 -121 -89t-156 -33q-96 0 -176.5 43zM250 347h287v211q-30 17 -67.5 26t-76.5 9q-80 0 -143 -37v-209z
" />
    <glyph glyph-name="oneeighth" unicode="&#x215b;" horiz-adv-x="848" 
d="M6 0zM6 298zM234 298h-115v269l-56 -39l-57 88l140 94h88v-412zM620 679l-316 -705l-112 48l316 705zM546.5 24.5q-43.5 32.5 -43.5 90.5q0 38 20.5 66t50.5 40v2q-20 9 -36.5 33t-16.5 52q0 54 40.5 82.5t105.5 28.5q66 0 105.5 -29t39.5 -82q0 -28 -16 -52t-36 -33v-2
q31 -12 51 -40t20 -66q0 -58 -44 -90.5t-120 -32.5q-77 0 -120.5 32.5zM697.5 265.5q11.5 9.5 11.5 26.5q0 16 -11.5 25.5t-30.5 9.5t-30.5 -9.5t-11.5 -25.5q0 -17 11.5 -26.5t30.5 -9.5t30.5 9.5zM701.5 99.5q12.5 11.5 12.5 30.5t-12.5 30.5t-34.5 11.5t-34.5 -11.5
t-12.5 -30.5t12.5 -30.5t34.5 -11.5t34.5 11.5z" />
    <glyph glyph-name="threeeighths" unicode="&#x215c;" horiz-adv-x="884" 
d="M10 0zM10 291zM76.5 300q-36.5 9 -66.5 28l49 100q45 -36 95 -36q51 0 51 34q0 19 -13.5 28t-43.5 9h-26v84h29q26 0 38.5 9t12.5 24q0 33 -46 33q-45 0 -87 -27l-49 93q29 17 67.5 27.5t80.5 10.5q67 0 106 -30.5t39 -82.5q0 -59 -52 -92v-1q31 -14 48 -39t17 -61
q0 -56 -40.5 -88t-122.5 -32q-50 0 -86.5 9zM656 679l-316 -705l-112 48l316 705zM582.5 24.5q-43.5 32.5 -43.5 90.5q0 38 20.5 66t50.5 40v2q-20 9 -36.5 33t-16.5 52q0 54 40.5 82.5t105.5 28.5q66 0 105.5 -29t39.5 -82q0 -28 -16 -52t-36 -33v-2q31 -12 51 -40t20 -66
q0 -58 -44 -90.5t-120 -32.5q-77 0 -120.5 32.5zM733.5 265.5q11.5 9.5 11.5 26.5q0 16 -11.5 25.5t-30.5 9.5t-30.5 -9.5t-11.5 -25.5q0 -17 11.5 -26.5t30.5 -9.5t30.5 9.5zM737.5 99.5q12.5 11.5 12.5 30.5t-12.5 30.5t-34.5 11.5t-34.5 -11.5t-12.5 -30.5t12.5 -30.5
t34.5 -11.5t34.5 11.5z" />
    <glyph glyph-name="fiveeighths" unicode="&#x215d;" horiz-adv-x="875" 
d="M8 0zM8 292zM288.5 529.5q33.5 -35.5 33.5 -95.5q0 -66 -42.5 -104t-130.5 -38q-82 0 -141 37l49 99q43 -36 90 -36q57 0 57 48q0 23 -14 34t-39 11q-34 0 -62 -22l-59 23l15 225h253v-104h-159l-5 -50q32 8 61 8q60 0 93.5 -35.5zM647 679l-316 -705l-112 48l316 705z
M573.5 24.5q-43.5 32.5 -43.5 90.5q0 38 20.5 66t50.5 40v2q-20 9 -36.5 33t-16.5 52q0 54 40.5 82.5t105.5 28.5q66 0 105.5 -29t39.5 -82q0 -28 -16 -52t-36 -33v-2q31 -12 51 -40t20 -66q0 -58 -44 -90.5t-120 -32.5q-77 0 -120.5 32.5zM724.5 265.5q11.5 9.5 11.5 26.5
q0 16 -11.5 25.5t-30.5 9.5t-30.5 -9.5t-11.5 -25.5q0 -17 11.5 -26.5t30.5 -9.5t30.5 9.5zM728.5 99.5q12.5 11.5 12.5 30.5t-12.5 30.5t-34.5 11.5t-34.5 -11.5t-12.5 -30.5t12.5 -30.5t34.5 -11.5t34.5 11.5z" />
    <glyph glyph-name="seveneighths" unicode="&#x215e;" horiz-adv-x="816" 
d="M15 0zM15 298zM168 298h-125l126 307h-154v105h282v-76zM588 679l-316 -705l-112 48l316 705zM514.5 24.5q-43.5 32.5 -43.5 90.5q0 38 20.5 66t50.5 40v2q-20 9 -36.5 33t-16.5 52q0 54 40.5 82.5t105.5 28.5q66 0 105.5 -29t39.5 -82q0 -28 -16 -52t-36 -33v-2
q31 -12 51 -40t20 -66q0 -58 -44 -90.5t-120 -32.5q-77 0 -120.5 32.5zM665.5 265.5q11.5 9.5 11.5 26.5q0 16 -11.5 25.5t-30.5 9.5t-30.5 -9.5t-11.5 -25.5q0 -17 11.5 -26.5t30.5 -9.5t30.5 9.5zM669.5 99.5q12.5 11.5 12.5 30.5t-12.5 30.5t-34.5 11.5t-34.5 -11.5
t-12.5 -30.5t12.5 -30.5t34.5 -11.5t34.5 11.5z" />
    <glyph glyph-name="arrowleft" unicode="&#x2190;" horiz-adv-x="883" 
d="M317 436h535v-163h-534l276 -272h-224l-355 354l355 354h224z" />
    <glyph glyph-name="arrowup" unicode="&#x2191;" horiz-adv-x="770" 
d="M385 837l354 -355v-224l-272 276v-534h-163v535l-273 -277v224z" />
    <glyph glyph-name="arrowright" unicode="&#x2192;" horiz-adv-x="883" 
d="M289 709h224l355 -354l-355 -354h-224l276 272h-534v163h535z" />
    <glyph glyph-name="arrowdown" unicode="&#x2193;" horiz-adv-x="770" 
d="M466 710v-535l273 277v-224l-354 -355l-354 355v224l272 -276v534h163z" />
    <glyph glyph-name="arrowboth" unicode="&#x2194;" horiz-adv-x="1288" 
d="M694 709h224l355 -354l-355 -354h-224l276 272h-652l276 -272h-224l-355 354l355 354h224l-277 -273h654z" />
    <glyph glyph-name="arrowupdn" unicode="&#x2195;" horiz-adv-x="770" 
d="M466 679v-654l273 277v-224l-354 -355l-354 355v224l272 -276v652l-272 -276v224l354 355l354 -355v-224z" />
    <glyph glyph-name="uni2196" unicode="&#x2196;" horiz-adv-x="719" 
d="M540 710l158 -158l-389 3l379 -379l-115 -116l-378 378l3 -387l-159 158v501h501z" />
    <glyph glyph-name="uni2197" unicode="&#x2197;" horiz-adv-x="719" 
d="M21 553l159 158h501v-501l-160 -158l3 387l-378 -378l-115 116l379 379z" />
    <glyph glyph-name="uni2198" unicode="&#x2198;" horiz-adv-x="719" 
d="M524 272l-3 387l159 -158v-501h-501l-158 158l389 -3l-379 379l115 116z" />
    <glyph glyph-name="uni2199" unicode="&#x2199;" horiz-adv-x="719" 
d="M688 534l-379 -379l389 3l-158 -158h-501v501l159 158l-3 -387l378 378z" />
    <glyph glyph-name="partialdiff" unicode="&#x2202;" horiz-adv-x="584" 
d="M486 573q56 -122 56 -275q0 -100 -33.5 -169t-90.5 -103.5t-128 -34.5q-68 0 -124.5 29t-90 81t-33.5 120q0 70 29 120.5t76.5 76.5t102.5 26q35 0 69.5 -10t61.5 -28l2 1q-10 73 -39.5 114.5t-88.5 42.5q-20 0 -45 -5.5t-64 -16.5q-5 -2 -23 -7l-42 120q50 19 103 29.5
t92 10.5q154 0 210 -122zM361.5 170.5q28.5 35.5 28.5 93.5v1q-20 24 -46 38.5t-53 14.5q-42 0 -67 -25t-25 -66q0 -39 25.5 -65.5t67.5 -26.5q41 0 69.5 35.5z" />
    <glyph glyph-name="emptyset" unicode="&#x2205;" horiz-adv-x="729" 
d="M623 508q61 -87 61 -190q0 -86 -42.5 -160t-116 -118t-162.5 -44q-104 0 -190 63l-52 -52l-63 61l53 53q-31 42 -48.5 92.5t-17.5 104.5q0 86 42.5 160t116 117.5t161.5 43.5q56 0 106 -17.5t90 -50.5l49 49l62 -63zM198 208l275 275q-49 33 -109 33q-55 0 -100 -27
t-71 -73t-26 -100q0 -60 31 -108zM463 146q45 27 71 72.5t26 99.5q0 52 -26 101l-273 -272q47 -28 102 -28t100 27z" />
    <glyph glyph-name="uni2206" unicode="&#x2206;" horiz-adv-x="684" 
d="M655 0h-626v128l230 582h165l231 -582v-128zM341 502l-126 -353h252l-124 353h-2z" />
    <glyph glyph-name="product" unicode="&#x220f;" horiz-adv-x="683" 
d="M231 -106h-167v816h555v-816h-168v667h-220v-667z" />
    <glyph glyph-name="summation" unicode="&#x2211;" horiz-adv-x="610" 
d="M571 -72h-528v116l217 275l-217 271v120h528v-149h-308l-1 -3l178 -239l-178 -239l1 -3h308v-149z" />
    <glyph glyph-name="minus" unicode="&#x2212;" horiz-adv-x="560" 
d="M519 212h-478v131h478v-131z" />
    <glyph glyph-name="radical" unicode="&#x221a;" horiz-adv-x="748" 
d="M408 0h-99l-167 500h-115v125h236l135 -422h2l296 619h107z" />
    <glyph glyph-name="infinity" unicode="&#x221e;" horiz-adv-x="752" 
d="M626 433q39 -23 61.5 -63t22.5 -90q0 -53 -23.5 -93t-62 -61.5t-84.5 -21.5t-86.5 23t-78.5 70q-36 -46 -76 -69.5t-87 -23.5q-48 0 -87 23t-61 63t-22 90q0 53 23.5 93t62.5 61.5t84 21.5q46 0 86 -23t77 -70q38 46 78 69.5t87 23.5t86 -23zM270.5 234q19.5 15 43.5 46
q-24 31 -43 46t-46 15q-26 0 -42.5 -15.5t-16.5 -45.5t16.5 -45.5t42.5 -15.5t45.5 15zM569 234.5q16 15.5 16 45.5t-16 45.5t-42 15.5q-25 0 -45.5 -15t-44.5 -46q25 -31 44.5 -46t45.5 -15t42 15.5z" />
    <glyph glyph-name="integral" unicode="&#x222b;" horiz-adv-x="443" 
d="M-30 -167l19 118h8q33 0 48 9t21 29.5t14 70.5l75 491q11 74 57.5 113.5t109.5 41.5q40 0 71.5 -6t44.5 -12l-17 -109l-42 1q-33 0 -47.5 -8.5t-20.5 -28.5t-14 -72l-74 -492q-11 -73 -57.5 -112.5t-109.5 -41.5q-37 -1 -86 8z" />
    <glyph glyph-name="uni2236" unicode="&#x2236;" horiz-adv-x="279" 
d="M45 49zM45 58zM71 404.5q-26 25.5 -26 62.5t26.5 63t63.5 26t63.5 -26t26.5 -63t-26.5 -62.5t-63.5 -25.5q-38 0 -64 25.5zM71 74.5q-26 25.5 -26 62.5t26.5 63t63.5 26t63.5 -26t26.5 -63t-26.5 -62.5t-63.5 -25.5q-38 0 -64 25.5z" />
    <glyph glyph-name="approxequal" unicode="&#x2248;" horiz-adv-x="587" 
d="M367 309q-20 6 -52 18q-34 13 -57.5 19.5t-50.5 6.5q-51 0 -117 -39l-42 98q17 20 58.5 44.5t84.5 24.5q27 0 50.5 -7t57.5 -20q30 -12 50.5 -18t41.5 -6q54 0 104 43l43 -101q-20 -26 -55 -47.5t-75 -21.5q-21 0 -41 6zM367 86q-20 6 -52 18q-34 13 -57.5 19.5
t-50.5 6.5q-55 0 -117 -39l-42 99q18 21 59.5 45t83.5 24q27 0 50.5 -7t57.5 -20q30 -12 50.5 -18t41.5 -6q57 0 104 42l43 -101q-20 -26 -55 -47.5t-75 -21.5q-21 0 -41 6z" />
    <glyph glyph-name="notequal" unicode="&#x2260;" horiz-adv-x="582" 
d="M530 458v-131h-155l-47 -100h202v-130h-262l-47 -100l-95 36l30 64h-104v130h164l47 100h-211v131h272l52 111l95 -37l-35 -74h94z" />
    <glyph glyph-name="lessequal" unicode="&#x2264;" horiz-adv-x="577" 
d="M528 316v-141l-471 197v109l471 202v-144l-278 -111zM528 131v-131h-472v131h472z" />
    <glyph glyph-name="greaterequal" unicode="&#x2265;" horiz-adv-x="577" 
d="M528 372l-471 -197v141l278 112l-278 111v144l471 -202v-109zM529 0h-472v131h472v-131z" />
    <glyph glyph-name="filledbox" unicode="&#x25a0;" horiz-adv-x="643" 
d="M597 0h-552v551h552v-551z" />
    <glyph glyph-name="uni25A1" unicode="&#x25a1;" horiz-adv-x="643" 
d="M597 0h-552v551h552v-551zM160 436v-321h322v321h-322z" />
    <glyph glyph-name="triagup" unicode="&#x25b2;" horiz-adv-x="642" 
d="M634 0h-627l314 580z" />
    <glyph glyph-name="uni25B3" unicode="&#x25b3;" horiz-adv-x="642" 
d="M634 0h-627l314 580zM321 352l-132 -245h263z" />
    <glyph glyph-name="uni25B6" unicode="&#x25b6;" horiz-adv-x="637" 
d="M629 275l-579 -313v627z" />
    <glyph glyph-name="uni25B7" unicode="&#x25b7;" horiz-adv-x="637" 
d="M629 275l-579 -313v627zM158 407v-263l243 131z" />
    <glyph glyph-name="triagdn" unicode="&#x25bc;" horiz-adv-x="642" 
d="M634 551l-313 -579l-314 579h627z" />
    <glyph glyph-name="uni25BD" unicode="&#x25bd;" horiz-adv-x="642" 
d="M634 551l-313 -579l-314 579h627zM189 444l132 -244l131 244h-263z" />
    <glyph glyph-name="uni25C0" unicode="&#x25c0;" horiz-adv-x="637" 
d="M587 589v-627l-580 313z" />
    <glyph glyph-name="uni25C1" unicode="&#x25c1;" horiz-adv-x="637" 
d="M587 589v-627l-580 313zM235 275l244 -131v263z" />
    <glyph glyph-name="uni25C6" unicode="&#x25c6;" horiz-adv-x="693" 
d="M686 275l-339 -339l-340 339l340 340z" />
    <glyph glyph-name="uni25C7" unicode="&#x25c7;" horiz-adv-x="693" 
d="M686 275l-339 -339l-340 339l340 340zM163 275l184 -183l183 183l-183 184z" />
    <glyph glyph-name="lozenge" unicode="&#x25ca;" horiz-adv-x="502" 
d="M469 338l-223 -338l-214 338l214 339zM176 338l71 -120l75 120l-75 125z" />
    <glyph glyph-name="circle" unicode="&#x25cb;" horiz-adv-x="651" 
d="M182.5 29q-65.5 38 -103.5 103.5t-38 142.5q0 78 38 143.5t103.5 104t143.5 38.5q77 0 142.5 -38.5t103.5 -104t38 -143.5q0 -77 -38 -142.5t-103.5 -103.5t-142.5 -38q-78 0 -143.5 38zM412.5 124.5q39.5 23.5 63 63.5t23.5 87t-23.5 87t-63 63.5t-86.5 23.5t-87 -23.5
t-63.5 -63.5t-23.5 -87t23.5 -87t63.5 -63.5t87 -23.5t86.5 23.5z" />
    <glyph glyph-name="uni25CF" unicode="&#x25cf;" horiz-adv-x="651" 
d="M182.5 29q-65.5 38 -103.5 103.5t-38 142.5q0 78 38 143.5t103.5 104t143.5 38.5q77 0 142.5 -38.5t103.5 -104t38 -143.5q0 -77 -38 -142.5t-103.5 -103.5t-142.5 -38q-78 0 -143.5 38z" />
    <glyph glyph-name="uni2605" unicode="&#x2605;" horiz-adv-x="756" 
d="M377 128l-227 -165l87 267l-228 167h282l86 268l88 -268h282l-229 -167l88 -267z" />
    <glyph glyph-name="uni2606" unicode="&#x2606;" horiz-adv-x="756" 
d="M377 128l-227 -165l87 267l-228 167h282l86 268l88 -268h282l-229 -167l88 -267zM330 257l-28 -87l75 54l76 -54l-29 87l78 57h-95l-29 88l-28 -88h-97z" />
    <glyph glyph-name="uni2610" unicode="&#x2610;" horiz-adv-x="783" 
d="M597 0h-552v551h552v-551zM160 436v-321h322v321h-322z" />
    <glyph glyph-name="uni2713" unicode="&#x2713;" horiz-adv-x="646" 
d="M200 245l382 481l93 -75l-466 -579l-194 197l83 80z" />
    <glyph glyph-name="uni2715" unicode="&#x2715;" horiz-adv-x="646" 
d="M298 163l-100 -100l-80 80l100 97l-100 98l81 81l97 -100l98 101l80 -82l-99 -98l99 -98l-79 -79z" />
    <glyph glyph-name="uni2780" unicode="&#x2780;" horiz-adv-x="764" 
d="M203 38q-82 48 -130.5 130t-48.5 179t48.5 179t130.5 130.5t179 48.5t179 -48.5t130.5 -130.5t48.5 -179t-48.5 -179t-130.5 -130t-179 -48t-179 48zM515 117.5q61 35.5 97 96.5t36 133t-36 133t-97 97t-133 36t-133 -36t-97 -97t-36 -133t36 -133t97 -96.5t133 -35.5
t133 35.5zM452 143h-115v269l-56 -39l-57 88l140 94h88v-412z" />
    <glyph glyph-name="uni2781" unicode="&#x2781;" horiz-adv-x="764" 
d="M203 38q-82 48 -130.5 130t-48.5 179t48.5 179t130.5 130.5t179 48.5t179 -48.5t130.5 -130.5t48.5 -179t-48.5 -179t-130.5 -130t-179 -48t-179 48zM515 118q61 36 97 97t36 132q0 72 -36 133t-97 97t-133 36t-133 -36t-97 -97t-36 -133t36 -133t97 -96.5t133 -35.5
t133 36zM236 143l-2 76l123 126q25 26 37 44t12 34q0 31 -40 31q-38 0 -88 -33l-51 97q73 44 148 44q73 0 112 -33t39 -93q0 -37 -18 -71t-62 -73l-47 -43l1 -2h130v-104h-294z" />
    <glyph glyph-name="uni2782" unicode="&#x2782;" horiz-adv-x="764" 
d="M203 38q-82 48 -130.5 130t-48.5 179t48.5 179t130.5 130.5t179 48.5t179 -48.5t130.5 -130.5t48.5 -179t-48.5 -179t-130.5 -130t-179 -48t-179 48zM515 117.5q61 35.5 97 96.5t36 133t-36 133t-97 97t-133 36t-133 -36t-97 -97t-36 -133t36 -133t97 -96.5t133 -35.5
t133 35.5zM299 145q-36 9 -67 28l49 100q44 -36 94 -36q52 0 52 34q0 37 -57 37h-27v84h30q26 0 38.5 9t12.5 24q0 33 -47 33q-44 0 -87 -27l-49 93q30 17 68 27.5t80 10.5q67 0 106.5 -30.5t39.5 -82.5q0 -59 -53 -92v-1q31 -14 48.5 -39.5t17.5 -60.5q0 -56 -40.5 -88
t-122.5 -32q-50 0 -86 9z" />
    <glyph glyph-name="uni2783" unicode="&#x2783;" horiz-adv-x="764" 
d="M561 656.5q82 -48.5 130.5 -130.5t48.5 -179t-48.5 -179t-130.5 -130t-179 -48t-179 48t-130.5 130t-48.5 179t48.5 179t130.5 130.5t179 48.5t179 -48.5zM515 117.5q61 35.5 97 96.5t36 133t-36 133t-97 97t-133 36t-133 -36t-97 -97t-36 -133t36 -133t97 -96.5
t133 -35.5t133 35.5zM394 555h90v-245h53v-99h-53v-68h-115v68h-167v69zM381 418l-82 -117h82v117z" />
    <glyph glyph-name="uni2784" unicode="&#x2784;" horiz-adv-x="764" 
d="M561 656.5q82 -48.5 130.5 -130.5t48.5 -179t-48.5 -179t-130.5 -130t-179 -48t-179 48t-130.5 130t-48.5 179t48.5 179t130.5 130.5t179 48.5t179 -48.5zM515 117.5q61 35.5 97 96.5t36 133t-36 133t-97 97t-133 36t-133 -36t-97 -97t-36 -133t36 -133t97 -96.5
t133 -35.5t133 35.5zM508.5 373.5q33.5 -35.5 33.5 -95.5q0 -66 -42.5 -104t-130.5 -38q-82 0 -141 37l49 99q44 -36 90 -36q57 0 57 48q0 23 -14 34t-39 11q-34 0 -62 -22l-59 23l15 225h253v-104h-159l-5 -50q32 8 61 8q60 0 93.5 -35.5z" />
    <glyph glyph-name="uni2785" unicode="&#x2785;" horiz-adv-x="764" 
d="M561 656.5q82 -48.5 130.5 -130.5t48.5 -179t-48.5 -179t-130.5 -130t-179 -48t-179 48t-130.5 130t-48.5 179t48.5 179t130.5 130.5t179 48.5t179 -48.5zM515 117.5q61 35.5 97 96.5t36 133t-36 133t-97 97t-133 36t-133 -36t-97 -97t-36 -133t36 -133t97 -96.5
t133 -35.5t133 35.5zM501.5 372.5q36.5 -33.5 36.5 -95.5q0 -68 -43.5 -105t-110.5 -37q-82 0 -126 52.5t-44 149.5q0 123 53 174t125 51q30 0 62.5 -7t55.5 -17l-35 -95q-18 10 -39 14.5t-38 4.5q-35 0 -52 -18.5t-22 -53.5h1q35 16 74 16q66 0 102.5 -33.5zM416.5 248
q12.5 11 13.5 29q0 20 -16 32.5t-39 12.5q-29 0 -51 -19q9 -66 59 -66q21 0 33.5 11z" />
    <glyph glyph-name="uni2786" unicode="&#x2786;" horiz-adv-x="764" 
d="M203 38q-82 48 -130.5 130t-48.5 179t48.5 179t130.5 130.5t179 48.5t179 -48.5t130.5 -130.5t48.5 -179t-48.5 -179t-130.5 -130t-179 -48t-179 48zM515 117.5q61 35.5 97 96.5t36 133t-36 133t-97 97t-133 36t-133 -36t-97 -97t-36 -133t36 -133t97 -96.5t133 -35.5
t133 35.5zM397 143h-125l126 307h-154v105h282v-76z" />
    <glyph glyph-name="uni2787" unicode="&#x2787;" horiz-adv-x="764" 
d="M203 38q-82 48 -130.5 130t-48.5 179t48.5 179t130.5 130.5t179 48.5t179 -48.5t130.5 -130.5t48.5 -179t-48.5 -179t-130.5 -130t-179 -48t-179 48zM515 117.5q61 35.5 97 96.5t36 133t-36 133t-97 97t-133 36t-133 -36t-97 -97t-36 -133t36 -133t97 -96.5t133 -35.5
t133 35.5zM262.5 167.5q-43.5 32.5 -43.5 90.5q0 38 20 66t50 40v2q-20 9 -36 33t-16 52q0 54 40 82.5t105 28.5q66 0 105.5 -29t39.5 -82q0 -28 -16 -52t-35 -33v-2q30 -12 50 -39.5t20 -66.5q0 -58 -44 -90.5t-120 -32.5t-119.5 32.5zM412.5 408.5q11.5 9.5 11.5 26.5
q0 16 -11.5 25.5t-30.5 9.5t-30 -9.5t-11 -25.5q0 -17 11 -26.5t30 -9.5t30.5 9.5zM416.5 242.5q12.5 11.5 12.5 30.5t-12.5 30.5t-34.5 11.5t-34.5 -11.5t-12.5 -30.5t13 -30.5t34 -11.5q22 0 34.5 11.5z" />
    <glyph glyph-name="uni2788" unicode="&#x2788;" horiz-adv-x="764" 
d="M561 656.5q82 -48.5 130.5 -130.5t48.5 -179t-48.5 -179t-130.5 -130t-179 -48t-179 48t-130.5 130t-48.5 179t48.5 179t130.5 130.5t179 48.5t179 -48.5zM515 117.5q61 35.5 97 96.5t36 133t-36 133t-97 97t-133 36t-133 -36t-97 -97t-36 -133t36 -133t97 -96.5
t133 -35.5t133 35.5zM511 509.5q44 -52.5 44 -150.5q0 -122 -54.5 -173t-131.5 -51q-27 0 -60.5 6.5t-59.5 17.5l33 96q23 -11 46.5 -15.5t39.5 -4.5q36 0 54 18.5t23 53.5l-1 1q-36 -17 -75 -17q-66 0 -102.5 33t-36.5 94q0 69 44 106.5t111 37.5q82 0 126 -52.5z
M355 386.5q16 -12.5 38 -12.5q30 0 52 19q-9 67 -59 67q-21 0 -33.5 -11.5t-13.5 -29.5q0 -20 16 -32.5z" />
    <glyph glyph-name="uni278A" unicode="&#x278a;" horiz-adv-x="764" 
d="M203 38q-82 48 -130.5 130t-48.5 179t48.5 179t130.5 130.5t179 48.5t179 -48.5t130.5 -130.5t48.5 -179t-48.5 -179t-130.5 -130t-179 -48t-179 48zM337 412v-269h115v412h-89l-139 -94l57 -88z" />
    <glyph glyph-name="uni278B" unicode="&#x278b;" horiz-adv-x="764" 
d="M203 38q-82 48 -130.5 130t-48.5 179t48.5 179t130.5 130.5t179 48.5t179 -48.5t130.5 -130.5t48.5 -179t-48.5 -179t-130.5 -130t-179 -48t-179 48zM236 143h294v104h-130l-1 2l47 43q44 39 62 73t18 71q0 60 -39 93t-112 33q-75 0 -148 -44l51 -97q50 33 88 33
q40 0 40 -31q0 -16 -12 -34t-37 -44l-123 -126z" />
    <glyph glyph-name="uni278C" unicode="&#x278c;" horiz-adv-x="764" 
d="M203 38q-82 48 -130.5 130t-48.5 179t48.5 179t130.5 130.5t179 48.5t179 -48.5t130.5 -130.5t48.5 -179t-48.5 -179t-130.5 -130t-179 -48t-179 48zM507.5 168q40.5 32 40.5 88q0 35 -17.5 60.5t-48.5 39.5v1q53 33 53 92q0 52 -39.5 82.5t-106.5 30.5q-42 0 -80 -10.5
t-68 -27.5l49 -93q43 27 87 27q47 0 47 -34q0 -14 -13 -23t-38 -9h-27v-84h24q57 0 57 -37q0 -34 -51 -34t-95 36l-49 -100q30 -19 67 -28t87 -9q81 0 121.5 32z" />
    <glyph glyph-name="uni278D" unicode="&#x278d;" horiz-adv-x="764" 
d="M203 38q-82 48 -130.5 130t-48.5 179t48.5 179t130.5 130.5t179 48.5t179 -48.5t130.5 -130.5t48.5 -179t-48.5 -179t-130.5 -130t-179 -48t-179 48zM368 211v-68h115v68h53v99h-53v245h-91l-188 -275v-69h164zM379 302h-78l78 113v-113z" />
    <glyph glyph-name="uni278E" unicode="&#x278e;" horiz-adv-x="764" 
d="M203 38q-82 48 -130.5 130t-48.5 179t48.5 179t130.5 130.5t179 48.5t179 -48.5t130.5 -130.5t48.5 -179t-48.5 -179t-130.5 -130t-179 -48t-179 48zM500 174.5q42 38.5 42 104.5q0 59 -33.5 94.5t-94.5 35.5q-24 0 -60 -9l5 51h159v104h-253l-15 -225l59 -23
q28 22 62 22q25 0 39 -11t14 -34q0 -48 -57 -48q-46 0 -90 36l-49 -99q30 -19 65 -28t79 -9q86 0 128 38.5z" />
    <glyph glyph-name="uni278F" unicode="&#x278f;" horiz-adv-x="764" 
d="M203 38q-82 48 -130.5 130t-48.5 179t48.5 179t130.5 130.5t179 48.5t179 -48.5t130.5 -130.5t48.5 -179t-48.5 -179t-130.5 -130t-179 -48t-179 48zM494 172q44 37 44 105q0 62 -36.5 95.5t-103.5 33.5q-38 0 -74 -18h-1q5 36 21.5 55t52.5 19q16 0 37 -4.5t40 -13.5
l34 94q-21 10 -53.5 17t-62.5 7q-72 0 -125.5 -51.5t-53.5 -173.5q0 -97 44 -149.5t126 -52.5q67 0 111 37zM342.5 252.5q-14.5 15.5 -19.5 50.5q22 19 52 19q23 0 38.5 -12.5t15.5 -32.5q0 -18 -13 -29t-34 -11q-25 0 -39.5 15.5z" />
    <glyph glyph-name="uni2790" unicode="&#x2790;" horiz-adv-x="764" 
d="M203 38q-82 48 -130.5 130t-48.5 179t48.5 179t130.5 130.5t179 48.5t179 -48.5t130.5 -130.5t48.5 -179t-48.5 -179t-130.5 -130t-179 -48t-179 48zM398 450l-126 -307h125l129 336v76h-282v-105h154z" />
    <glyph glyph-name="uni2791" unicode="&#x2791;" horiz-adv-x="764" 
d="M203 38q-82 48 -130.5 130t-48.5 179t48.5 179t130.5 130.5t179 48.5t179 -48.5t130.5 -130.5t48.5 -179t-48.5 -179t-130.5 -130t-179 -48t-179 48zM502 167.5q44 32.5 44 90.5q0 39 -20 66.5t-50 39.5v2q19 9 35 33t16 52q0 53 -39.5 82t-105.5 29q-65 0 -105 -28.5
t-40 -82.5q0 -28 16 -52t36 -33v-2q-30 -12 -50 -40t-20 -66q0 -58 43.5 -90.5t119.5 -32.5t120 32.5zM352 408.5q-11 9.5 -11 26.5q0 16 11 25.5t30 9.5t30.5 -9.5t11.5 -25.5q0 -17 -11.5 -26.5t-30.5 -9.5t-30 9.5zM348 242.5q-13 11.5 -13 30.5t12.5 30.5t34.5 11.5
t34.5 -11.5t12.5 -30.5t-12.5 -30.5t-34.5 -11.5q-21 0 -34 11.5z" />
    <glyph glyph-name="uni2792" unicode="&#x2792;" horiz-adv-x="764" 
d="M203 38q-82 48 -130.5 130t-48.5 179t48.5 179t130.5 130.5t179 48.5t179 -48.5t130.5 -130.5t48.5 -179t-48.5 -179t-130.5 -130t-179 -48t-179 48zM500.5 186q54.5 51 54.5 173q0 98 -44 150.5t-126 52.5q-67 0 -111 -37.5t-44 -106.5q0 -61 36.5 -94t102.5 -33
q44 0 75 18h2q-6 -36 -23.5 -55t-54.5 -19q-16 0 -39.5 4.5t-46.5 15.5l-33 -96q26 -11 59.5 -17.5t60.5 -6.5q77 0 131.5 51zM355 386.5q-16 12.5 -16 32.5q0 18 13 29.5t34 11.5q50 0 59 -66q-24 -20 -52 -20q-22 0 -38 12.5z" />
    <glyph glyph-name="uni2E18" unicode="&#x2e18;" horiz-adv-x="446" 
d="M204 348q-26 26 -26 62q0 37 26 63t63 26q38 0 64.5 -26t26.5 -63q0 -36 -27 -62t-64 -26t-63 26zM462 -165q-35 -41 -93 -66.5t-121 -25.5q-97 0 -157.5 51.5t-60.5 140.5q0 57 23.5 97.5t65.5 79.5l17 16q30 26 44.5 43.5t16.5 36.5l4 40h129l26 -295h-140v73l-2 1
q-36 -41 -36 -84q0 -32 19 -50t57 -18q29 0 59.5 12.5t52.5 33.5z" />
    <glyph glyph-name="u1F10B" unicode="&#x1f10b;" horiz-adv-x="764" 
d="M203 38q-82 48 -130.5 130t-48.5 179t48.5 179t130.5 130.5t179 48.5t179 -48.5t130.5 -130.5t48.5 -179t-48.5 -179t-130.5 -130t-179 -48t-179 48zM515 117.5q61 35.5 97 96.5t36 133t-36 133t-97 97t-133 36t-133 -36t-97 -97t-36 -133t36 -133t97 -96.5t133 -35.5
t133 35.5zM247.5 193q-48.5 59 -48.5 157q0 102 50.5 158.5t131.5 56.5q86 0 134.5 -59t48.5 -156q0 -103 -50.5 -159.5t-132.5 -56.5q-85 0 -133.5 59zM429 268q18 28 18 81q0 52 -17.5 80.5t-48.5 28.5q-30 0 -47.5 -28t-17.5 -81q0 -51 17.5 -80t47.5 -29t48 28z" />
    <glyph glyph-name="u1F10C" unicode="&#x1f10c;" horiz-adv-x="764" 
d="M203 38q-82 48 -130.5 130t-48.5 179t48.5 179t130.5 130.5t179 48.5t179 -48.5t130.5 -130.5t48.5 -179t-48.5 -179t-130.5 -130t-179 -48t-179 48zM513.5 190.5q50.5 56.5 50.5 159.5q0 97 -48.5 156t-134.5 59q-81 0 -131.5 -56.5t-50.5 -158.5q0 -98 48.5 -157
t133.5 -59q82 0 132.5 56.5zM333.5 269q-17.5 29 -17.5 80q0 53 17.5 81t47.5 28q31 0 48.5 -28.5t17.5 -80.5q0 -53 -18 -81t-48 -28t-47.5 29z" />
    <glyph glyph-name="NULL" 
 />
    <glyph glyph-name="uni004A0301" horiz-adv-x="546" 
d="M2 0zM106.5 15q-58.5 24 -104.5 70l100 122q57 -61 127 -61q89 0 89 103v461h170v-457q0 -262 -256 -262q-67 0 -125.5 24zM471 761h-141l108 140h159z" />
    <glyph glyph-name="C.ita" horiz-adv-x="671" 
d="M130 68.5q-80 77.5 -80 226.5q0 116 46.5 213t131.5 154t196 57q73 0 139.5 -29t110.5 -103l-124 -111q-49 90 -134 90q-58 0 -103 -37.5t-69.5 -97.5t-24.5 -125q0 -78 35.5 -119.5t100.5 -41.5q87 0 152 74l98 -125q-102 -103 -260 -103q-135 0 -215 77.5z" />
    <glyph glyph-name="I.ita" horiz-adv-x="308" 
d="M205 0h-162l87 710h162z" />
    <glyph glyph-name="i.loclTRK" horiz-adv-x="274" 
d="M44 0zM215 0h-156v489h156v-489zM231 550zM70.5 576q-26.5 26 -26.5 64q0 37 26.5 62.5t66.5 25.5t67 -25.5t27 -62.5q0 -38 -27 -64t-67 -26t-66.5 26z" />
    <glyph glyph-name="uni006A0301" horiz-adv-x="267" 
d="M0 0zM-50 -188l25 125q21 -12 41 -12q22 0 32.5 13.5t10.5 43.5v507h156v-509q0 -98 -39 -142.5t-121 -44.5q-64 0 -105 19zM331 552zM207 552h-145l111 149l158 1z" />
    <glyph glyph-name="f.calt" horiz-adv-x="372" 
d="M74 0v363h-67v126h67v71q0 92 47.5 139t138.5 47q57 0 113 -18l-49 -121q-21 7 -42 7q-24 0 -37.5 -16t-13.5 -49v-60h117v-126h-117v-363h-157z" />
    <glyph glyph-name="j.calt" horiz-adv-x="267" 
d="M0 0zM-11 -200l16 127q4 -1 20 -1q20 0 27 14.5t7 48.5v500h156v-513q0 -91 -39 -137t-115 -46q-39 0 -72 7zM231 550zM70.5 576q-26.5 26 -26.5 64q0 37 26.5 62.5t66.5 25.5t67 -25.5t27 -62.5q0 -38 -27 -64t-67 -26t-66.5 26z" />
    <glyph glyph-name="uni0237.calt" horiz-adv-x="267" 
d="M-11 -200l16 127q4 -1 20 -1q20 0 27 14.5t7 48.5v500h156v-513q0 -91 -39 -137t-115 -46q-39 0 -72 7z" />
    <glyph glyph-name="jcircumflex.calt" horiz-adv-x="267" 
d="M0 0zM-11 -200l16 127q4 -1 20 -1q20 0 27 14.5t7 48.5v500h156v-513q0 -91 -39 -137t-115 -46q-39 0 -72 7zM317 548zM90 548h-133l95 149h168l97 -149h-136l-44 72h-2z" />
    <glyph glyph-name="germandbls.calt" horiz-adv-x="769" 
d="M51 0zM551 428q70 -28 111.5 -52t67.5 -64t26 -103q0 -78 -36 -126.5t-91 -70t-116 -21.5q-138 0 -237 67l72 140q85 -59 156 -59q36 0 56 17t20 42q0 28 -22 46t-83 39q-42 16 -71.5 29.5t-58.5 32.5l118 218l-2 4q-73 7 -115 7q-61 0 -95.5 -29t-34.5 -90l-1 -455h-164
l1 461q0 139 73.5 199t210.5 60q78 0 169 -13t176 -35z" />
    <glyph glyph-name="zero.tf" horiz-adv-x="586" 
d="M19 0zM147 33q-62 42 -95 121.5t-33 189.5q0 106 32.5 185.5t94.5 123t148 43.5q85 0 146.5 -42t94.5 -121.5t33 -188.5q0 -108 -32 -187.5t-94 -122.5t-148 -43q-85 0 -147 42zM372.5 193.5q28.5 50.5 28.5 150.5q0 92 -27.5 146t-79.5 54q-50 0 -78.5 -50.5
t-28.5 -149.5q0 -93 27.5 -147t79.5 -54q50 0 78.5 50.5z" />
    <glyph glyph-name="one.tf" horiz-adv-x="586" 
d="M407 687v-541h115v-146h-416v146h137v345l-120 -77l-78 120l233 153h129z" />
    <glyph glyph-name="two.tf" horiz-adv-x="586" 
d="M56 0zM68 0l-2 106l205 216q42 44 62 77.5t20 69.5q0 32 -21 54.5t-66 22.5q-36 0 -71 -15.5t-63 -38.5l-76 131q103 73 232 73q106 0 168 -54t62 -145q0 -121 -113 -238l-107 -109l1 -3h225v-147h-456z" />
    <glyph glyph-name="three.tf" horiz-adv-x="586" 
d="M44 0zM152.5 8.5q-59.5 17.5 -108.5 50.5l68 134q40 -30 77.5 -45t77.5 -15q48 0 73.5 19.5t25.5 54.5q0 36 -24 58.5t-69 22.5h-57v126h62q39 0 59 18.5t20 48.5q0 32 -24.5 51.5t-67.5 19.5q-66 0 -123 -47l-83 128q41 29 98.5 46t122.5 17q107 0 170 -48.5t63 -135.5
q0 -52 -23.5 -91.5t-61.5 -63.5v-3q49 -24 77.5 -66t28.5 -101q0 -94 -65.5 -145t-179.5 -51q-77 0 -136.5 17.5z" />
    <glyph glyph-name="four.tf" horiz-adv-x="586" 
d="M19 0zM468 0h-158v122h-291v97l323 468h126v-431h89v-134h-89v-122zM333 454l-141 -208h141v208z" />
    <glyph glyph-name="five.tf" horiz-adv-x="586" 
d="M43 0zM439 418.5q48 -27.5 74.5 -77.5t26.5 -116q0 -108 -69 -171t-196 -63q-130 0 -232 68l70 137q80 -58 158 -58q51 0 78.5 23.5t27.5 66.5q0 45 -30.5 68.5t-77.5 23.5q-56 0 -106 -34l-80 40l22 361h399v-146h-265l-7 -107q51 12 96 12q63 0 111 -27.5z" />
    <glyph glyph-name="six.tf" horiz-adv-x="586" 
d="M35 0zM445.5 419q50.5 -26 80.5 -76.5t30 -119.5q0 -109 -68.5 -170.5t-180.5 -61.5q-130 0 -201 90.5t-71 245.5q0 202 87 286t213 84q48 0 98 -11t88 -32l-63 -135q-62 35 -125 35q-58 0 -90.5 -36t-42.5 -112l2 -1q58 40 133 40q60 0 110.5 -26zM372 160q24 25 24 64
q0 42 -26 68t-67 26q-30 0 -58 -12.5t-48 -33.5q6 -63 36 -100t76 -37q39 0 63 25z" />
    <glyph glyph-name="seven.tf" horiz-adv-x="586" 
d="M72 0zM298 0h-172l221 542h-275v145h451v-106z" />
    <glyph glyph-name="eight.tf" horiz-adv-x="586" 
d="M34 0zM103.5 44q-69.5 53 -69.5 146q0 64 33.5 110.5t86.5 67.5v2q-39 16 -66 56t-27 92q0 85 64 131.5t167 46.5q104 0 168 -47t64 -131q0 -52 -26.5 -92.5t-66.5 -55.5v-2q55 -20 88 -66.5t33 -111.5q0 -95 -70 -147t-190 -52q-119 0 -188.5 53zM352 451.5
q22 17.5 22 47.5t-22 48t-60 18q-37 0 -59 -18t-22 -48q0 -29 21.5 -47t59.5 -18t60 17.5zM360 153.5q25 23.5 25 61.5t-25 62t-68 24q-42 0 -67 -23.5t-25 -62.5q0 -38 25 -61.5t67 -23.5q43 0 68 23.5z" />
    <glyph glyph-name="nine.tf" horiz-adv-x="586" 
d="M30 0zM478.5 606q70.5 -91 70.5 -249q0 -201 -87.5 -283.5t-215.5 -82.5q-115 0 -193 45l65 134q65 -37 128 -37q62 0 96 36.5t43 113.5h-1q-58 -40 -133 -40q-60 0 -110.5 26t-80.5 76t-30 119q0 110 68.5 171.5t180.5 61.5q129 0 199.5 -91zM216 395q26 -26 69 -26
q29 0 55.5 12.5t46.5 33.5q-6 62 -35.5 99.5t-72.5 37.5q-40 0 -64.5 -24.5t-24.5 -63.5q0 -43 26 -69z" />
    <glyph glyph-name="zero.tf.zero" horiz-adv-x="586" 
d="M19 0zM147 33q-62 42 -95 121.5t-33 189.5q0 106 32.5 185.5t94.5 123t148 43.5q85 0 146.5 -42t94.5 -121.5t33 -188.5q0 -108 -32 -187.5t-94 -122.5t-148 -43q-85 0 -147 42zM372.5 193.5q28.5 50.5 28.5 150.5q0 92 -27.5 146t-79.5 54q-50 0 -78.5 -50.5
t-28.5 -149.5q0 -93 27.5 -147t79.5 -54q50 0 78.5 50.5zM252.5 296q-17.5 17 -17.5 42q0 24 17.5 41.5t42.5 17.5t42.5 -17.5t17.5 -41.5q0 -25 -17.5 -42t-42.5 -17t-42.5 17z" />
    <glyph glyph-name="zero.zero" horiz-adv-x="623" 
d="M165 33q-62 42 -95 121.5t-33 189.5q0 106 32.5 185.5t94.5 123t148 43.5q85 0 146.5 -42t94.5 -121.5t33 -188.5q0 -108 -32 -187.5t-94 -122.5t-148 -43q-85 0 -147 42zM390.5 193.5q28.5 50.5 28.5 150.5q0 92 -27.5 146t-79.5 54q-50 0 -78.5 -50.5t-28.5 -149.5
q0 -93 27.5 -147t79.5 -54q50 0 78.5 50.5zM270.5 296q-17.5 17 -17.5 42q0 24 17.5 41.5t42.5 17.5t42.5 -17.5t17.5 -41.5q0 -25 -17.5 -42t-42.5 -17t-42.5 17z" />
    <glyph glyph-name="zero.dnom" horiz-adv-x="403" 
d="M67.5 50q-48.5 59 -48.5 157q0 102 50.5 158.5t131.5 56.5q86 0 134.5 -59t48.5 -156q0 -103 -50.5 -159.5t-132.5 -56.5q-85 0 -133.5 59zM249 125q18 28 18 81q0 52 -17.5 80.5t-48.5 28.5q-30 0 -47.5 -28t-17.5 -81q0 -51 17.5 -80t47.5 -29t48 28z" />
    <glyph glyph-name="one.dnom" horiz-adv-x="281" 
d="M234 0h-115v269l-56 -39l-57 88l140 94h88v-412z" />
    <glyph glyph-name="two.dnom" horiz-adv-x="330" 
d="M17 0l-1 76l122 126q25 25 37.5 43.5t12.5 34.5q0 31 -40 31q-39 0 -89 -33l-51 97q33 20 69 32t80 12q73 0 112 -33t39 -93q0 -36 -18 -70t-62 -74l-48 -43l1 -2h130v-104h-294z" />
    <glyph glyph-name="three.dnom" horiz-adv-x="342" 
d="M76.5 2q-36.5 9 -66.5 28l49 100q45 -36 95 -36q51 0 51 34q0 19 -13.5 28t-43.5 9h-26v84h29q26 0 38.5 9t12.5 24q0 33 -46 33q-45 0 -87 -27l-49 93q29 17 67.5 27.5t80.5 10.5q67 0 106 -30.5t39 -82.5q0 -59 -52 -92v-1q31 -14 48 -39t17 -61q0 -56 -40.5 -88
t-122.5 -32q-50 0 -86.5 9z" />
    <glyph glyph-name="four.dnom" horiz-adv-x="354" 
d="M288 412v-245h53v-99h-53v-68h-115v68h-167v69l192 275h90zM185 275l-82 -117h82v117z" />
    <glyph glyph-name="five.dnom" horiz-adv-x="338" 
d="M288.5 230.5q33.5 -35.5 33.5 -95.5q0 -66 -42.5 -104t-130.5 -38q-82 0 -141 37l49 99q43 -36 90 -36q57 0 57 48q0 23 -14 34t-39 11q-34 0 -62 -22l-59 23l15 225h253v-104h-159l-5 -50q32 8 61 8q60 0 93.5 -35.5z" />
    <glyph glyph-name="six.dnom" horiz-adv-x="353" 
d="M304.5 229.5q36.5 -33.5 36.5 -95.5q0 -68 -44 -105t-111 -37q-82 0 -125.5 52t-43.5 150q0 123 53 174t125 51q30 0 62.5 -7t54.5 -17l-34 -95q-35 19 -78 19q-35 0 -52 -18.5t-22 -53.5h1q37 16 74 16q67 0 103.5 -33.5zM219.5 105.5q12.5 11.5 12.5 28.5
q0 20 -15.5 32.5t-38.5 12.5q-28 0 -51 -18q9 -67 59 -67q21 0 33.5 11.5z" />
    <glyph glyph-name="seven.dnom" horiz-adv-x="311" 
d="M168 0h-125l126 307h-154v105h282v-76z" />
    <glyph glyph-name="eight.dnom" horiz-adv-x="363" 
d="M61.5 24.5q-43.5 32.5 -43.5 90.5q0 38 20.5 66t50.5 40v2q-20 9 -36.5 33t-16.5 52q0 54 40.5 82.5t105.5 28.5q66 0 105.5 -29t39.5 -82q0 -28 -16 -52t-36 -33v-2q31 -12 51 -40t20 -66q0 -58 -44 -90.5t-120 -32.5q-77 0 -120.5 32.5zM212.5 265.5
q11.5 9.5 11.5 26.5q0 16 -11.5 25.5t-30.5 9.5t-30.5 -9.5t-11.5 -25.5q0 -17 11.5 -26.5t30.5 -9.5t30.5 9.5zM216.5 99.5q12.5 11.5 12.5 30.5t-12.5 30.5t-34.5 11.5t-34.5 -11.5t-12.5 -30.5t12.5 -30.5t34.5 -11.5t34.5 11.5z" />
    <glyph glyph-name="nine.dnom" horiz-adv-x="359" 
d="M296 366.5q44 -52.5 44 -150.5q0 -122 -54 -173t-131 -51q-28 0 -61.5 6.5t-59.5 17.5l34 96q22 -11 45.5 -15.5t39.5 -4.5q36 0 54 18.5t23 53.5h-1q-35 -16 -74 -16q-66 0 -102.5 33t-36.5 94q0 69 44 106.5t110 37.5q82 0 126 -52.5zM140 243.5q16 -12.5 39 -12.5
q29 0 51 19q-9 67 -59 67q-21 0 -33.5 -11.5t-13.5 -29.5q0 -20 16 -32.5z" />
    <glyph glyph-name="zero.numr" horiz-adv-x="403" 
d="M19 288zM67.5 347q-48.5 59 -48.5 157q0 102 50.5 158.5t131.5 56.5q86 0 134.5 -59t48.5 -156q0 -103 -50.5 -159.5t-132.5 -56.5q-85 0 -133.5 59zM249 422q18 28 18 81q0 52 -17.5 80.5t-48.5 28.5q-30 0 -47.5 -28t-17.5 -81q0 -51 17.5 -80t47.5 -29t48 28z" />
    <glyph glyph-name="one.numr" horiz-adv-x="281" 
d="M6 298zM234 298h-115v269l-56 -39l-57 88l140 94h88v-412z" />
    <glyph glyph-name="two.numr" horiz-adv-x="330" 
d="M8 298zM17 298l-1 76l122 126q25 25 37.5 43.5t12.5 34.5q0 31 -40 31q-39 0 -89 -33l-51 97q33 20 69 32t80 12q73 0 112 -33t39 -93q0 -36 -18 -70t-62 -74l-48 -43l1 -2h130v-104h-294z" />
    </font>
</defs>
</svg>
